<?xml version="1.0" encoding="UTF-8" standalone="no"?><svg xmlns="http://www.w3.org/2000/svg" xmlns:xlink="http://www.w3.org/1999/xlink" contentScriptType="application/ecmascript" contentStyleType="text/css" height="971px" preserveAspectRatio="none" style="width:464px;height:971px;background:#FFFFFF;" version="1.1" viewBox="0 0 464 971" width="464px" zoomAndPan="magnify"><defs><filter height="300%" id="fpnda1xfzq7nl" width="300%" x="-1" y="-1"><feGaussianBlur result="blurOut" stdDeviation="2.0"/><feColorMatrix in="blurOut" result="blurOut2" type="matrix" values="0 0 0 0 0 0 0 0 0 0 0 0 0 0 0 0 0 0 .4 0"/><feOffset dx="4.0" dy="4.0" in="blurOut2" result="blurOut3"/><feBlend in="SourceGraphic" in2="blurOut3" mode="normal"/></filter></defs><g><!--MD5=[02e4b9b7573f1156f41e60aa5b4e25a4]
class Company--><rect codeLine="6" fill="#FEFECE" filter="url(#fpnda1xfzq7nl)" height="117.1797" id="Company" style="stroke:#A80036;stroke-width:1.5;" width="410" x="7" y="239"/><ellipse cx="181.25" cy="255" fill="#ADD1B2" rx="11" ry="11" style="stroke:#A80036;stroke-width:1.0;"/><path d="M183.25,251.5 Q183.4531,251 183.6875,250.75 Q183.9219,250.5 184.1875,250.5 Q184.6563,250.5 184.9531,250.7813 Q185.25,251.0625 185.25,251.7188 L185.25,253.2813 Q185.25,253.9375 184.9688,254.2188 Q184.6875,254.5 184.25,254.5 Q183.8594,254.5 183.6094,254.3281 Q183.3594,254.1563 183.25,253.7031 Q183.2031,253.3906 183.0313,253.2188 Q182.7188,252.8906 182.1563,252.7031 Q181.5938,252.5 181.0313,252.5 Q180.3281,252.5 179.7344,252.7813 Q179.1563,253.0625 178.7031,253.6875 Q178.25,254.3125 178.25,255.1719 L178.25,256.0938 Q178.25,257.125 179.0938,257.8125 Q179.9375,258.5 181.4375,258.5 Q182.3281,258.5 182.9531,258.2969 Q183.3125,258.1875 183.7188,257.8281 Q183.9844,257.625 184.125,257.5625 Q184.2656,257.5 184.4375,257.5 Q184.7656,257.5 185,257.7656 Q185.25,258.0156 185.25,258.375 Q185.25,258.7188 184.9063,259.125 Q184.4063,259.7188 183.6094,260.0469 Q182.5625,260.5 181.2813,260.5 Q179.7813,260.5 178.5781,259.9063 Q177.6094,259.4375 176.9219,258.4219 Q176.25,257.4063 176.25,256.2031 L176.25,255.1094 Q176.25,253.8594 176.8438,252.7656 Q177.4531,251.6719 178.5,251.0938 Q179.5625,250.5 180.75,250.5 Q181.4688,250.5 182.0938,250.75 Q182.7188,251 183.25,251.5 Z " fill="#000000"/><text fill="#000000" font-family="sans-serif" font-size="12" lengthAdjust="spacing" textLength="53" x="201.75" y="259.9102">Company</text><line style="stroke:#A80036;stroke-width:1.5;" x1="8" x2="416" y1="271" y2="271"/><text fill="#000000" font-family="sans-serif" font-size="11" lengthAdjust="spacing" textLength="93" x="13" y="286.4189">-String designation;</text><text fill="#000000" font-family="sans-serif" font-size="11" lengthAdjust="spacing" textLength="126" x="13" y="300.2549">-AuthFacade authFacade;</text><line style="stroke:#A80036;stroke-width:1.5;" x1="8" x2="416" y1="306.6719" y2="306.6719"/><text fill="#000000" font-family="sans-serif" font-size="11" lengthAdjust="spacing" textLength="398" x="13" y="322.0908">+Organization(name, VatNumber, webSite, phone, email, postalAddress, manager)</text><text fill="#000000" font-family="sans-serif" font-size="11" lengthAdjust="spacing" textLength="91" x="13" y="335.9268">+listVaccineType()</text><text fill="#000000" font-family="sans-serif" font-size="11" lengthAdjust="spacing" textLength="85" x="13" y="349.7627">+createVaccine()</text><!--MD5=[9bd1b76461a4c8de49e232f509682712]
class VaccineController--><rect codeLine="15" fill="#FEFECE" filter="url(#fpnda1xfzq7nl)" height="61.8359" id="VaccineController" style="stroke:#A80036;stroke-width:1.5;" width="129" x="147.5" y="116"/><ellipse cx="162.5" cy="132" fill="#ADD1B2" rx="11" ry="11" style="stroke:#A80036;stroke-width:1.0;"/><path d="M164.5,128.5 Q164.7031,128 164.9375,127.75 Q165.1719,127.5 165.4375,127.5 Q165.9063,127.5 166.2031,127.7813 Q166.5,128.0625 166.5,128.7188 L166.5,130.2813 Q166.5,130.9375 166.2188,131.2188 Q165.9375,131.5 165.5,131.5 Q165.1094,131.5 164.8594,131.3281 Q164.6094,131.1563 164.5,130.7031 Q164.4531,130.3906 164.2813,130.2188 Q163.9688,129.8906 163.4063,129.7031 Q162.8438,129.5 162.2813,129.5 Q161.5781,129.5 160.9844,129.7813 Q160.4063,130.0625 159.9531,130.6875 Q159.5,131.3125 159.5,132.1719 L159.5,133.0938 Q159.5,134.125 160.3438,134.8125 Q161.1875,135.5 162.6875,135.5 Q163.5781,135.5 164.2031,135.2969 Q164.5625,135.1875 164.9688,134.8281 Q165.2344,134.625 165.375,134.5625 Q165.5156,134.5 165.6875,134.5 Q166.0156,134.5 166.25,134.7656 Q166.5,135.0156 166.5,135.375 Q166.5,135.7188 166.1563,136.125 Q165.6563,136.7188 164.8594,137.0469 Q163.8125,137.5 162.5313,137.5 Q161.0313,137.5 159.8281,136.9063 Q158.8594,136.4375 158.1719,135.4219 Q157.5,134.4063 157.5,133.2031 L157.5,132.1094 Q157.5,130.8594 158.0938,129.7656 Q158.7031,128.6719 159.75,128.0938 Q160.8125,127.5 162,127.5 Q162.7188,127.5 163.3438,127.75 Q163.9688,128 164.5,128.5 Z " fill="#000000"/><text fill="#000000" font-family="sans-serif" font-size="12" lengthAdjust="spacing" textLength="97" x="176.5" y="136.9102">VaccineController</text><line style="stroke:#A80036;stroke-width:1.5;" x1="148.5" x2="275.5" y1="148" y2="148"/><line style="stroke:#A80036;stroke-width:1.5;" x1="148.5" x2="275.5" y1="156" y2="156"/><text fill="#000000" font-family="sans-serif" font-size="11" lengthAdjust="spacing" textLength="85" x="153.5" y="171.4189">+createVaccine()</text><!--MD5=[518607cfae964d1346a7ff62d75aeb94]
class VaccineUI--><rect codeLine="19" fill="#FEFECE" filter="url(#fpnda1xfzq7nl)" height="48" id="VaccineUI" style="stroke:#A80036;stroke-width:1.5;" width="87" x="168.5" y="7"/><ellipse cx="183.5" cy="23" fill="#ADD1B2" rx="11" ry="11" style="stroke:#A80036;stroke-width:1.0;"/><path d="M185.5,19.5 Q185.7031,19 185.9375,18.75 Q186.1719,18.5 186.4375,18.5 Q186.9063,18.5 187.2031,18.7813 Q187.5,19.0625 187.5,19.7188 L187.5,21.2813 Q187.5,21.9375 187.2188,22.2188 Q186.9375,22.5 186.5,22.5 Q186.1094,22.5 185.8594,22.3281 Q185.6094,22.1563 185.5,21.7031 Q185.4531,21.3906 185.2813,21.2188 Q184.9688,20.8906 184.4063,20.7031 Q183.8438,20.5 183.2813,20.5 Q182.5781,20.5 181.9844,20.7813 Q181.4063,21.0625 180.9531,21.6875 Q180.5,22.3125 180.5,23.1719 L180.5,24.0938 Q180.5,25.125 181.3438,25.8125 Q182.1875,26.5 183.6875,26.5 Q184.5781,26.5 185.2031,26.2969 Q185.5625,26.1875 185.9688,25.8281 Q186.2344,25.625 186.375,25.5625 Q186.5156,25.5 186.6875,25.5 Q187.0156,25.5 187.25,25.7656 Q187.5,26.0156 187.5,26.375 Q187.5,26.7188 187.1563,27.125 Q186.6563,27.7188 185.8594,28.0469 Q184.8125,28.5 183.5313,28.5 Q182.0313,28.5 180.8281,27.9063 Q179.8594,27.4375 179.1719,26.4219 Q178.5,25.4063 178.5,24.2031 L178.5,23.1094 Q178.5,21.8594 179.0938,20.7656 Q179.7031,19.6719 180.75,19.0938 Q181.8125,18.5 183,18.5 Q183.7188,18.5 184.3438,18.75 Q184.9688,19 185.5,19.5 Z " fill="#000000"/><text fill="#000000" font-family="sans-serif" font-size="12" lengthAdjust="spacing" textLength="55" x="197.5" y="27.9102">VaccineUI</text><line style="stroke:#A80036;stroke-width:1.5;" x1="169.5" x2="254.5" y1="39" y2="39"/><line style="stroke:#A80036;stroke-width:1.5;" x1="169.5" x2="254.5" y1="47" y2="47"/><!--MD5=[f1aa797bbb856f196dbabe5d61960c3a]
class VaccinationProcess--><rect codeLine="24" fill="#FEFECE" filter="url(#fpnda1xfzq7nl)" height="61.8359" id="VaccinationProcess" style="stroke:#A80036;stroke-width:1.5;" width="141" x="268.5" y="588"/><ellipse cx="283.5" cy="604" fill="#ADD1B2" rx="11" ry="11" style="stroke:#A80036;stroke-width:1.0;"/><path d="M285.5,600.5 Q285.7031,600 285.9375,599.75 Q286.1719,599.5 286.4375,599.5 Q286.9063,599.5 287.2031,599.7813 Q287.5,600.0625 287.5,600.7188 L287.5,602.2813 Q287.5,602.9375 287.2188,603.2188 Q286.9375,603.5 286.5,603.5 Q286.1094,603.5 285.8594,603.3281 Q285.6094,603.1563 285.5,602.7031 Q285.4531,602.3906 285.2813,602.2188 Q284.9688,601.8906 284.4063,601.7031 Q283.8438,601.5 283.2813,601.5 Q282.5781,601.5 281.9844,601.7813 Q281.4063,602.0625 280.9531,602.6875 Q280.5,603.3125 280.5,604.1719 L280.5,605.0938 Q280.5,606.125 281.3438,606.8125 Q282.1875,607.5 283.6875,607.5 Q284.5781,607.5 285.2031,607.2969 Q285.5625,607.1875 285.9688,606.8281 Q286.2344,606.625 286.375,606.5625 Q286.5156,606.5 286.6875,606.5 Q287.0156,606.5 287.25,606.7656 Q287.5,607.0156 287.5,607.375 Q287.5,607.7188 287.1563,608.125 Q286.6563,608.7188 285.8594,609.0469 Q284.8125,609.5 283.5313,609.5 Q282.0313,609.5 280.8281,608.9063 Q279.8594,608.4375 279.1719,607.4219 Q278.5,606.4063 278.5,605.2031 L278.5,604.1094 Q278.5,602.8594 279.0938,601.7656 Q279.7031,600.6719 280.75,600.0938 Q281.8125,599.5 283,599.5 Q283.7188,599.5 284.3438,599.75 Q284.9688,600 285.5,600.5 Z " fill="#000000"/><text fill="#000000" font-family="sans-serif" font-size="12" lengthAdjust="spacing" textLength="109" x="297.5" y="608.9102">VaccinationProcess</text><line style="stroke:#A80036;stroke-width:1.5;" x1="269.5" x2="408.5" y1="620" y2="620"/><text fill="#000000" font-family="sans-serif" font-size="11" lengthAdjust="spacing" textLength="78" x="274.5" y="635.4189">-recoveryPeriod</text><line style="stroke:#A80036;stroke-width:1.5;" x1="269.5" x2="408.5" y1="641.8359" y2="641.8359"/><!--MD5=[c59c99efa75f30327e326596f335a568]
class AgeGroup--><rect codeLine="28" fill="#FEFECE" filter="url(#fpnda1xfzq7nl)" height="75.6719" id="AgeGroup" style="stroke:#A80036;stroke-width:1.5;" width="87" x="295.5" y="728"/><ellipse cx="310.5" cy="744" fill="#ADD1B2" rx="11" ry="11" style="stroke:#A80036;stroke-width:1.0;"/><path d="M312.5,740.5 Q312.7031,740 312.9375,739.75 Q313.1719,739.5 313.4375,739.5 Q313.9063,739.5 314.2031,739.7813 Q314.5,740.0625 314.5,740.7188 L314.5,742.2813 Q314.5,742.9375 314.2188,743.2188 Q313.9375,743.5 313.5,743.5 Q313.1094,743.5 312.8594,743.3281 Q312.6094,743.1563 312.5,742.7031 Q312.4531,742.3906 312.2813,742.2188 Q311.9688,741.8906 311.4063,741.7031 Q310.8438,741.5 310.2813,741.5 Q309.5781,741.5 308.9844,741.7813 Q308.4063,742.0625 307.9531,742.6875 Q307.5,743.3125 307.5,744.1719 L307.5,745.0938 Q307.5,746.125 308.3438,746.8125 Q309.1875,747.5 310.6875,747.5 Q311.5781,747.5 312.2031,747.2969 Q312.5625,747.1875 312.9688,746.8281 Q313.2344,746.625 313.375,746.5625 Q313.5156,746.5 313.6875,746.5 Q314.0156,746.5 314.25,746.7656 Q314.5,747.0156 314.5,747.375 Q314.5,747.7188 314.1563,748.125 Q313.6563,748.7188 312.8594,749.0469 Q311.8125,749.5 310.5313,749.5 Q309.0313,749.5 307.8281,748.9063 Q306.8594,748.4375 306.1719,747.4219 Q305.5,746.4063 305.5,745.2031 L305.5,744.1094 Q305.5,742.8594 306.0938,741.7656 Q306.7031,740.6719 307.75,740.0938 Q308.8125,739.5 310,739.5 Q310.7188,739.5 311.3438,739.75 Q311.9688,740 312.5,740.5 Z " fill="#000000"/><text fill="#000000" font-family="sans-serif" font-size="12" lengthAdjust="spacing" textLength="55" x="324.5" y="748.9102">AgeGroup</text><line style="stroke:#A80036;stroke-width:1.5;" x1="296.5" x2="381.5" y1="760" y2="760"/><text fill="#000000" font-family="sans-serif" font-size="11" lengthAdjust="spacing" textLength="40" x="301.5" y="775.4189">-minAge</text><text fill="#000000" font-family="sans-serif" font-size="11" lengthAdjust="spacing" textLength="44" x="301.5" y="789.2549">-maxAge</text><line style="stroke:#A80036;stroke-width:1.5;" x1="296.5" x2="381.5" y1="795.6719" y2="795.6719"/><!--MD5=[03e3bb7aef77bf14822eb3fb6d15ab17]
class Dose--><rect codeLine="32" fill="#FEFECE" filter="url(#fpnda1xfzq7nl)" height="75.6719" id="Dose" style="stroke:#A80036;stroke-width:1.5;" width="77" x="239.5" y="882"/><ellipse cx="261.25" cy="898" fill="#ADD1B2" rx="11" ry="11" style="stroke:#A80036;stroke-width:1.0;"/><path d="M263.25,894.5 Q263.4531,894 263.6875,893.75 Q263.9219,893.5 264.1875,893.5 Q264.6563,893.5 264.9531,893.7813 Q265.25,894.0625 265.25,894.7188 L265.25,896.2813 Q265.25,896.9375 264.9688,897.2188 Q264.6875,897.5 264.25,897.5 Q263.8594,897.5 263.6094,897.3281 Q263.3594,897.1563 263.25,896.7031 Q263.2031,896.3906 263.0313,896.2188 Q262.7188,895.8906 262.1563,895.7031 Q261.5938,895.5 261.0313,895.5 Q260.3281,895.5 259.7344,895.7813 Q259.1563,896.0625 258.7031,896.6875 Q258.25,897.3125 258.25,898.1719 L258.25,899.0938 Q258.25,900.125 259.0938,900.8125 Q259.9375,901.5 261.4375,901.5 Q262.3281,901.5 262.9531,901.2969 Q263.3125,901.1875 263.7188,900.8281 Q263.9844,900.625 264.125,900.5625 Q264.2656,900.5 264.4375,900.5 Q264.7656,900.5 265,900.7656 Q265.25,901.0156 265.25,901.375 Q265.25,901.7188 264.9063,902.125 Q264.4063,902.7188 263.6094,903.0469 Q262.5625,903.5 261.2813,903.5 Q259.7813,903.5 258.5781,902.9063 Q257.6094,902.4375 256.9219,901.4219 Q256.25,900.4063 256.25,899.2031 L256.25,898.1094 Q256.25,896.8594 256.8438,895.7656 Q257.4531,894.6719 258.5,894.0938 Q259.5625,893.5 260.75,893.5 Q261.4688,893.5 262.0938,893.75 Q262.7188,894 263.25,894.5 Z " fill="#000000"/><text fill="#000000" font-family="sans-serif" font-size="12" lengthAdjust="spacing" textLength="30" x="276.75" y="902.9102">Dose</text><line style="stroke:#A80036;stroke-width:1.5;" x1="240.5" x2="315.5" y1="914" y2="914"/><text fill="#000000" font-family="sans-serif" font-size="11" lengthAdjust="spacing" textLength="65" x="245.5" y="929.4189">-doseNumber</text><text fill="#000000" font-family="sans-serif" font-size="11" lengthAdjust="spacing" textLength="40" x="245.5" y="943.2549">-dosage</text><line style="stroke:#A80036;stroke-width:1.5;" x1="240.5" x2="315.5" y1="949.6719" y2="949.6719"/><!--MD5=[0e501da62322464167c8ec4d233a6b7e]
class VaccineType--><rect codeLine="37" fill="#FEFECE" filter="url(#fpnda1xfzq7nl)" height="61.8359" id="VaccineType" style="stroke:#A80036;stroke-width:1.5;" width="101" x="132.5" y="588"/><ellipse cx="147.5" cy="604" fill="#ADD1B2" rx="11" ry="11" style="stroke:#A80036;stroke-width:1.0;"/><path d="M149.5,600.5 Q149.7031,600 149.9375,599.75 Q150.1719,599.5 150.4375,599.5 Q150.9063,599.5 151.2031,599.7813 Q151.5,600.0625 151.5,600.7188 L151.5,602.2813 Q151.5,602.9375 151.2188,603.2188 Q150.9375,603.5 150.5,603.5 Q150.1094,603.5 149.8594,603.3281 Q149.6094,603.1563 149.5,602.7031 Q149.4531,602.3906 149.2813,602.2188 Q148.9688,601.8906 148.4063,601.7031 Q147.8438,601.5 147.2813,601.5 Q146.5781,601.5 145.9844,601.7813 Q145.4063,602.0625 144.9531,602.6875 Q144.5,603.3125 144.5,604.1719 L144.5,605.0938 Q144.5,606.125 145.3438,606.8125 Q146.1875,607.5 147.6875,607.5 Q148.5781,607.5 149.2031,607.2969 Q149.5625,607.1875 149.9688,606.8281 Q150.2344,606.625 150.375,606.5625 Q150.5156,606.5 150.6875,606.5 Q151.0156,606.5 151.25,606.7656 Q151.5,607.0156 151.5,607.375 Q151.5,607.7188 151.1563,608.125 Q150.6563,608.7188 149.8594,609.0469 Q148.8125,609.5 147.5313,609.5 Q146.0313,609.5 144.8281,608.9063 Q143.8594,608.4375 143.1719,607.4219 Q142.5,606.4063 142.5,605.2031 L142.5,604.1094 Q142.5,602.8594 143.0938,601.7656 Q143.7031,600.6719 144.75,600.0938 Q145.8125,599.5 147,599.5 Q147.7188,599.5 148.3438,599.75 Q148.9688,600 149.5,600.5 Z " fill="#000000"/><text fill="#000000" font-family="sans-serif" font-size="12" lengthAdjust="spacing" textLength="69" x="161.5" y="608.9102">VaccineType</text><line style="stroke:#A80036;stroke-width:1.5;" x1="133.5" x2="232.5" y1="620" y2="620"/><text fill="#000000" font-family="sans-serif" font-size="11" lengthAdjust="spacing" textLength="42" x="138.5" y="635.4189">-disease</text><line style="stroke:#A80036;stroke-width:1.5;" x1="133.5" x2="232.5" y1="641.8359" y2="641.8359"/><!--MD5=[19e445fc4d3b48519cbe33da05496394]
class Vaccine--><rect codeLine="40" fill="#FEFECE" filter="url(#fpnda1xfzq7nl)" height="75.6719" id="Vaccine" style="stroke:#A80036;stroke-width:1.5;" width="75" x="250.5" y="434"/><ellipse cx="265.5" cy="450" fill="#ADD1B2" rx="11" ry="11" style="stroke:#A80036;stroke-width:1.0;"/><path d="M267.5,446.5 Q267.7031,446 267.9375,445.75 Q268.1719,445.5 268.4375,445.5 Q268.9063,445.5 269.2031,445.7813 Q269.5,446.0625 269.5,446.7188 L269.5,448.2813 Q269.5,448.9375 269.2188,449.2188 Q268.9375,449.5 268.5,449.5 Q268.1094,449.5 267.8594,449.3281 Q267.6094,449.1563 267.5,448.7031 Q267.4531,448.3906 267.2813,448.2188 Q266.9688,447.8906 266.4063,447.7031 Q265.8438,447.5 265.2813,447.5 Q264.5781,447.5 263.9844,447.7813 Q263.4063,448.0625 262.9531,448.6875 Q262.5,449.3125 262.5,450.1719 L262.5,451.0938 Q262.5,452.125 263.3438,452.8125 Q264.1875,453.5 265.6875,453.5 Q266.5781,453.5 267.2031,453.2969 Q267.5625,453.1875 267.9688,452.8281 Q268.2344,452.625 268.375,452.5625 Q268.5156,452.5 268.6875,452.5 Q269.0156,452.5 269.25,452.7656 Q269.5,453.0156 269.5,453.375 Q269.5,453.7188 269.1563,454.125 Q268.6563,454.7188 267.8594,455.0469 Q266.8125,455.5 265.5313,455.5 Q264.0313,455.5 262.8281,454.9063 Q261.8594,454.4375 261.1719,453.4219 Q260.5,452.4063 260.5,451.2031 L260.5,450.1094 Q260.5,448.8594 261.0938,447.7656 Q261.7031,446.6719 262.75,446.0938 Q263.8125,445.5 265,445.5 Q265.7188,445.5 266.3438,445.75 Q266.9688,446 267.5,446.5 Z " fill="#000000"/><text fill="#000000" font-family="sans-serif" font-size="12" lengthAdjust="spacing" textLength="43" x="279.5" y="454.9102">Vaccine</text><line style="stroke:#A80036;stroke-width:1.5;" x1="251.5" x2="324.5" y1="466" y2="466"/><text fill="#000000" font-family="sans-serif" font-size="11" lengthAdjust="spacing" textLength="30" x="256.5" y="481.4189">-name</text><text fill="#000000" font-family="sans-serif" font-size="11" lengthAdjust="spacing" textLength="52" x="256.5" y="495.2549">-lotNumber</text><line style="stroke:#A80036;stroke-width:1.5;" x1="251.5" x2="324.5" y1="501.6719" y2="501.6719"/><!--MD5=[4bec8ac568776347aae0f1471b21fd4f]
class TimeInterval--><rect codeLine="45" fill="#FEFECE" filter="url(#fpnda1xfzq7nl)" height="61.8359" id="TimeInterval" style="stroke:#A80036;stroke-width:1.5;" width="99" x="351.5" y="889"/><ellipse cx="366.5" cy="905" fill="#ADD1B2" rx="11" ry="11" style="stroke:#A80036;stroke-width:1.0;"/><path d="M368.5,901.5 Q368.7031,901 368.9375,900.75 Q369.1719,900.5 369.4375,900.5 Q369.9063,900.5 370.2031,900.7813 Q370.5,901.0625 370.5,901.7188 L370.5,903.2813 Q370.5,903.9375 370.2188,904.2188 Q369.9375,904.5 369.5,904.5 Q369.1094,904.5 368.8594,904.3281 Q368.6094,904.1563 368.5,903.7031 Q368.4531,903.3906 368.2813,903.2188 Q367.9688,902.8906 367.4063,902.7031 Q366.8438,902.5 366.2813,902.5 Q365.5781,902.5 364.9844,902.7813 Q364.4063,903.0625 363.9531,903.6875 Q363.5,904.3125 363.5,905.1719 L363.5,906.0938 Q363.5,907.125 364.3438,907.8125 Q365.1875,908.5 366.6875,908.5 Q367.5781,908.5 368.2031,908.2969 Q368.5625,908.1875 368.9688,907.8281 Q369.2344,907.625 369.375,907.5625 Q369.5156,907.5 369.6875,907.5 Q370.0156,907.5 370.25,907.7656 Q370.5,908.0156 370.5,908.375 Q370.5,908.7188 370.1563,909.125 Q369.6563,909.7188 368.8594,910.0469 Q367.8125,910.5 366.5313,910.5 Q365.0313,910.5 363.8281,909.9063 Q362.8594,909.4375 362.1719,908.4219 Q361.5,907.4063 361.5,906.2031 L361.5,905.1094 Q361.5,903.8594 362.0938,902.7656 Q362.7031,901.6719 363.75,901.0938 Q364.8125,900.5 366,900.5 Q366.7188,900.5 367.3438,900.75 Q367.9688,901 368.5,901.5 Z " fill="#000000"/><text fill="#000000" font-family="sans-serif" font-size="12" lengthAdjust="spacing" textLength="67" x="380.5" y="909.9102">TimeInterval</text><line style="stroke:#A80036;stroke-width:1.5;" x1="352.5" x2="449.5" y1="921" y2="921"/><text fill="#000000" font-family="sans-serif" font-size="11" lengthAdjust="spacing" textLength="49" x="357.5" y="936.4189">-numDays</text><line style="stroke:#A80036;stroke-width:1.5;" x1="352.5" x2="449.5" y1="942.8359" y2="942.8359"/><!--MD5=[4757629cf05d965cf9f7ac16e234db83]
link VaccineUI to VaccineController--><path codeLine="49" d="M212,55.07 C212,71.01 212,92.51 212,110.6 " fill="none" id="VaccineUI-to-VaccineController" style="stroke:#A80036;stroke-width:1.0;stroke-dasharray:7.0,7.0;"/><polygon fill="#A80036" points="212,115.61,216,106.61,212,110.61,208,106.61,212,115.61" style="stroke:#A80036;stroke-width:1.0;"/><!--MD5=[bdc6a4818735376eac5e081dadc39218]
link VaccineController to Company--><path codeLine="50" d="M212,178.05 C212,194.01 212,214.25 212,233.47 " fill="none" id="VaccineController-to-Company" style="stroke:#A80036;stroke-width:1.0;stroke-dasharray:7.0,7.0;"/><polygon fill="#A80036" points="212,238.85,216,229.85,212,233.85,208,229.85,212,238.85" style="stroke:#A80036;stroke-width:1.0;"/><!--MD5=[05986564e1c13a00611587b35563d868]
link Company to VaccineType--><path codeLine="52" d="M206.75,356.36 C200.77,422.21 191.2,527.7 186.23,582.45 " fill="none" id="Company-to-VaccineType" style="stroke:#A80036;stroke-width:1.0;"/><polygon fill="#A80036" points="185.76,587.58,190.5406,578.9692,186.2024,582.5996,182.572,578.2614,185.76,587.58" style="stroke:#A80036;stroke-width:1.0;"/><text fill="#000000" font-family="sans-serif" font-size="13" lengthAdjust="spacing" textLength="30" x="201" y="477.4951">owns</text><text fill="#000000" font-family="sans-serif" font-size="13" lengthAdjust="spacing" textLength="7" x="198.7383" y="377.5957">1</text><text fill="#000000" font-family="sans-serif" font-size="13" lengthAdjust="spacing" textLength="5" x="180.8136" y="576.9979">*</text><!--MD5=[c29c8d42883934cbaf5793c72a334947]
link Company to Vaccine--><path codeLine="53" d="M237.52,356.42 C248.03,380.27 259.97,407.37 269.59,429.23 " fill="none" id="Company-to-Vaccine" style="stroke:#A80036;stroke-width:1.0;"/><polygon fill="#A80036" points="271.61,433.81,271.6415,423.9612,269.5939,429.2345,264.3206,427.1869,271.61,433.81" style="stroke:#A80036;stroke-width:1.0;"/><text fill="#000000" font-family="sans-serif" font-size="13" lengthAdjust="spacing" textLength="30" x="258" y="400.4951">owns</text><text fill="#000000" font-family="sans-serif" font-size="13" lengthAdjust="spacing" textLength="7" x="233.0661" y="377.6627">1</text><text fill="#000000" font-family="sans-serif" font-size="13" lengthAdjust="spacing" textLength="5" x="263.2452" y="423.1381">*</text><!--MD5=[ad53276a02bf0f65971002ced984ee45]
link Vaccine to VaccinationProcess--><path codeLine="55" d="M301.13,510.34 C308.98,532.65 318.89,560.82 326.6,582.75 " fill="none" id="Vaccine-to-VaccinationProcess" style="stroke:#A80036;stroke-width:1.0;"/><polygon fill="#A80036" points="328.31,587.62,329.1083,577.8036,326.6563,582.9014,321.5585,580.4494,328.31,587.62" style="stroke:#A80036;stroke-width:1.0;"/><text fill="#000000" font-family="sans-serif" font-size="13" lengthAdjust="spacing" textLength="21" x="318" y="554.4951">has</text><text fill="#000000" font-family="sans-serif" font-size="13" lengthAdjust="spacing" textLength="7" x="295.6648" y="531.2747">1</text><text fill="#000000" font-family="sans-serif" font-size="13" lengthAdjust="spacing" textLength="7" x="318.3833" y="577.0462">1</text><!--MD5=[3568623adf67b2630dce9e60c05bd02a]
link Vaccine to VaccineType--><path codeLine="56" d="M260.96,510.34 C244.67,532.84 224.06,561.3 208.12,583.31 " fill="none" id="Vaccine-to-VaccineType" style="stroke:#A80036;stroke-width:1.0;"/><polygon fill="#A80036" points="205,587.62,213.5191,582.6779,207.9332,583.5708,207.0404,577.9848,205,587.62" style="stroke:#A80036;stroke-width:1.0;"/><text fill="#000000" font-family="sans-serif" font-size="13" lengthAdjust="spacing" textLength="21" x="240" y="554.4951">has</text><text fill="#000000" font-family="sans-serif" font-size="13" lengthAdjust="spacing" textLength="5" x="251.2521" y="531.2747">*</text><text fill="#000000" font-family="sans-serif" font-size="13" lengthAdjust="spacing" textLength="7" x="201.8156" y="577.0462">1</text><!--MD5=[4043e158886bce18152cac1904b53f75]
link VaccinationProcess to AgeGroup--><path codeLine="57" d="M339,650.04 C339,671.02 339,699.32 339,722.59 " fill="none" id="VaccinationProcess-to-AgeGroup" style="stroke:#A80036;stroke-width:1.0;"/><polygon fill="#A80036" points="339,727.78,343,718.78,339,722.78,335,718.78,339,727.78" style="stroke:#A80036;stroke-width:1.0;"/><text fill="#000000" font-family="sans-serif" font-size="13" lengthAdjust="spacing" textLength="21" x="340" y="694.4951">has</text><text fill="#000000" font-family="sans-serif" font-size="13" lengthAdjust="spacing" textLength="7" x="331.3109" y="671.2719">1</text><text fill="#000000" font-family="sans-serif" font-size="13" lengthAdjust="spacing" textLength="5" x="333.5547" y="717.1027">*</text><!--MD5=[c90493d2ab8c16e176651ebb6b817e7f]
link AgeGroup to TimeInterval--><path codeLine="58" d="M354.17,804.18 C364.12,828.57 377.04,860.25 386.79,884.16 " fill="none" id="AgeGroup-to-TimeInterval" style="stroke:#A80036;stroke-width:1.0;"/><polygon fill="#A80036" points="388.69,888.83,388.9987,878.986,386.8035,884.1995,381.59,882.0044,388.69,888.83" style="stroke:#A80036;stroke-width:1.0;"/><text fill="#000000" font-family="sans-serif" font-size="13" lengthAdjust="spacing" textLength="21" x="372" y="848.4951">has</text><text fill="#000000" font-family="sans-serif" font-size="13" lengthAdjust="spacing" textLength="7" x="349.0299" y="825.0892">1</text><text fill="#000000" font-family="sans-serif" font-size="13" lengthAdjust="spacing" textLength="7" x="378.4292" y="878.2995">1</text><!--MD5=[a9e6824fad0c7c16d6f9705016e58ddd]
link AgeGroup to Dose--><path codeLine="59" d="M324.08,804.18 C315.22,826.26 303.97,854.3 294.8,877.15 " fill="none" id="AgeGroup-to-Dose" style="stroke:#A80036;stroke-width:1.0;"/><polygon fill="#A80036" points="292.87,881.94,299.9264,875.0693,294.727,877.2976,292.4986,872.0981,292.87,881.94" style="stroke:#A80036;stroke-width:1.0;"/><text fill="#000000" font-family="sans-serif" font-size="13" lengthAdjust="spacing" textLength="21" x="312" y="848.4951">has</text><text fill="#000000" font-family="sans-serif" font-size="13" lengthAdjust="spacing" textLength="7" x="314.1443" y="825.0892">1</text><text fill="#000000" font-family="sans-serif" font-size="13" lengthAdjust="spacing" textLength="5" x="290.1507" y="871.0055">*</text><!--MD5=[9e795b9416444c653ec21373dc99573d]
@startuml
skinparam classAttributeIconSize 0




class Company {
    -String designation;
    -AuthFacade authFacade;
   +Organization(name, VatNumber, webSite, phone, email, postalAddress, manager)
   +listVaccineType()
   +createVaccine()
 }


 class VaccineController {
  +createVaccine()
 }

 class VaccineUI {

 }


class VaccinationProcess{
    -recoveryPeriod
}

class AgeGroup{
    -minAge
    -maxAge
}
class Dose{
    -doseNumber
    -dosage
}

class VaccineType{
    -disease
}
class Vaccine{
    -name
    -lotNumber
}

class TimeInterval{
    -numDays
}

 VaccineUI ..> VaccineController
 VaccineController ..> Company

 Company "1" - -> "*" VaccineType : owns
 Company "1" - -> "*" Vaccine : owns

 Vaccine "1" - -> "1" VaccinationProcess: has
 Vaccine "*" - -> "1" VaccineType: has
 VaccinationProcess "1" - -> "*" AgeGroup: has
 AgeGroup "1" - -> "1" TimeInterval: has
 AgeGroup "1" - -> "*" Dose: has



@enduml

PlantUML version 1.2022.1(Tue Feb 01 18:19:58 GMT 2022)
(GPL source distribution)
Java Runtime: OpenJDK Runtime Environment
JVM: OpenJDK 64-Bit Server VM
Default Encoding: Cp1252
Language: en
Country: GB
--></g></svg>