<?xml version="1.0" encoding="UTF-8" standalone="no"?><svg xmlns="http://www.w3.org/2000/svg" xmlns:xlink="http://www.w3.org/1999/xlink" contentScriptType="application/ecmascript" contentStyleType="text/css" height="575px" preserveAspectRatio="none" style="width:430px;height:575px;background:#FFFFFF;" version="1.1" viewBox="0 0 430 575" width="430px" zoomAndPan="magnify"><defs><filter height="300%" id="fp1q81xeiwfc8" width="300%" x="-1" y="-1"><feGaussianBlur result="blurOut" stdDeviation="2.0"/><feColorMatrix in="blurOut" result="blurOut2" type="matrix" values="0 0 0 0 0 0 0 0 0 0 0 0 0 0 0 0 0 0 .4 0"/><feOffset dx="4.0" dy="4.0" in="blurOut2" result="blurOut3"/><feBlend in="SourceGraphic" in2="blurOut3" mode="normal"/></filter></defs><g><rect fill="#FFFFFF" filter="url(#fp1q81xeiwfc8)" height="372.5703" style="stroke:#A80036;stroke-width:1.0;" width="10" x="44.5" y="99.6094"/><rect fill="#FFFFFF" filter="url(#fp1q81xeiwfc8)" height="30.3516" style="stroke:#A80036;stroke-width:1.0;" width="10" x="381.5" y="121.9609"/><rect fill="#FFFFFF" filter="url(#fp1q81xeiwfc8)" height="30.3516" style="stroke:#A80036;stroke-width:1.0;" width="10" x="381.5" y="182.6641"/><rect fill="#FFFFFF" filter="url(#fp1q81xeiwfc8)" height="30.3516" style="stroke:#A80036;stroke-width:1.0;" width="10" x="381.5" y="243.3672"/><rect fill="#FFFFFF" filter="url(#fp1q81xeiwfc8)" height="46.7031" style="stroke:#A80036;stroke-width:1.0;" width="10" x="381.5" y="304.0703"/><rect fill="#FFFFFF" filter="url(#fp1q81xeiwfc8)" height="30.3516" style="stroke:#A80036;stroke-width:1.0;" width="10" x="381.5" y="381.125"/><rect fill="#FFFFFF" filter="url(#fp1q81xeiwfc8)" height="30.3516" style="stroke:#A80036;stroke-width:1.0;" width="10" x="381.5" y="441.8281"/><line style="stroke:#A80036;stroke-width:1.0;stroke-dasharray:5.0,5.0;" x1="49" x2="49" y1="89.6094" y2="490.1797"/><line style="stroke:#A80036;stroke-width:1.0;stroke-dasharray:5.0,5.0;" x1="386.5" x2="386.5" y1="89.6094" y2="490.1797"/><text fill="#000000" font-family="sans-serif" font-size="14" lengthAdjust="spacing" textLength="83" x="5" y="86.5332">Administrator</text><ellipse cx="49.5" cy="15" fill="#FEFECE" filter="url(#fp1q81xeiwfc8)" rx="8" ry="8" style="stroke:#A80036;stroke-width:2.0;"/><path d="M49.5,23 L49.5,50 M36.5,31 L62.5,31 M49.5,50 L36.5,65 M49.5,50 L62.5,65 " fill="none" filter="url(#fp1q81xeiwfc8)" style="stroke:#A80036;stroke-width:2.0;"/><text fill="#000000" font-family="sans-serif" font-size="14" lengthAdjust="spacing" textLength="83" x="5" y="503.7129">Administrator</text><ellipse cx="49.5" cy="516.7891" fill="#FEFECE" filter="url(#fp1q81xeiwfc8)" rx="8" ry="8" style="stroke:#A80036;stroke-width:2.0;"/><path d="M49.5,524.7891 L49.5,551.7891 M36.5,532.7891 L62.5,532.7891 M49.5,551.7891 L36.5,566.7891 M49.5,551.7891 L62.5,566.7891 " fill="none" filter="url(#fp1q81xeiwfc8)" style="stroke:#A80036;stroke-width:2.0;"/><rect fill="#FEFECE" filter="url(#fp1q81xeiwfc8)" height="31.6094" style="stroke:#A80036;stroke-width:1.5;" width="64" x="352.5" y="53"/><text fill="#000000" font-family="sans-serif" font-size="14" lengthAdjust="spacing" textLength="50" x="359.5" y="74.5332">:System</text><rect fill="#FEFECE" filter="url(#fp1q81xeiwfc8)" height="31.6094" style="stroke:#A80036;stroke-width:1.5;" width="64" x="352.5" y="489.1797"/><text fill="#000000" font-family="sans-serif" font-size="14" lengthAdjust="spacing" textLength="50" x="359.5" y="510.7129">:System</text><rect fill="#FFFFFF" filter="url(#fp1q81xeiwfc8)" height="372.5703" style="stroke:#A80036;stroke-width:1.0;" width="10" x="44.5" y="99.6094"/><rect fill="#FFFFFF" filter="url(#fp1q81xeiwfc8)" height="30.3516" style="stroke:#A80036;stroke-width:1.0;" width="10" x="381.5" y="121.9609"/><rect fill="#FFFFFF" filter="url(#fp1q81xeiwfc8)" height="30.3516" style="stroke:#A80036;stroke-width:1.0;" width="10" x="381.5" y="182.6641"/><rect fill="#FFFFFF" filter="url(#fp1q81xeiwfc8)" height="30.3516" style="stroke:#A80036;stroke-width:1.0;" width="10" x="381.5" y="243.3672"/><rect fill="#FFFFFF" filter="url(#fp1q81xeiwfc8)" height="46.7031" style="stroke:#A80036;stroke-width:1.0;" width="10" x="381.5" y="304.0703"/><rect fill="#FFFFFF" filter="url(#fp1q81xeiwfc8)" height="30.3516" style="stroke:#A80036;stroke-width:1.0;" width="10" x="381.5" y="381.125"/><rect fill="#FFFFFF" filter="url(#fp1q81xeiwfc8)" height="30.3516" style="stroke:#A80036;stroke-width:1.0;" width="10" x="381.5" y="441.8281"/><polygon fill="#A80036" points="369.5,117.9609,379.5,121.9609,369.5,125.9609,373.5,121.9609" style="stroke:#A80036;stroke-width:1.0;"/><line style="stroke:#A80036;stroke-width:1.0;" x1="54.5" x2="375.5" y1="121.9609" y2="121.9609"/><text fill="#000000" font-family="sans-serif" font-size="13" font-weight="bold" lengthAdjust="spacing" textLength="7" x="61.5" y="117.1045">1</text><text fill="#000000" font-family="sans-serif" font-size="13" lengthAdjust="spacing" textLength="168" x="72.5" y="117.1045">asks to create a new vaccine</text><polygon fill="#A80036" points="65.5,148.3125,55.5,152.3125,65.5,156.3125,61.5,152.3125" style="stroke:#A80036;stroke-width:1.0;"/><line style="stroke:#A80036;stroke-width:1.0;stroke-dasharray:2.0,2.0;" x1="59.5" x2="385.5" y1="152.3125" y2="152.3125"/><text fill="#000000" font-family="sans-serif" font-size="13" font-weight="bold" lengthAdjust="spacing" textLength="7" x="71.5" y="147.4561">2</text><text fill="#000000" font-family="sans-serif" font-size="13" lengthAdjust="spacing" textLength="188" x="82.5" y="147.4561">requests data (name,lot number)</text><polygon fill="#A80036" points="369.5,178.6641,379.5,182.6641,369.5,186.6641,373.5,182.6641" style="stroke:#A80036;stroke-width:1.0;"/><line style="stroke:#A80036;stroke-width:1.0;" x1="54.5" x2="375.5" y1="182.6641" y2="182.6641"/><text fill="#000000" font-family="sans-serif" font-size="13" font-weight="bold" lengthAdjust="spacing" textLength="7" x="61.5" y="177.8076">3</text><text fill="#000000" font-family="sans-serif" font-size="13" lengthAdjust="spacing" textLength="122" x="72.5" y="177.8076">types requested data</text><polygon fill="#A80036" points="65.5,209.0156,55.5,213.0156,65.5,217.0156,61.5,213.0156" style="stroke:#A80036;stroke-width:1.0;"/><line style="stroke:#A80036;stroke-width:1.0;stroke-dasharray:2.0,2.0;" x1="59.5" x2="385.5" y1="213.0156" y2="213.0156"/><text fill="#000000" font-family="sans-serif" font-size="13" font-weight="bold" lengthAdjust="spacing" textLength="7" x="71.5" y="208.1592">4</text><text fill="#000000" font-family="sans-serif" font-size="13" lengthAdjust="spacing" textLength="270" x="82.5" y="208.1592">shows vaccine types list and ask to select one</text><polygon fill="#A80036" points="369.5,239.3672,379.5,243.3672,369.5,247.3672,373.5,243.3672" style="stroke:#A80036;stroke-width:1.0;"/><line style="stroke:#A80036;stroke-width:1.0;" x1="54.5" x2="375.5" y1="243.3672" y2="243.3672"/><text fill="#000000" font-family="sans-serif" font-size="13" font-weight="bold" lengthAdjust="spacing" textLength="7" x="61.5" y="238.5107">5</text><text fill="#000000" font-family="sans-serif" font-size="13" lengthAdjust="spacing" textLength="129" x="72.5" y="238.5107">selects a vaccine type</text><polygon fill="#A80036" points="65.5,269.7188,55.5,273.7188,65.5,277.7188,61.5,273.7188" style="stroke:#A80036;stroke-width:1.0;"/><line style="stroke:#A80036;stroke-width:1.0;stroke-dasharray:2.0,2.0;" x1="59.5" x2="385.5" y1="273.7188" y2="273.7188"/><text fill="#000000" font-family="sans-serif" font-size="13" font-weight="bold" lengthAdjust="spacing" textLength="7" x="71.5" y="268.8623">6</text><text fill="#000000" font-family="sans-serif" font-size="13" lengthAdjust="spacing" textLength="236" x="82.5" y="268.8623">shows all data and requests confirmation</text><polygon fill="#A80036" points="369.5,300.0703,379.5,304.0703,369.5,308.0703,373.5,304.0703" style="stroke:#A80036;stroke-width:1.0;"/><line style="stroke:#A80036;stroke-width:1.0;" x1="54.5" x2="375.5" y1="304.0703" y2="304.0703"/><text fill="#000000" font-family="sans-serif" font-size="13" font-weight="bold" lengthAdjust="spacing" textLength="7" x="61.5" y="299.2139">7</text><text fill="#000000" font-family="sans-serif" font-size="13" lengthAdjust="spacing" textLength="100" x="72.5" y="299.2139">confirms the data</text><polygon fill="#A80036" points="65.5,346.7734,55.5,350.7734,65.5,354.7734,61.5,350.7734" style="stroke:#A80036;stroke-width:1.0;"/><line style="stroke:#A80036;stroke-width:1.0;stroke-dasharray:2.0,2.0;" x1="59.5" x2="385.5" y1="350.7734" y2="350.7734"/><text fill="#000000" font-family="sans-serif" font-size="13" font-weight="bold" lengthAdjust="spacing" textLength="7" x="71.5" y="337.7412">8</text><text fill="#000000" font-family="sans-serif" font-size="13" lengthAdjust="spacing" textLength="215" x="82.5" y="329.5654">requests data for vaccination process</text><text fill="#000000" font-family="sans-serif" font-size="13" lengthAdjust="spacing" textLength="292" x="82.5" y="345.917">(recoveryPeriod,minAge,maxAge,numDaysInterval)</text><polygon fill="#A80036" points="369.5,377.125,379.5,381.125,369.5,385.125,373.5,381.125" style="stroke:#A80036;stroke-width:1.0;"/><line style="stroke:#A80036;stroke-width:1.0;" x1="54.5" x2="375.5" y1="381.125" y2="381.125"/><text fill="#000000" font-family="sans-serif" font-size="13" font-weight="bold" lengthAdjust="spacing" textLength="7" x="61.5" y="376.2686">9</text><text fill="#000000" font-family="sans-serif" font-size="13" lengthAdjust="spacing" textLength="122" x="72.5" y="376.2686">types requested data</text><polygon fill="#A80036" points="65.5,407.4766,55.5,411.4766,65.5,415.4766,61.5,411.4766" style="stroke:#A80036;stroke-width:1.0;"/><line style="stroke:#A80036;stroke-width:1.0;stroke-dasharray:2.0,2.0;" x1="59.5" x2="385.5" y1="411.4766" y2="411.4766"/><text fill="#000000" font-family="sans-serif" font-size="13" font-weight="bold" lengthAdjust="spacing" textLength="14" x="71.5" y="406.6201">10</text><text fill="#000000" font-family="sans-serif" font-size="13" lengthAdjust="spacing" textLength="236" x="89.5" y="406.6201">shows all data and requests confirmation</text><polygon fill="#A80036" points="369.5,437.8281,379.5,441.8281,369.5,445.8281,373.5,441.8281" style="stroke:#A80036;stroke-width:1.0;"/><line style="stroke:#A80036;stroke-width:1.0;" x1="54.5" x2="375.5" y1="441.8281" y2="441.8281"/><text fill="#000000" font-family="sans-serif" font-size="13" font-weight="bold" lengthAdjust="spacing" textLength="14" x="61.5" y="436.9717">11</text><text fill="#000000" font-family="sans-serif" font-size="13" lengthAdjust="spacing" textLength="78" x="79.5" y="436.9717">confirms data</text><polygon fill="#A80036" points="60.5,468.1797,50.5,472.1797,60.5,476.1797,56.5,472.1797" style="stroke:#A80036;stroke-width:1.0;"/><line style="stroke:#A80036;stroke-width:1.0;stroke-dasharray:2.0,2.0;" x1="54.5" x2="385.5" y1="472.1797" y2="472.1797"/><text fill="#000000" font-family="sans-serif" font-size="13" font-weight="bold" lengthAdjust="spacing" textLength="14" x="66.5" y="467.3232">12</text><text fill="#000000" font-family="sans-serif" font-size="13" lengthAdjust="spacing" textLength="152" x="84.5" y="467.3232">informs operation success</text><!--MD5=[736c2a87dde67b7a0e1510a82359a8fd]
@startuml
autonumber
actor "Administrator" as OE

activate OE
OE -> ":System" : asks to create a new vaccine
activate ":System"
":System" - -> OE : requests data (name,lot number)
deactivate ":System"

OE -> ":System" : types requested data
activate ":System"
":System" - -> OE : shows vaccine types list and ask to select one
deactivate ":System"

OE -> ":System" : selects a vaccine type
activate ":System"
":System" - -> OE : shows all data and requests confirmation
deactivate ":System"
OE -> ":System" : confirms the data

activate ":System"
":System" - -> OE : requests data for vaccination process \n(recoveryPeriod,minAge,maxAge,numDaysInterval)
deactivate ":System"

OE -> ":System" : types requested data
activate ":System"
":System" - -> OE : shows all data and requests confirmation
deactivate ":System"
OE -> ":System" : confirms data
activate ":System"
":System" - -> OE : informs operation success
deactivate ":System"



deactivate OE

@enduml

PlantUML version 1.2022.1(Tue Feb 01 18:19:58 GMT 2022)
(GPL source distribution)
Java Runtime: OpenJDK Runtime Environment
JVM: OpenJDK 64-Bit Server VM
Default Encoding: Cp1252
Language: en
Country: GB
--></g></svg>