<?xml version="1.0" encoding="UTF-8" standalone="no"?><svg xmlns="http://www.w3.org/2000/svg" xmlns:xlink="http://www.w3.org/1999/xlink" contentScriptType="application/ecmascript" contentStyleType="text/css" height="701px" preserveAspectRatio="none" style="width:2209px;height:701px;background:#FFFFFF;" version="1.1" viewBox="0 0 2209 701" width="2209px" zoomAndPan="magnify"><defs><filter height="300%" id="fctxa7c9klcrc" width="300%" x="-1" y="-1"><feGaussianBlur result="blurOut" stdDeviation="2.0"/><feColorMatrix in="blurOut" result="blurOut2" type="matrix" values="0 0 0 0 0 0 0 0 0 0 0 0 0 0 0 0 0 0 .4 0"/><feOffset dx="4.0" dy="4.0" in="blurOut2" result="blurOut3"/><feBlend in="SourceGraphic" in2="blurOut3" mode="normal"/></filter></defs><g><!--MD5=[5d2bdee92db0d01b75732190da037553]
class Coordinator--><rect codeLine="8" fill="#FEFECE" filter="url(#fctxa7c9klcrc)" height="40" id="Coordinator" style="stroke:#A80036;stroke-width:1.5;" width="97" x="1306" y="224.3564"/><ellipse cx="1321" cy="240.3564" fill="#ADD1B2" rx="11" ry="11" style="stroke:#A80036;stroke-width:1.0;"/><path d="M1323,236.8564 Q1323.2031,236.3564 1323.4375,236.1064 Q1323.6719,235.8564 1323.9375,235.8564 Q1324.4063,235.8564 1324.7031,236.1377 Q1325,236.4189 1325,237.0752 L1325,238.6377 Q1325,239.2939 1324.7188,239.5752 Q1324.4375,239.8564 1324,239.8564 Q1323.6094,239.8564 1323.3594,239.6846 Q1323.1094,239.5127 1323,239.0596 Q1322.9531,238.7471 1322.7813,238.5752 Q1322.4688,238.2471 1321.9063,238.0596 Q1321.3438,237.8564 1320.7813,237.8564 Q1320.0781,237.8564 1319.4844,238.1377 Q1318.9063,238.4189 1318.4531,239.0439 Q1318,239.6689 1318,240.5283 L1318,241.4502 Q1318,242.4814 1318.8438,243.1689 Q1319.6875,243.8564 1321.1875,243.8564 Q1322.0781,243.8564 1322.7031,243.6533 Q1323.0625,243.5439 1323.4688,243.1846 Q1323.7344,242.9814 1323.875,242.9189 Q1324.0156,242.8564 1324.1875,242.8564 Q1324.5156,242.8564 1324.75,243.1221 Q1325,243.3721 1325,243.7314 Q1325,244.0752 1324.6563,244.4814 Q1324.1563,245.0752 1323.3594,245.4033 Q1322.3125,245.8564 1321.0313,245.8564 Q1319.5313,245.8564 1318.3281,245.2627 Q1317.3594,244.7939 1316.6719,243.7783 Q1316,242.7627 1316,241.5596 L1316,240.4658 Q1316,239.2158 1316.5938,238.1221 Q1317.2031,237.0283 1318.25,236.4502 Q1319.3125,235.8564 1320.5,235.8564 Q1321.2188,235.8564 1321.8438,236.1064 Q1322.4688,236.3564 1323,236.8564 Z " fill="#000000"/><text fill="#000000" font-family="sans-serif" font-size="12" lengthAdjust="spacing" textLength="65" x="1335" y="245.2666">Coordinator</text><line style="stroke:#A80036;stroke-width:1.5;" x1="1307" x2="1402" y1="256.3564" y2="256.3564"/><!--MD5=[a059576e163b46f56762f12600c49258]
class Nurse--><rect codeLine="12" fill="#FEFECE" filter="url(#fctxa7c9klcrc)" height="40" id="Nurse" style="stroke:#A80036;stroke-width:1.5;" width="66" x="459" y="328.3564"/><ellipse cx="474" cy="344.3564" fill="#ADD1B2" rx="11" ry="11" style="stroke:#A80036;stroke-width:1.0;"/><path d="M476,340.8564 Q476.2031,340.3564 476.4375,340.1064 Q476.6719,339.8564 476.9375,339.8564 Q477.4063,339.8564 477.7031,340.1377 Q478,340.4189 478,341.0752 L478,342.6377 Q478,343.2939 477.7188,343.5752 Q477.4375,343.8564 477,343.8564 Q476.6094,343.8564 476.3594,343.6846 Q476.1094,343.5127 476,343.0596 Q475.9531,342.7471 475.7813,342.5752 Q475.4688,342.2471 474.9063,342.0596 Q474.3438,341.8564 473.7813,341.8564 Q473.0781,341.8564 472.4844,342.1377 Q471.9063,342.4189 471.4531,343.0439 Q471,343.6689 471,344.5283 L471,345.4502 Q471,346.4814 471.8438,347.1689 Q472.6875,347.8564 474.1875,347.8564 Q475.0781,347.8564 475.7031,347.6533 Q476.0625,347.5439 476.4688,347.1846 Q476.7344,346.9814 476.875,346.9189 Q477.0156,346.8564 477.1875,346.8564 Q477.5156,346.8564 477.75,347.1221 Q478,347.3721 478,347.7314 Q478,348.0752 477.6563,348.4814 Q477.1563,349.0752 476.3594,349.4033 Q475.3125,349.8564 474.0313,349.8564 Q472.5313,349.8564 471.3281,349.2627 Q470.3594,348.7939 469.6719,347.7783 Q469,346.7627 469,345.5596 L469,344.4658 Q469,343.2158 469.5938,342.1221 Q470.2031,341.0283 471.25,340.4502 Q472.3125,339.8564 473.5,339.8564 Q474.2188,339.8564 474.8438,340.1064 Q475.4688,340.3564 476,340.8564 Z " fill="#000000"/><text fill="#000000" font-family="sans-serif" font-size="12" lengthAdjust="spacing" textLength="34" x="488" y="349.2666">Nurse</text><line style="stroke:#A80036;stroke-width:1.5;" x1="460" x2="524" y1="360.3564" y2="360.3564"/><!--MD5=[03960189e81aa2c066c762ffabbee709]
class Receptionist--><rect codeLine="17" fill="#FEFECE" filter="url(#fctxa7c9klcrc)" height="40" id="Receptionist" style="stroke:#A80036;stroke-width:1.5;" width="101" x="654" y="243.3564"/><ellipse cx="669" cy="259.3564" fill="#ADD1B2" rx="11" ry="11" style="stroke:#A80036;stroke-width:1.0;"/><path d="M671,255.8564 Q671.2031,255.3564 671.4375,255.1064 Q671.6719,254.8564 671.9375,254.8564 Q672.4063,254.8564 672.7031,255.1377 Q673,255.4189 673,256.0752 L673,257.6377 Q673,258.2939 672.7188,258.5752 Q672.4375,258.8564 672,258.8564 Q671.6094,258.8564 671.3594,258.6846 Q671.1094,258.5127 671,258.0596 Q670.9531,257.7471 670.7813,257.5752 Q670.4688,257.2471 669.9063,257.0596 Q669.3438,256.8564 668.7813,256.8564 Q668.0781,256.8564 667.4844,257.1377 Q666.9063,257.4189 666.4531,258.0439 Q666,258.6689 666,259.5283 L666,260.4502 Q666,261.4814 666.8438,262.1689 Q667.6875,262.8564 669.1875,262.8564 Q670.0781,262.8564 670.7031,262.6533 Q671.0625,262.5439 671.4688,262.1846 Q671.7344,261.9814 671.875,261.9189 Q672.0156,261.8564 672.1875,261.8564 Q672.5156,261.8564 672.75,262.1221 Q673,262.3721 673,262.7314 Q673,263.0752 672.6563,263.4814 Q672.1563,264.0752 671.3594,264.4033 Q670.3125,264.8564 669.0313,264.8564 Q667.5313,264.8564 666.3281,264.2627 Q665.3594,263.7939 664.6719,262.7783 Q664,261.7627 664,260.5596 L664,259.4658 Q664,258.2158 664.5938,257.1221 Q665.2031,256.0283 666.25,255.4502 Q667.3125,254.8564 668.5,254.8564 Q669.2188,254.8564 669.8438,255.1064 Q670.4688,255.3564 671,255.8564 Z " fill="#000000"/><text fill="#000000" font-family="sans-serif" font-size="12" lengthAdjust="spacing" textLength="69" x="683" y="264.2666">Receptionist</text><line style="stroke:#A80036;stroke-width:1.5;" x1="655" x2="754" y1="275.3564" y2="275.3564"/><!--MD5=[da547346deef918ea16944ba046651ef]
class Administrator--><rect codeLine="21" fill="#FEFECE" filter="url(#fctxa7c9klcrc)" height="40" id="Administrator" style="stroke:#A80036;stroke-width:1.5;" width="105" x="7" y="454.3564"/><ellipse cx="22" cy="470.3564" fill="#ADD1B2" rx="11" ry="11" style="stroke:#A80036;stroke-width:1.0;"/><path d="M24,466.8564 Q24.2031,466.3564 24.4375,466.1064 Q24.6719,465.8564 24.9375,465.8564 Q25.4063,465.8564 25.7031,466.1377 Q26,466.4189 26,467.0752 L26,468.6377 Q26,469.2939 25.7188,469.5752 Q25.4375,469.8564 25,469.8564 Q24.6094,469.8564 24.3594,469.6846 Q24.1094,469.5127 24,469.0596 Q23.9531,468.7471 23.7813,468.5752 Q23.4688,468.2471 22.9063,468.0596 Q22.3438,467.8564 21.7813,467.8564 Q21.0781,467.8564 20.4844,468.1377 Q19.9063,468.4189 19.4531,469.0439 Q19,469.6689 19,470.5283 L19,471.4502 Q19,472.4814 19.8438,473.1689 Q20.6875,473.8564 22.1875,473.8564 Q23.0781,473.8564 23.7031,473.6533 Q24.0625,473.5439 24.4688,473.1846 Q24.7344,472.9814 24.875,472.9189 Q25.0156,472.8564 25.1875,472.8564 Q25.5156,472.8564 25.75,473.1221 Q26,473.3721 26,473.7314 Q26,474.0752 25.6563,474.4814 Q25.1563,475.0752 24.3594,475.4033 Q23.3125,475.8564 22.0313,475.8564 Q20.5313,475.8564 19.3281,475.2627 Q18.3594,474.7939 17.6719,473.7783 Q17,472.7627 17,471.5596 L17,470.4658 Q17,469.2158 17.5938,468.1221 Q18.2031,467.0283 19.25,466.4502 Q20.3125,465.8564 21.5,465.8564 Q22.2188,465.8564 22.8438,466.1064 Q23.4688,466.3564 24,466.8564 Z " fill="#000000"/><text fill="#000000" font-family="sans-serif" font-size="12" lengthAdjust="spacing" textLength="73" x="36" y="475.2666">Administrator</text><line style="stroke:#A80036;stroke-width:1.5;" x1="8" x2="111" y1="486.3564" y2="486.3564"/><!--MD5=[7421f545a0d8420c5bec41e74b387d9c]
class Employee--><rect codeLine="26" fill="#FEFECE" filter="url(#fctxa7c9klcrc)" height="81.5078" id="Employee" style="stroke:#A80036;stroke-width:1.5;" width="93" x="240" y="217.3564"/><ellipse cx="257.7" cy="233.3564" fill="#ADD1B2" rx="11" ry="11" style="stroke:#A80036;stroke-width:1.0;"/><path d="M259.7,229.8564 Q259.9031,229.3564 260.1375,229.1064 Q260.3719,228.8564 260.6375,228.8564 Q261.1063,228.8564 261.4031,229.1377 Q261.7,229.4189 261.7,230.0752 L261.7,231.6377 Q261.7,232.2939 261.4188,232.5752 Q261.1375,232.8564 260.7,232.8564 Q260.3094,232.8564 260.0594,232.6846 Q259.8094,232.5127 259.7,232.0596 Q259.6531,231.7471 259.4813,231.5752 Q259.1688,231.2471 258.6063,231.0596 Q258.0438,230.8564 257.4813,230.8564 Q256.7781,230.8564 256.1844,231.1377 Q255.6063,231.4189 255.1531,232.0439 Q254.7,232.6689 254.7,233.5283 L254.7,234.4502 Q254.7,235.4814 255.5438,236.1689 Q256.3875,236.8564 257.8875,236.8564 Q258.7781,236.8564 259.4031,236.6533 Q259.7625,236.5439 260.1688,236.1846 Q260.4344,235.9814 260.575,235.9189 Q260.7156,235.8564 260.8875,235.8564 Q261.2156,235.8564 261.45,236.1221 Q261.7,236.3721 261.7,236.7314 Q261.7,237.0752 261.3563,237.4814 Q260.8563,238.0752 260.0594,238.4033 Q259.0125,238.8564 257.7313,238.8564 Q256.2313,238.8564 255.0281,238.2627 Q254.0594,237.7939 253.3719,236.7783 Q252.7,235.7627 252.7,234.5596 L252.7,233.4658 Q252.7,232.2158 253.2938,231.1221 Q253.9031,230.0283 254.95,229.4502 Q256.0125,228.8564 257.2,228.8564 Q257.9188,228.8564 258.5438,229.1064 Q259.1688,229.3564 259.7,229.8564 Z " fill="#000000"/><text fill="#000000" font-family="sans-serif" font-size="12" lengthAdjust="spacing" textLength="55" x="272.3" y="238.2666">Employee</text><line style="stroke:#A80036;stroke-width:1.5;" x1="241" x2="332" y1="249.3564" y2="249.3564"/><text fill="#000000" font-family="sans-serif" font-size="11" lengthAdjust="spacing" textLength="26" x="260" y="264.7754">name</text><text fill="#000000" font-family="sans-serif" font-size="11" lengthAdjust="spacing" textLength="67" x="260" y="278.6113">phoneNumber</text><text fill="#000000" font-family="sans-serif" font-size="11" lengthAdjust="spacing" textLength="66" x="260" y="292.4473">emailAddress</text><!--MD5=[de60e6d4f424ae4d0522096f76a59010]
class VaccinationCenter--><rect codeLine="32" fill="#FEFECE" filter="url(#fctxa7c9klcrc)" height="192.1953" id="VaccinationCenter" style="stroke:#A80036;stroke-width:1.5;" width="132" x="1078" y="148.3564"/><ellipse cx="1093" cy="164.3564" fill="#ADD1B2" rx="11" ry="11" style="stroke:#A80036;stroke-width:1.0;"/><path d="M1095,160.8564 Q1095.2031,160.3564 1095.4375,160.1064 Q1095.6719,159.8564 1095.9375,159.8564 Q1096.4063,159.8564 1096.7031,160.1377 Q1097,160.4189 1097,161.0752 L1097,162.6377 Q1097,163.2939 1096.7188,163.5752 Q1096.4375,163.8564 1096,163.8564 Q1095.6094,163.8564 1095.3594,163.6846 Q1095.1094,163.5127 1095,163.0596 Q1094.9531,162.7471 1094.7813,162.5752 Q1094.4688,162.2471 1093.9063,162.0596 Q1093.3438,161.8564 1092.7813,161.8564 Q1092.0781,161.8564 1091.4844,162.1377 Q1090.9063,162.4189 1090.4531,163.0439 Q1090,163.6689 1090,164.5283 L1090,165.4502 Q1090,166.4814 1090.8438,167.1689 Q1091.6875,167.8564 1093.1875,167.8564 Q1094.0781,167.8564 1094.7031,167.6533 Q1095.0625,167.5439 1095.4688,167.1846 Q1095.7344,166.9814 1095.875,166.9189 Q1096.0156,166.8564 1096.1875,166.8564 Q1096.5156,166.8564 1096.75,167.1221 Q1097,167.3721 1097,167.7314 Q1097,168.0752 1096.6563,168.4814 Q1096.1563,169.0752 1095.3594,169.4033 Q1094.3125,169.8564 1093.0313,169.8564 Q1091.5313,169.8564 1090.3281,169.2627 Q1089.3594,168.7939 1088.6719,167.7783 Q1088,166.7627 1088,165.5596 L1088,164.4658 Q1088,163.2158 1088.5938,162.1221 Q1089.2031,161.0283 1090.25,160.4502 Q1091.3125,159.8564 1092.5,159.8564 Q1093.2188,159.8564 1093.8438,160.1064 Q1094.4688,160.3564 1095,160.8564 Z " fill="#000000"/><text fill="#000000" font-family="sans-serif" font-size="12" lengthAdjust="spacing" textLength="100" x="1107" y="169.2666">VaccinationCenter</text><line style="stroke:#A80036;stroke-width:1.5;" x1="1079" x2="1209" y1="180.3564" y2="180.3564"/><text fill="#000000" font-family="sans-serif" font-size="11" lengthAdjust="spacing" textLength="26" x="1098" y="195.7754">name</text><text fill="#000000" font-family="sans-serif" font-size="11" lengthAdjust="spacing" textLength="40" x="1098" y="209.6113">address</text><text fill="#000000" font-family="sans-serif" font-size="11" lengthAdjust="spacing" textLength="67" x="1098" y="223.4473">phoneNumber</text><text fill="#000000" font-family="sans-serif" font-size="11" lengthAdjust="spacing" textLength="66" x="1098" y="237.2832">emailAddress</text><text fill="#000000" font-family="sans-serif" font-size="11" lengthAdjust="spacing" textLength="53" x="1098" y="251.1191">faxNumber</text><text fill="#000000" font-family="sans-serif" font-size="11" lengthAdjust="spacing" textLength="81" x="1098" y="264.9551">websiteAddress</text><text fill="#000000" font-family="sans-serif" font-size="11" lengthAdjust="spacing" textLength="67" x="1098" y="278.791">openingHours</text><text fill="#000000" font-family="sans-serif" font-size="11" lengthAdjust="spacing" textLength="63" x="1098" y="292.627">closingHours</text><text fill="#000000" font-family="sans-serif" font-size="11" lengthAdjust="spacing" textLength="57" x="1098" y="306.4629">slotDuration</text><text fill="#000000" font-family="sans-serif" font-size="11" lengthAdjust="spacing" textLength="95" x="1098" y="320.2988">maxNumVaxPerSlot</text><text fill="#000000" font-family="sans-serif" font-size="11" lengthAdjust="spacing" textLength="41" x="1098" y="334.1348">capacity</text><!--MD5=[c680266cf9e454ca06c2d1bb8b683e6b]
class Schedule--><rect codeLine="47" fill="#FEFECE" filter="url(#fctxa7c9klcrc)" height="53.8359" id="Schedule" style="stroke:#A80036;stroke-width:1.5;" width="84" x="873" y="396.3564"/><ellipse cx="888" cy="412.3564" fill="#ADD1B2" rx="11" ry="11" style="stroke:#A80036;stroke-width:1.0;"/><path d="M890,408.8564 Q890.2031,408.3564 890.4375,408.1064 Q890.6719,407.8564 890.9375,407.8564 Q891.4063,407.8564 891.7031,408.1377 Q892,408.4189 892,409.0752 L892,410.6377 Q892,411.2939 891.7188,411.5752 Q891.4375,411.8564 891,411.8564 Q890.6094,411.8564 890.3594,411.6846 Q890.1094,411.5127 890,411.0596 Q889.9531,410.7471 889.7813,410.5752 Q889.4688,410.2471 888.9063,410.0596 Q888.3438,409.8564 887.7813,409.8564 Q887.0781,409.8564 886.4844,410.1377 Q885.9063,410.4189 885.4531,411.0439 Q885,411.6689 885,412.5283 L885,413.4502 Q885,414.4814 885.8438,415.1689 Q886.6875,415.8564 888.1875,415.8564 Q889.0781,415.8564 889.7031,415.6533 Q890.0625,415.5439 890.4688,415.1846 Q890.7344,414.9814 890.875,414.9189 Q891.0156,414.8564 891.1875,414.8564 Q891.5156,414.8564 891.75,415.1221 Q892,415.3721 892,415.7314 Q892,416.0752 891.6563,416.4814 Q891.1563,417.0752 890.3594,417.4033 Q889.3125,417.8564 888.0313,417.8564 Q886.5313,417.8564 885.3281,417.2627 Q884.3594,416.7939 883.6719,415.7783 Q883,414.7627 883,413.5596 L883,412.4658 Q883,411.2158 883.5938,410.1221 Q884.2031,409.0283 885.25,408.4502 Q886.3125,407.8564 887.5,407.8564 Q888.2188,407.8564 888.8438,408.1064 Q889.4688,408.3564 890,408.8564 Z " fill="#000000"/><text fill="#000000" font-family="sans-serif" font-size="12" lengthAdjust="spacing" textLength="52" x="902" y="417.2666">Schedule</text><line style="stroke:#A80036;stroke-width:1.5;" x1="874" x2="956" y1="428.3564" y2="428.3564"/><text fill="#000000" font-family="sans-serif" font-size="11" lengthAdjust="spacing" textLength="43" x="893" y="443.7754">dateTime</text><!--MD5=[72be06cc7ae02ccc98efe28a50e62246]
class SNSUser--><rect codeLine="51" fill="#FEFECE" filter="url(#fctxa7c9klcrc)" height="109.1797" id="SNSUser" style="stroke:#A80036;stroke-width:1.5;" width="84" x="662.5" y="419.8564"/><ellipse cx="677.5" cy="435.8564" fill="#ADD1B2" rx="11" ry="11" style="stroke:#A80036;stroke-width:1.0;"/><path d="M679.5,432.3564 Q679.7031,431.8564 679.9375,431.6064 Q680.1719,431.3564 680.4375,431.3564 Q680.9063,431.3564 681.2031,431.6377 Q681.5,431.9189 681.5,432.5752 L681.5,434.1377 Q681.5,434.7939 681.2188,435.0752 Q680.9375,435.3564 680.5,435.3564 Q680.1094,435.3564 679.8594,435.1846 Q679.6094,435.0127 679.5,434.5596 Q679.4531,434.2471 679.2813,434.0752 Q678.9688,433.7471 678.4063,433.5596 Q677.8438,433.3564 677.2813,433.3564 Q676.5781,433.3564 675.9844,433.6377 Q675.4063,433.9189 674.9531,434.5439 Q674.5,435.1689 674.5,436.0283 L674.5,436.9502 Q674.5,437.9814 675.3438,438.6689 Q676.1875,439.3564 677.6875,439.3564 Q678.5781,439.3564 679.2031,439.1533 Q679.5625,439.0439 679.9688,438.6846 Q680.2344,438.4814 680.375,438.4189 Q680.5156,438.3564 680.6875,438.3564 Q681.0156,438.3564 681.25,438.6221 Q681.5,438.8721 681.5,439.2314 Q681.5,439.5752 681.1563,439.9814 Q680.6563,440.5752 679.8594,440.9033 Q678.8125,441.3564 677.5313,441.3564 Q676.0313,441.3564 674.8281,440.7627 Q673.8594,440.2939 673.1719,439.2783 Q672.5,438.2627 672.5,437.0596 L672.5,435.9658 Q672.5,434.7158 673.0938,433.6221 Q673.7031,432.5283 674.75,431.9502 Q675.8125,431.3564 677,431.3564 Q677.7188,431.3564 678.3438,431.6064 Q678.9688,431.8564 679.5,432.3564 Z " fill="#000000"/><text fill="#000000" font-family="sans-serif" font-size="12" lengthAdjust="spacing" textLength="52" x="691.5" y="440.7666">SNSUser</text><line style="stroke:#A80036;stroke-width:1.5;" x1="663.5" x2="745.5" y1="451.8564" y2="451.8564"/><text fill="#000000" font-family="sans-serif" font-size="11" lengthAdjust="spacing" textLength="55" x="682.5" y="467.2754">snsNumber</text><text fill="#000000" font-family="sans-serif" font-size="11" lengthAdjust="spacing" textLength="26" x="682.5" y="481.1113">name</text><text fill="#000000" font-family="sans-serif" font-size="11" lengthAdjust="spacing" textLength="18" x="682.5" y="494.9473">age</text><text fill="#000000" font-family="sans-serif" font-size="11" lengthAdjust="spacing" textLength="51" x="682.5" y="508.7832">phoneNum</text><text fill="#000000" font-family="sans-serif" font-size="11" lengthAdjust="spacing" textLength="24" x="682.5" y="522.6191">email</text><!--MD5=[0e501da62322464167c8ec4d233a6b7e]
class VaccineType--><rect codeLine="59" fill="#FEFECE" filter="url(#fctxa7c9klcrc)" height="53.8359" id="VaccineType" style="stroke:#A80036;stroke-width:1.5;" width="101" x="1093.5" y="509.3564"/><ellipse cx="1108.5" cy="525.3564" fill="#ADD1B2" rx="11" ry="11" style="stroke:#A80036;stroke-width:1.0;"/><path d="M1110.5,521.8564 Q1110.7031,521.3564 1110.9375,521.1064 Q1111.1719,520.8564 1111.4375,520.8564 Q1111.9063,520.8564 1112.2031,521.1377 Q1112.5,521.4189 1112.5,522.0752 L1112.5,523.6377 Q1112.5,524.2939 1112.2188,524.5752 Q1111.9375,524.8564 1111.5,524.8564 Q1111.1094,524.8564 1110.8594,524.6846 Q1110.6094,524.5127 1110.5,524.0596 Q1110.4531,523.7471 1110.2813,523.5752 Q1109.9688,523.2471 1109.4063,523.0596 Q1108.8438,522.8564 1108.2813,522.8564 Q1107.5781,522.8564 1106.9844,523.1377 Q1106.4063,523.4189 1105.9531,524.0439 Q1105.5,524.6689 1105.5,525.5283 L1105.5,526.4502 Q1105.5,527.4814 1106.3438,528.1689 Q1107.1875,528.8564 1108.6875,528.8564 Q1109.5781,528.8564 1110.2031,528.6533 Q1110.5625,528.5439 1110.9688,528.1846 Q1111.2344,527.9814 1111.375,527.9189 Q1111.5156,527.8564 1111.6875,527.8564 Q1112.0156,527.8564 1112.25,528.1221 Q1112.5,528.3721 1112.5,528.7314 Q1112.5,529.0752 1112.1563,529.4814 Q1111.6563,530.0752 1110.8594,530.4033 Q1109.8125,530.8564 1108.5313,530.8564 Q1107.0313,530.8564 1105.8281,530.2627 Q1104.8594,529.7939 1104.1719,528.7783 Q1103.5,527.7627 1103.5,526.5596 L1103.5,525.4658 Q1103.5,524.2158 1104.0938,523.1221 Q1104.7031,522.0283 1105.75,521.4502 Q1106.8125,520.8564 1108,520.8564 Q1108.7188,520.8564 1109.3438,521.1064 Q1109.9688,521.3564 1110.5,521.8564 Z " fill="#000000"/><text fill="#000000" font-family="sans-serif" font-size="12" lengthAdjust="spacing" textLength="69" x="1122.5" y="530.2666">VaccineType</text><line style="stroke:#A80036;stroke-width:1.5;" x1="1094.5" x2="1193.5" y1="541.3564" y2="541.3564"/><text fill="#000000" font-family="sans-serif" font-size="11" lengthAdjust="spacing" textLength="38" x="1113.5" y="556.7754">disease</text><!--MD5=[19e445fc4d3b48519cbe33da05496394]
class Vaccine--><rect codeLine="64" fill="#FEFECE" filter="url(#fctxa7c9klcrc)" height="67.6719" id="Vaccine" style="stroke:#A80036;stroke-width:1.5;" width="75" x="877.5" y="573.3564"/><ellipse cx="892.5" cy="589.3564" fill="#ADD1B2" rx="11" ry="11" style="stroke:#A80036;stroke-width:1.0;"/><path d="M894.5,585.8564 Q894.7031,585.3564 894.9375,585.1064 Q895.1719,584.8564 895.4375,584.8564 Q895.9063,584.8564 896.2031,585.1377 Q896.5,585.4189 896.5,586.0752 L896.5,587.6377 Q896.5,588.2939 896.2188,588.5752 Q895.9375,588.8564 895.5,588.8564 Q895.1094,588.8564 894.8594,588.6846 Q894.6094,588.5127 894.5,588.0596 Q894.4531,587.7471 894.2813,587.5752 Q893.9688,587.2471 893.4063,587.0596 Q892.8438,586.8564 892.2813,586.8564 Q891.5781,586.8564 890.9844,587.1377 Q890.4063,587.4189 889.9531,588.0439 Q889.5,588.6689 889.5,589.5283 L889.5,590.4502 Q889.5,591.4814 890.3438,592.1689 Q891.1875,592.8564 892.6875,592.8564 Q893.5781,592.8564 894.2031,592.6533 Q894.5625,592.5439 894.9688,592.1846 Q895.2344,591.9814 895.375,591.9189 Q895.5156,591.8564 895.6875,591.8564 Q896.0156,591.8564 896.25,592.1221 Q896.5,592.3721 896.5,592.7314 Q896.5,593.0752 896.1563,593.4814 Q895.6563,594.0752 894.8594,594.4033 Q893.8125,594.8564 892.5313,594.8564 Q891.0313,594.8564 889.8281,594.2627 Q888.8594,593.7939 888.1719,592.7783 Q887.5,591.7627 887.5,590.5596 L887.5,589.4658 Q887.5,588.2158 888.0938,587.1221 Q888.7031,586.0283 889.75,585.4502 Q890.8125,584.8564 892,584.8564 Q892.7188,584.8564 893.3438,585.1064 Q893.9688,585.3564 894.5,585.8564 Z " fill="#000000"/><text fill="#000000" font-family="sans-serif" font-size="12" lengthAdjust="spacing" textLength="43" x="906.5" y="594.2666">Vaccine</text><line style="stroke:#A80036;stroke-width:1.5;" x1="878.5" x2="951.5" y1="605.3564" y2="605.3564"/><text fill="#000000" font-family="sans-serif" font-size="11" lengthAdjust="spacing" textLength="26" x="897.5" y="620.7754">name</text><text fill="#000000" font-family="sans-serif" font-size="11" lengthAdjust="spacing" textLength="32" x="897.5" y="634.6113">lotNum</text><!--MD5=[f1aa797bbb856f196dbabe5d61960c3a]
class VaccinationProcess--><rect codeLine="70" fill="#FEFECE" filter="url(#fctxa7c9klcrc)" height="53.8359" id="VaccinationProcess" style="stroke:#A80036;stroke-width:1.5;" width="141" x="1528" y="366.3564"/><ellipse cx="1543" cy="382.3564" fill="#ADD1B2" rx="11" ry="11" style="stroke:#A80036;stroke-width:1.0;"/><path d="M1545,378.8564 Q1545.2031,378.3564 1545.4375,378.1064 Q1545.6719,377.8564 1545.9375,377.8564 Q1546.4063,377.8564 1546.7031,378.1377 Q1547,378.4189 1547,379.0752 L1547,380.6377 Q1547,381.2939 1546.7188,381.5752 Q1546.4375,381.8564 1546,381.8564 Q1545.6094,381.8564 1545.3594,381.6846 Q1545.1094,381.5127 1545,381.0596 Q1544.9531,380.7471 1544.7813,380.5752 Q1544.4688,380.2471 1543.9063,380.0596 Q1543.3438,379.8564 1542.7813,379.8564 Q1542.0781,379.8564 1541.4844,380.1377 Q1540.9063,380.4189 1540.4531,381.0439 Q1540,381.6689 1540,382.5283 L1540,383.4502 Q1540,384.4814 1540.8438,385.1689 Q1541.6875,385.8564 1543.1875,385.8564 Q1544.0781,385.8564 1544.7031,385.6533 Q1545.0625,385.5439 1545.4688,385.1846 Q1545.7344,384.9814 1545.875,384.9189 Q1546.0156,384.8564 1546.1875,384.8564 Q1546.5156,384.8564 1546.75,385.1221 Q1547,385.3721 1547,385.7314 Q1547,386.0752 1546.6563,386.4814 Q1546.1563,387.0752 1545.3594,387.4033 Q1544.3125,387.8564 1543.0313,387.8564 Q1541.5313,387.8564 1540.3281,387.2627 Q1539.3594,386.7939 1538.6719,385.7783 Q1538,384.7627 1538,383.5596 L1538,382.4658 Q1538,381.2158 1538.5938,380.1221 Q1539.2031,379.0283 1540.25,378.4502 Q1541.3125,377.8564 1542.5,377.8564 Q1543.2188,377.8564 1543.8438,378.1064 Q1544.4688,378.3564 1545,378.8564 Z " fill="#000000"/><text fill="#000000" font-family="sans-serif" font-size="12" lengthAdjust="spacing" textLength="109" x="1557" y="387.2666">VaccinationProcess</text><line style="stroke:#A80036;stroke-width:1.5;" x1="1529" x2="1668" y1="398.3564" y2="398.3564"/><text fill="#000000" font-family="sans-serif" font-size="11" lengthAdjust="spacing" textLength="74" x="1548" y="413.7754">recoveryPeriod</text><!--MD5=[c59c99efa75f30327e326596f335a568]
class AgeGroup--><rect codeLine="74" fill="#FEFECE" filter="url(#fctxa7c9klcrc)" height="67.6719" id="AgeGroup" style="stroke:#A80036;stroke-width:1.5;" width="87" x="1765" y="359.3564"/><ellipse cx="1780" cy="375.3564" fill="#ADD1B2" rx="11" ry="11" style="stroke:#A80036;stroke-width:1.0;"/><path d="M1782,371.8564 Q1782.2031,371.3564 1782.4375,371.1064 Q1782.6719,370.8564 1782.9375,370.8564 Q1783.4063,370.8564 1783.7031,371.1377 Q1784,371.4189 1784,372.0752 L1784,373.6377 Q1784,374.2939 1783.7188,374.5752 Q1783.4375,374.8564 1783,374.8564 Q1782.6094,374.8564 1782.3594,374.6846 Q1782.1094,374.5127 1782,374.0596 Q1781.9531,373.7471 1781.7813,373.5752 Q1781.4688,373.2471 1780.9063,373.0596 Q1780.3438,372.8564 1779.7813,372.8564 Q1779.0781,372.8564 1778.4844,373.1377 Q1777.9063,373.4189 1777.4531,374.0439 Q1777,374.6689 1777,375.5283 L1777,376.4502 Q1777,377.4814 1777.8438,378.1689 Q1778.6875,378.8564 1780.1875,378.8564 Q1781.0781,378.8564 1781.7031,378.6533 Q1782.0625,378.5439 1782.4688,378.1846 Q1782.7344,377.9814 1782.875,377.9189 Q1783.0156,377.8564 1783.1875,377.8564 Q1783.5156,377.8564 1783.75,378.1221 Q1784,378.3721 1784,378.7314 Q1784,379.0752 1783.6563,379.4814 Q1783.1563,380.0752 1782.3594,380.4033 Q1781.3125,380.8564 1780.0313,380.8564 Q1778.5313,380.8564 1777.3281,380.2627 Q1776.3594,379.7939 1775.6719,378.7783 Q1775,377.7627 1775,376.5596 L1775,375.4658 Q1775,374.2158 1775.5938,373.1221 Q1776.2031,372.0283 1777.25,371.4502 Q1778.3125,370.8564 1779.5,370.8564 Q1780.2188,370.8564 1780.8438,371.1064 Q1781.4688,371.3564 1782,371.8564 Z " fill="#000000"/><text fill="#000000" font-family="sans-serif" font-size="12" lengthAdjust="spacing" textLength="55" x="1794" y="380.2666">AgeGroup</text><line style="stroke:#A80036;stroke-width:1.5;" x1="1766" x2="1851" y1="391.3564" y2="391.3564"/><text fill="#000000" font-family="sans-serif" font-size="11" lengthAdjust="spacing" textLength="36" x="1785" y="406.7754">minAge</text><text fill="#000000" font-family="sans-serif" font-size="11" lengthAdjust="spacing" textLength="40" x="1785" y="420.6113">maxAge</text><!--MD5=[03e3bb7aef77bf14822eb3fb6d15ab17]
class Dose--><rect codeLine="78" fill="#FEFECE" filter="url(#fctxa7c9klcrc)" height="67.6719" id="Dose" style="stroke:#A80036;stroke-width:1.5;" width="87" x="2108" y="359.3564"/><ellipse cx="2134.25" cy="375.3564" fill="#ADD1B2" rx="11" ry="11" style="stroke:#A80036;stroke-width:1.0;"/><path d="M2136.25,371.8564 Q2136.4531,371.3564 2136.6875,371.1064 Q2136.9219,370.8564 2137.1875,370.8564 Q2137.6563,370.8564 2137.9531,371.1377 Q2138.25,371.4189 2138.25,372.0752 L2138.25,373.6377 Q2138.25,374.2939 2137.9688,374.5752 Q2137.6875,374.8564 2137.25,374.8564 Q2136.8594,374.8564 2136.6094,374.6846 Q2136.3594,374.5127 2136.25,374.0596 Q2136.2031,373.7471 2136.0313,373.5752 Q2135.7188,373.2471 2135.1563,373.0596 Q2134.5938,372.8564 2134.0313,372.8564 Q2133.3281,372.8564 2132.7344,373.1377 Q2132.1563,373.4189 2131.7031,374.0439 Q2131.25,374.6689 2131.25,375.5283 L2131.25,376.4502 Q2131.25,377.4814 2132.0938,378.1689 Q2132.9375,378.8564 2134.4375,378.8564 Q2135.3281,378.8564 2135.9531,378.6533 Q2136.3125,378.5439 2136.7188,378.1846 Q2136.9844,377.9814 2137.125,377.9189 Q2137.2656,377.8564 2137.4375,377.8564 Q2137.7656,377.8564 2138,378.1221 Q2138.25,378.3721 2138.25,378.7314 Q2138.25,379.0752 2137.9063,379.4814 Q2137.4063,380.0752 2136.6094,380.4033 Q2135.5625,380.8564 2134.2813,380.8564 Q2132.7813,380.8564 2131.5781,380.2627 Q2130.6094,379.7939 2129.9219,378.7783 Q2129.25,377.7627 2129.25,376.5596 L2129.25,375.4658 Q2129.25,374.2158 2129.8438,373.1221 Q2130.4531,372.0283 2131.5,371.4502 Q2132.5625,370.8564 2133.75,370.8564 Q2134.4688,370.8564 2135.0938,371.1064 Q2135.7188,371.3564 2136.25,371.8564 Z " fill="#000000"/><text fill="#000000" font-family="sans-serif" font-size="12" lengthAdjust="spacing" textLength="30" x="2150.75" y="380.2666">Dose</text><line style="stroke:#A80036;stroke-width:1.5;" x1="2109" x2="2194" y1="391.3564" y2="391.3564"/><text fill="#000000" font-family="sans-serif" font-size="11" lengthAdjust="spacing" textLength="61" x="2128" y="406.7754">doseNumber</text><text fill="#000000" font-family="sans-serif" font-size="11" lengthAdjust="spacing" textLength="36" x="2128" y="420.6113">dosage</text><!--MD5=[4bec8ac568776347aae0f1471b21fd4f]
class TimeInterval--><rect codeLine="83" fill="#FEFECE" filter="url(#fctxa7c9klcrc)" height="53.8359" id="TimeInterval" style="stroke:#A80036;stroke-width:1.5;" width="99" x="1948" y="430.3564"/><ellipse cx="1963" cy="446.3564" fill="#ADD1B2" rx="11" ry="11" style="stroke:#A80036;stroke-width:1.0;"/><path d="M1965,442.8564 Q1965.2031,442.3564 1965.4375,442.1064 Q1965.6719,441.8564 1965.9375,441.8564 Q1966.4063,441.8564 1966.7031,442.1377 Q1967,442.4189 1967,443.0752 L1967,444.6377 Q1967,445.2939 1966.7188,445.5752 Q1966.4375,445.8564 1966,445.8564 Q1965.6094,445.8564 1965.3594,445.6846 Q1965.1094,445.5127 1965,445.0596 Q1964.9531,444.7471 1964.7813,444.5752 Q1964.4688,444.2471 1963.9063,444.0596 Q1963.3438,443.8564 1962.7813,443.8564 Q1962.0781,443.8564 1961.4844,444.1377 Q1960.9063,444.4189 1960.4531,445.0439 Q1960,445.6689 1960,446.5283 L1960,447.4502 Q1960,448.4814 1960.8438,449.1689 Q1961.6875,449.8564 1963.1875,449.8564 Q1964.0781,449.8564 1964.7031,449.6533 Q1965.0625,449.5439 1965.4688,449.1846 Q1965.7344,448.9814 1965.875,448.9189 Q1966.0156,448.8564 1966.1875,448.8564 Q1966.5156,448.8564 1966.75,449.1221 Q1967,449.3721 1967,449.7314 Q1967,450.0752 1966.6563,450.4814 Q1966.1563,451.0752 1965.3594,451.4033 Q1964.3125,451.8564 1963.0313,451.8564 Q1961.5313,451.8564 1960.3281,451.2627 Q1959.3594,450.7939 1958.6719,449.7783 Q1958,448.7627 1958,447.5596 L1958,446.4658 Q1958,445.2158 1958.5938,444.1221 Q1959.2031,443.0283 1960.25,442.4502 Q1961.3125,441.8564 1962.5,441.8564 Q1963.2188,441.8564 1963.8438,442.1064 Q1964.4688,442.3564 1965,442.8564 Z " fill="#000000"/><text fill="#000000" font-family="sans-serif" font-size="12" lengthAdjust="spacing" textLength="67" x="1977" y="451.2666">TimeInterval</text><line style="stroke:#A80036;stroke-width:1.5;" x1="1949" x2="2046" y1="462.3564" y2="462.3564"/><text fill="#000000" font-family="sans-serif" font-size="11" lengthAdjust="spacing" textLength="45" x="1968" y="477.7754">numDays</text><ellipse cx="1997.5" cy="393.3564" fill="#000000" rx="2" ry="2" style="stroke:none;stroke-width:1.0;"/><!--MD5=[b71b66caf67976638439c0d1a3790473]
link Employee to Nurse--><path codeLine="87" d="M333.1,286.7164 C342.8,292.2364 353.1,297.7364 363,302.3564 C394.67,317.1264 432.51,330.1964 458.79,338.5864 " fill="none" id="Employee-Nurse" style="stroke:#A80036;stroke-width:1.0;"/><polygon fill="#000000" points="383.3781,291.6249,390.6181,297.792,392.8603,292.3586,383.3781,291.6249" style="stroke:#000000;stroke-width:1.0;"/><text fill="#000000" font-family="sans-serif" font-size="13" lengthAdjust="spacing" textLength="10" x="397" y="298.8516">is</text><text fill="#000000" font-family="sans-serif" font-size="13" lengthAdjust="spacing" textLength="7" x="341.0847" y="306.0737">1</text><text fill="#000000" font-family="sans-serif" font-size="13" lengthAdjust="spacing" textLength="7" x="444.2186" y="351.7528">1</text><!--MD5=[1da12df22706e73e1def33b218b7f412]
link Employee to Receptionist--><path codeLine="88" d="M333.21,258.9064 C411.94,259.8564 572.48,261.7864 653.85,262.7564 " fill="none" id="Employee-Receptionist" style="stroke:#A80036;stroke-width:1.0;"/><polygon fill="#000000" points="479.5004,252.4722,488.5095,255.5195,488.5801,249.6421,479.5004,252.4722" style="stroke:#000000;stroke-width:1.0;"/><text fill="#000000" font-family="sans-serif" font-size="13" lengthAdjust="spacing" textLength="10" x="493.5" y="257.8516">is</text><text fill="#000000" font-family="sans-serif" font-size="13" lengthAdjust="spacing" textLength="7" x="340.8984" y="273.7754">1</text><text fill="#000000" font-family="sans-serif" font-size="13" lengthAdjust="spacing" textLength="7" x="638.8967" y="277.3643">1</text><!--MD5=[d8cf155570c2fc8069691ea2f7bdb19f]
link Employee to Coordinator--><path codeLine="89" d="M313.7,217.2264 C348.04,168.9364 413.14,95.3564 491,95.3564 C491,95.3564 491,95.3564 1145,95.3564 C1232.65,95.3564 1308.87,183.5864 1339.35,224.2664 " fill="none" id="Employee-Coordinator" style="stroke:#A80036;stroke-width:1.0;"/><polygon fill="#000000" points="801.5001,86.4979,810.5248,89.4988,810.5652,83.6211,801.5001,86.4979" style="stroke:#000000;stroke-width:1.0;"/><text fill="#000000" font-family="sans-serif" font-size="13" lengthAdjust="spacing" textLength="10" x="815.5" y="91.8516">is</text><text fill="#000000" font-family="sans-serif" font-size="13" lengthAdjust="spacing" textLength="7" x="310.7734" y="206.3499">1</text><text fill="#000000" font-family="sans-serif" font-size="13" lengthAdjust="spacing" textLength="7" x="1326.8716" y="213.5618">1</text><!--MD5=[8f7dd94d56b58fc07b233ccd3dd98f8c]
link Administrator to Employee--><path codeLine="90" d="M81.67,454.0364 C118.32,418.8564 194.27,345.9364 242.4,299.7264 " fill="none" id="Administrator-Employee" style="stroke:#A80036;stroke-width:1.0;"/><polygon fill="#000000" points="150.6068,323.0695,142.0466,327.2136,146.1174,331.4537,150.6068,323.0695" style="stroke:#000000;stroke-width:1.0;"/><text fill="#000000" font-family="sans-serif" font-size="13" lengthAdjust="spacing" textLength="53" x="156" y="331.8516">Manages</text><text fill="#000000" font-family="sans-serif" font-size="13" lengthAdjust="spacing" textLength="7" x="79.9209" y="443.616">1</text><text fill="#000000" font-family="sans-serif" font-size="13" lengthAdjust="spacing" textLength="5" x="230.8469" y="320.2235">*</text><!--MD5=[7454cd36f47ee2c1597ee5b79ae5e9ce]
link Employee to VaccinationCenter--><path codeLine="92" d="M333.34,226.9464 C373.17,202.7364 433.38,173.3564 491,173.3564 C491,173.3564 491,173.3564 916,173.3564 C972.36,173.3564 1033.16,193.5464 1077.63,212.3864 " fill="none" id="Employee-VaccinationCenter" style="stroke:#A80036;stroke-width:1.0;"/><polygon fill="#000000" points="686.501,164.63,695.6018,167.3915,695.4868,161.5147,686.501,164.63" style="stroke:#000000;stroke-width:1.0;"/><text fill="#000000" font-family="sans-serif" font-size="13" lengthAdjust="spacing" textLength="21" x="700.5" y="169.8516">has</text><text fill="#000000" font-family="sans-serif" font-size="13" lengthAdjust="spacing" textLength="5" x="340.8952" y="236.9215">*</text><text fill="#000000" font-family="sans-serif" font-size="13" lengthAdjust="spacing" textLength="5" x="1065.0973" y="223.2684">*</text><!--MD5=[2dda88ea48bea0f07bb8366b69b533a8]
link Nurse to VaccinationProcess--><path codeLine="94" d="M525.16,349.6664 C675.95,355.8064 1314.56,381.8264 1527.83,390.5164 " fill="none" id="Nurse-VaccinationProcess" style="stroke:#A80036;stroke-width:1.0;"/><polygon fill="#000000" points="996.9959,359.7358,988.0779,356.4311,987.8386,362.3041,996.9959,359.7358" style="stroke:#000000;stroke-width:1.0;"/><text fill="#000000" font-family="sans-serif" font-size="13" lengthAdjust="spacing" textLength="46" x="1001" y="364.8516">updates</text><text fill="#000000" font-family="sans-serif" font-size="13" lengthAdjust="spacing" textLength="5" x="532.9606" y="365.2366">*</text><text fill="#000000" font-family="sans-serif" font-size="13" lengthAdjust="spacing" textLength="7" x="1513.1812" y="404.5703">1</text><!--MD5=[44ce67b9ae4b4a4a3bd0ed01886d6243]
link Nurse to SNSUser--><path codeLine="95" d="M525.29,368.5264 C535.12,374.6264 545.98,381.3064 556,387.3564 C591.75,408.9664 632.69,433.0564 662.35,450.4064 " fill="none" id="Nurse-SNSUser" style="stroke:#A80036;stroke-width:1.0;"/><polygon fill="#000000" points="568.7924,381.0965,562.5346,373.9347,559.5202,378.9807,568.7924,381.0965" style="stroke:#000000;stroke-width:1.0;"/><text fill="#000000" font-family="sans-serif" font-size="13" lengthAdjust="spacing" textLength="46" x="573.5" y="383.8516">updates</text><text fill="#000000" font-family="sans-serif" font-size="13" lengthAdjust="spacing" textLength="7" x="526.6684" y="389.9938">1</text><text fill="#000000" font-family="sans-serif" font-size="13" lengthAdjust="spacing" textLength="5" x="649.3967" y="461.0758">*</text><!--MD5=[2bde3c2658e9820e0f62920496486001]
link Receptionist to VaccinationCenter--><path codeLine="97" d="M755.26,261.1964 C834.54,257.7564 989.55,251.0164 1077.67,247.1964 " fill="none" id="Receptionist-VaccinationCenter" style="stroke:#A80036;stroke-width:1.0;"/><polygon fill="#000000" points="894.4953,244.3153,885.3312,241.7716,885.5862,247.6439,894.4953,244.3153" style="stroke:#000000;stroke-width:1.0;"/><text fill="#000000" font-family="sans-serif" font-size="13" lengthAdjust="spacing" textLength="46" x="898.5" y="249.8516">updates</text><text fill="#000000" font-family="sans-serif" font-size="13" lengthAdjust="spacing" textLength="7" x="762.8903" y="275.5375">1</text><text fill="#000000" font-family="sans-serif" font-size="13" lengthAdjust="spacing" textLength="7" x="1063.0323" y="261.8857">1</text><!--MD5=[ad53276a02bf0f65971002ced984ee45]
link Vaccine to VaccinationProcess--><path codeLine="99" d="M952.5,608.3264 C1008.83,608.8864 1119.87,606.2964 1210,581.3564 C1343.14,544.5164 1485.93,462.9364 1555.1,420.3764 " fill="none" id="Vaccine-VaccinationProcess" style="stroke:#A80036;stroke-width:1.0;"/><polygon fill="#000000" points="1249.7732,550.0435,1240.2633,549.931,1242.0135,555.5423,1249.7732,550.0435" style="stroke:#000000;stroke-width:1.0;"/><text fill="#000000" font-family="sans-serif" font-size="13" lengthAdjust="spacing" textLength="21" x="1254" y="556.8516">has</text><text fill="#000000" font-family="sans-serif" font-size="13" lengthAdjust="spacing" textLength="7" x="960.5719" y="623.6544">1</text><text fill="#000000" font-family="sans-serif" font-size="13" lengthAdjust="spacing" textLength="7" x="1537.8406" y="441.5886">1</text><!--MD5=[3568623adf67b2630dce9e60c05bd02a]
link Vaccine to VaccineType--><path codeLine="100" d="M952.72,595.8664 C990.87,583.9364 1050.8,565.1964 1093.19,551.9364 " fill="none" id="Vaccine-VaccineType" style="stroke:#A80036;stroke-width:1.0;"/><polygon fill="#000000" points="999.7279,560.0246,1009.2379,560.1298,1007.4835,554.5199,999.7279,560.0246" style="stroke:#000000;stroke-width:1.0;"/><text fill="#000000" font-family="sans-serif" font-size="13" lengthAdjust="spacing" textLength="21" x="1013.5" y="563.8516">has</text><text fill="#000000" font-family="sans-serif" font-size="13" lengthAdjust="spacing" textLength="5" x="960.3869" y="608.7611">*</text><text fill="#000000" font-family="sans-serif" font-size="13" lengthAdjust="spacing" textLength="7" x="1078.5527" y="568.7838">1</text><!--MD5=[4043e158886bce18152cac1904b53f75]
link VaccinationProcess to AgeGroup--><path codeLine="101" d="M1669.05,393.3564 C1700.7,393.3564 1737.15,393.3564 1764.7,393.3564 " fill="none" id="VaccinationProcess-AgeGroup" style="stroke:#A80036;stroke-width:1.0;"/><polygon fill="#000000" points="1709,384.5322,1699.9549,381.5933,1699.9549,387.4712,1709,384.5322" style="stroke:#000000;stroke-width:1.0;"/><text fill="#000000" font-family="sans-serif" font-size="13" lengthAdjust="spacing" textLength="21" x="1713" y="389.8516">has</text><text fill="#000000" font-family="sans-serif" font-size="13" lengthAdjust="spacing" textLength="7" x="1677.1492" y="407.7548">1</text><text fill="#000000" font-family="sans-serif" font-size="13" lengthAdjust="spacing" textLength="5" x="1752.0316" y="408.2328">*</text><!--MD5=[2d66353393a34ab3387d73ec4b286952]
link AgeGroup to apoint501--><path d="M1852.4,393.3564 C1904.16,393.3564 1985.52,393.3564 1995.49,393.3564 " fill="none" id="AgeGroup-apoint501" style="stroke:#A80036;stroke-width:1.0;"/><polygon fill="#000000" points="1892,384.5322,1882.9549,381.5933,1882.9549,387.4712,1892,384.5322" style="stroke:#000000;stroke-width:1.0;"/><text fill="#000000" font-family="sans-serif" font-size="13" lengthAdjust="spacing" textLength="21" x="1896" y="389.8516">has</text><text fill="#000000" font-family="sans-serif" font-size="13" lengthAdjust="spacing" textLength="7" x="1859.9544" y="408.1807">1</text><!--MD5=[d8923d47a1f381b71b57b31df51cbb7e]
link apoint501 to Dose--><path d="M1999.81,393.3564 C2009.19,393.3564 2066.7,393.3564 2107.89,393.3564 " fill="none" id="apoint501-Dose" style="stroke:#A80036;stroke-width:1.0;"/><text fill="#000000" font-family="sans-serif" font-size="13" lengthAdjust="spacing" textLength="5" x="2094.9648" y="408.285">*</text><!--MD5=[b01dfdc9b64882d59e0f992f56fa5bc4]
link apoint501 to TimeInterval--><path d="M1997.5,395.6364 C1997.5,407.0464 1997.5,418.4464 1997.5,429.8564 " fill="none" id="apoint501-TimeInterval" style="stroke:#A80036;stroke-width:1.0;stroke-dasharray:7.0,7.0;"/><!--MD5=[365ff630f9f838a80248091f1b038ffe]
link VaccinationCenter to SNSUser--><path codeLine="106" d="M1133.09,340.6364 C1121.92,395.7564 1098.22,460.6664 1048,495.3564 C956.34,558.6664 815.84,518.2864 746.76,491.9064 " fill="none" id="VaccinationCenter-SNSUser" style="stroke:#A80036;stroke-width:1.0;"/><polygon fill="#000000" points="897.3442,518.3552,906.8382,517.794,904.6951,512.3208,897.3442,518.3552" style="stroke:#000000;stroke-width:1.0;"/><text fill="#000000" font-family="sans-serif" font-size="13" lengthAdjust="spacing" textLength="21" x="911" y="521.8516">has</text><text fill="#000000" font-family="sans-serif" font-size="13" lengthAdjust="spacing" textLength="7" x="1124.9867" y="362.1215">1</text><text fill="#000000" font-family="sans-serif" font-size="13" lengthAdjust="spacing" textLength="5" x="754.4531" y="509.8077">*</text><!--MD5=[49dab45482ce825a685ef99fd95a9156]
link VaccinationCenter to Coordinator--><path codeLine="107" d="M1210.11,244.3564 C1241.06,244.3564 1277.39,244.3564 1305.74,244.3564 " fill="none" id="VaccinationCenter-Coordinator" style="stroke:#A80036;stroke-width:1.0;"/><polygon fill="#000000" points="1250,235.5322,1240.9549,232.5933,1240.9549,238.4712,1250,235.5322" style="stroke:#000000;stroke-width:1.0;"/><text fill="#000000" font-family="sans-serif" font-size="13" lengthAdjust="spacing" textLength="21" x="1254" y="240.8516">has</text><text fill="#000000" font-family="sans-serif" font-size="13" lengthAdjust="spacing" textLength="7" x="1218.1587" y="258.7856">1</text><text fill="#000000" font-family="sans-serif" font-size="13" lengthAdjust="spacing" textLength="7" x="1291.0643" y="259.0524">1</text><!--MD5=[7f45cd623d65d6b71bd9dc1a08827f9d]
link Coordinator to VaccinationProcess--><path codeLine="109" d="M1388.14,264.4464 C1430.84,290.7464 1505.83,336.9164 1553.52,366.2764 " fill="none" id="Coordinator-VaccinationProcess" style="stroke:#A80036;stroke-width:1.0;"/><polygon fill="#000000" points="1442.2576,287.1538,1436.0964,279.9088,1433.0146,284.9139,1442.2576,287.1538" style="stroke:#000000;stroke-width:1.0;"/><text fill="#000000" font-family="sans-serif" font-size="13" lengthAdjust="spacing" textLength="50" x="1447" y="289.8516">monitors</text><text fill="#000000" font-family="sans-serif" font-size="13" lengthAdjust="spacing" textLength="7" x="1389.6169" y="285.8913">1</text><text fill="#000000" font-family="sans-serif" font-size="13" lengthAdjust="spacing" textLength="5" x="1536.9468" y="355.2837">*</text><!--MD5=[5bd8abec604a5efddd0fd669773de516]
link Receptionist to Schedule--><path codeLine="111" d="M731.91,283.6164 C769.16,312.2064 837.24,364.4464 878.77,396.3264 " fill="none" id="Receptionist-Schedule" style="stroke:#A80036;stroke-width:1.0;"/><polygon fill="#000000" points="793.9665,323.5764,788.5803,315.738,785.0017,320.4009,793.9665,323.5764" style="stroke:#000000;stroke-width:1.0;"/><text fill="#000000" font-family="sans-serif" font-size="13" lengthAdjust="spacing" textLength="43" x="799" y="325.8516">creates</text><text fill="#000000" font-family="sans-serif" font-size="13" lengthAdjust="spacing" textLength="7" x="731.3358" y="304.7537">1</text><text fill="#000000" font-family="sans-serif" font-size="13" lengthAdjust="spacing" textLength="5" x="864.3296" y="385.3458">*</text><!--MD5=[b663e1a5626dc490590fd67fca32619d]
link Schedule to VaccinationCenter--><path codeLine="114" d="M957.05,426.2764 C984.89,426.2664 1021.34,422.1664 1048,404.3564 C1071.5,388.6564 1090.04,364.9964 1104.26,340.6464 " fill="none" id="Schedule-VaccinationCenter" style="stroke:#A80036;stroke-width:1.0;"/><polygon fill="#000000" points="1000.178,398.0463,1009.4743,396.0387,1006.5188,390.9579,1000.178,398.0463" style="stroke:#000000;stroke-width:1.0;"/><text fill="#000000" font-family="sans-serif" font-size="13" lengthAdjust="spacing" textLength="21" x="1013.5" y="400.8516">has</text><text fill="#000000" font-family="sans-serif" font-size="13" lengthAdjust="spacing" textLength="5" x="964.9855" y="441.7626">*</text><text fill="#000000" font-family="sans-serif" font-size="13" lengthAdjust="spacing" textLength="7" x="1093.9494" y="362.1322">1</text><!--MD5=[fd59449717ce1c5334d382e3e36ca150]
link Schedule to VaccineType--><path codeLine="115" d="M957.08,446.4564 C966.83,451.7964 977.23,457.3664 987,462.3564 C1022.23,480.3664 1062.61,499.4764 1093.45,513.7664 " fill="none" id="Schedule-VaccineType" style="stroke:#A80036;stroke-width:1.0;"/><polygon fill="#000000" points="1008.9836,455.7453,1002.1735,449.1065,999.5719,454.3772,1008.9836,455.7453" style="stroke:#000000;stroke-width:1.0;"/><text fill="#000000" font-family="sans-serif" font-size="13" lengthAdjust="spacing" textLength="21" x="1013.5" y="458.8516">has</text><text fill="#000000" font-family="sans-serif" font-size="13" lengthAdjust="spacing" textLength="5" x="965.0208" y="465.5372">*</text><text fill="#000000" font-family="sans-serif" font-size="13" lengthAdjust="spacing" textLength="7" x="1078.5114" y="525.1565">1</text><!--MD5=[1073ccc13c21b6bdbf5afe44f6e76236]
link SNSUser to Schedule--><path codeLine="117" d="M746.69,464.2764 C783.25,455.3364 836.37,442.3464 872.89,433.4164 " fill="none" id="SNSUser-Schedule" style="stroke:#A80036;stroke-width:1.0;"/><polygon fill="#000000" points="794.8569,430.3446,785.3726,429.6383,786.7688,435.3479,794.8569,430.3446" style="stroke:#000000;stroke-width:1.0;"/><text fill="#000000" font-family="sans-serif" font-size="13" lengthAdjust="spacing" textLength="43" x="799" y="436.8516">creates</text><text fill="#000000" font-family="sans-serif" font-size="13" lengthAdjust="spacing" textLength="7" x="754.543" y="477.4288">1</text><text fill="#000000" font-family="sans-serif" font-size="13" lengthAdjust="spacing" textLength="5" x="859.9438" y="450.1744">*</text><!--MD5=[0e6b2441f6980354f17e2a2b41c9848d]
link SNSUser to Vaccine--><path codeLine="118" d="M746.8,516.7164 C758.54,527.4864 771.76,538.5064 785,547.3564 C814.16,566.8464 850.66,583.1764 877.39,593.8564 " fill="none" id="SNSUser-Vaccine" style="stroke:#A80036;stroke-width:1.0;"/><polygon fill="#000000" points="805.305,541.0752,799.0119,533.9445,796.0224,539.0053,805.305,541.0752" style="stroke:#000000;stroke-width:1.0;"/><text fill="#000000" font-family="sans-serif" font-size="13" lengthAdjust="spacing" textLength="21" x="810" y="543.8516">has</text><text fill="#000000" font-family="sans-serif" font-size="13" lengthAdjust="spacing" textLength="7" x="754.3856" y="538.5667">1</text><text fill="#000000" font-family="sans-serif" font-size="13" lengthAdjust="spacing" textLength="5" x="864.4933" y="587.1857">*</text><!--MD5=[d497e8607f1e7b3d570c70d67196006d]
link Administrator to VaccinationCenter--><path codeLine="120" d="M61.03,454.1464 C64.49,366.5864 90.5,24.3564 285.5,24.3564 C285.5,24.3564 285.5,24.3564 916,24.3564 C992.15,24.3564 1052.43,88.9864 1091.69,148.1764 " fill="none" id="Administrator-VaccinationCenter" style="stroke:#A80036;stroke-width:1.0;"/><polygon fill="#000000" points="565.7932,14.1093,556.2858,13.866,557.9586,19.5008,565.7932,14.1093" style="stroke:#000000;stroke-width:1.0;"/><text fill="#000000" font-family="sans-serif" font-size="13" lengthAdjust="spacing" textLength="53" x="570" y="20.8516">manages</text><text fill="#000000" font-family="sans-serif" font-size="13" lengthAdjust="spacing" textLength="7" x="53.4513" y="443.4065">1</text><text fill="#000000" font-family="sans-serif" font-size="13" lengthAdjust="spacing" textLength="5" x="1082.3223" y="137.3759">*</text><!--MD5=[2b5fc2dce8eec1aafb1a3721aa50d3a4]
link Administrator to SNSUser--><path codeLine="121" d="M112.03,474.3564 C236.15,474.3564 549.74,474.3564 662.4,474.3564 " fill="none" id="Administrator-SNSUser" style="stroke:#A80036;stroke-width:1.0;"/><polygon fill="#000000" points="373,465.5322,363.9549,462.5933,363.9549,468.4712,373,465.5322" style="stroke:#000000;stroke-width:1.0;"/><text fill="#000000" font-family="sans-serif" font-size="13" lengthAdjust="spacing" textLength="50" x="377" y="470.8516">registers</text><text fill="#000000" font-family="sans-serif" font-size="13" lengthAdjust="spacing" textLength="7" x="119.9092" y="489.0013">1</text><text fill="#000000" font-family="sans-serif" font-size="13" lengthAdjust="spacing" textLength="5" x="649.4556" y="489.2919">*</text><!--MD5=[0e439f75a3d966f965fe5f237a1bacbe]
link Administrator to Vaccine--><path codeLine="122" d="M79.1,494.5364 C115.11,531.2864 198.49,605.3564 285.5,605.3564 C285.5,605.3564 285.5,605.3564 705.5,605.3564 C765.77,605.3564 835.84,606.2064 877.47,606.7964 " fill="none" id="Administrator-Vaccine" style="stroke:#A80036;stroke-width:1.0;"/><polygon fill="#000000" points="467.9513,597.2284,459.4035,593.0587,458.5851,598.8793,467.9513,597.2284" style="stroke:#000000;stroke-width:1.0;"/><text fill="#000000" font-family="sans-serif" font-size="13" lengthAdjust="spacing" textLength="53" x="472" y="601.8516">manages</text><text fill="#000000" font-family="sans-serif" font-size="13" lengthAdjust="spacing" textLength="7" x="76.6281" y="516.0066">1</text><text fill="#000000" font-family="sans-serif" font-size="13" lengthAdjust="spacing" textLength="5" x="864.5891" y="621.8232">*</text><!--MD5=[d0b477519989ed3601cd00d052224350]
link Administrator to VaccineType--><path codeLine="123" d="M69.28,494.6564 C94.35,549.1264 171.86,694.3564 285.5,694.3564 C285.5,694.3564 285.5,694.3564 916,694.3564 C1006.51,694.3564 1086.8,608.6964 1122.85,563.5164 " fill="none" id="Administrator-VaccineType" style="stroke:#A80036;stroke-width:1.0;"/><polygon fill="#000000" points="565.9894,685.8583,557.1552,682.3357,556.7719,688.2011,565.9894,685.8583" style="stroke:#000000;stroke-width:1.0;"/><text fill="#000000" font-family="sans-serif" font-size="13" lengthAdjust="spacing" textLength="53" x="570" y="690.8516">manages</text><text fill="#000000" font-family="sans-serif" font-size="13" lengthAdjust="spacing" textLength="7" x="63.9678" y="515.8044">1</text><text fill="#000000" font-family="sans-serif" font-size="13" lengthAdjust="spacing" textLength="5" x="1112.6766" y="584.7592">*</text><!--MD5=[dfd88602f58f965188f0d5a1bce8a424]
@startuml
hide methods
left to right direction
skinparam classAttributeIconSize 3




class Coordinator{

}

class Nurse {


}

class Receptionist{

}

class Administrator{

}


class Employee{
    -name
    -phoneNumber
    -emailAddress
}

class VaccinationCenter {
    -name
    -address
    -phoneNumber
    -emailAddress
    -faxNumber
    -websiteAddress
    -openingHours
    -closingHours
    -slotDuration
    -maxNumVaxPerSlot
    -capacity

}

class Schedule{
    -dateTime
}

class SNSUser {
    -snsNumber
    -name
    -age
    -phoneNum
    -email
}

class VaccineType{
    -disease

}

class Vaccine{
    -name
    -lotNum
}


class VaccinationProcess{
    -recoveryPeriod
}

class AgeGroup{
    -minAge
    -maxAge
}
class Dose{
    -doseNumber
    -dosage
}

class TimeInterval{
    -numDays
}

Employee "1" - - "1" Nurse: is <
Employee "1" - - "1" Receptionist: is <
Employee "1" - - "1" Coordinator: is <
Administrator "1" - - "*" Employee: Manages >

Employee "*" - - "*" VaccinationCenter: has <

Nurse "*" - - "1" VaccinationProcess: updates >
Nurse "1" - - "*" SNSUser: updates >

Receptionist "1" - - "1" VaccinationCenter: updates >

Vaccine "1" - - "1" VaccinationProcess: has >
Vaccine "*" - - "1" VaccineType: has <
VaccinationProcess "1" - - "*" AgeGroup: has >
AgeGroup "1" - - "*" Dose: has >
(AgeGroup, Dose) .. TimeInterval


VaccinationCenter "1" - - "*" SNSUser: has >
VaccinationCenter "1" - - "1" Coordinator: has >

Coordinator "1" - - "*" VaccinationProcess: monitors >

Receptionist "1" - - "*" Schedule: creates >


Schedule "*" - - "1" VaccinationCenter: has <
Schedule "*" - - "1" VaccineType: has >

SNSUser "1" - - "*" Schedule: creates >
SNSUser "1" - - "*" Vaccine: has >

Administrator "1" - - "*" VaccinationCenter: manages >
Administrator "1" - - "*" SNSUser: registers >
Administrator "1" - - "*" Vaccine: manages >
Administrator "1" - - "*" VaccineType: manages >


@enduml

PlantUML version 1.2022.1(Tue Feb 01 18:19:58 GMT 2022)
(GPL source distribution)
Java Runtime: OpenJDK Runtime Environment
JVM: OpenJDK 64-Bit Server VM
Default Encoding: Cp1252
Language: en
Country: GB
--></g></svg>