<?xml version="1.0" encoding="UTF-8" standalone="no"?><svg xmlns="http://www.w3.org/2000/svg" xmlns:xlink="http://www.w3.org/1999/xlink" contentScriptType="application/ecmascript" contentStyleType="text/css" height="495px" preserveAspectRatio="none" style="width:431px;height:495px;background:#FFFFFF;" version="1.1" viewBox="0 0 431 495" width="431px" zoomAndPan="magnify"><defs><filter height="300%" id="fcm3vqt1iiyfr" width="300%" x="-1" y="-1"><feGaussianBlur result="blurOut" stdDeviation="2.0"/><feColorMatrix in="blurOut" result="blurOut2" type="matrix" values="0 0 0 0 0 0 0 0 0 0 0 0 0 0 0 0 0 0 .4 0"/><feOffset dx="4.0" dy="4.0" in="blurOut2" result="blurOut3"/><feBlend in="SourceGraphic" in2="blurOut3" mode="normal"/></filter></defs><g><!--MD5=[0e501da62322464167c8ec4d233a6b7e]
class VaccineType--><rect codeLine="3" fill="#FEFECE" filter="url(#fcm3vqt1iiyfr)" height="61.8359" id="VaccineType" style="stroke:#A80036;stroke-width:1.5;" width="101" x="161.5" y="420"/><ellipse cx="176.5" cy="436" fill="#ADD1B2" rx="11" ry="11" style="stroke:#A80036;stroke-width:1.0;"/><path d="M178.5,432.5 Q178.7031,432 178.9375,431.75 Q179.1719,431.5 179.4375,431.5 Q179.9063,431.5 180.2031,431.7813 Q180.5,432.0625 180.5,432.7188 L180.5,434.2813 Q180.5,434.9375 180.2188,435.2188 Q179.9375,435.5 179.5,435.5 Q179.1094,435.5 178.8594,435.3281 Q178.6094,435.1563 178.5,434.7031 Q178.4531,434.3906 178.2813,434.2188 Q177.9688,433.8906 177.4063,433.7031 Q176.8438,433.5 176.2813,433.5 Q175.5781,433.5 174.9844,433.7813 Q174.4063,434.0625 173.9531,434.6875 Q173.5,435.3125 173.5,436.1719 L173.5,437.0938 Q173.5,438.125 174.3438,438.8125 Q175.1875,439.5 176.6875,439.5 Q177.5781,439.5 178.2031,439.2969 Q178.5625,439.1875 178.9688,438.8281 Q179.2344,438.625 179.375,438.5625 Q179.5156,438.5 179.6875,438.5 Q180.0156,438.5 180.25,438.7656 Q180.5,439.0156 180.5,439.375 Q180.5,439.7188 180.1563,440.125 Q179.6563,440.7188 178.8594,441.0469 Q177.8125,441.5 176.5313,441.5 Q175.0313,441.5 173.8281,440.9063 Q172.8594,440.4375 172.1719,439.4219 Q171.5,438.4063 171.5,437.2031 L171.5,436.1094 Q171.5,434.8594 172.0938,433.7656 Q172.7031,432.6719 173.75,432.0938 Q174.8125,431.5 176,431.5 Q176.7188,431.5 177.3438,431.75 Q177.9688,432 178.5,432.5 Z " fill="#000000"/><text fill="#000000" font-family="sans-serif" font-size="12" lengthAdjust="spacing" textLength="69" x="190.5" y="440.9102">VaccineType</text><line style="stroke:#A80036;stroke-width:1.5;" x1="162.5" x2="261.5" y1="452" y2="452"/><text fill="#000000" font-family="sans-serif" font-size="11" lengthAdjust="spacing" textLength="42" x="167.5" y="467.4189">-disease</text><line style="stroke:#A80036;stroke-width:1.5;" x1="162.5" x2="261.5" y1="473.8359" y2="473.8359"/><!--MD5=[02e4b9b7573f1156f41e60aa5b4e25a4]
class Company--><rect codeLine="7" fill="#FEFECE" filter="url(#fcm3vqt1iiyfr)" height="103.3438" id="Company" style="stroke:#A80036;stroke-width:1.5;" width="410" x="7" y="239"/><ellipse cx="181.25" cy="255" fill="#ADD1B2" rx="11" ry="11" style="stroke:#A80036;stroke-width:1.0;"/><path d="M183.25,251.5 Q183.4531,251 183.6875,250.75 Q183.9219,250.5 184.1875,250.5 Q184.6563,250.5 184.9531,250.7813 Q185.25,251.0625 185.25,251.7188 L185.25,253.2813 Q185.25,253.9375 184.9688,254.2188 Q184.6875,254.5 184.25,254.5 Q183.8594,254.5 183.6094,254.3281 Q183.3594,254.1563 183.25,253.7031 Q183.2031,253.3906 183.0313,253.2188 Q182.7188,252.8906 182.1563,252.7031 Q181.5938,252.5 181.0313,252.5 Q180.3281,252.5 179.7344,252.7813 Q179.1563,253.0625 178.7031,253.6875 Q178.25,254.3125 178.25,255.1719 L178.25,256.0938 Q178.25,257.125 179.0938,257.8125 Q179.9375,258.5 181.4375,258.5 Q182.3281,258.5 182.9531,258.2969 Q183.3125,258.1875 183.7188,257.8281 Q183.9844,257.625 184.125,257.5625 Q184.2656,257.5 184.4375,257.5 Q184.7656,257.5 185,257.7656 Q185.25,258.0156 185.25,258.375 Q185.25,258.7188 184.9063,259.125 Q184.4063,259.7188 183.6094,260.0469 Q182.5625,260.5 181.2813,260.5 Q179.7813,260.5 178.5781,259.9063 Q177.6094,259.4375 176.9219,258.4219 Q176.25,257.4063 176.25,256.2031 L176.25,255.1094 Q176.25,253.8594 176.8438,252.7656 Q177.4531,251.6719 178.5,251.0938 Q179.5625,250.5 180.75,250.5 Q181.4688,250.5 182.0938,250.75 Q182.7188,251 183.25,251.5 Z " fill="#000000"/><text fill="#000000" font-family="sans-serif" font-size="12" lengthAdjust="spacing" textLength="53" x="201.75" y="259.9102">Company</text><line style="stroke:#A80036;stroke-width:1.5;" x1="8" x2="416" y1="271" y2="271"/><text fill="#000000" font-family="sans-serif" font-size="11" lengthAdjust="spacing" textLength="93" x="13" y="286.4189">-String designation;</text><text fill="#000000" font-family="sans-serif" font-size="11" lengthAdjust="spacing" textLength="126" x="13" y="300.2549">-AuthFacade authFacade;</text><line style="stroke:#A80036;stroke-width:1.5;" x1="8" x2="416" y1="306.6719" y2="306.6719"/><text fill="#000000" font-family="sans-serif" font-size="11" lengthAdjust="spacing" textLength="398" x="13" y="322.0908">+Organization(name, VatNumber, webSite, phone, email, postalAddress, manager)</text><text fill="#000000" font-family="sans-serif" font-size="11" lengthAdjust="spacing" textLength="147" x="13" y="335.9268">+createVaccineType(disease)</text><!--MD5=[6dbf52bfd17f83635173c22b4b2e3c96]
class VaccineTypeController--><rect codeLine="15" fill="#FEFECE" filter="url(#fcm3vqt1iiyfr)" height="61.8359" id="VaccineTypeController" style="stroke:#A80036;stroke-width:1.5;" width="155" x="134.5" y="116"/><ellipse cx="149.5" cy="132" fill="#ADD1B2" rx="11" ry="11" style="stroke:#A80036;stroke-width:1.0;"/><path d="M151.5,128.5 Q151.7031,128 151.9375,127.75 Q152.1719,127.5 152.4375,127.5 Q152.9063,127.5 153.2031,127.7813 Q153.5,128.0625 153.5,128.7188 L153.5,130.2813 Q153.5,130.9375 153.2188,131.2188 Q152.9375,131.5 152.5,131.5 Q152.1094,131.5 151.8594,131.3281 Q151.6094,131.1563 151.5,130.7031 Q151.4531,130.3906 151.2813,130.2188 Q150.9688,129.8906 150.4063,129.7031 Q149.8438,129.5 149.2813,129.5 Q148.5781,129.5 147.9844,129.7813 Q147.4063,130.0625 146.9531,130.6875 Q146.5,131.3125 146.5,132.1719 L146.5,133.0938 Q146.5,134.125 147.3438,134.8125 Q148.1875,135.5 149.6875,135.5 Q150.5781,135.5 151.2031,135.2969 Q151.5625,135.1875 151.9688,134.8281 Q152.2344,134.625 152.375,134.5625 Q152.5156,134.5 152.6875,134.5 Q153.0156,134.5 153.25,134.7656 Q153.5,135.0156 153.5,135.375 Q153.5,135.7188 153.1563,136.125 Q152.6563,136.7188 151.8594,137.0469 Q150.8125,137.5 149.5313,137.5 Q148.0313,137.5 146.8281,136.9063 Q145.8594,136.4375 145.1719,135.4219 Q144.5,134.4063 144.5,133.2031 L144.5,132.1094 Q144.5,130.8594 145.0938,129.7656 Q145.7031,128.6719 146.75,128.0938 Q147.8125,127.5 149,127.5 Q149.7188,127.5 150.3438,127.75 Q150.9688,128 151.5,128.5 Z " fill="#000000"/><text fill="#000000" font-family="sans-serif" font-size="12" lengthAdjust="spacing" textLength="123" x="163.5" y="136.9102">VaccineTypeController</text><line style="stroke:#A80036;stroke-width:1.5;" x1="135.5" x2="288.5" y1="148" y2="148"/><line style="stroke:#A80036;stroke-width:1.5;" x1="135.5" x2="288.5" y1="156" y2="156"/><text fill="#000000" font-family="sans-serif" font-size="11" lengthAdjust="spacing" textLength="109" x="140.5" y="171.4189">+createVaccineType()</text><!--MD5=[9b924ea5d04014b32ddf058af4fde6bf]
class CreateVaccineTypeUI--><rect codeLine="19" fill="#FEFECE" filter="url(#fcm3vqt1iiyfr)" height="48" id="CreateVaccineTypeUI" style="stroke:#A80036;stroke-width:1.5;" width="150" x="137" y="7"/><ellipse cx="152" cy="23" fill="#ADD1B2" rx="11" ry="11" style="stroke:#A80036;stroke-width:1.0;"/><path d="M154,19.5 Q154.2031,19 154.4375,18.75 Q154.6719,18.5 154.9375,18.5 Q155.4063,18.5 155.7031,18.7813 Q156,19.0625 156,19.7188 L156,21.2813 Q156,21.9375 155.7188,22.2188 Q155.4375,22.5 155,22.5 Q154.6094,22.5 154.3594,22.3281 Q154.1094,22.1563 154,21.7031 Q153.9531,21.3906 153.7813,21.2188 Q153.4688,20.8906 152.9063,20.7031 Q152.3438,20.5 151.7813,20.5 Q151.0781,20.5 150.4844,20.7813 Q149.9063,21.0625 149.4531,21.6875 Q149,22.3125 149,23.1719 L149,24.0938 Q149,25.125 149.8438,25.8125 Q150.6875,26.5 152.1875,26.5 Q153.0781,26.5 153.7031,26.2969 Q154.0625,26.1875 154.4688,25.8281 Q154.7344,25.625 154.875,25.5625 Q155.0156,25.5 155.1875,25.5 Q155.5156,25.5 155.75,25.7656 Q156,26.0156 156,26.375 Q156,26.7188 155.6563,27.125 Q155.1563,27.7188 154.3594,28.0469 Q153.3125,28.5 152.0313,28.5 Q150.5313,28.5 149.3281,27.9063 Q148.3594,27.4375 147.6719,26.4219 Q147,25.4063 147,24.2031 L147,23.1094 Q147,21.8594 147.5938,20.7656 Q148.2031,19.6719 149.25,19.0938 Q150.3125,18.5 151.5,18.5 Q152.2188,18.5 152.8438,18.75 Q153.4688,19 154,19.5 Z " fill="#000000"/><text fill="#000000" font-family="sans-serif" font-size="12" lengthAdjust="spacing" textLength="118" x="166" y="27.9102">CreateVaccineTypeUI</text><line style="stroke:#A80036;stroke-width:1.5;" x1="138" x2="286" y1="39" y2="39"/><line style="stroke:#A80036;stroke-width:1.5;" x1="138" x2="286" y1="47" y2="47"/><!--MD5=[ca17ce827f348da20bd52cce950659d9]
link CreateVaccineTypeUI to VaccineTypeController--><path codeLine="23" d="M212,55.07 C212,71.01 212,92.51 212,110.6 " fill="none" id="CreateVaccineTypeUI-to-VaccineTypeController" style="stroke:#A80036;stroke-width:1.0;stroke-dasharray:7.0,7.0;"/><polygon fill="#A80036" points="212,115.61,216,106.61,212,110.61,208,106.61,212,115.61" style="stroke:#A80036;stroke-width:1.0;"/><!--MD5=[4a527b41d5c31c02047601ba221fc985]
link VaccineTypeController to Company--><path codeLine="24" d="M212,178.01 C212,194.17 212,214.64 212,233.62 " fill="none" id="VaccineTypeController-to-Company" style="stroke:#A80036;stroke-width:1.0;stroke-dasharray:7.0,7.0;"/><polygon fill="#A80036" points="212,238.93,216,229.93,212,233.93,208,229.93,212,238.93" style="stroke:#A80036;stroke-width:1.0;"/><!--MD5=[05986564e1c13a00611587b35563d868]
link Company to VaccineType--><path codeLine="26" d="M212,342.09 C212,365.74 212,393.33 212,414.69 " fill="none" id="Company-to-VaccineType" style="stroke:#A80036;stroke-width:1.0;"/><polygon fill="#A80036" points="212,419.7,216,410.7,212,414.7,208,410.7,212,419.7" style="stroke:#A80036;stroke-width:1.0;"/><text fill="#000000" font-family="sans-serif" font-size="13" lengthAdjust="spacing" textLength="30" x="213" y="386.4951">owns</text><text fill="#000000" font-family="sans-serif" font-size="13" lengthAdjust="spacing" textLength="7" x="204.5078" y="363.9655">1</text><text fill="#000000" font-family="sans-serif" font-size="13" lengthAdjust="spacing" textLength="5" x="206.4844" y="409.1427">*</text><!--MD5=[390ca64dd5567190c8f24df4805c432b]
@startuml
skinparam classAttributeIconSize 0

class VaccineType{
    -disease
}

class Company {
    -String designation;
    -AuthFacade authFacade;
   +Organization(name, VatNumber, webSite, phone, email, postalAddress, manager)
   +createVaccineType(disease)
 }


 class VaccineTypeController {
  +createVaccineType()
 }

 class CreateVaccineTypeUI {

 }

 CreateVaccineTypeUI ..> VaccineTypeController
 VaccineTypeController ..> Company

 Company "1" - -> "*" VaccineType : owns



@enduml

PlantUML version 1.2022.1(Tue Feb 01 18:19:58 GMT 2022)
(GPL source distribution)
Java Runtime: OpenJDK Runtime Environment
JVM: OpenJDK 64-Bit Server VM
Default Encoding: Cp1252
Language: en
Country: GB
--></g></svg>