<?xml version="1.0" encoding="UTF-8" standalone="no"?><svg xmlns="http://www.w3.org/2000/svg" xmlns:xlink="http://www.w3.org/1999/xlink" contentStyleType="text/css" height="536px" preserveAspectRatio="none" style="width:2235px;height:536px;background:#FFFFFF;" version="1.1" viewBox="0 0 2235 536" width="2235px" zoomAndPan="magnify"><defs/><g><!--MD5=[de60e6d4f424ae4d0522096f76a59010]
class VaccinationCenter--><g id="elem_VaccinationCenter"><rect codeLine="5" fill="#F1F1F1" height="233.7031" id="VaccinationCenter" rx="2.5" ry="2.5" style="stroke:#181818;stroke-width:0.5;" width="148" x="319" y="7"/><ellipse cx="334" cy="23" fill="#ADD1B2" rx="11" ry="11" style="stroke:#181818;stroke-width:1.0;"/><path d="M336,19.5 Q336.2031,19 336.4375,18.75 Q336.6719,18.5 336.9375,18.5 Q337.4063,18.5 337.7031,18.7813 Q338,19.0625 338,19.7188 L338,21.2813 Q338,21.9375 337.7188,22.2188 Q337.4375,22.5 337,22.5 Q336.6094,22.5 336.3594,22.3281 Q336.1094,22.1563 336,21.7031 Q335.9531,21.3906 335.7813,21.2188 Q335.4688,20.8906 334.9063,20.7031 Q334.3438,20.5 333.7813,20.5 Q333.0781,20.5 332.4844,20.7813 Q331.9063,21.0625 331.4531,21.6875 Q331,22.3125 331,23.1719 L331,24.0938 Q331,25.125 331.8438,25.8125 Q332.6875,26.5 334.1875,26.5 Q335.0781,26.5 335.7031,26.2969 Q336.0625,26.1875 336.4688,25.8281 Q336.7344,25.625 336.875,25.5625 Q337.0156,25.5 337.1875,25.5 Q337.5156,25.5 337.75,25.7656 Q338,26.0156 338,26.375 Q338,26.7188 337.6563,27.125 Q337.1563,27.7188 336.3594,28.0469 Q335.3125,28.5 334.0313,28.5 Q332.5313,28.5 331.3281,27.9063 Q330.3594,27.4375 329.6719,26.4219 Q329,25.4063 329,24.2031 L329,23.1094 Q329,21.8594 329.5938,20.7656 Q330.2031,19.6719 331.25,19.0938 Q332.3125,18.5 333.5,18.5 Q334.2188,18.5 334.8438,18.75 Q335.4688,19 336,19.5 Z " fill="#000000"/><text fill="#000000" font-family="sans-serif" font-size="14" lengthAdjust="spacing" textLength="116" x="348" y="28.7285">VaccinationCenter</text><line style="stroke:#181818;stroke-width:0.5;" x1="320" x2="466" y1="39" y2="39"/><text fill="#000000" font-family="sans-serif" font-size="14" lengthAdjust="spacing" textLength="40" x="325" y="57.5332">-name</text><text fill="#000000" font-family="sans-serif" font-size="14" lengthAdjust="spacing" textLength="56" x="325" y="75.1426">-address</text><text fill="#000000" font-family="sans-serif" font-size="14" lengthAdjust="spacing" textLength="94" x="325" y="92.752">-phoneNumber</text><text fill="#000000" font-family="sans-serif" font-size="14" lengthAdjust="spacing" textLength="90" x="325" y="110.3613">-emailAddress</text><text fill="#000000" font-family="sans-serif" font-size="14" lengthAdjust="spacing" textLength="72" x="325" y="127.9707">-faxNumber</text><text fill="#000000" font-family="sans-serif" font-size="14" lengthAdjust="spacing" textLength="104" x="325" y="145.5801">-websiteAddress</text><text fill="#000000" font-family="sans-serif" font-size="14" lengthAdjust="spacing" textLength="93" x="325" y="163.1895">-openingHours</text><text fill="#000000" font-family="sans-serif" font-size="14" lengthAdjust="spacing" textLength="86" x="325" y="180.7988">-closingHours</text><text fill="#000000" font-family="sans-serif" font-size="14" lengthAdjust="spacing" textLength="81" x="325" y="198.4082">-slotDuration</text><text fill="#000000" font-family="sans-serif" font-size="14" lengthAdjust="spacing" textLength="127" x="325" y="216.0176">-maxNumVaxPerSlot</text><text fill="#000000" font-family="sans-serif" font-size="14" lengthAdjust="spacing" textLength="57" x="325" y="233.627">-capacity</text></g><!--MD5=[03960189e81aa2c066c762ffabbee709]
class Receptionist--><g id="elem_Receptionist"><rect codeLine="20" fill="#F1F1F1" height="40" id="Receptionist" rx="2.5" ry="2.5" style="stroke:#181818;stroke-width:0.5;" width="110" x="497" y="236"/><ellipse cx="512" cy="252" fill="#ADD1B2" rx="11" ry="11" style="stroke:#181818;stroke-width:1.0;"/><path d="M514,248.5 Q514.2031,248 514.4375,247.75 Q514.6719,247.5 514.9375,247.5 Q515.4063,247.5 515.7031,247.7813 Q516,248.0625 516,248.7188 L516,250.2813 Q516,250.9375 515.7188,251.2188 Q515.4375,251.5 515,251.5 Q514.6094,251.5 514.3594,251.3281 Q514.1094,251.1563 514,250.7031 Q513.9531,250.3906 513.7813,250.2188 Q513.4688,249.8906 512.9063,249.7031 Q512.3438,249.5 511.7813,249.5 Q511.0781,249.5 510.4844,249.7813 Q509.9063,250.0625 509.4531,250.6875 Q509,251.3125 509,252.1719 L509,253.0938 Q509,254.125 509.8438,254.8125 Q510.6875,255.5 512.1875,255.5 Q513.0781,255.5 513.7031,255.2969 Q514.0625,255.1875 514.4688,254.8281 Q514.7344,254.625 514.875,254.5625 Q515.0156,254.5 515.1875,254.5 Q515.5156,254.5 515.75,254.7656 Q516,255.0156 516,255.375 Q516,255.7188 515.6563,256.125 Q515.1563,256.7188 514.3594,257.0469 Q513.3125,257.5 512.0313,257.5 Q510.5313,257.5 509.3281,256.9063 Q508.3594,256.4375 507.6719,255.4219 Q507,254.4063 507,253.2031 L507,252.1094 Q507,250.8594 507.5938,249.7656 Q508.2031,248.6719 509.25,248.0938 Q510.3125,247.5 511.5,247.5 Q512.2188,247.5 512.8438,247.75 Q513.4688,248 514,248.5 Z " fill="#000000"/><text fill="#000000" font-family="sans-serif" font-size="14" lengthAdjust="spacing" textLength="78" x="526" y="257.7285">Receptionist</text><line style="stroke:#181818;stroke-width:0.5;" x1="498" x2="606" y1="268" y2="268"/></g><!--MD5=[02e4b9b7573f1156f41e60aa5b4e25a4]
class Company--><g id="elem_Company"><rect codeLine="24" fill="#F1F1F1" height="40" id="Company" rx="2.5" ry="2.5" style="stroke:#181818;stroke-width:0.5;" width="92" x="7" y="276"/><ellipse cx="22" cy="292" fill="#ADD1B2" rx="11" ry="11" style="stroke:#181818;stroke-width:1.0;"/><path d="M24,288.5 Q24.2031,288 24.4375,287.75 Q24.6719,287.5 24.9375,287.5 Q25.4063,287.5 25.7031,287.7813 Q26,288.0625 26,288.7188 L26,290.2813 Q26,290.9375 25.7188,291.2188 Q25.4375,291.5 25,291.5 Q24.6094,291.5 24.3594,291.3281 Q24.1094,291.1563 24,290.7031 Q23.9531,290.3906 23.7813,290.2188 Q23.4688,289.8906 22.9063,289.7031 Q22.3438,289.5 21.7813,289.5 Q21.0781,289.5 20.4844,289.7813 Q19.9063,290.0625 19.4531,290.6875 Q19,291.3125 19,292.1719 L19,293.0938 Q19,294.125 19.8438,294.8125 Q20.6875,295.5 22.1875,295.5 Q23.0781,295.5 23.7031,295.2969 Q24.0625,295.1875 24.4688,294.8281 Q24.7344,294.625 24.875,294.5625 Q25.0156,294.5 25.1875,294.5 Q25.5156,294.5 25.75,294.7656 Q26,295.0156 26,295.375 Q26,295.7188 25.6563,296.125 Q25.1563,296.7188 24.3594,297.0469 Q23.3125,297.5 22.0313,297.5 Q20.5313,297.5 19.3281,296.9063 Q18.3594,296.4375 17.6719,295.4219 Q17,294.4063 17,293.2031 L17,292.1094 Q17,290.8594 17.5938,289.7656 Q18.2031,288.6719 19.25,288.0938 Q20.3125,287.5 21.5,287.5 Q22.2188,287.5 22.8438,287.75 Q23.4688,288 24,288.5 Z " fill="#000000"/><text fill="#000000" font-family="sans-serif" font-size="14" lengthAdjust="spacing" textLength="60" x="36" y="297.7285">Company</text><line style="stroke:#181818;stroke-width:0.5;" x1="8" x2="98" y1="308" y2="308"/></g><!--MD5=[72be06cc7ae02ccc98efe28a50e62246]
class SNSUser--><g id="elem_SNSUser"><rect codeLine="28" fill="#F1F1F1" height="128.0469" id="SNSUser" rx="2.5" ry="2.5" style="stroke:#181818;stroke-width:0.5;" width="88" x="940" y="236"/><ellipse cx="955" cy="252" fill="#ADD1B2" rx="11" ry="11" style="stroke:#181818;stroke-width:1.0;"/><path d="M957,248.5 Q957.2031,248 957.4375,247.75 Q957.6719,247.5 957.9375,247.5 Q958.4063,247.5 958.7031,247.7813 Q959,248.0625 959,248.7188 L959,250.2813 Q959,250.9375 958.7188,251.2188 Q958.4375,251.5 958,251.5 Q957.6094,251.5 957.3594,251.3281 Q957.1094,251.1563 957,250.7031 Q956.9531,250.3906 956.7813,250.2188 Q956.4688,249.8906 955.9063,249.7031 Q955.3438,249.5 954.7813,249.5 Q954.0781,249.5 953.4844,249.7813 Q952.9063,250.0625 952.4531,250.6875 Q952,251.3125 952,252.1719 L952,253.0938 Q952,254.125 952.8438,254.8125 Q953.6875,255.5 955.1875,255.5 Q956.0781,255.5 956.7031,255.2969 Q957.0625,255.1875 957.4688,254.8281 Q957.7344,254.625 957.875,254.5625 Q958.0156,254.5 958.1875,254.5 Q958.5156,254.5 958.75,254.7656 Q959,255.0156 959,255.375 Q959,255.7188 958.6563,256.125 Q958.1563,256.7188 957.3594,257.0469 Q956.3125,257.5 955.0313,257.5 Q953.5313,257.5 952.3281,256.9063 Q951.3594,256.4375 950.6719,255.4219 Q950,254.4063 950,253.2031 L950,252.1094 Q950,250.8594 950.5938,249.7656 Q951.2031,248.6719 952.25,248.0938 Q953.3125,247.5 954.5,247.5 Q955.2188,247.5 955.8438,247.75 Q956.4688,248 957,248.5 Z " fill="#000000"/><text fill="#000000" font-family="sans-serif" font-size="14" lengthAdjust="spacing" textLength="56" x="969" y="257.7285">SNSUser</text><line style="stroke:#181818;stroke-width:0.5;" x1="941" x2="1027" y1="268" y2="268"/><text fill="#000000" font-family="sans-serif" font-size="14" lengthAdjust="spacing" textLength="76" x="946" y="286.5332">-snsNumber</text><text fill="#000000" font-family="sans-serif" font-size="14" lengthAdjust="spacing" textLength="40" x="946" y="304.1426">-name</text><text fill="#000000" font-family="sans-serif" font-size="14" lengthAdjust="spacing" textLength="29" x="946" y="321.752">-age</text><text fill="#000000" font-family="sans-serif" font-size="14" lengthAdjust="spacing" textLength="73" x="946" y="339.3613">-phoneNum</text><text fill="#000000" font-family="sans-serif" font-size="14" lengthAdjust="spacing" textLength="38" x="946" y="356.9707">-email</text></g><!--MD5=[896d2519f405e74f6898b5ee922ef4fe]
class UserVaccines--><g id="elem_UserVaccines"><rect codeLine="36" fill="#F1F1F1" height="40" id="UserVaccines" rx="2.5" ry="2.5" style="stroke:#181818;stroke-width:0.5;" width="118" x="1124" y="302"/><ellipse cx="1139" cy="318" fill="#ADD1B2" rx="11" ry="11" style="stroke:#181818;stroke-width:1.0;"/><path d="M1141,314.5 Q1141.2031,314 1141.4375,313.75 Q1141.6719,313.5 1141.9375,313.5 Q1142.4063,313.5 1142.7031,313.7813 Q1143,314.0625 1143,314.7188 L1143,316.2813 Q1143,316.9375 1142.7188,317.2188 Q1142.4375,317.5 1142,317.5 Q1141.6094,317.5 1141.3594,317.3281 Q1141.1094,317.1563 1141,316.7031 Q1140.9531,316.3906 1140.7813,316.2188 Q1140.4688,315.8906 1139.9063,315.7031 Q1139.3438,315.5 1138.7813,315.5 Q1138.0781,315.5 1137.4844,315.7813 Q1136.9063,316.0625 1136.4531,316.6875 Q1136,317.3125 1136,318.1719 L1136,319.0938 Q1136,320.125 1136.8438,320.8125 Q1137.6875,321.5 1139.1875,321.5 Q1140.0781,321.5 1140.7031,321.2969 Q1141.0625,321.1875 1141.4688,320.8281 Q1141.7344,320.625 1141.875,320.5625 Q1142.0156,320.5 1142.1875,320.5 Q1142.5156,320.5 1142.75,320.7656 Q1143,321.0156 1143,321.375 Q1143,321.7188 1142.6563,322.125 Q1142.1563,322.7188 1141.3594,323.0469 Q1140.3125,323.5 1139.0313,323.5 Q1137.5313,323.5 1136.3281,322.9063 Q1135.3594,322.4375 1134.6719,321.4219 Q1134,320.4063 1134,319.2031 L1134,318.1094 Q1134,316.8594 1134.5938,315.7656 Q1135.2031,314.6719 1136.25,314.0938 Q1137.3125,313.5 1138.5,313.5 Q1139.2188,313.5 1139.8438,313.75 Q1140.4688,314 1141,314.5 Z " fill="#000000"/><text fill="#000000" font-family="sans-serif" font-size="14" lengthAdjust="spacing" textLength="86" x="1153" y="323.7285">UserVaccines</text><line style="stroke:#181818;stroke-width:0.5;" x1="1125" x2="1241" y1="334" y2="334"/></g><!--MD5=[0e501da62322464167c8ec4d233a6b7e]
class VaccineType--><g id="elem_VaccineType"><rect codeLine="40" fill="#F1F1F1" height="57.6094" id="VaccineType" rx="2.5" ry="2.5" style="stroke:#181818;stroke-width:0.5;" width="114" x="1537" y="313"/><ellipse cx="1552" cy="329" fill="#ADD1B2" rx="11" ry="11" style="stroke:#181818;stroke-width:1.0;"/><path d="M1554,325.5 Q1554.2031,325 1554.4375,324.75 Q1554.6719,324.5 1554.9375,324.5 Q1555.4063,324.5 1555.7031,324.7813 Q1556,325.0625 1556,325.7188 L1556,327.2813 Q1556,327.9375 1555.7188,328.2188 Q1555.4375,328.5 1555,328.5 Q1554.6094,328.5 1554.3594,328.3281 Q1554.1094,328.1563 1554,327.7031 Q1553.9531,327.3906 1553.7813,327.2188 Q1553.4688,326.8906 1552.9063,326.7031 Q1552.3438,326.5 1551.7813,326.5 Q1551.0781,326.5 1550.4844,326.7813 Q1549.9063,327.0625 1549.4531,327.6875 Q1549,328.3125 1549,329.1719 L1549,330.0938 Q1549,331.125 1549.8438,331.8125 Q1550.6875,332.5 1552.1875,332.5 Q1553.0781,332.5 1553.7031,332.2969 Q1554.0625,332.1875 1554.4688,331.8281 Q1554.7344,331.625 1554.875,331.5625 Q1555.0156,331.5 1555.1875,331.5 Q1555.5156,331.5 1555.75,331.7656 Q1556,332.0156 1556,332.375 Q1556,332.7188 1555.6563,333.125 Q1555.1563,333.7188 1554.3594,334.0469 Q1553.3125,334.5 1552.0313,334.5 Q1550.5313,334.5 1549.3281,333.9063 Q1548.3594,333.4375 1547.6719,332.4219 Q1547,331.4063 1547,330.2031 L1547,329.1094 Q1547,327.8594 1547.5938,326.7656 Q1548.2031,325.6719 1549.25,325.0938 Q1550.3125,324.5 1551.5,324.5 Q1552.2188,324.5 1552.8438,324.75 Q1553.4688,325 1554,325.5 Z " fill="#000000"/><text fill="#000000" font-family="sans-serif" font-size="14" lengthAdjust="spacing" textLength="82" x="1566" y="334.7285">VaccineType</text><line style="stroke:#181818;stroke-width:0.5;" x1="1538" x2="1650" y1="345" y2="345"/><text fill="#000000" font-family="sans-serif" font-size="14" lengthAdjust="spacing" textLength="54" x="1543" y="363.5332">-disease</text></g><!--MD5=[19e445fc4d3b48519cbe33da05496394]
class Vaccine--><g id="elem_Vaccine"><rect codeLine="45" fill="#F1F1F1" height="75.2188" id="Vaccine" rx="2.5" ry="2.5" style="stroke:#181818;stroke-width:0.5;" width="82" x="1338" y="350.5"/><ellipse cx="1353" cy="366.5" fill="#ADD1B2" rx="11" ry="11" style="stroke:#181818;stroke-width:1.0;"/><path d="M1355,363 Q1355.2031,362.5 1355.4375,362.25 Q1355.6719,362 1355.9375,362 Q1356.4063,362 1356.7031,362.2813 Q1357,362.5625 1357,363.2188 L1357,364.7813 Q1357,365.4375 1356.7188,365.7188 Q1356.4375,366 1356,366 Q1355.6094,366 1355.3594,365.8281 Q1355.1094,365.6563 1355,365.2031 Q1354.9531,364.8906 1354.7813,364.7188 Q1354.4688,364.3906 1353.9063,364.2031 Q1353.3438,364 1352.7813,364 Q1352.0781,364 1351.4844,364.2813 Q1350.9063,364.5625 1350.4531,365.1875 Q1350,365.8125 1350,366.6719 L1350,367.5938 Q1350,368.625 1350.8438,369.3125 Q1351.6875,370 1353.1875,370 Q1354.0781,370 1354.7031,369.7969 Q1355.0625,369.6875 1355.4688,369.3281 Q1355.7344,369.125 1355.875,369.0625 Q1356.0156,369 1356.1875,369 Q1356.5156,369 1356.75,369.2656 Q1357,369.5156 1357,369.875 Q1357,370.2188 1356.6563,370.625 Q1356.1563,371.2188 1355.3594,371.5469 Q1354.3125,372 1353.0313,372 Q1351.5313,372 1350.3281,371.4063 Q1349.3594,370.9375 1348.6719,369.9219 Q1348,368.9063 1348,367.7031 L1348,366.6094 Q1348,365.3594 1348.5938,364.2656 Q1349.2031,363.1719 1350.25,362.5938 Q1351.3125,362 1352.5,362 Q1353.2188,362 1353.8438,362.25 Q1354.4688,362.5 1355,363 Z " fill="#000000"/><text fill="#000000" font-family="sans-serif" font-size="14" lengthAdjust="spacing" textLength="50" x="1367" y="372.2285">Vaccine</text><line style="stroke:#181818;stroke-width:0.5;" x1="1339" x2="1419" y1="382.5" y2="382.5"/><text fill="#000000" font-family="sans-serif" font-size="14" lengthAdjust="spacing" textLength="40" x="1344" y="401.0332">-name</text><text fill="#000000" font-family="sans-serif" font-size="14" lengthAdjust="spacing" textLength="48" x="1344" y="418.6426">-lotNum</text></g><!--MD5=[f1aa797bbb856f196dbabe5d61960c3a]
class VaccinationProcess--><g id="elem_VaccinationProcess"><rect codeLine="51" fill="#F1F1F1" height="57.6094" id="VaccinationProcess" rx="2.5" ry="2.5" style="stroke:#181818;stroke-width:0.5;" width="156" x="1516" y="406"/><ellipse cx="1531" cy="422" fill="#ADD1B2" rx="11" ry="11" style="stroke:#181818;stroke-width:1.0;"/><path d="M1533,418.5 Q1533.2031,418 1533.4375,417.75 Q1533.6719,417.5 1533.9375,417.5 Q1534.4063,417.5 1534.7031,417.7813 Q1535,418.0625 1535,418.7188 L1535,420.2813 Q1535,420.9375 1534.7188,421.2188 Q1534.4375,421.5 1534,421.5 Q1533.6094,421.5 1533.3594,421.3281 Q1533.1094,421.1563 1533,420.7031 Q1532.9531,420.3906 1532.7813,420.2188 Q1532.4688,419.8906 1531.9063,419.7031 Q1531.3438,419.5 1530.7813,419.5 Q1530.0781,419.5 1529.4844,419.7813 Q1528.9063,420.0625 1528.4531,420.6875 Q1528,421.3125 1528,422.1719 L1528,423.0938 Q1528,424.125 1528.8438,424.8125 Q1529.6875,425.5 1531.1875,425.5 Q1532.0781,425.5 1532.7031,425.2969 Q1533.0625,425.1875 1533.4688,424.8281 Q1533.7344,424.625 1533.875,424.5625 Q1534.0156,424.5 1534.1875,424.5 Q1534.5156,424.5 1534.75,424.7656 Q1535,425.0156 1535,425.375 Q1535,425.7188 1534.6563,426.125 Q1534.1563,426.7188 1533.3594,427.0469 Q1532.3125,427.5 1531.0313,427.5 Q1529.5313,427.5 1528.3281,426.9063 Q1527.3594,426.4375 1526.6719,425.4219 Q1526,424.4063 1526,423.2031 L1526,422.1094 Q1526,420.8594 1526.5938,419.7656 Q1527.2031,418.6719 1528.25,418.0938 Q1529.3125,417.5 1530.5,417.5 Q1531.2188,417.5 1531.8438,417.75 Q1532.4688,418 1533,418.5 Z " fill="#000000"/><text fill="#000000" font-family="sans-serif" font-size="14" lengthAdjust="spacing" textLength="124" x="1545" y="427.7285">VaccinationProcess</text><line style="stroke:#181818;stroke-width:0.5;" x1="1517" x2="1671" y1="438" y2="438"/><text fill="#000000" font-family="sans-serif" font-size="14" lengthAdjust="spacing" textLength="101" x="1522" y="456.5332">-recoveryPeriod</text></g><!--MD5=[c59c99efa75f30327e326596f335a568]
class AgeGroup--><g id="elem_AgeGroup"><rect codeLine="55" fill="#F1F1F1" height="75.2188" id="AgeGroup" rx="2.5" ry="2.5" style="stroke:#181818;stroke-width:0.5;" width="97" x="1768" y="397.5"/><ellipse cx="1783" cy="413.5" fill="#ADD1B2" rx="11" ry="11" style="stroke:#181818;stroke-width:1.0;"/><path d="M1785,410 Q1785.2031,409.5 1785.4375,409.25 Q1785.6719,409 1785.9375,409 Q1786.4063,409 1786.7031,409.2813 Q1787,409.5625 1787,410.2188 L1787,411.7813 Q1787,412.4375 1786.7188,412.7188 Q1786.4375,413 1786,413 Q1785.6094,413 1785.3594,412.8281 Q1785.1094,412.6563 1785,412.2031 Q1784.9531,411.8906 1784.7813,411.7188 Q1784.4688,411.3906 1783.9063,411.2031 Q1783.3438,411 1782.7813,411 Q1782.0781,411 1781.4844,411.2813 Q1780.9063,411.5625 1780.4531,412.1875 Q1780,412.8125 1780,413.6719 L1780,414.5938 Q1780,415.625 1780.8438,416.3125 Q1781.6875,417 1783.1875,417 Q1784.0781,417 1784.7031,416.7969 Q1785.0625,416.6875 1785.4688,416.3281 Q1785.7344,416.125 1785.875,416.0625 Q1786.0156,416 1786.1875,416 Q1786.5156,416 1786.75,416.2656 Q1787,416.5156 1787,416.875 Q1787,417.2188 1786.6563,417.625 Q1786.1563,418.2188 1785.3594,418.5469 Q1784.3125,419 1783.0313,419 Q1781.5313,419 1780.3281,418.4063 Q1779.3594,417.9375 1778.6719,416.9219 Q1778,415.9063 1778,414.7031 L1778,413.6094 Q1778,412.3594 1778.5938,411.2656 Q1779.2031,410.1719 1780.25,409.5938 Q1781.3125,409 1782.5,409 Q1783.2188,409 1783.8438,409.25 Q1784.4688,409.5 1785,410 Z " fill="#000000"/><text fill="#000000" font-family="sans-serif" font-size="14" lengthAdjust="spacing" textLength="65" x="1797" y="419.2285">AgeGroup</text><line style="stroke:#181818;stroke-width:0.5;" x1="1769" x2="1864" y1="429.5" y2="429.5"/><text fill="#000000" font-family="sans-serif" font-size="14" lengthAdjust="spacing" textLength="52" x="1774" y="448.0332">-minAge</text><text fill="#000000" font-family="sans-serif" font-size="14" lengthAdjust="spacing" textLength="55" x="1774" y="465.6426">-maxAge</text></g><!--MD5=[03e3bb7aef77bf14822eb3fb6d15ab17]
class Dose--><g id="elem_Dose"><rect codeLine="60" fill="#F1F1F1" height="75.2188" id="Dose" rx="2.5" ry="2.5" style="stroke:#181818;stroke-width:0.5;" width="97" x="2131" y="397.5"/><ellipse cx="2160.4" cy="413.5" fill="#ADD1B2" rx="11" ry="11" style="stroke:#181818;stroke-width:1.0;"/><path d="M2162.4,410 Q2162.6031,409.5 2162.8375,409.25 Q2163.0719,409 2163.3375,409 Q2163.8063,409 2164.1031,409.2813 Q2164.4,409.5625 2164.4,410.2188 L2164.4,411.7813 Q2164.4,412.4375 2164.1188,412.7188 Q2163.8375,413 2163.4,413 Q2163.0094,413 2162.7594,412.8281 Q2162.5094,412.6563 2162.4,412.2031 Q2162.3531,411.8906 2162.1813,411.7188 Q2161.8688,411.3906 2161.3063,411.2031 Q2160.7438,411 2160.1813,411 Q2159.4781,411 2158.8844,411.2813 Q2158.3063,411.5625 2157.8531,412.1875 Q2157.4,412.8125 2157.4,413.6719 L2157.4,414.5938 Q2157.4,415.625 2158.2438,416.3125 Q2159.0875,417 2160.5875,417 Q2161.4781,417 2162.1031,416.7969 Q2162.4625,416.6875 2162.8688,416.3281 Q2163.1344,416.125 2163.275,416.0625 Q2163.4156,416 2163.5875,416 Q2163.9156,416 2164.15,416.2656 Q2164.4,416.5156 2164.4,416.875 Q2164.4,417.2188 2164.0563,417.625 Q2163.5563,418.2188 2162.7594,418.5469 Q2161.7125,419 2160.4313,419 Q2158.9313,419 2157.7281,418.4063 Q2156.7594,417.9375 2156.0719,416.9219 Q2155.4,415.9063 2155.4,414.7031 L2155.4,413.6094 Q2155.4,412.3594 2155.9938,411.2656 Q2156.6031,410.1719 2157.65,409.5938 Q2158.7125,409 2159.9,409 Q2160.6188,409 2161.2438,409.25 Q2161.8688,409.5 2162.4,410 Z " fill="#000000"/><text fill="#000000" font-family="sans-serif" font-size="14" lengthAdjust="spacing" textLength="33" x="2177.6" y="419.2285">Dose</text><line style="stroke:#181818;stroke-width:0.5;" x1="2132" x2="2227" y1="429.5" y2="429.5"/><text fill="#000000" font-family="sans-serif" font-size="14" lengthAdjust="spacing" textLength="85" x="2137" y="448.0332">-doseNumber</text><text fill="#000000" font-family="sans-serif" font-size="14" lengthAdjust="spacing" textLength="52" x="2137" y="465.6426">-dosage</text></g><!--MD5=[4bec8ac568776347aae0f1471b21fd4f]
class TimeInterval--><g id="elem_TimeInterval"><rect codeLine="65" fill="#F1F1F1" height="57.6094" id="TimeInterval" rx="2.5" ry="2.5" style="stroke:#181818;stroke-width:0.5;" width="109" x="1961" y="472"/><ellipse cx="1976" cy="488" fill="#ADD1B2" rx="11" ry="11" style="stroke:#181818;stroke-width:1.0;"/><path d="M1978,484.5 Q1978.2031,484 1978.4375,483.75 Q1978.6719,483.5 1978.9375,483.5 Q1979.4063,483.5 1979.7031,483.7813 Q1980,484.0625 1980,484.7188 L1980,486.2813 Q1980,486.9375 1979.7188,487.2188 Q1979.4375,487.5 1979,487.5 Q1978.6094,487.5 1978.3594,487.3281 Q1978.1094,487.1563 1978,486.7031 Q1977.9531,486.3906 1977.7813,486.2188 Q1977.4688,485.8906 1976.9063,485.7031 Q1976.3438,485.5 1975.7813,485.5 Q1975.0781,485.5 1974.4844,485.7813 Q1973.9063,486.0625 1973.4531,486.6875 Q1973,487.3125 1973,488.1719 L1973,489.0938 Q1973,490.125 1973.8438,490.8125 Q1974.6875,491.5 1976.1875,491.5 Q1977.0781,491.5 1977.7031,491.2969 Q1978.0625,491.1875 1978.4688,490.8281 Q1978.7344,490.625 1978.875,490.5625 Q1979.0156,490.5 1979.1875,490.5 Q1979.5156,490.5 1979.75,490.7656 Q1980,491.0156 1980,491.375 Q1980,491.7188 1979.6563,492.125 Q1979.1563,492.7188 1978.3594,493.0469 Q1977.3125,493.5 1976.0313,493.5 Q1974.5313,493.5 1973.3281,492.9063 Q1972.3594,492.4375 1971.6719,491.4219 Q1971,490.4063 1971,489.2031 L1971,488.1094 Q1971,486.8594 1971.5938,485.7656 Q1972.2031,484.6719 1973.25,484.0938 Q1974.3125,483.5 1975.5,483.5 Q1976.2188,483.5 1976.8438,483.75 Q1977.4688,484 1978,484.5 Z " fill="#000000"/><text fill="#000000" font-family="sans-serif" font-size="14" lengthAdjust="spacing" textLength="77" x="1990" y="493.7285">TimeInterval</text><line style="stroke:#181818;stroke-width:0.5;" x1="1962" x2="2069" y1="504" y2="504"/><text fill="#000000" font-family="sans-serif" font-size="14" lengthAdjust="spacing" textLength="64" x="1967" y="522.5332">-numDays</text></g><!--MD5=[aaa7e27c4ec43917c82a021675d2c87a]
class WaitingRoom--><g id="elem_WaitingRoom"><rect fill="#F1F1F1" height="40" id="WaitingRoom" rx="2.5" ry="2.5" style="stroke:#181818;stroke-width:0.5;" width="116" x="728" y="236"/><ellipse cx="743" cy="252" fill="#ADD1B2" rx="11" ry="11" style="stroke:#181818;stroke-width:1.0;"/><path d="M745,248.5 Q745.2031,248 745.4375,247.75 Q745.6719,247.5 745.9375,247.5 Q746.4063,247.5 746.7031,247.7813 Q747,248.0625 747,248.7188 L747,250.2813 Q747,250.9375 746.7188,251.2188 Q746.4375,251.5 746,251.5 Q745.6094,251.5 745.3594,251.3281 Q745.1094,251.1563 745,250.7031 Q744.9531,250.3906 744.7813,250.2188 Q744.4688,249.8906 743.9063,249.7031 Q743.3438,249.5 742.7813,249.5 Q742.0781,249.5 741.4844,249.7813 Q740.9063,250.0625 740.4531,250.6875 Q740,251.3125 740,252.1719 L740,253.0938 Q740,254.125 740.8438,254.8125 Q741.6875,255.5 743.1875,255.5 Q744.0781,255.5 744.7031,255.2969 Q745.0625,255.1875 745.4688,254.8281 Q745.7344,254.625 745.875,254.5625 Q746.0156,254.5 746.1875,254.5 Q746.5156,254.5 746.75,254.7656 Q747,255.0156 747,255.375 Q747,255.7188 746.6563,256.125 Q746.1563,256.7188 745.3594,257.0469 Q744.3125,257.5 743.0313,257.5 Q741.5313,257.5 740.3281,256.9063 Q739.3594,256.4375 738.6719,255.4219 Q738,254.4063 738,253.2031 L738,252.1094 Q738,250.8594 738.5938,249.7656 Q739.2031,248.6719 740.25,248.0938 Q741.3125,247.5 742.5,247.5 Q743.2188,247.5 743.8438,247.75 Q744.4688,248 745,248.5 Z " fill="#000000"/><text fill="#000000" font-family="sans-serif" font-size="14" lengthAdjust="spacing" textLength="84" x="757" y="257.7285">WaitingRoom</text><line style="stroke:#181818;stroke-width:0.5;" x1="729" x2="843" y1="268" y2="268"/></g><ellipse cx="2015.5" cy="435" fill="#000000" rx="2" ry="2" style="stroke:none;stroke-width:1.0;"/><!--MD5=[7421f545a0d8420c5bec41e74b387d9c]
class Employee--><g id="elem_Employee"><rect fill="#F1F1F1" height="40" id="Employee" rx="2.5" ry="2.5" style="stroke:#181818;stroke-width:0.5;" width="94" x="195" y="236"/><ellipse cx="210" cy="252" fill="#ADD1B2" rx="11" ry="11" style="stroke:#181818;stroke-width:1.0;"/><path d="M212,248.5 Q212.2031,248 212.4375,247.75 Q212.6719,247.5 212.9375,247.5 Q213.4063,247.5 213.7031,247.7813 Q214,248.0625 214,248.7188 L214,250.2813 Q214,250.9375 213.7188,251.2188 Q213.4375,251.5 213,251.5 Q212.6094,251.5 212.3594,251.3281 Q212.1094,251.1563 212,250.7031 Q211.9531,250.3906 211.7813,250.2188 Q211.4688,249.8906 210.9063,249.7031 Q210.3438,249.5 209.7813,249.5 Q209.0781,249.5 208.4844,249.7813 Q207.9063,250.0625 207.4531,250.6875 Q207,251.3125 207,252.1719 L207,253.0938 Q207,254.125 207.8438,254.8125 Q208.6875,255.5 210.1875,255.5 Q211.0781,255.5 211.7031,255.2969 Q212.0625,255.1875 212.4688,254.8281 Q212.7344,254.625 212.875,254.5625 Q213.0156,254.5 213.1875,254.5 Q213.5156,254.5 213.75,254.7656 Q214,255.0156 214,255.375 Q214,255.7188 213.6563,256.125 Q213.1563,256.7188 212.3594,257.0469 Q211.3125,257.5 210.0313,257.5 Q208.5313,257.5 207.3281,256.9063 Q206.3594,256.4375 205.6719,255.4219 Q205,254.4063 205,253.2031 L205,252.1094 Q205,250.8594 205.5938,249.7656 Q206.2031,248.6719 207.25,248.0938 Q208.3125,247.5 209.5,247.5 Q210.2188,247.5 210.8438,247.75 Q211.4688,248 212,248.5 Z " fill="#000000"/><text fill="#000000" font-family="sans-serif" font-size="14" lengthAdjust="spacing" textLength="62" x="224" y="257.7285">Employee</text><line style="stroke:#181818;stroke-width:0.5;" x1="196" x2="288" y1="268" y2="268"/></g><!--MD5=[de78e1efbcb885042a1719c3cec87a53]
link VaccinationCenter to WaitingRoom--><g id="link_VaccinationCenter_WaitingRoom"><path codeLine="69" d="M467.09,148.67 C542.57,174.16 658.79,213.39 727.83,236.7 " fill="none" id="VaccinationCenter-WaitingRoom" style="stroke:#181818;stroke-width:1.0;"/><polygon fill="#000000" points="543.7373,152.7752,536.1075,147.0973,534.2274,152.6664,543.7373,152.7752" style="stroke:#000000;stroke-width:1.0;"/><text fill="#000000" font-family="sans-serif" font-size="13" lengthAdjust="spacing" textLength="21" x="548" y="156.4951">has</text><text fill="#000000" font-family="sans-serif" font-size="13" lengthAdjust="spacing" textLength="7" x="475.0915" y="165.5676">1</text><text fill="#000000" font-family="sans-serif" font-size="13" lengthAdjust="spacing" textLength="7" x="712.9285" y="248.7698">1</text></g><!--MD5=[ad53276a02bf0f65971002ced984ee45]
link Vaccine to VaccinationProcess--><g id="link_Vaccine_VaccinationProcess"><path codeLine="70" d="M1420.06,396.84 C1446.94,402.77 1483.21,410.77 1515.59,417.92 " fill="none" id="Vaccine-VaccinationProcess" style="stroke:#181818;stroke-width:1.0;"/><polygon fill="#000000" points="1459.8825,396.2532,1451.6832,391.4343,1450.4167,397.174,1459.8825,396.2532" style="stroke:#000000;stroke-width:1.0;"/><text fill="#000000" font-family="sans-serif" font-size="13" lengthAdjust="spacing" textLength="21" x="1464" y="400.4951">has</text><text fill="#000000" font-family="sans-serif" font-size="13" lengthAdjust="spacing" textLength="7" x="1427.9973" y="413.3466">1</text><text fill="#000000" font-family="sans-serif" font-size="13" lengthAdjust="spacing" textLength="7" x="1501.0389" y="430.6123">1</text></g><!--MD5=[3568623adf67b2630dce9e60c05bd02a]
link Vaccine to VaccineType--><g id="link_Vaccine_VaccineType"><path codeLine="71" d="M1420.06,379.35 C1452.96,372.24 1499.94,362.1 1536.64,354.17 " fill="none" id="Vaccine-VaccineType" style="stroke:#181818;stroke-width:1.0;"/><polygon fill="#000000" points="1459.8873,356.1202,1450.4256,355.1571,1451.6666,360.9025,1459.8873,356.1202" style="stroke:#000000;stroke-width:1.0;"/><text fill="#000000" font-family="sans-serif" font-size="13" lengthAdjust="spacing" textLength="21" x="1464" y="362.4951">has</text><text fill="#000000" font-family="sans-serif" font-size="13" lengthAdjust="spacing" textLength="5" x="1428.0914" y="392.7375">*</text><text fill="#000000" font-family="sans-serif" font-size="13" lengthAdjust="spacing" textLength="7" x="1521.8423" y="370.2969">1</text></g><!--MD5=[4043e158886bce18152cac1904b53f75]
link VaccinationProcess to AgeGroup--><g id="link_VaccinationProcess_AgeGroup"><path codeLine="72" d="M1672.12,435 C1704.04,435 1740.04,435 1767.98,435 " fill="none" id="VaccinationProcess-AgeGroup" style="stroke:#181818;stroke-width:1.0;"/><polygon fill="#000000" points="1712,426.1758,1702.9549,423.2369,1702.9549,429.1147,1712,426.1758" style="stroke:#000000;stroke-width:1.0;"/><text fill="#000000" font-family="sans-serif" font-size="13" lengthAdjust="spacing" textLength="21" x="1716" y="431.4951">has</text><text fill="#000000" font-family="sans-serif" font-size="13" lengthAdjust="spacing" textLength="7" x="1679.8994" y="449.293">1</text><text fill="#000000" font-family="sans-serif" font-size="13" lengthAdjust="spacing" textLength="5" x="1754.8487" y="449.7807">*</text></g><!--MD5=[4b988313271c0465727df980ee7a96da]
link AgeGroup to apoint12694--><g id="link_AgeGroup_apoint12694"><path d="M1865.19,435 C1919.85,435 2003.25,435 2013.46,435 " fill="none" id="AgeGroup-apoint12694" style="stroke:#181818;stroke-width:1.0;"/><polygon fill="#000000" points="1905,426.1758,1895.9549,423.2369,1895.9549,429.1147,1905,426.1758" style="stroke:#000000;stroke-width:1.0;"/><text fill="#000000" font-family="sans-serif" font-size="13" lengthAdjust="spacing" textLength="21" x="1909" y="431.4951">has</text><text fill="#000000" font-family="sans-serif" font-size="13" lengthAdjust="spacing" textLength="7" x="1872.8554" y="449.6799">1</text></g><!--MD5=[8eb393c21d7be4a01939825a68b5d149]
link apoint12694 to Dose--><g id="link_apoint12694_Dose"><path d="M2017.53,435 C2026.13,435 2086.5,435 2130.79,435 " fill="none" id="apoint12694-Dose" style="stroke:#181818;stroke-width:1.0;"/><text fill="#000000" font-family="sans-serif" font-size="13" lengthAdjust="spacing" textLength="5" x="2117.9485" y="449.7303">*</text></g><!--MD5=[e5618f8d7d5706b61cd511385b4e6f08]
link apoint12694 to TimeInterval--><g id="link_apoint12694_TimeInterval"><path d="M2015.5,437.02 C2015.5,448.63 2015.5,460.25 2015.5,471.87 " fill="none" id="apoint12694-TimeInterval" style="stroke:#181818;stroke-width:1.0;stroke-dasharray:7.0,7.0;"/></g><!--MD5=[120e6d7c8a557e6251338e72fb523695]
link Receptionist to WaitingRoom--><g id="link_Receptionist_WaitingRoom"><path codeLine="75" d="M607.1,256 C643.39,256 691.1,256 727.98,256 " fill="none" id="Receptionist-WaitingRoom" style="stroke:#181818;stroke-width:1.0;"/><polygon fill="#000000" points="647,247.1758,637.9549,244.2369,637.9549,250.1147,647,247.1758" style="stroke:#000000;stroke-width:1.0;"/><text fill="#000000" font-family="sans-serif" font-size="13" lengthAdjust="spacing" textLength="46" x="651" y="252.4951">updates</text><text fill="#000000" font-family="sans-serif" font-size="13" lengthAdjust="spacing" textLength="7" x="614.9744" y="270.5937">1</text><text fill="#000000" font-family="sans-serif" font-size="13" lengthAdjust="spacing" textLength="7" x="713.0978" y="270.5426">1</text></g><!--MD5=[1dfd2b8cef5257ed6efd914f274c3279]
link WaitingRoom to SNSUser--><g id="link_WaitingRoom_SNSUser"><path codeLine="76" d="M844.22,268.84 C874.73,275.69 911.65,283.98 939.74,290.29 " fill="none" id="WaitingRoom-SNSUser" style="stroke:#181818;stroke-width:1.0;"/><polygon fill="#000000" points="883.8785,269.2713,875.6971,264.422,874.4093,270.157,883.8785,269.2713" style="stroke:#000000;stroke-width:1.0;"/><text fill="#000000" font-family="sans-serif" font-size="13" lengthAdjust="spacing" textLength="21" x="888" y="273.4951">has</text><text fill="#000000" font-family="sans-serif" font-size="13" lengthAdjust="spacing" textLength="7" x="852.1279" y="285.0278">1</text><text fill="#000000" font-family="sans-serif" font-size="13" lengthAdjust="spacing" textLength="5" x="926.9954" y="303.5271">*</text></g><!--MD5=[1a8aa2b864b87f860d28abceaa28b7a5]
link Company to SNSUser--><g id="link_Company_SNSUser"><path codeLine="77" d="M99.33,308.57 C136.96,317.9 192.04,329 241,329 C241,329 241,329 787,329 C839.97,329 900.14,318.51 939.68,310.14 " fill="none" id="Company-SNSUser" style="stroke:#181818;stroke-width:1.0;"/><polygon fill="#000000" points="544,320.1851,534.9604,317.2293,534.9494,323.1071,544,320.1851" style="stroke:#000000;stroke-width:1.0;"/><text fill="#000000" font-family="sans-serif" font-size="13" lengthAdjust="spacing" textLength="21" x="548" y="325.4951">has</text><text fill="#000000" font-family="sans-serif" font-size="13" lengthAdjust="spacing" textLength="7" x="106.9602" y="325.2418">1</text><text fill="#000000" font-family="sans-serif" font-size="13" lengthAdjust="spacing" textLength="5" x="926.9254" y="326.6648">*</text></g><!--MD5=[c29c8d42883934cbaf5793c72a334947]
link Company to Vaccine--><g id="link_Company_Vaccine"><path codeLine="78" d="M70.47,316.25 C100.46,350.7 167.72,417 241,417 C241,417 241,417 1184,417 C1237.64,417 1298.71,406.02 1337.76,397.58 " fill="none" id="Company-Vaccine" style="stroke:#181818;stroke-width:1.0;"/><polygon fill="#000000" points="777.9897,408.496,769.1514,404.9838,768.775,410.8496,777.9897,408.496" style="stroke:#000000;stroke-width:1.0;"/><text fill="#000000" font-family="sans-serif" font-size="13" lengthAdjust="spacing" textLength="21" x="782" y="413.4951">has</text><text fill="#000000" font-family="sans-serif" font-size="13" lengthAdjust="spacing" textLength="7" x="67.2244" y="337.3845">1</text><text fill="#000000" font-family="sans-serif" font-size="13" lengthAdjust="spacing" textLength="5" x="1324.9688" y="414.2184">*</text></g><!--MD5=[eebe9b198877275d05dd12630ed9e401]
link Company to VaccinationCenter--><g id="link_Company_VaccinationCenter"><path codeLine="79" d="M82.62,275.94 C96.36,266.66 113.24,255.78 129,247 C191.43,212.24 265.35,178.26 318.91,154.86 " fill="none" id="Company-VaccinationCenter" style="stroke:#181818;stroke-width:1.0;"/><polygon fill="#000000" points="138.4498,217.8956,129.0598,219.405,131.7403,224.636,138.4498,217.8956" style="stroke:#000000;stroke-width:1.0;"/><text fill="#000000" font-family="sans-serif" font-size="13" lengthAdjust="spacing" textLength="21" x="143" y="225.4951">has</text><text fill="#000000" font-family="sans-serif" font-size="13" lengthAdjust="spacing" textLength="7" x="83.2928" y="265.2441">1</text><text fill="#000000" font-family="sans-serif" font-size="13" lengthAdjust="spacing" textLength="5" x="306.0117" y="172.396">*</text></g><!--MD5=[09366576ee87d48d594df10cacc83f45]
link Company to Employee--><g id="link_Company_Employee"><path codeLine="80" d="M99.27,286.32 C128.24,280.12 165.71,272.1 194.85,265.87 " fill="none" id="Company-Employee" style="stroke:#181818;stroke-width:1.0;"/><polygon fill="#000000" points="138.8893,263.1297,129.4296,262.1482,130.6593,267.896,138.8893,263.1297" style="stroke:#000000;stroke-width:1.0;"/><text fill="#000000" font-family="sans-serif" font-size="13" lengthAdjust="spacing" textLength="21" x="143" y="269.4951">has</text><text fill="#000000" font-family="sans-serif" font-size="13" lengthAdjust="spacing" textLength="7" x="106.891" y="299.5848">1</text><text fill="#000000" font-family="sans-serif" font-size="13" lengthAdjust="spacing" textLength="5" x="181.937" y="282.2412">*</text></g><!--MD5=[1da12df22706e73e1def33b218b7f412]
link Employee to Receptionist--><g id="link_Employee_Receptionist"><path codeLine="81" d="M289.38,267.36 C299.11,269.29 309.34,270.99 319,272 C384.42,278.81 401.51,278.18 467,272 C476.75,271.08 487.06,269.57 496.99,267.84 " fill="none" id="Employee-Receptionist" style="stroke:#181818;stroke-width:1.0;"/><polygon fill="#000000" points="380.5,263.1642,389.5383,266.1241,389.5519,260.2462,380.5,263.1642" style="stroke:#000000;stroke-width:1.0;"/><text fill="#000000" font-family="sans-serif" font-size="13" lengthAdjust="spacing" textLength="10" x="394.5" y="268.4951">is</text><text fill="#000000" font-family="sans-serif" font-size="13" lengthAdjust="spacing" textLength="7" x="296.853" y="283.7244">1</text><text fill="#000000" font-family="sans-serif" font-size="13" lengthAdjust="spacing" textLength="7" x="482.1277" y="284.0247">1</text></g><!--MD5=[9e1bafab1e50b2a0c49aafba4881c2ec]
link SNSUser to UserVaccines--><g id="link_SNSUser_UserVaccines"><path codeLine="82" d="M1028.23,304.83 C1056.32,307.96 1093.28,312.09 1123.92,315.51 " fill="none" id="SNSUser-UserVaccines" style="stroke:#181818;stroke-width:1.0;"/><polygon fill="#000000" points="1067.9691,300.7304,1059.3059,296.8063,1058.6539,302.6479,1067.9691,300.7304" style="stroke:#000000;stroke-width:1.0;"/><text fill="#000000" font-family="sans-serif" font-size="13" lengthAdjust="spacing" textLength="21" x="1072" y="305.4951">has</text><text fill="#000000" font-family="sans-serif" font-size="13" lengthAdjust="spacing" textLength="7" x="1036.1353" y="320.4753">1</text><text fill="#000000" font-family="sans-serif" font-size="13" lengthAdjust="spacing" textLength="5" x="1111.0301" y="329.2211">*</text></g><!--MD5=[625143ad3f3e454f80dce889a626af15]
link UserVaccines to Vaccine--><g id="link_UserVaccines_Vaccine"><path codeLine="83" d="M1242.21,341.8 C1273.12,352.32 1310.33,364.98 1337.98,374.38 " fill="none" id="UserVaccines-Vaccine" style="stroke:#181818;stroke-width:1.0;"/><polygon fill="#000000" points="1281.7336,346.7861,1274.117,341.0907,1272.2239,346.6553,1281.7336,346.7861" style="stroke:#000000;stroke-width:1.0;"/><text fill="#000000" font-family="sans-serif" font-size="13" lengthAdjust="spacing" textLength="21" x="1286" y="350.4951">has</text><text fill="#000000" font-family="sans-serif" font-size="13" lengthAdjust="spacing" textLength="7" x="1250.1821" y="362.8136">1</text><text fill="#000000" font-family="sans-serif" font-size="13" lengthAdjust="spacing" textLength="5" x="1324.956" y="386.8512">*</text></g><!--MD5=[81104df1b4ac1fca7bafda94b02e6db6]
@startuml
hide methods
left to right direction
skinparam classAttributeIconSize 0

class VaccinationCenter {
    -name
    -address
    -phoneNumber
    -emailAddress
    -faxNumber
    -websiteAddress
    -openingHours
    -closingHours
    -slotDuration
    -maxNumVaxPerSlot
    -capacity

}

class Receptionist{

}

class Company{

}

class SNSUser {
    -snsNumber
    -name
    -age
    -phoneNum
    -email
}

class UserVaccines{

}

class VaccineType{
    -disease

}

class Vaccine{
    -name
    -lotNum
}


class VaccinationProcess{
    -recoveryPeriod
}

class AgeGroup{
    -minAge
    -maxAge
}

class Dose{
    -doseNumber
    -dosage
}

class TimeInterval{
    -numDays
}

VaccinationCenter "1" - - "1" WaitingRoom: has >
Vaccine "1" - - "1" VaccinationProcess: has >
Vaccine "*" - - "1" VaccineType: has >
VaccinationProcess "1" - - "*" AgeGroup: has >
AgeGroup "1" - - "*" Dose: has >
(AgeGroup, Dose) .. TimeInterval
Receptionist "1" - - "1" WaitingRoom: updates >
WaitingRoom "1" - - "*" SNSUser: has >
Company "1" - - "*" SNSUser: has >
Company "1" - - "*" Vaccine: has >
Company "1" - - "*" VaccinationCenter: has >
Company "1" - - "*" Employee: has >
Employee "1" - - "1" Receptionist: is <
SNSUser "1" - - "*" UserVaccines: has >
UserVaccines "1" - -"*" Vaccine: has >

@enduml

PlantUML version 1.2022.5(Sat Apr 30 11:55:52 BST 2022)
(GPL source distribution)
Java Runtime: OpenJDK Runtime Environment
JVM: OpenJDK 64-Bit Server VM
Default Encoding: Cp1252
Language: en
Country: GB
--></g></svg>