<?xml version="1.0" encoding="UTF-8" standalone="no"?><svg xmlns="http://www.w3.org/2000/svg" xmlns:xlink="http://www.w3.org/1999/xlink" contentStyleType="text/css" height="1272px" preserveAspectRatio="none" style="width:1683px;height:1272px;background:#FFFFFF;" version="1.1" viewBox="0 0 1683 1272" width="1683px" zoomAndPan="magnify"><defs/><g><rect fill="#FFFFFF" height="1079.5625" style="stroke:#181818;stroke-width:1.0;" width="10" x="42" y="92.6094"/><rect fill="#FFFFFF" height="1057.2109" style="stroke:#181818;stroke-width:1.0;" width="10" x="413" y="114.9609"/><rect fill="#FFFFFF" height="134.4063" style="stroke:#181818;stroke-width:1.0;" width="10" x="654" y="145.3125"/><rect fill="#FFFFFF" height="212.4609" style="stroke:#181818;stroke-width:1.0;" width="10" x="654" y="929.3594"/><rect fill="#FFFFFF" height="30.3516" style="stroke:#181818;stroke-width:1.0;" width="10" x="892" y="175.6641"/><rect fill="#FFFFFF" height="91.0547" style="stroke:#181818;stroke-width:1.0;" width="10" x="892" y="565.1406"/><rect fill="#FFFFFF" height="91.0547" style="stroke:#181818;stroke-width:1.0;" width="10" x="983.5" y="1020.4141"/><rect fill="#FFFFFF" height="366.4766" style="stroke:#181818;stroke-width:1.0;" width="10" x="1146" y="532.5313"/><rect fill="#FFFFFF" height="30.3516" style="stroke:#181818;stroke-width:1.0;" width="10" x="1279.5" y="595.4922"/><rect fill="#FFFFFF" height="212.4609" style="stroke:#181818;stroke-width:1.0;" width="10" x="1371.5" y="686.5469"/><rect fill="#FFFFFF" height="151.7578" style="stroke:#181818;stroke-width:1.0;" width="10" x="1526.5" y="716.8984"/><rect fill="#FFFFFF" height="30.3516" style="stroke:#181818;stroke-width:1.0;" width="10" x="1621.5" y="1050.7656"/><line style="stroke:#181818;stroke-width:0.5;stroke-dasharray:5.0,5.0;" x1="47" x2="47" y1="82.6094" y2="1190.1719"/><line style="stroke:#181818;stroke-width:0.5;stroke-dasharray:5.0,5.0;" x1="418" x2="418" y1="82.6094" y2="1190.1719"/><line style="stroke:#181818;stroke-width:0.5;stroke-dasharray:5.0,5.0;" x1="659" x2="659" y1="82.6094" y2="1190.1719"/><line style="stroke:#181818;stroke-width:0.5;stroke-dasharray:5.0,5.0;" x1="897" x2="897" y1="82.6094" y2="1190.1719"/><line style="stroke:#181818;stroke-width:0.5;stroke-dasharray:5.0,5.0;" x1="988" x2="988" y1="82.6094" y2="1190.1719"/><line style="stroke:#181818;stroke-width:0.5;stroke-dasharray:5.0,5.0;" x1="1151" x2="1151" y1="531.4844" y2="1190.1719"/><line style="stroke:#181818;stroke-width:0.5;stroke-dasharray:5.0,5.0;" x1="1284" x2="1284" y1="82.6094" y2="1190.1719"/><line style="stroke:#181818;stroke-width:0.5;stroke-dasharray:5.0,5.0;" x1="1376" x2="1376" y1="82.6094" y2="1190.1719"/><line style="stroke:#181818;stroke-width:0.5;stroke-dasharray:5.0,5.0;" x1="1531.5" x2="1531.5" y1="82.6094" y2="1190.1719"/><line style="stroke:#181818;stroke-width:0.5;stroke-dasharray:5.0,5.0;" x1="1626.5" x2="1626.5" y1="82.6094" y2="1190.1719"/><text fill="#000000" font-family="sans-serif" font-size="14" lengthAdjust="spacing" textLength="78" x="5" y="79.5332">Receptionist</text><ellipse cx="47" cy="13.5" fill="#E2E2F0" rx="8" ry="8" style="stroke:#181818;stroke-width:0.5;"/><path d="M47,21.5 L47,48.5 M34,29.5 L60,29.5 M47,48.5 L34,63.5 M47,48.5 L60,63.5 " fill="none" style="stroke:#181818;stroke-width:0.5;"/><text fill="#000000" font-family="sans-serif" font-size="14" lengthAdjust="spacing" textLength="78" x="5" y="1203.7051">Receptionist</text><ellipse cx="47" cy="1215.2813" fill="#E2E2F0" rx="8" ry="8" style="stroke:#181818;stroke-width:0.5;"/><path d="M47,1223.2813 L47,1250.2813 M34,1231.2813 L60,1231.2813 M47,1250.2813 L34,1265.2813 M47,1250.2813 L60,1265.2813 " fill="none" style="stroke:#181818;stroke-width:0.5;"/><rect fill="#E2E2F0" height="31.6094" rx="2.5" ry="2.5" style="stroke:#181818;stroke-width:0.5;" width="108" x="364" y="50"/><text fill="#000000" font-family="sans-serif" font-size="14" lengthAdjust="spacing" textLength="94" x="371" y="71.5332">:ReceptionistUI</text><rect fill="#E2E2F0" height="31.6094" rx="2.5" ry="2.5" style="stroke:#181818;stroke-width:0.5;" width="108" x="364" y="1189.1719"/><text fill="#000000" font-family="sans-serif" font-size="14" lengthAdjust="spacing" textLength="94" x="371" y="1210.7051">:ReceptionistUI</text><rect fill="#E2E2F0" height="31.6094" rx="2.5" ry="2.5" style="stroke:#181818;stroke-width:0.5;" width="158" x="580" y="50"/><text fill="#000000" font-family="sans-serif" font-size="14" lengthAdjust="spacing" textLength="144" x="587" y="71.5332">:ReceptionistController</text><rect fill="#E2E2F0" height="31.6094" rx="2.5" ry="2.5" style="stroke:#181818;stroke-width:0.5;" width="158" x="580" y="1189.1719"/><text fill="#000000" font-family="sans-serif" font-size="14" lengthAdjust="spacing" textLength="144" x="587" y="1210.7051">:ReceptionistController</text><rect fill="#E2E2F0" height="31.6094" rx="2.5" ry="2.5" style="stroke:#181818;stroke-width:0.5;" width="78" x="858" y="50"/><text fill="#000000" font-family="sans-serif" font-size="14" lengthAdjust="spacing" textLength="64" x="865" y="71.5332">:Company</text><rect fill="#E2E2F0" height="31.6094" rx="2.5" ry="2.5" style="stroke:#181818;stroke-width:0.5;" width="78" x="858" y="1189.1719"/><text fill="#000000" font-family="sans-serif" font-size="14" lengthAdjust="spacing" textLength="64" x="865" y="1210.7051">:Company</text><rect fill="#E2E2F0" height="31.6094" rx="2.5" ry="2.5" style="stroke:#181818;stroke-width:0.5;" width="85" x="946" y="50"/><text fill="#000000" font-family="sans-serif" font-size="14" lengthAdjust="spacing" textLength="71" x="953" y="71.5332">:VacCenter</text><rect fill="#E2E2F0" height="31.6094" rx="2.5" ry="2.5" style="stroke:#181818;stroke-width:0.5;" width="85" x="946" y="1189.1719"/><text fill="#000000" font-family="sans-serif" font-size="14" lengthAdjust="spacing" textLength="71" x="953" y="1210.7051">:VacCenter</text><rect fill="#E2E2F0" height="31.6094" rx="2.5" ry="2.5" style="stroke:#181818;stroke-width:0.5;" width="154" x="1074" y="1189.1719"/><text fill="#000000" font-family="sans-serif" font-size="14" lengthAdjust="spacing" textLength="140" x="1081" y="1210.7051">:UserLastVaccineDTO</text><rect fill="#E2E2F0" height="31.6094" rx="2.5" ry="2.5" style="stroke:#181818;stroke-width:0.5;" width="93" x="1238" y="50"/><text fill="#000000" font-family="sans-serif" font-size="14" lengthAdjust="spacing" textLength="79" x="1245" y="71.5332">:SnsUserList</text><rect fill="#E2E2F0" height="31.6094" rx="2.5" ry="2.5" style="stroke:#181818;stroke-width:0.5;" width="93" x="1238" y="1189.1719"/><text fill="#000000" font-family="sans-serif" font-size="14" lengthAdjust="spacing" textLength="79" x="1245" y="1210.7051">:SnsUserList</text><rect fill="#E2E2F0" height="31.6094" rx="2.5" ry="2.5" style="stroke:#181818;stroke-width:0.5;" width="71" x="1341" y="50"/><text fill="#000000" font-family="sans-serif" font-size="14" lengthAdjust="spacing" textLength="57" x="1348" y="71.5332">:SnsUser</text><rect fill="#E2E2F0" height="31.6094" rx="2.5" ry="2.5" style="stroke:#181818;stroke-width:0.5;" width="71" x="1341" y="1189.1719"/><text fill="#000000" font-family="sans-serif" font-size="14" lengthAdjust="spacing" textLength="57" x="1348" y="1210.7051">:SnsUser</text><rect fill="#E2E2F0" height="31.6094" rx="2.5" ry="2.5" style="stroke:#181818;stroke-width:0.5;" width="68" x="1497.5" y="50"/><text fill="#000000" font-family="sans-serif" font-size="14" lengthAdjust="spacing" textLength="54" x="1504.5" y="71.5332">:Vaccine</text><rect fill="#E2E2F0" height="31.6094" rx="2.5" ry="2.5" style="stroke:#181818;stroke-width:0.5;" width="68" x="1497.5" y="1189.1719"/><text fill="#000000" font-family="sans-serif" font-size="14" lengthAdjust="spacing" textLength="54" x="1504.5" y="1210.7051">:Vaccine</text><rect fill="#E2E2F0" height="31.6094" rx="2.5" ry="2.5" style="stroke:#181818;stroke-width:0.5;" width="102" x="1575.5" y="50"/><text fill="#000000" font-family="sans-serif" font-size="14" lengthAdjust="spacing" textLength="88" x="1582.5" y="71.5332">:WaitingRoom</text><rect fill="#E2E2F0" height="31.6094" rx="2.5" ry="2.5" style="stroke:#181818;stroke-width:0.5;" width="102" x="1575.5" y="1189.1719"/><text fill="#000000" font-family="sans-serif" font-size="14" lengthAdjust="spacing" textLength="88" x="1582.5" y="1210.7051">:WaitingRoom</text><rect fill="#FFFFFF" height="1079.5625" style="stroke:#181818;stroke-width:1.0;" width="10" x="42" y="92.6094"/><rect fill="#FFFFFF" height="1057.2109" style="stroke:#181818;stroke-width:1.0;" width="10" x="413" y="114.9609"/><rect fill="#FFFFFF" height="134.4063" style="stroke:#181818;stroke-width:1.0;" width="10" x="654" y="145.3125"/><rect fill="#FFFFFF" height="212.4609" style="stroke:#181818;stroke-width:1.0;" width="10" x="654" y="929.3594"/><rect fill="#FFFFFF" height="30.3516" style="stroke:#181818;stroke-width:1.0;" width="10" x="892" y="175.6641"/><rect fill="#FFFFFF" height="91.0547" style="stroke:#181818;stroke-width:1.0;" width="10" x="892" y="565.1406"/><rect fill="#FFFFFF" height="91.0547" style="stroke:#181818;stroke-width:1.0;" width="10" x="983.5" y="1020.4141"/><rect fill="#FFFFFF" height="366.4766" style="stroke:#181818;stroke-width:1.0;" width="10" x="1146" y="532.5313"/><rect fill="#FFFFFF" height="30.3516" style="stroke:#181818;stroke-width:1.0;" width="10" x="1279.5" y="595.4922"/><rect fill="#FFFFFF" height="212.4609" style="stroke:#181818;stroke-width:1.0;" width="10" x="1371.5" y="686.5469"/><rect fill="#FFFFFF" height="151.7578" style="stroke:#181818;stroke-width:1.0;" width="10" x="1526.5" y="716.8984"/><rect fill="#FFFFFF" height="30.3516" style="stroke:#181818;stroke-width:1.0;" width="10" x="1621.5" y="1050.7656"/><polygon fill="#181818" points="401,110.9609,411,114.9609,401,118.9609,405,114.9609" style="stroke:#181818;stroke-width:1.0;"/><line style="stroke:#181818;stroke-width:1.0;" x1="52" x2="407" y1="114.9609" y2="114.9609"/><text fill="#000000" font-family="sans-serif" font-size="13" font-weight="bold" lengthAdjust="spacing" textLength="7" x="59" y="110.1045">1</text><text fill="#000000" font-family="sans-serif" font-size="13" lengthAdjust="spacing" textLength="331" x="70" y="110.1045">Starts to register arrival of SNS user at vaccination center</text><polygon fill="#181818" points="642,141.3125,652,145.3125,642,149.3125,646,145.3125" style="stroke:#181818;stroke-width:1.0;"/><line style="stroke:#181818;stroke-width:1.0;" x1="423" x2="648" y1="145.3125" y2="145.3125"/><text fill="#000000" font-family="sans-serif" font-size="13" font-weight="bold" lengthAdjust="spacing" textLength="7" x="430" y="140.4561">2</text><text fill="#000000" font-family="sans-serif" font-size="13" lengthAdjust="spacing" textLength="108" x="441" y="140.4561">getVacCenterList()</text><polygon fill="#181818" points="880,171.6641,890,175.6641,880,179.6641,884,175.6641" style="stroke:#181818;stroke-width:1.0;"/><line style="stroke:#181818;stroke-width:1.0;" x1="664" x2="886" y1="175.6641" y2="175.6641"/><text fill="#000000" font-family="sans-serif" font-size="13" font-weight="bold" lengthAdjust="spacing" textLength="7" x="671" y="170.8076">3</text><text fill="#000000" font-family="sans-serif" font-size="13" lengthAdjust="spacing" textLength="108" x="682" y="170.8076">getVacCenterList()</text><polygon fill="#181818" points="675,202.0156,665,206.0156,675,210.0156,671,206.0156" style="stroke:#181818;stroke-width:1.0;"/><line style="stroke:#181818;stroke-width:1.0;stroke-dasharray:2.0,2.0;" x1="669" x2="896" y1="206.0156" y2="206.0156"/><text fill="#000000" font-family="sans-serif" font-size="13" font-weight="bold" lengthAdjust="spacing" textLength="7" x="681" y="201.1592">4</text><text fill="#000000" font-family="sans-serif" font-size="13" lengthAdjust="spacing" textLength="78" x="692" y="201.1592">vacCenterList</text><line style="stroke:#181818;stroke-width:1.0;" x1="664" x2="706" y1="236.3672" y2="236.3672"/><line style="stroke:#181818;stroke-width:1.0;" x1="706" x2="706" y1="236.3672" y2="249.3672"/><line style="stroke:#181818;stroke-width:1.0;" x1="665" x2="706" y1="249.3672" y2="249.3672"/><polygon fill="#181818" points="675,245.3672,665,249.3672,675,253.3672,671,249.3672" style="stroke:#181818;stroke-width:1.0;"/><text fill="#000000" font-family="sans-serif" font-size="13" font-weight="bold" lengthAdjust="spacing" textLength="7" x="671" y="231.5107">5</text><text fill="#000000" font-family="sans-serif" font-size="13" lengthAdjust="spacing" textLength="203" x="682" y="231.5107">vacCenterList.showAllVacCenters()</text><polygon fill="#181818" points="434,275.7188,424,279.7188,434,283.7188,430,279.7188" style="stroke:#181818;stroke-width:1.0;"/><line style="stroke:#181818;stroke-width:1.0;stroke-dasharray:2.0,2.0;" x1="428" x2="658" y1="279.7188" y2="279.7188"/><text fill="#000000" font-family="sans-serif" font-size="13" font-weight="bold" lengthAdjust="spacing" textLength="7" x="440" y="274.8623">6</text><text fill="#000000" font-family="sans-serif" font-size="13" lengthAdjust="spacing" textLength="99" x="451" y="274.8623">list of vacCenters</text><polygon fill="#181818" points="63,306.0703,53,310.0703,63,314.0703,59,310.0703" style="stroke:#181818;stroke-width:1.0;"/><line style="stroke:#181818;stroke-width:1.0;stroke-dasharray:2.0,2.0;" x1="57" x2="412" y1="310.0703" y2="310.0703"/><text fill="#000000" font-family="sans-serif" font-size="13" font-weight="bold" lengthAdjust="spacing" textLength="7" x="69" y="305.2139">7</text><text fill="#000000" font-family="sans-serif" font-size="13" lengthAdjust="spacing" textLength="195" x="80" y="305.2139">requests which vaccination center</text><polygon fill="#181818" points="401,336.4219,411,340.4219,401,344.4219,405,340.4219" style="stroke:#181818;stroke-width:1.0;"/><line style="stroke:#181818;stroke-width:1.0;" x1="52" x2="407" y1="340.4219" y2="340.4219"/><text fill="#000000" font-family="sans-serif" font-size="13" font-weight="bold" lengthAdjust="spacing" textLength="7" x="59" y="335.5654">8</text><text fill="#000000" font-family="sans-serif" font-size="13" lengthAdjust="spacing" textLength="157" x="70" y="335.5654">chooses vaccination center</text><polygon fill="#181818" points="63,366.7734,53,370.7734,63,374.7734,59,370.7734" style="stroke:#181818;stroke-width:1.0;"/><line style="stroke:#181818;stroke-width:1.0;stroke-dasharray:2.0,2.0;" x1="57" x2="412" y1="370.7734" y2="370.7734"/><text fill="#000000" font-family="sans-serif" font-size="13" font-weight="bold" lengthAdjust="spacing" textLength="7" x="69" y="365.917">9</text><text fill="#000000" font-family="sans-serif" font-size="13" lengthAdjust="spacing" textLength="134" x="80" y="365.917">requests new operation</text><polygon fill="#181818" points="401,397.125,411,401.125,401,405.125,405,401.125" style="stroke:#181818;stroke-width:1.0;"/><line style="stroke:#181818;stroke-width:1.0;" x1="52" x2="407" y1="401.125" y2="401.125"/><text fill="#000000" font-family="sans-serif" font-size="13" font-weight="bold" lengthAdjust="spacing" textLength="14" x="59" y="396.2686">10</text><text fill="#000000" font-family="sans-serif" font-size="13" lengthAdjust="spacing" textLength="142" x="77" y="396.2686">chooses to check-in sns</text><polygon fill="#181818" points="63,427.4766,53,431.4766,63,435.4766,59,431.4766" style="stroke:#181818;stroke-width:1.0;"/><line style="stroke:#181818;stroke-width:1.0;stroke-dasharray:2.0,2.0;" x1="57" x2="412" y1="431.4766" y2="431.4766"/><text fill="#000000" font-family="sans-serif" font-size="13" font-weight="bold" lengthAdjust="spacing" textLength="14" x="69" y="426.6201">11</text><text fill="#000000" font-family="sans-serif" font-size="13" lengthAdjust="spacing" textLength="160" x="87" y="426.6201">requests sns user's number</text><polygon fill="#181818" points="401,457.8281,411,461.8281,401,465.8281,405,461.8281" style="stroke:#181818;stroke-width:1.0;"/><line style="stroke:#181818;stroke-width:1.0;" x1="52" x2="407" y1="461.8281" y2="461.8281"/><text fill="#000000" font-family="sans-serif" font-size="13" font-weight="bold" lengthAdjust="spacing" textLength="14" x="59" y="456.9717">12</text><text fill="#000000" font-family="sans-serif" font-size="13" lengthAdjust="spacing" textLength="122" x="77" y="456.9717">types requested data</text><polygon fill="#181818" points="647,488.1797,657,492.1797,647,496.1797,651,492.1797" style="stroke:#181818;stroke-width:1.0;"/><line style="stroke:#181818;stroke-width:1.0;" x1="423" x2="653" y1="492.1797" y2="492.1797"/><text fill="#000000" font-family="sans-serif" font-size="13" font-weight="bold" lengthAdjust="spacing" textLength="14" x="430" y="487.3232">13</text><text fill="#000000" font-family="sans-serif" font-size="13" lengthAdjust="spacing" textLength="179" x="448" y="487.3232">checkIfUserExists(snsNumber)</text><polygon fill="#181818" points="1062,518.5313,1072,522.5313,1062,526.5313,1066,522.5313" style="stroke:#181818;stroke-width:1.0;"/><line style="stroke:#181818;stroke-width:1.0;" x1="659" x2="1068" y1="522.5313" y2="522.5313"/><text fill="#000000" font-family="sans-serif" font-size="13" font-weight="bold" lengthAdjust="spacing" textLength="14" x="666" y="517.6748">14</text><text fill="#000000" font-family="sans-serif" font-size="13" lengthAdjust="spacing" textLength="36" x="684" y="517.6748">create</text><rect fill="#E2E2F0" height="31.6094" rx="2.5" ry="2.5" style="stroke:#181818;stroke-width:0.5;" width="154" x="1074" y="500.1797"/><text fill="#000000" font-family="sans-serif" font-size="14" lengthAdjust="spacing" textLength="140" x="1081" y="521.7129">:UserLastVaccineDTO</text><polygon fill="#181818" points="913,561.1406,903,565.1406,913,569.1406,909,565.1406" style="stroke:#181818;stroke-width:1.0;"/><line style="stroke:#181818;stroke-width:1.0;" x1="907" x2="1145" y1="565.1406" y2="565.1406"/><text fill="#000000" font-family="sans-serif" font-size="13" font-weight="bold" lengthAdjust="spacing" textLength="14" x="919" y="560.2842">15</text><text fill="#000000" font-family="sans-serif" font-size="13" lengthAdjust="spacing" textLength="207" x="937" y="560.2842">getUserBySNSNumber(snsNumber)</text><polygon fill="#181818" points="1267.5,591.4922,1277.5,595.4922,1267.5,599.4922,1271.5,595.4922" style="stroke:#181818;stroke-width:1.0;"/><line style="stroke:#181818;stroke-width:1.0;" x1="902" x2="1273.5" y1="595.4922" y2="595.4922"/><text fill="#000000" font-family="sans-serif" font-size="13" font-weight="bold" lengthAdjust="spacing" textLength="14" x="909" y="590.6357">16</text><text fill="#000000" font-family="sans-serif" font-size="13" lengthAdjust="spacing" textLength="207" x="927" y="590.6357">getUserBySNSNumber(snsNumber)</text><polygon fill="#181818" points="913,621.8438,903,625.8438,913,629.8438,909,625.8438" style="stroke:#181818;stroke-width:1.0;"/><line style="stroke:#181818;stroke-width:1.0;stroke-dasharray:2.0,2.0;" x1="907" x2="1283.5" y1="625.8438" y2="625.8438"/><text fill="#000000" font-family="sans-serif" font-size="13" font-weight="bold" lengthAdjust="spacing" textLength="14" x="919" y="620.9873">17</text><text fill="#000000" font-family="sans-serif" font-size="13" lengthAdjust="spacing" textLength="48" x="937" y="620.9873">snsUser</text><polygon fill="#181818" points="1134,652.1953,1144,656.1953,1134,660.1953,1138,656.1953" style="stroke:#181818;stroke-width:1.0;"/><line style="stroke:#181818;stroke-width:1.0;stroke-dasharray:2.0,2.0;" x1="897" x2="1140" y1="656.1953" y2="656.1953"/><text fill="#000000" font-family="sans-serif" font-size="13" font-weight="bold" lengthAdjust="spacing" textLength="14" x="904" y="651.3389">18</text><text fill="#000000" font-family="sans-serif" font-size="13" lengthAdjust="spacing" textLength="48" x="922" y="651.3389">snsUser</text><polygon fill="#181818" points="1359.5,682.5469,1369.5,686.5469,1359.5,690.5469,1363.5,686.5469" style="stroke:#181818;stroke-width:1.0;"/><line style="stroke:#181818;stroke-width:1.0;" x1="1156" x2="1365.5" y1="686.5469" y2="686.5469"/><text fill="#000000" font-family="sans-serif" font-size="13" font-weight="bold" lengthAdjust="spacing" textLength="14" x="1163" y="681.6904">19</text><text fill="#000000" font-family="sans-serif" font-size="13" lengthAdjust="spacing" textLength="107" x="1181" y="681.6904">getUserVaccines()</text><polygon fill="#181818" points="1514.5,712.8984,1524.5,716.8984,1514.5,720.8984,1518.5,716.8984" style="stroke:#181818;stroke-width:1.0;"/><line style="stroke:#181818;stroke-width:1.0;" x1="1381.5" x2="1520.5" y1="716.8984" y2="716.8984"/><text fill="#000000" font-family="sans-serif" font-size="13" font-weight="bold" lengthAdjust="spacing" textLength="14" x="1388.5" y="712.042">20</text><text fill="#000000" font-family="sans-serif" font-size="13" lengthAdjust="spacing" textLength="76" x="1406.5" y="712.042">lastVaccine()</text><polygon fill="#181818" points="1392.5,743.25,1382.5,747.25,1392.5,751.25,1388.5,747.25" style="stroke:#181818;stroke-width:1.0;"/><line style="stroke:#181818;stroke-width:1.0;stroke-dasharray:2.0,2.0;" x1="1386.5" x2="1525.5" y1="747.25" y2="747.25"/><text fill="#000000" font-family="sans-serif" font-size="13" font-weight="bold" lengthAdjust="spacing" textLength="14" x="1398.5" y="742.3936">21</text><text fill="#000000" font-family="sans-serif" font-size="13" lengthAdjust="spacing" textLength="43" x="1416.5" y="742.3936">vaccine</text><polygon fill="#181818" points="1167,773.6016,1157,777.6016,1167,781.6016,1163,777.6016" style="stroke:#181818;stroke-width:1.0;"/><line style="stroke:#181818;stroke-width:1.0;stroke-dasharray:2.0,2.0;" x1="1161" x2="1370.5" y1="777.6016" y2="777.6016"/><text fill="#000000" font-family="sans-serif" font-size="13" font-weight="bold" lengthAdjust="spacing" textLength="14" x="1173" y="772.7451">22</text><text fill="#000000" font-family="sans-serif" font-size="13" lengthAdjust="spacing" textLength="43" x="1191" y="772.7451">vaccine</text><polygon fill="#181818" points="1359.5,803.9531,1369.5,807.9531,1359.5,811.9531,1363.5,807.9531" style="stroke:#181818;stroke-width:1.0;"/><line style="stroke:#181818;stroke-width:1.0;" x1="1156" x2="1365.5" y1="807.9531" y2="807.9531"/><text fill="#000000" font-family="sans-serif" font-size="13" font-weight="bold" lengthAdjust="spacing" textLength="14" x="1163" y="803.0967">23</text><text fill="#000000" font-family="sans-serif" font-size="13" lengthAdjust="spacing" textLength="107" x="1181" y="803.0967">getUserVaccines()</text><polygon fill="#181818" points="1514.5,834.3047,1524.5,838.3047,1514.5,842.3047,1518.5,838.3047" style="stroke:#181818;stroke-width:1.0;"/><line style="stroke:#181818;stroke-width:1.0;" x1="1381.5" x2="1520.5" y1="838.3047" y2="838.3047"/><text fill="#000000" font-family="sans-serif" font-size="13" font-weight="bold" lengthAdjust="spacing" textLength="14" x="1388.5" y="833.4482">24</text><text fill="#000000" font-family="sans-serif" font-size="13" lengthAdjust="spacing" textLength="103" x="1406.5" y="833.4482">lastVaccineDate()</text><polygon fill="#181818" points="1392.5,864.6563,1382.5,868.6563,1392.5,872.6563,1388.5,868.6563" style="stroke:#181818;stroke-width:1.0;"/><line style="stroke:#181818;stroke-width:1.0;stroke-dasharray:2.0,2.0;" x1="1386.5" x2="1530.5" y1="868.6563" y2="868.6563"/><text fill="#000000" font-family="sans-serif" font-size="13" font-weight="bold" lengthAdjust="spacing" textLength="14" x="1398.5" y="863.7998">25</text><text fill="#000000" font-family="sans-serif" font-size="13" lengthAdjust="spacing" textLength="27" x="1416.5" y="863.7998">Date</text><polygon fill="#181818" points="1162,895.0078,1152,899.0078,1162,903.0078,1158,899.0078" style="stroke:#181818;stroke-width:1.0;"/><line style="stroke:#181818;stroke-width:1.0;stroke-dasharray:2.0,2.0;" x1="1156" x2="1375.5" y1="899.0078" y2="899.0078"/><text fill="#000000" font-family="sans-serif" font-size="13" font-weight="bold" lengthAdjust="spacing" textLength="14" x="1168" y="894.1514">26</text><text fill="#000000" font-family="sans-serif" font-size="13" lengthAdjust="spacing" textLength="27" x="1186" y="894.1514">Date</text><polygon fill="#181818" points="675,925.3594,665,929.3594,675,933.3594,671,929.3594" style="stroke:#181818;stroke-width:1.0;"/><line style="stroke:#181818;stroke-width:1.0;stroke-dasharray:2.0,2.0;" x1="669" x2="1150" y1="929.3594" y2="929.3594"/><text fill="#000000" font-family="sans-serif" font-size="13" font-weight="bold" lengthAdjust="spacing" textLength="14" x="681" y="924.5029">27</text><text fill="#000000" font-family="sans-serif" font-size="13" lengthAdjust="spacing" textLength="18" x="699" y="924.5029">dto</text><polygon fill="#181818" points="434,955.7109,424,959.7109,434,963.7109,430,959.7109" style="stroke:#181818;stroke-width:1.0;"/><line style="stroke:#181818;stroke-width:1.0;stroke-dasharray:2.0,2.0;" x1="428" x2="653" y1="959.7109" y2="959.7109"/><text fill="#000000" font-family="sans-serif" font-size="13" font-weight="bold" lengthAdjust="spacing" textLength="14" x="440" y="954.8545">28</text><text fill="#000000" font-family="sans-serif" font-size="13" lengthAdjust="spacing" textLength="120" x="458" y="954.8545">informs if user exists</text><polygon fill="#181818" points="642,986.0625,652,990.0625,642,994.0625,646,990.0625" style="stroke:#181818;stroke-width:1.0;"/><line style="stroke:#181818;stroke-width:1.0;" x1="423" x2="648" y1="990.0625" y2="990.0625"/><text fill="#000000" font-family="sans-serif" font-size="13" font-weight="bold" lengthAdjust="spacing" textLength="14" x="430" y="985.2061">29</text><text fill="#000000" font-family="sans-serif" font-size="13" lengthAdjust="spacing" textLength="189" x="448" y="985.2061">checkInUser(snsUser,vacCenter)</text><polygon fill="#181818" points="971.5,1016.4141,981.5,1020.4141,971.5,1024.4141,975.5,1020.4141" style="stroke:#181818;stroke-width:1.0;"/><line style="stroke:#181818;stroke-width:1.0;" x1="664" x2="977.5" y1="1020.4141" y2="1020.4141"/><text fill="#000000" font-family="sans-serif" font-size="13" font-weight="bold" lengthAdjust="spacing" textLength="14" x="671" y="1015.5576">30</text><text fill="#000000" font-family="sans-serif" font-size="13" lengthAdjust="spacing" textLength="151" x="689" y="1015.5576">checkInSnsUser(snsUser)</text><polygon fill="#181818" points="1609.5,1046.7656,1619.5,1050.7656,1609.5,1054.7656,1613.5,1050.7656" style="stroke:#181818;stroke-width:1.0;"/><line style="stroke:#181818;stroke-width:1.0;" x1="993.5" x2="1615.5" y1="1050.7656" y2="1050.7656"/><text fill="#000000" font-family="sans-serif" font-size="13" font-weight="bold" lengthAdjust="spacing" textLength="14" x="1000.5" y="1045.9092">31</text><text fill="#000000" font-family="sans-serif" font-size="13" lengthAdjust="spacing" textLength="151" x="1018.5" y="1045.9092">checkInSnsUser(snsUser)</text><polygon fill="#181818" points="1004.5,1077.1172,994.5,1081.1172,1004.5,1085.1172,1000.5,1081.1172" style="stroke:#181818;stroke-width:1.0;"/><line style="stroke:#181818;stroke-width:1.0;stroke-dasharray:2.0,2.0;" x1="998.5" x2="1625.5" y1="1081.1172" y2="1081.1172"/><text fill="#000000" font-family="sans-serif" font-size="13" font-weight="bold" lengthAdjust="spacing" textLength="14" x="1010.5" y="1076.2607">32</text><text fill="#000000" font-family="sans-serif" font-size="13" lengthAdjust="spacing" textLength="163" x="1028.5" y="1076.2607">inform operation (in)success</text><polygon fill="#181818" points="675,1107.4688,665,1111.4688,675,1115.4688,671,1111.4688" style="stroke:#181818;stroke-width:1.0;"/><line style="stroke:#181818;stroke-width:1.0;stroke-dasharray:2.0,2.0;" x1="669" x2="987.5" y1="1111.4688" y2="1111.4688"/><text fill="#000000" font-family="sans-serif" font-size="13" font-weight="bold" lengthAdjust="spacing" textLength="14" x="681" y="1106.6123">33</text><text fill="#000000" font-family="sans-serif" font-size="13" lengthAdjust="spacing" textLength="163" x="699" y="1106.6123">inform operation (in)success</text><polygon fill="#181818" points="434,1137.8203,424,1141.8203,434,1145.8203,430,1141.8203" style="stroke:#181818;stroke-width:1.0;"/><line style="stroke:#181818;stroke-width:1.0;stroke-dasharray:2.0,2.0;" x1="428" x2="658" y1="1141.8203" y2="1141.8203"/><text fill="#000000" font-family="sans-serif" font-size="13" font-weight="bold" lengthAdjust="spacing" textLength="14" x="440" y="1136.9639">34</text><text fill="#000000" font-family="sans-serif" font-size="13" lengthAdjust="spacing" textLength="163" x="458" y="1136.9639">inform operation (in)success</text><polygon fill="#181818" points="58,1168.1719,48,1172.1719,58,1176.1719,54,1172.1719" style="stroke:#181818;stroke-width:1.0;"/><line style="stroke:#181818;stroke-width:1.0;stroke-dasharray:2.0,2.0;" x1="52" x2="417" y1="1172.1719" y2="1172.1719"/><text fill="#000000" font-family="sans-serif" font-size="13" font-weight="bold" lengthAdjust="spacing" textLength="14" x="64" y="1167.3154">35</text><text fill="#000000" font-family="sans-serif" font-size="13" lengthAdjust="spacing" textLength="163" x="82" y="1167.3154">inform operation (in)success</text><!--MD5=[337c313c54573ed56c750b3bcaed8afd]
@startuml
autonumber

actor "Receptionist" as REC

participant ":ReceptionistUI" as UI
participant ":ReceptionistController" as CTRL
participant ":Company" as ORG

participant ":VacCenter" as CENTER
participant ":UserLastVaccineDTO" as DTO
participant ":SnsUserList" as LIST
participant ":SnsUser" as USER
participant ":Vaccine" as VAC
participant ":WaitingRoom" as ROOM

activate REC
REC -> UI : Starts to register arrival of SNS user at vaccination center
activate UI
UI -> CTRL: getVacCenterList()
activate CTRL
CTRL -> ORG: getVacCenterList()
activate ORG
ORG - -> CTRL: vacCenterList
deactivate ORG
CTRL -> CTRL: vacCenterList.showAllVacCenters()
CTRL - -> UI: list of vacCenters
deactivate CTRL

UI - -> REC : requests which vaccination center


REC -> UI : chooses vaccination center

UI - -> REC: requests new operation
REC -> UI: chooses to check-in sns
UI - -> REC: requests sns user's number
REC -> UI: types requested data

UI -> CTRL: checkIfUserExists(snsNumber)

CTRL -> DTO**:create
activate DTO
DTO -> ORG: getUserBySNSNumber(snsNumber)
activate ORG
ORG -> LIST: getUserBySNSNumber(snsNumber)
activate LIST
LIST - -> ORG: snsUser
deactivate LIST
ORG - -> DTO: snsUser
deactivate ORG
DTO -> USER: getUserVaccines()
activate USER
USER -> VAC: lastVaccine()
activate VAC
VAC - -> USER: vaccine

USER - -> DTO: vaccine
DTO -> USER: getUserVaccines()
USER -> VAC: lastVaccineDate()
VAC - -> USER: Date
deactivate VAC
USER - -> DTO: Date
deactivate USER
deactivate DTO
DTO - -> CTRL: dto

activate CTRL
CTRL - -> UI: informs if user exists
UI -> CTRL: checkInUser(snsUser,vacCenter)
CTRL -> CENTER: checkInSnsUser(snsUser)
activate CENTER
CENTER -> ROOM: checkInSnsUser(snsUser)
activate ROOM
ROOM - -> CENTER: inform operation (in)success
deactivate ROOM
CENTER - -> CTRL: inform operation (in)success
deactivate CENTER
CTRL - -> UI: inform operation (in)success
deactivate CTRL
UI - -> REC: inform operation (in)success
deactivate UI

deactivate REC


@enduml

PlantUML version 1.2022.5(Sat Apr 30 11:55:52 BST 2022)
(GPL source distribution)
Java Runtime: OpenJDK Runtime Environment
JVM: OpenJDK 64-Bit Server VM
Default Encoding: Cp1252
Language: en
Country: GB
--></g></svg>