<?xml version="1.0" encoding="UTF-8" standalone="no"?><svg xmlns="http://www.w3.org/2000/svg" xmlns:xlink="http://www.w3.org/1999/xlink" contentStyleType="text/css" height="1259px" preserveAspectRatio="none" style="width:585px;height:1259px;background:#FFFFFF;" version="1.1" viewBox="0 0 585 1259" width="585px" zoomAndPan="magnify"><defs/><g><!--MD5=[02e4b9b7573f1156f41e60aa5b4e25a4]
class Company--><g id="elem_Company"><rect codeLine="3" fill="#F1F1F1" height="118.4375" id="Company" rx="2.5" ry="2.5" style="stroke:#181818;stroke-width:0.5;" width="531" x="47" y="348"/><ellipse cx="278.25" cy="364" fill="#ADD1B2" rx="11" ry="11" style="stroke:#181818;stroke-width:1.0;"/><path d="M280.25,360.5 Q280.4531,360 280.6875,359.75 Q280.9219,359.5 281.1875,359.5 Q281.6563,359.5 281.9531,359.7813 Q282.25,360.0625 282.25,360.7188 L282.25,362.2813 Q282.25,362.9375 281.9688,363.2188 Q281.6875,363.5 281.25,363.5 Q280.8594,363.5 280.6094,363.3281 Q280.3594,363.1563 280.25,362.7031 Q280.2031,362.3906 280.0313,362.2188 Q279.7188,361.8906 279.1563,361.7031 Q278.5938,361.5 278.0313,361.5 Q277.3281,361.5 276.7344,361.7813 Q276.1563,362.0625 275.7031,362.6875 Q275.25,363.3125 275.25,364.1719 L275.25,365.0938 Q275.25,366.125 276.0938,366.8125 Q276.9375,367.5 278.4375,367.5 Q279.3281,367.5 279.9531,367.2969 Q280.3125,367.1875 280.7188,366.8281 Q280.9844,366.625 281.125,366.5625 Q281.2656,366.5 281.4375,366.5 Q281.7656,366.5 282,366.7656 Q282.25,367.0156 282.25,367.375 Q282.25,367.7188 281.9063,368.125 Q281.4063,368.7188 280.6094,369.0469 Q279.5625,369.5 278.2813,369.5 Q276.7813,369.5 275.5781,368.9063 Q274.6094,368.4375 273.9219,367.4219 Q273.25,366.4063 273.25,365.2031 L273.25,364.1094 Q273.25,362.8594 273.8438,361.7656 Q274.4531,360.6719 275.5,360.0938 Q276.5625,359.5 277.75,359.5 Q278.4688,359.5 279.0938,359.75 Q279.7188,360 280.25,360.5 Z " fill="#000000"/><text fill="#000000" font-family="sans-serif" font-size="14" lengthAdjust="spacing" textLength="60" x="298.75" y="369.7285">Company</text><line style="stroke:#181818;stroke-width:0.5;" x1="48" x2="577" y1="380" y2="380"/><text fill="#000000" font-family="sans-serif" font-size="14" lengthAdjust="spacing" textLength="123" x="53" y="398.5332">-String designation;</text><text fill="#000000" font-family="sans-serif" font-size="14" lengthAdjust="spacing" textLength="166" x="53" y="416.1426">-AuthFacade authFacade;</text><line style="stroke:#181818;stroke-width:0.5;" x1="48" x2="577" y1="423.2188" y2="423.2188"/><text fill="#000000" font-family="sans-serif" font-size="14" lengthAdjust="spacing" textLength="519" x="53" y="441.752">+Organization(name, VatNumber, webSite, phone, email, postalAddress, manager)</text><text fill="#000000" font-family="sans-serif" font-size="14" lengthAdjust="spacing" textLength="189" x="53" y="459.3613">+createVaccineType(disease)</text></g><!--MD5=[e84c9b6ecea418676e70c8ed8f67e363]
class ReceptionistController--><g id="elem_ReceptionistController"><rect codeLine="11" fill="#F1F1F1" height="118.4375" id="ReceptionistController" rx="2.5" ry="2.5" style="stroke:#181818;stroke-width:0.5;" width="509" x="58" y="169"/><ellipse cx="238.25" cy="185" fill="#ADD1B2" rx="11" ry="11" style="stroke:#181818;stroke-width:1.0;"/><path d="M240.25,181.5 Q240.4531,181 240.6875,180.75 Q240.9219,180.5 241.1875,180.5 Q241.6563,180.5 241.9531,180.7813 Q242.25,181.0625 242.25,181.7188 L242.25,183.2813 Q242.25,183.9375 241.9688,184.2188 Q241.6875,184.5 241.25,184.5 Q240.8594,184.5 240.6094,184.3281 Q240.3594,184.1563 240.25,183.7031 Q240.2031,183.3906 240.0313,183.2188 Q239.7188,182.8906 239.1563,182.7031 Q238.5938,182.5 238.0313,182.5 Q237.3281,182.5 236.7344,182.7813 Q236.1563,183.0625 235.7031,183.6875 Q235.25,184.3125 235.25,185.1719 L235.25,186.0938 Q235.25,187.125 236.0938,187.8125 Q236.9375,188.5 238.4375,188.5 Q239.3281,188.5 239.9531,188.2969 Q240.3125,188.1875 240.7188,187.8281 Q240.9844,187.625 241.125,187.5625 Q241.2656,187.5 241.4375,187.5 Q241.7656,187.5 242,187.7656 Q242.25,188.0156 242.25,188.375 Q242.25,188.7188 241.9063,189.125 Q241.4063,189.7188 240.6094,190.0469 Q239.5625,190.5 238.2813,190.5 Q236.7813,190.5 235.5781,189.9063 Q234.6094,189.4375 233.9219,188.4219 Q233.25,187.4063 233.25,186.2031 L233.25,185.1094 Q233.25,183.8594 233.8438,182.7656 Q234.4531,181.6719 235.5,181.0938 Q236.5625,180.5 237.75,180.5 Q238.4688,180.5 239.0938,180.75 Q239.7188,181 240.25,181.5 Z " fill="#000000"/><text fill="#000000" font-family="sans-serif" font-size="14" lengthAdjust="spacing" textLength="140" x="258.75" y="190.7285">ReceptionistController</text><line style="stroke:#181818;stroke-width:0.5;" x1="59" x2="566" y1="201" y2="201"/><line style="stroke:#181818;stroke-width:0.5;" x1="59" x2="566" y1="209" y2="209"/><text fill="#000000" font-family="sans-serif" font-size="14" lengthAdjust="spacing" textLength="279" x="64" y="227.5332">+ReceptionistController(Company company)</text><text fill="#000000" font-family="sans-serif" font-size="14" lengthAdjust="spacing" textLength="220" x="64" y="245.1426">+getVacCenterList():VacCenterList</text><text fill="#000000" font-family="sans-serif" font-size="14" lengthAdjust="spacing" textLength="485" x="64" y="262.752">+checkInUser(UserLastVaccineDTO snsUser, VacCenter vacCenter):boolean</text><text fill="#000000" font-family="sans-serif" font-size="14" lengthAdjust="spacing" textLength="497" x="64" y="280.3613">+checkOutUser(UserLastVaccineDTO snsUser, VacCenter vacCenter):boolean</text></g><!--MD5=[91012a2032740e46788958c8ec68e4dc]
class ReceptionistUI--><g id="elem_ReceptionistUI"><rect codeLine="18" fill="#F1F1F1" height="100.8281" id="ReceptionistUI" rx="2.5" ry="2.5" style="stroke:#181818;stroke-width:0.5;" width="299" x="163" y="7"/><ellipse cx="263.25" cy="23" fill="#ADD1B2" rx="11" ry="11" style="stroke:#181818;stroke-width:1.0;"/><path d="M265.25,19.5 Q265.4531,19 265.6875,18.75 Q265.9219,18.5 266.1875,18.5 Q266.6563,18.5 266.9531,18.7813 Q267.25,19.0625 267.25,19.7188 L267.25,21.2813 Q267.25,21.9375 266.9688,22.2188 Q266.6875,22.5 266.25,22.5 Q265.8594,22.5 265.6094,22.3281 Q265.3594,22.1563 265.25,21.7031 Q265.2031,21.3906 265.0313,21.2188 Q264.7188,20.8906 264.1563,20.7031 Q263.5938,20.5 263.0313,20.5 Q262.3281,20.5 261.7344,20.7813 Q261.1563,21.0625 260.7031,21.6875 Q260.25,22.3125 260.25,23.1719 L260.25,24.0938 Q260.25,25.125 261.0938,25.8125 Q261.9375,26.5 263.4375,26.5 Q264.3281,26.5 264.9531,26.2969 Q265.3125,26.1875 265.7188,25.8281 Q265.9844,25.625 266.125,25.5625 Q266.2656,25.5 266.4375,25.5 Q266.7656,25.5 267,25.7656 Q267.25,26.0156 267.25,26.375 Q267.25,26.7188 266.9063,27.125 Q266.4063,27.7188 265.6094,28.0469 Q264.5625,28.5 263.2813,28.5 Q261.7813,28.5 260.5781,27.9063 Q259.6094,27.4375 258.9219,26.4219 Q258.25,25.4063 258.25,24.2031 L258.25,23.1094 Q258.25,21.8594 258.8438,20.7656 Q259.4531,19.6719 260.5,19.0938 Q261.5625,18.5 262.75,18.5 Q263.4688,18.5 264.0938,18.75 Q264.7188,19 265.25,19.5 Z " fill="#000000"/><text fill="#000000" font-family="sans-serif" font-size="14" lengthAdjust="spacing" textLength="90" x="283.75" y="28.7285">ReceptionistUI</text><line style="stroke:#181818;stroke-width:0.5;" x1="164" x2="461" y1="39" y2="39"/><text fill="#000000" font-family="sans-serif" font-size="14" lengthAdjust="spacing" textLength="129" x="169" y="57.5332">+Company company</text><text fill="#000000" font-family="sans-serif" font-size="14" lengthAdjust="spacing" textLength="239" x="169" y="75.1426">+SnsUserController snsuserController</text><text fill="#000000" font-family="sans-serif" font-size="14" lengthAdjust="spacing" textLength="287" x="169" y="92.752">+ReceptionistController receptionistController</text><line style="stroke:#181818;stroke-width:0.5;" x1="164" x2="461" y1="99.8281" y2="99.8281"/></g><!--MD5=[d91bc0e39d54837b064dcc071c3fa0fa]
class UserLastVaccineDTO--><g id="elem_UserLastVaccineDTO"><rect codeLine="24" fill="#F1F1F1" height="153.6563" id="UserLastVaccineDTO" rx="2.5" ry="2.5" style="stroke:#181818;stroke-width:0.5;" width="385" x="9" y="1099"/><ellipse cx="129.25" cy="1115" fill="#ADD1B2" rx="11" ry="11" style="stroke:#181818;stroke-width:1.0;"/><path d="M131.25,1111.5 Q131.4531,1111 131.6875,1110.75 Q131.9219,1110.5 132.1875,1110.5 Q132.6563,1110.5 132.9531,1110.7813 Q133.25,1111.0625 133.25,1111.7188 L133.25,1113.2813 Q133.25,1113.9375 132.9688,1114.2188 Q132.6875,1114.5 132.25,1114.5 Q131.8594,1114.5 131.6094,1114.3281 Q131.3594,1114.1563 131.25,1113.7031 Q131.2031,1113.3906 131.0313,1113.2188 Q130.7188,1112.8906 130.1563,1112.7031 Q129.5938,1112.5 129.0313,1112.5 Q128.3281,1112.5 127.7344,1112.7813 Q127.1563,1113.0625 126.7031,1113.6875 Q126.25,1114.3125 126.25,1115.1719 L126.25,1116.0938 Q126.25,1117.125 127.0938,1117.8125 Q127.9375,1118.5 129.4375,1118.5 Q130.3281,1118.5 130.9531,1118.2969 Q131.3125,1118.1875 131.7188,1117.8281 Q131.9844,1117.625 132.125,1117.5625 Q132.2656,1117.5 132.4375,1117.5 Q132.7656,1117.5 133,1117.7656 Q133.25,1118.0156 133.25,1118.375 Q133.25,1118.7188 132.9063,1119.125 Q132.4063,1119.7188 131.6094,1120.0469 Q130.5625,1120.5 129.2813,1120.5 Q127.7813,1120.5 126.5781,1119.9063 Q125.6094,1119.4375 124.9219,1118.4219 Q124.25,1117.4063 124.25,1116.2031 L124.25,1115.1094 Q124.25,1113.8594 124.8438,1112.7656 Q125.4531,1111.6719 126.5,1111.0938 Q127.5625,1110.5 128.75,1110.5 Q129.4688,1110.5 130.0938,1110.75 Q130.7188,1111 131.25,1111.5 Z " fill="#000000"/><text fill="#000000" font-family="sans-serif" font-size="14" lengthAdjust="spacing" textLength="136" x="149.75" y="1120.7285">UserLastVaccineDTO</text><line style="stroke:#181818;stroke-width:0.5;" x1="10" x2="393" y1="1131" y2="1131"/><text fill="#000000" font-family="sans-serif" font-size="14" lengthAdjust="spacing" textLength="95" x="15" y="1149.5332">-int snsNumber</text><text fill="#000000" font-family="sans-serif" font-size="14" lengthAdjust="spacing" textLength="81" x="15" y="1167.1426">-String name</text><text fill="#000000" font-family="sans-serif" font-size="14" lengthAdjust="spacing" textLength="48" x="15" y="1184.752">-int age</text><text fill="#000000" font-family="sans-serif" font-size="14" lengthAdjust="spacing" textLength="206" x="15" y="1202.3613">-LocalDateTime lastVaccineDate</text><text fill="#000000" font-family="sans-serif" font-size="14" lengthAdjust="spacing" textLength="131" x="15" y="1219.9707">-Vaccine lastVaccine</text><line style="stroke:#181818;stroke-width:0.5;" x1="10" x2="393" y1="1227.0469" y2="1227.0469"/><text fill="#000000" font-family="sans-serif" font-size="14" lengthAdjust="spacing" textLength="373" x="15" y="1245.5801">+UserLastVaccineDTO(Company company, int snsNumber)</text></g><!--MD5=[aaa7e27c4ec43917c82a021675d2c87a]
class WaitingRoom--><g id="elem_WaitingRoom"><rect codeLine="33" fill="#F1F1F1" height="153.6563" id="WaitingRoom" rx="2.5" ry="2.5" style="stroke:#181818;stroke-width:0.5;" width="389" x="7" y="867"/><ellipse cx="155.25" cy="883" fill="#ADD1B2" rx="11" ry="11" style="stroke:#181818;stroke-width:1.0;"/><path d="M157.25,879.5 Q157.4531,879 157.6875,878.75 Q157.9219,878.5 158.1875,878.5 Q158.6563,878.5 158.9531,878.7813 Q159.25,879.0625 159.25,879.7188 L159.25,881.2813 Q159.25,881.9375 158.9688,882.2188 Q158.6875,882.5 158.25,882.5 Q157.8594,882.5 157.6094,882.3281 Q157.3594,882.1563 157.25,881.7031 Q157.2031,881.3906 157.0313,881.2188 Q156.7188,880.8906 156.1563,880.7031 Q155.5938,880.5 155.0313,880.5 Q154.3281,880.5 153.7344,880.7813 Q153.1563,881.0625 152.7031,881.6875 Q152.25,882.3125 152.25,883.1719 L152.25,884.0938 Q152.25,885.125 153.0938,885.8125 Q153.9375,886.5 155.4375,886.5 Q156.3281,886.5 156.9531,886.2969 Q157.3125,886.1875 157.7188,885.8281 Q157.9844,885.625 158.125,885.5625 Q158.2656,885.5 158.4375,885.5 Q158.7656,885.5 159,885.7656 Q159.25,886.0156 159.25,886.375 Q159.25,886.7188 158.9063,887.125 Q158.4063,887.7188 157.6094,888.0469 Q156.5625,888.5 155.2813,888.5 Q153.7813,888.5 152.5781,887.9063 Q151.6094,887.4375 150.9219,886.4219 Q150.25,885.4063 150.25,884.2031 L150.25,883.1094 Q150.25,881.8594 150.8438,880.7656 Q151.4531,879.6719 152.5,879.0938 Q153.5625,878.5 154.75,878.5 Q155.4688,878.5 156.0938,878.75 Q156.7188,879 157.25,879.5 Z " fill="#000000"/><text fill="#000000" font-family="sans-serif" font-size="14" lengthAdjust="spacing" textLength="84" x="175.75" y="888.7285">WaitingRoom</text><line style="stroke:#181818;stroke-width:0.5;" x1="8" x2="395" y1="899" y2="899"/><text fill="#000000" font-family="sans-serif" font-size="14" lengthAdjust="spacing" textLength="261" x="13" y="917.5332">-List&lt;UserLastVaccineDTO&gt; latestEntries</text><text fill="#000000" font-family="sans-serif" font-size="14" lengthAdjust="spacing" textLength="256" x="13" y="935.1426">-List&lt;UserLastVaccineDTO&gt; snsUserList</text><text fill="#000000" font-family="sans-serif" font-size="14" lengthAdjust="spacing" textLength="256" x="13" y="952.752">-List&lt;LocalDateTime&gt; dateTimeOfArrival</text><line style="stroke:#181818;stroke-width:0.5;" x1="8" x2="395" y1="959.8281" y2="959.8281"/><text fill="#000000" font-family="sans-serif" font-size="14" lengthAdjust="spacing" textLength="365" x="13" y="978.3613">+checkInSnsUser(UserLastVaccineDTO snsUser):boolean</text><text fill="#000000" font-family="sans-serif" font-size="14" lengthAdjust="spacing" textLength="341" x="13" y="995.9707">-visitedToday(UserLastVaccineDTO snsUser):boolean</text><text fill="#000000" font-family="sans-serif" font-size="14" lengthAdjust="spacing" textLength="377" x="13" y="1013.5801">+checkOutSnsUser(UserLastVaccineDTO snsUser):boolean</text></g><!--MD5=[c58fdcae378c37e7b89ecb70b8238a20]
class VacCenter--><g id="elem_VacCenter"><rect codeLine="42" fill="#F1F1F1" height="65.6094" id="VacCenter" rx="2.5" ry="2.5" style="stroke:#181818;stroke-width:0.5;" width="185" x="109" y="723"/><ellipse cx="163.75" cy="739" fill="#ADD1B2" rx="11" ry="11" style="stroke:#181818;stroke-width:1.0;"/><path d="M165.75,735.5 Q165.9531,735 166.1875,734.75 Q166.4219,734.5 166.6875,734.5 Q167.1563,734.5 167.4531,734.7813 Q167.75,735.0625 167.75,735.7188 L167.75,737.2813 Q167.75,737.9375 167.4688,738.2188 Q167.1875,738.5 166.75,738.5 Q166.3594,738.5 166.1094,738.3281 Q165.8594,738.1563 165.75,737.7031 Q165.7031,737.3906 165.5313,737.2188 Q165.2188,736.8906 164.6563,736.7031 Q164.0938,736.5 163.5313,736.5 Q162.8281,736.5 162.2344,736.7813 Q161.6563,737.0625 161.2031,737.6875 Q160.75,738.3125 160.75,739.1719 L160.75,740.0938 Q160.75,741.125 161.5938,741.8125 Q162.4375,742.5 163.9375,742.5 Q164.8281,742.5 165.4531,742.2969 Q165.8125,742.1875 166.2188,741.8281 Q166.4844,741.625 166.625,741.5625 Q166.7656,741.5 166.9375,741.5 Q167.2656,741.5 167.5,741.7656 Q167.75,742.0156 167.75,742.375 Q167.75,742.7188 167.4063,743.125 Q166.9063,743.7188 166.1094,744.0469 Q165.0625,744.5 163.7813,744.5 Q162.2813,744.5 161.0781,743.9063 Q160.1094,743.4375 159.4219,742.4219 Q158.75,741.4063 158.75,740.2031 L158.75,739.1094 Q158.75,737.8594 159.3438,736.7656 Q159.9531,735.6719 161,735.0938 Q162.0625,734.5 163.25,734.5 Q163.9688,734.5 164.5938,734.75 Q165.2188,735 165.75,735.5 Z " fill="#000000"/><text fill="#000000" font-family="sans-serif" font-size="14" lengthAdjust="spacing" textLength="67" x="184.25" y="744.7285">VacCenter</text><line style="stroke:#181818;stroke-width:0.5;" x1="110" x2="293" y1="755" y2="755"/><text fill="#000000" font-family="sans-serif" font-size="14" lengthAdjust="spacing" textLength="173" x="115" y="773.5332">-WaitingRoom waitingRoom</text><line style="stroke:#181818;stroke-width:0.5;" x1="110" x2="293" y1="780.6094" y2="780.6094"/></g><!--MD5=[db1a4640784bf8ce4137d866e46991c7]
class VacCenterList--><g id="elem_VacCenterList"><rect codeLine="48" fill="#F1F1F1" height="100.8281" id="VacCenterList" rx="2.5" ry="2.5" style="stroke:#181818;stroke-width:0.5;" width="269" x="67" y="544"/><ellipse cx="152.75" cy="560" fill="#ADD1B2" rx="11" ry="11" style="stroke:#181818;stroke-width:1.0;"/><path d="M154.75,556.5 Q154.9531,556 155.1875,555.75 Q155.4219,555.5 155.6875,555.5 Q156.1563,555.5 156.4531,555.7813 Q156.75,556.0625 156.75,556.7188 L156.75,558.2813 Q156.75,558.9375 156.4688,559.2188 Q156.1875,559.5 155.75,559.5 Q155.3594,559.5 155.1094,559.3281 Q154.8594,559.1563 154.75,558.7031 Q154.7031,558.3906 154.5313,558.2188 Q154.2188,557.8906 153.6563,557.7031 Q153.0938,557.5 152.5313,557.5 Q151.8281,557.5 151.2344,557.7813 Q150.6563,558.0625 150.2031,558.6875 Q149.75,559.3125 149.75,560.1719 L149.75,561.0938 Q149.75,562.125 150.5938,562.8125 Q151.4375,563.5 152.9375,563.5 Q153.8281,563.5 154.4531,563.2969 Q154.8125,563.1875 155.2188,562.8281 Q155.4844,562.625 155.625,562.5625 Q155.7656,562.5 155.9375,562.5 Q156.2656,562.5 156.5,562.7656 Q156.75,563.0156 156.75,563.375 Q156.75,563.7188 156.4063,564.125 Q155.9063,564.7188 155.1094,565.0469 Q154.0625,565.5 152.7813,565.5 Q151.2813,565.5 150.0781,564.9063 Q149.1094,564.4375 148.4219,563.4219 Q147.75,562.4063 147.75,561.2031 L147.75,560.1094 Q147.75,558.8594 148.3438,557.7656 Q148.9531,556.6719 150,556.0938 Q151.0625,555.5 152.25,555.5 Q152.9688,555.5 153.5938,555.75 Q154.2188,556 154.75,556.5 Z " fill="#000000"/><text fill="#000000" font-family="sans-serif" font-size="14" lengthAdjust="spacing" textLength="89" x="173.25" y="565.7285">VacCenterList</text><line style="stroke:#181818;stroke-width:0.5;" x1="68" x2="335" y1="576" y2="576"/><text fill="#000000" font-family="sans-serif" font-size="14" lengthAdjust="spacing" textLength="201" x="73" y="594.5332">-List&lt;VacCenter&gt; vacCenterList</text><line style="stroke:#181818;stroke-width:0.5;" x1="68" x2="335" y1="601.6094" y2="601.6094"/><text fill="#000000" font-family="sans-serif" font-size="14" lengthAdjust="spacing" textLength="257" x="73" y="620.1426">+createVaccinationCenter(...):VacCenter</text><text fill="#000000" font-family="sans-serif" font-size="14" lengthAdjust="spacing" textLength="248" x="73" y="637.752">+showAllVacCenters():List&lt;VacCenter&gt;</text></g><!--MD5=[7af4d949b7fd650da8fc822f47baa79d]
class SnsUserList--><g id="elem_SnsUserList"><rect fill="#F1F1F1" height="48" id="SnsUserList" rx="2.5" ry="2.5" style="stroke:#181818;stroke-width:0.5;" width="107" x="371" y="570.5"/><ellipse cx="386" cy="586.5" fill="#ADD1B2" rx="11" ry="11" style="stroke:#181818;stroke-width:1.0;"/><path d="M388,583 Q388.2031,582.5 388.4375,582.25 Q388.6719,582 388.9375,582 Q389.4063,582 389.7031,582.2813 Q390,582.5625 390,583.2188 L390,584.7813 Q390,585.4375 389.7188,585.7188 Q389.4375,586 389,586 Q388.6094,586 388.3594,585.8281 Q388.1094,585.6563 388,585.2031 Q387.9531,584.8906 387.7813,584.7188 Q387.4688,584.3906 386.9063,584.2031 Q386.3438,584 385.7813,584 Q385.0781,584 384.4844,584.2813 Q383.9063,584.5625 383.4531,585.1875 Q383,585.8125 383,586.6719 L383,587.5938 Q383,588.625 383.8438,589.3125 Q384.6875,590 386.1875,590 Q387.0781,590 387.7031,589.7969 Q388.0625,589.6875 388.4688,589.3281 Q388.7344,589.125 388.875,589.0625 Q389.0156,589 389.1875,589 Q389.5156,589 389.75,589.2656 Q390,589.5156 390,589.875 Q390,590.2188 389.6563,590.625 Q389.1563,591.2188 388.3594,591.5469 Q387.3125,592 386.0313,592 Q384.5313,592 383.3281,591.4063 Q382.3594,590.9375 381.6719,589.9219 Q381,588.9063 381,587.7031 L381,586.6094 Q381,585.3594 381.5938,584.2656 Q382.2031,583.1719 383.25,582.5938 Q384.3125,582 385.5,582 Q386.2188,582 386.8438,582.25 Q387.4688,582.5 388,583 Z " fill="#000000"/><text fill="#000000" font-family="sans-serif" font-size="14" lengthAdjust="spacing" textLength="75" x="400" y="592.2285">SnsUserList</text><line style="stroke:#181818;stroke-width:0.5;" x1="372" x2="477" y1="602.5" y2="602.5"/><line style="stroke:#181818;stroke-width:0.5;" x1="372" x2="477" y1="610.5" y2="610.5"/></g><!--MD5=[c4593935f45e4a2a0cefc4788932b53f]
class SnsUser--><g id="elem_SnsUser"><rect fill="#F1F1F1" height="48" id="SnsUser" rx="2.5" ry="2.5" style="stroke:#181818;stroke-width:0.5;" width="85" x="382" y="732"/><ellipse cx="397" cy="748" fill="#ADD1B2" rx="11" ry="11" style="stroke:#181818;stroke-width:1.0;"/><path d="M399,744.5 Q399.2031,744 399.4375,743.75 Q399.6719,743.5 399.9375,743.5 Q400.4063,743.5 400.7031,743.7813 Q401,744.0625 401,744.7188 L401,746.2813 Q401,746.9375 400.7188,747.2188 Q400.4375,747.5 400,747.5 Q399.6094,747.5 399.3594,747.3281 Q399.1094,747.1563 399,746.7031 Q398.9531,746.3906 398.7813,746.2188 Q398.4688,745.8906 397.9063,745.7031 Q397.3438,745.5 396.7813,745.5 Q396.0781,745.5 395.4844,745.7813 Q394.9063,746.0625 394.4531,746.6875 Q394,747.3125 394,748.1719 L394,749.0938 Q394,750.125 394.8438,750.8125 Q395.6875,751.5 397.1875,751.5 Q398.0781,751.5 398.7031,751.2969 Q399.0625,751.1875 399.4688,750.8281 Q399.7344,750.625 399.875,750.5625 Q400.0156,750.5 400.1875,750.5 Q400.5156,750.5 400.75,750.7656 Q401,751.0156 401,751.375 Q401,751.7188 400.6563,752.125 Q400.1563,752.7188 399.3594,753.0469 Q398.3125,753.5 397.0313,753.5 Q395.5313,753.5 394.3281,752.9063 Q393.3594,752.4375 392.6719,751.4219 Q392,750.4063 392,749.2031 L392,748.1094 Q392,746.8594 392.5938,745.7656 Q393.2031,744.6719 394.25,744.0938 Q395.3125,743.5 396.5,743.5 Q397.2188,743.5 397.8438,743.75 Q398.4688,744 399,744.5 Z " fill="#000000"/><text fill="#000000" font-family="sans-serif" font-size="14" lengthAdjust="spacing" textLength="53" x="411" y="753.7285">SnsUser</text><line style="stroke:#181818;stroke-width:0.5;" x1="383" x2="466" y1="764" y2="764"/><line style="stroke:#181818;stroke-width:0.5;" x1="383" x2="466" y1="772" y2="772"/></g><!--MD5=[3a190f84d8333dcabf43e1e18fec2e5f]
link ReceptionistUI to ReceptionistController--><g id="link_ReceptionistUI_ReceptionistController"><path codeLine="55" d="M312.5,108.14 C312.5,125.54 312.5,145.31 312.5,163.67 " fill="none" id="ReceptionistUI-to-ReceptionistController" style="stroke:#181818;stroke-width:1.0;stroke-dasharray:7.0,7.0;"/><polygon fill="#181818" points="312.5,168.81,316.5,159.81,312.5,163.81,308.5,159.81,312.5,168.81" style="stroke:#181818;stroke-width:1.0;"/></g><!--MD5=[9b963cb600672b9eace1de13c1e63ba4]
link ReceptionistController to Company--><g id="link_ReceptionistController_Company"><path codeLine="56" d="M312.5,287.45 C312.5,305.21 312.5,324.81 312.5,342.87 " fill="none" id="ReceptionistController-to-Company" style="stroke:#181818;stroke-width:1.0;stroke-dasharray:7.0,7.0;"/><polygon fill="#181818" points="312.5,347.92,316.5,338.92,312.5,342.92,308.5,338.92,312.5,347.92" style="stroke:#181818;stroke-width:1.0;"/></g><!--MD5=[3fb4f8401be5eb541ab6df686292c712]
link Company to VacCenterList--><g id="link_Company_VacCenterList"><path codeLine="58" d="M277.68,466.18 C263.68,489.59 247.62,516.43 233.87,539.41 " fill="none" id="Company-to-VacCenterList" style="stroke:#181818;stroke-width:1.0;"/><polygon fill="#181818" points="231.15,543.95,239.2021,538.2787,233.7162,539.6588,232.3361,534.1728,231.15,543.95" style="stroke:#181818;stroke-width:1.0;"/><text fill="#000000" font-family="sans-serif" font-size="13" lengthAdjust="spacing" textLength="30" x="258.5" y="510.4951">owns</text><text fill="#000000" font-family="sans-serif" font-size="13" lengthAdjust="spacing" textLength="7" x="266.0098" y="487.8574">1</text><text fill="#000000" font-family="sans-serif" font-size="13" lengthAdjust="spacing" textLength="7" x="227.8273" y="533.2483">1</text></g><!--MD5=[2117ca5aa0e43bd49ebd76c7f1047f43]
link VacCenterList to VacCenter--><g id="link_VacCenterList_VacCenter"><path codeLine="59" d="M201.5,645.09 C201.5,668.46 201.5,695.88 201.5,717.48 " fill="none" id="VacCenterList-to-VacCenter" style="stroke:#181818;stroke-width:1.0;"/><polygon fill="#181818" points="201.5,722.56,205.5,713.56,201.5,717.56,197.5,713.56,201.5,722.56" style="stroke:#181818;stroke-width:1.0;"/><text fill="#000000" font-family="sans-serif" font-size="13" lengthAdjust="spacing" textLength="30" x="202.5" y="689.4951">owns</text><text fill="#000000" font-family="sans-serif" font-size="13" lengthAdjust="spacing" textLength="7" x="194.0297" y="666.4933">1</text><text fill="#000000" font-family="sans-serif" font-size="13" lengthAdjust="spacing" textLength="5" x="196.0234" y="712.2264">*</text></g><!--MD5=[27bf571de2603347e43e1c2ad4aeb8dd]
link Company to SnsUserList--><g id="link_Company_SnsUserList"><path codeLine="60" d="M347.63,466.18 C367.76,499.53 392.1,539.83 407.92,566.04 " fill="none" id="Company-to-SnsUserList" style="stroke:#181818;stroke-width:1.0;"/><polygon fill="#181818" points="410.58,570.44,409.3556,560.6675,407.997,566.1588,402.5057,564.8003,410.58,570.44" style="stroke:#181818;stroke-width:1.0;"/><text fill="#000000" font-family="sans-serif" font-size="13" lengthAdjust="spacing" textLength="30" x="375.5" y="510.4951">owns</text><text fill="#000000" font-family="sans-serif" font-size="13" lengthAdjust="spacing" textLength="7" x="344.4849" y="487.8574">1</text><text fill="#000000" font-family="sans-serif" font-size="13" lengthAdjust="spacing" textLength="7" x="399.1161" y="559.7648">1</text></g><!--MD5=[43e9aedba3c0ed5d1c44f8ee5d149ab1]
link SnsUserList to SnsUser--><g id="link_SnsUserList_SnsUser"><path codeLine="61" d="M424.5,618.69 C424.5,647.28 424.5,695.84 424.5,726.62 " fill="none" id="SnsUserList-to-SnsUser" style="stroke:#181818;stroke-width:1.0;"/><polygon fill="#181818" points="424.5,731.78,428.5,722.78,424.5,726.78,420.5,722.78,424.5,731.78" style="stroke:#181818;stroke-width:1.0;"/><text fill="#000000" font-family="sans-serif" font-size="13" lengthAdjust="spacing" textLength="30" x="425.5" y="689.4951">owns</text><text fill="#000000" font-family="sans-serif" font-size="13" lengthAdjust="spacing" textLength="7" x="416.6469" y="640.0743">1</text><text fill="#000000" font-family="sans-serif" font-size="13" lengthAdjust="spacing" textLength="5" x="418.8594" y="721.0638">*</text></g><!--MD5=[829c1eefdb7c16126e0c8ed9e11c72eb]
link VacCenter to WaitingRoom--><g id="link_VacCenter_WaitingRoom"><path codeLine="62" d="M201.5,789.4 C201.5,809.5 201.5,836.29 201.5,861.86 " fill="none" id="VacCenter-to-WaitingRoom" style="stroke:#181818;stroke-width:1.0;"/><polygon fill="#181818" points="201.5,866.96,205.5,857.96,201.5,861.96,197.5,857.96,201.5,866.96" style="stroke:#181818;stroke-width:1.0;"/><text fill="#000000" font-family="sans-serif" font-size="13" lengthAdjust="spacing" textLength="21" x="202.5" y="833.4951">has</text><text fill="#000000" font-family="sans-serif" font-size="13" lengthAdjust="spacing" textLength="7" x="193.8984" y="810.0745">1</text><text fill="#000000" font-family="sans-serif" font-size="13" lengthAdjust="spacing" textLength="7" x="194.1555" y="856.1182">1</text></g><!--MD5=[b7891a8b224a07ad6163f29be1ac4962]
link WaitingRoom to UserLastVaccineDTO--><g id="link_WaitingRoom_UserLastVaccineDTO"><path codeLine="63" d="M201.5,1021.27 C201.5,1044.58 201.5,1070.31 201.5,1093.93 " fill="none" id="WaitingRoom-to-UserLastVaccineDTO" style="stroke:#181818;stroke-width:1.0;"/><polygon fill="#181818" points="201.5,1098.94,205.5,1089.94,201.5,1093.94,197.5,1089.94,201.5,1098.94" style="stroke:#181818;stroke-width:1.0;"/><text fill="#000000" font-family="sans-serif" font-size="13" lengthAdjust="spacing" textLength="21" x="202.5" y="1065.4951">has</text><text fill="#000000" font-family="sans-serif" font-size="13" lengthAdjust="spacing" textLength="7" x="194.1992" y="1042.1229">1</text><text fill="#000000" font-family="sans-serif" font-size="13" lengthAdjust="spacing" textLength="5" x="196.2539" y="1088.0962">*</text></g><!--MD5=[5db5533a6e5e6548bd799bf0ef3bc6df]
@startuml
skinparam classAttributeIconSize 0

class Company {
    -String designation;
    -AuthFacade authFacade;
    +Organization(name, VatNumber, webSite, phone, email, postalAddress, manager)
    +createVaccineType(disease)
 }


class ReceptionistController {
    +ReceptionistController(Company company)
    +getVacCenterList():VacCenterList
    +checkInUser(UserLastVaccineDTO snsUser, VacCenter vacCenter):boolean
    +checkOutUser(UserLastVaccineDTO snsUser, VacCenter vacCenter):boolean
}

class ReceptionistUI {
    +Company company
    +SnsUserController snsuserController
    +ReceptionistController receptionistController
}

class UserLastVaccineDTO {
    -int snsNumber
    -String name
    -int age
    -LocalDateTime lastVaccineDate
    -Vaccine lastVaccine
    +UserLastVaccineDTO(Company company, int snsNumber)
}

class WaitingRoom {
    -List<UserLastVaccineDTO> latestEntries
    -List<UserLastVaccineDTO> snsUserList
    -List<LocalDateTime> dateTimeOfArrival
    +checkInSnsUser(UserLastVaccineDTO snsUser):boolean
    -visitedToday(UserLastVaccineDTO snsUser):boolean
    +checkOutSnsUser(UserLastVaccineDTO snsUser):boolean
}

class VacCenter {
    -WaitingRoom waitingRoom


}

class VacCenterList {
    -List<VacCenter> vacCenterList
    +createVaccinationCenter(...):VacCenter
    +showAllVacCenters():List<VacCenter>

}

 ReceptionistUI ..> ReceptionistController
 ReceptionistController ..> Company

 Company "1" - -> "1" VacCenterList : owns
 VacCenterList "1" - -> "*" VacCenter: owns
 Company "1" - -> "1" SnsUserList : owns
 SnsUserList "1" - -> "*" SnsUser : owns
 VacCenter "1" - -> "1" WaitingRoom: has
 WaitingRoom "1" - -> "*" UserLastVaccineDTO: has




@enduml

PlantUML version 1.2022.5(Sat Apr 30 11:55:52 BST 2022)
(GPL source distribution)
Java Runtime: OpenJDK Runtime Environment
JVM: OpenJDK 64-Bit Server VM
Default Encoding: Cp1252
Language: en
Country: GB
--></g></svg>