<?xml version="1.0" encoding="UTF-8" standalone="no"?><svg xmlns="http://www.w3.org/2000/svg" xmlns:xlink="http://www.w3.org/1999/xlink" contentScriptType="application/ecmascript" contentStyleType="text/css" height="308px" preserveAspectRatio="none" style="width:1082px;height:308px;background:#FFFFFF;" version="1.1" viewBox="0 0 1082 308" width="1082px" zoomAndPan="magnify"><defs><filter height="300%" id="f1lbon2gpvshtj" width="300%" x="-1" y="-1"><feGaussianBlur result="blurOut" stdDeviation="2.0"/><feColorMatrix in="blurOut" result="blurOut2" type="matrix" values="0 0 0 0 0 0 0 0 0 0 0 0 0 0 0 0 0 0 .4 0"/><feOffset dx="4.0" dy="4.0" in="blurOut2" result="blurOut3"/><feBlend in="SourceGraphic" in2="blurOut3" mode="normal"/></filter></defs><g><!--MD5=[da547346deef918ea16944ba046651ef]
class Administrator--><rect codeLine="5" fill="#FEFECE" filter="url(#f1lbon2gpvshtj)" height="40" id="Administrator" style="stroke:#A80036;stroke-width:1.5;" width="105" x="188" y="7"/><ellipse cx="203" cy="23" fill="#ADD1B2" rx="11" ry="11" style="stroke:#A80036;stroke-width:1.0;"/><path d="M205,19.5 Q205.2031,19 205.4375,18.75 Q205.6719,18.5 205.9375,18.5 Q206.4063,18.5 206.7031,18.7813 Q207,19.0625 207,19.7188 L207,21.2813 Q207,21.9375 206.7188,22.2188 Q206.4375,22.5 206,22.5 Q205.6094,22.5 205.3594,22.3281 Q205.1094,22.1563 205,21.7031 Q204.9531,21.3906 204.7813,21.2188 Q204.4688,20.8906 203.9063,20.7031 Q203.3438,20.5 202.7813,20.5 Q202.0781,20.5 201.4844,20.7813 Q200.9063,21.0625 200.4531,21.6875 Q200,22.3125 200,23.1719 L200,24.0938 Q200,25.125 200.8438,25.8125 Q201.6875,26.5 203.1875,26.5 Q204.0781,26.5 204.7031,26.2969 Q205.0625,26.1875 205.4688,25.8281 Q205.7344,25.625 205.875,25.5625 Q206.0156,25.5 206.1875,25.5 Q206.5156,25.5 206.75,25.7656 Q207,26.0156 207,26.375 Q207,26.7188 206.6563,27.125 Q206.1563,27.7188 205.3594,28.0469 Q204.3125,28.5 203.0313,28.5 Q201.5313,28.5 200.3281,27.9063 Q199.3594,27.4375 198.6719,26.4219 Q198,25.4063 198,24.2031 L198,23.1094 Q198,21.8594 198.5938,20.7656 Q199.2031,19.6719 200.25,19.0938 Q201.3125,18.5 202.5,18.5 Q203.2188,18.5 203.8438,18.75 Q204.4688,19 205,19.5 Z " fill="#000000"/><text fill="#000000" font-family="sans-serif" font-size="12" lengthAdjust="spacing" textLength="73" x="217" y="27.9102">Administrator</text><line style="stroke:#A80036;stroke-width:1.5;" x1="189" x2="292" y1="39" y2="39"/><!--MD5=[02e4b9b7573f1156f41e60aa5b4e25a4]
class Company--><rect codeLine="8" fill="#FEFECE" filter="url(#f1lbon2gpvshtj)" height="67.6719" id="Company" style="stroke:#A80036;stroke-width:1.5;" width="85" x="7" y="66"/><ellipse cx="22" cy="82" fill="#ADD1B2" rx="11" ry="11" style="stroke:#A80036;stroke-width:1.0;"/><path d="M24,78.5 Q24.2031,78 24.4375,77.75 Q24.6719,77.5 24.9375,77.5 Q25.4063,77.5 25.7031,77.7813 Q26,78.0625 26,78.7188 L26,80.2813 Q26,80.9375 25.7188,81.2188 Q25.4375,81.5 25,81.5 Q24.6094,81.5 24.3594,81.3281 Q24.1094,81.1563 24,80.7031 Q23.9531,80.3906 23.7813,80.2188 Q23.4688,79.8906 22.9063,79.7031 Q22.3438,79.5 21.7813,79.5 Q21.0781,79.5 20.4844,79.7813 Q19.9063,80.0625 19.4531,80.6875 Q19,81.3125 19,82.1719 L19,83.0938 Q19,84.125 19.8438,84.8125 Q20.6875,85.5 22.1875,85.5 Q23.0781,85.5 23.7031,85.2969 Q24.0625,85.1875 24.4688,84.8281 Q24.7344,84.625 24.875,84.5625 Q25.0156,84.5 25.1875,84.5 Q25.5156,84.5 25.75,84.7656 Q26,85.0156 26,85.375 Q26,85.7188 25.6563,86.125 Q25.1563,86.7188 24.3594,87.0469 Q23.3125,87.5 22.0313,87.5 Q20.5313,87.5 19.3281,86.9063 Q18.3594,86.4375 17.6719,85.4219 Q17,84.4063 17,83.2031 L17,82.1094 Q17,80.8594 17.5938,79.7656 Q18.2031,78.6719 19.25,78.0938 Q20.3125,77.5 21.5,77.5 Q22.2188,77.5 22.8438,77.75 Q23.4688,78 24,78.5 Z " fill="#000000"/><text fill="#000000" font-family="sans-serif" font-size="12" lengthAdjust="spacing" textLength="53" x="36" y="86.9102">Company</text><line style="stroke:#A80036;stroke-width:1.5;" x1="8" x2="91" y1="98" y2="98"/><text fill="#000000" font-family="sans-serif" font-size="11" lengthAdjust="spacing" textLength="59" x="13" y="113.4189">-designation</text><text fill="#000000" font-family="sans-serif" font-size="11" lengthAdjust="spacing" textLength="61" x="13" y="127.2549">-authFacade</text><!--MD5=[0e501da62322464167c8ec4d233a6b7e]
class VaccineType--><rect codeLine="13" fill="#FEFECE" filter="url(#f1lbon2gpvshtj)" height="53.8359" id="VaccineType" style="stroke:#A80036;stroke-width:1.5;" width="101" x="431" y="73"/><ellipse cx="446" cy="89" fill="#ADD1B2" rx="11" ry="11" style="stroke:#A80036;stroke-width:1.0;"/><path d="M448,85.5 Q448.2031,85 448.4375,84.75 Q448.6719,84.5 448.9375,84.5 Q449.4063,84.5 449.7031,84.7813 Q450,85.0625 450,85.7188 L450,87.2813 Q450,87.9375 449.7188,88.2188 Q449.4375,88.5 449,88.5 Q448.6094,88.5 448.3594,88.3281 Q448.1094,88.1563 448,87.7031 Q447.9531,87.3906 447.7813,87.2188 Q447.4688,86.8906 446.9063,86.7031 Q446.3438,86.5 445.7813,86.5 Q445.0781,86.5 444.4844,86.7813 Q443.9063,87.0625 443.4531,87.6875 Q443,88.3125 443,89.1719 L443,90.0938 Q443,91.125 443.8438,91.8125 Q444.6875,92.5 446.1875,92.5 Q447.0781,92.5 447.7031,92.2969 Q448.0625,92.1875 448.4688,91.8281 Q448.7344,91.625 448.875,91.5625 Q449.0156,91.5 449.1875,91.5 Q449.5156,91.5 449.75,91.7656 Q450,92.0156 450,92.375 Q450,92.7188 449.6563,93.125 Q449.1563,93.7188 448.3594,94.0469 Q447.3125,94.5 446.0313,94.5 Q444.5313,94.5 443.3281,93.9063 Q442.3594,93.4375 441.6719,92.4219 Q441,91.4063 441,90.2031 L441,89.1094 Q441,87.8594 441.5938,86.7656 Q442.2031,85.6719 443.25,85.0938 Q444.3125,84.5 445.5,84.5 Q446.2188,84.5 446.8438,84.75 Q447.4688,85 448,85.5 Z " fill="#000000"/><text fill="#000000" font-family="sans-serif" font-size="12" lengthAdjust="spacing" textLength="69" x="460" y="93.9102">VaccineType</text><line style="stroke:#A80036;stroke-width:1.5;" x1="432" x2="531" y1="105" y2="105"/><text fill="#000000" font-family="sans-serif" font-size="11" lengthAdjust="spacing" textLength="42" x="437" y="120.4189">-disease</text><!--MD5=[19e445fc4d3b48519cbe33da05496394]
class Vaccine--><rect codeLine="17" fill="#FEFECE" filter="url(#f1lbon2gpvshtj)" height="67.6719" id="Vaccine" style="stroke:#A80036;stroke-width:1.5;" width="75" x="203" y="170"/><ellipse cx="218" cy="186" fill="#ADD1B2" rx="11" ry="11" style="stroke:#A80036;stroke-width:1.0;"/><path d="M220,182.5 Q220.2031,182 220.4375,181.75 Q220.6719,181.5 220.9375,181.5 Q221.4063,181.5 221.7031,181.7813 Q222,182.0625 222,182.7188 L222,184.2813 Q222,184.9375 221.7188,185.2188 Q221.4375,185.5 221,185.5 Q220.6094,185.5 220.3594,185.3281 Q220.1094,185.1563 220,184.7031 Q219.9531,184.3906 219.7813,184.2188 Q219.4688,183.8906 218.9063,183.7031 Q218.3438,183.5 217.7813,183.5 Q217.0781,183.5 216.4844,183.7813 Q215.9063,184.0625 215.4531,184.6875 Q215,185.3125 215,186.1719 L215,187.0938 Q215,188.125 215.8438,188.8125 Q216.6875,189.5 218.1875,189.5 Q219.0781,189.5 219.7031,189.2969 Q220.0625,189.1875 220.4688,188.8281 Q220.7344,188.625 220.875,188.5625 Q221.0156,188.5 221.1875,188.5 Q221.5156,188.5 221.75,188.7656 Q222,189.0156 222,189.375 Q222,189.7188 221.6563,190.125 Q221.1563,190.7188 220.3594,191.0469 Q219.3125,191.5 218.0313,191.5 Q216.5313,191.5 215.3281,190.9063 Q214.3594,190.4375 213.6719,189.4219 Q213,188.4063 213,187.2031 L213,186.1094 Q213,184.8594 213.5938,183.7656 Q214.2031,182.6719 215.25,182.0938 Q216.3125,181.5 217.5,181.5 Q218.2188,181.5 218.8438,181.75 Q219.4688,182 220,182.5 Z " fill="#000000"/><text fill="#000000" font-family="sans-serif" font-size="12" lengthAdjust="spacing" textLength="43" x="232" y="190.9102">Vaccine</text><line style="stroke:#A80036;stroke-width:1.5;" x1="204" x2="277" y1="202" y2="202"/><text fill="#000000" font-family="sans-serif" font-size="11" lengthAdjust="spacing" textLength="30" x="209" y="217.4189">-name</text><text fill="#000000" font-family="sans-serif" font-size="11" lengthAdjust="spacing" textLength="52" x="209" y="231.2549">-lotNumber</text><!--MD5=[f1aa797bbb856f196dbabe5d61960c3a]
class VaccinationProcess--><rect codeLine="22" fill="#FEFECE" filter="url(#f1lbon2gpvshtj)" height="53.8359" id="VaccinationProcess" style="stroke:#A80036;stroke-width:1.5;" width="141" x="411" y="177"/><ellipse cx="426" cy="193" fill="#ADD1B2" rx="11" ry="11" style="stroke:#A80036;stroke-width:1.0;"/><path d="M428,189.5 Q428.2031,189 428.4375,188.75 Q428.6719,188.5 428.9375,188.5 Q429.4063,188.5 429.7031,188.7813 Q430,189.0625 430,189.7188 L430,191.2813 Q430,191.9375 429.7188,192.2188 Q429.4375,192.5 429,192.5 Q428.6094,192.5 428.3594,192.3281 Q428.1094,192.1563 428,191.7031 Q427.9531,191.3906 427.7813,191.2188 Q427.4688,190.8906 426.9063,190.7031 Q426.3438,190.5 425.7813,190.5 Q425.0781,190.5 424.4844,190.7813 Q423.9063,191.0625 423.4531,191.6875 Q423,192.3125 423,193.1719 L423,194.0938 Q423,195.125 423.8438,195.8125 Q424.6875,196.5 426.1875,196.5 Q427.0781,196.5 427.7031,196.2969 Q428.0625,196.1875 428.4688,195.8281 Q428.7344,195.625 428.875,195.5625 Q429.0156,195.5 429.1875,195.5 Q429.5156,195.5 429.75,195.7656 Q430,196.0156 430,196.375 Q430,196.7188 429.6563,197.125 Q429.1563,197.7188 428.3594,198.0469 Q427.3125,198.5 426.0313,198.5 Q424.5313,198.5 423.3281,197.9063 Q422.3594,197.4375 421.6719,196.4219 Q421,195.4063 421,194.2031 L421,193.1094 Q421,191.8594 421.5938,190.7656 Q422.2031,189.6719 423.25,189.0938 Q424.3125,188.5 425.5,188.5 Q426.2188,188.5 426.8438,188.75 Q427.4688,189 428,189.5 Z " fill="#000000"/><text fill="#000000" font-family="sans-serif" font-size="12" lengthAdjust="spacing" textLength="109" x="440" y="197.9102">VaccinationProcess</text><line style="stroke:#A80036;stroke-width:1.5;" x1="412" x2="551" y1="209" y2="209"/><text fill="#000000" font-family="sans-serif" font-size="11" lengthAdjust="spacing" textLength="78" x="417" y="224.4189">-recoveryPeriod</text><!--MD5=[c59c99efa75f30327e326596f335a568]
class AgeGroup--><rect codeLine="26" fill="#FEFECE" filter="url(#f1lbon2gpvshtj)" height="67.6719" id="AgeGroup" style="stroke:#A80036;stroke-width:1.5;" width="87" x="648" y="170"/><ellipse cx="663" cy="186" fill="#ADD1B2" rx="11" ry="11" style="stroke:#A80036;stroke-width:1.0;"/><path d="M665,182.5 Q665.2031,182 665.4375,181.75 Q665.6719,181.5 665.9375,181.5 Q666.4063,181.5 666.7031,181.7813 Q667,182.0625 667,182.7188 L667,184.2813 Q667,184.9375 666.7188,185.2188 Q666.4375,185.5 666,185.5 Q665.6094,185.5 665.3594,185.3281 Q665.1094,185.1563 665,184.7031 Q664.9531,184.3906 664.7813,184.2188 Q664.4688,183.8906 663.9063,183.7031 Q663.3438,183.5 662.7813,183.5 Q662.0781,183.5 661.4844,183.7813 Q660.9063,184.0625 660.4531,184.6875 Q660,185.3125 660,186.1719 L660,187.0938 Q660,188.125 660.8438,188.8125 Q661.6875,189.5 663.1875,189.5 Q664.0781,189.5 664.7031,189.2969 Q665.0625,189.1875 665.4688,188.8281 Q665.7344,188.625 665.875,188.5625 Q666.0156,188.5 666.1875,188.5 Q666.5156,188.5 666.75,188.7656 Q667,189.0156 667,189.375 Q667,189.7188 666.6563,190.125 Q666.1563,190.7188 665.3594,191.0469 Q664.3125,191.5 663.0313,191.5 Q661.5313,191.5 660.3281,190.9063 Q659.3594,190.4375 658.6719,189.4219 Q658,188.4063 658,187.2031 L658,186.1094 Q658,184.8594 658.5938,183.7656 Q659.2031,182.6719 660.25,182.0938 Q661.3125,181.5 662.5,181.5 Q663.2188,181.5 663.8438,181.75 Q664.4688,182 665,182.5 Z " fill="#000000"/><text fill="#000000" font-family="sans-serif" font-size="12" lengthAdjust="spacing" textLength="55" x="677" y="190.9102">AgeGroup</text><line style="stroke:#A80036;stroke-width:1.5;" x1="649" x2="734" y1="202" y2="202"/><text fill="#000000" font-family="sans-serif" font-size="11" lengthAdjust="spacing" textLength="40" x="654" y="217.4189">-minAge</text><text fill="#000000" font-family="sans-serif" font-size="11" lengthAdjust="spacing" textLength="44" x="654" y="231.2549">-maxAge</text><!--MD5=[03e3bb7aef77bf14822eb3fb6d15ab17]
class Dose--><rect codeLine="30" fill="#FEFECE" filter="url(#f1lbon2gpvshtj)" height="67.6719" id="Dose" style="stroke:#A80036;stroke-width:1.5;" width="77" x="991" y="170"/><ellipse cx="1012.75" cy="186" fill="#ADD1B2" rx="11" ry="11" style="stroke:#A80036;stroke-width:1.0;"/><path d="M1014.75,182.5 Q1014.9531,182 1015.1875,181.75 Q1015.4219,181.5 1015.6875,181.5 Q1016.1563,181.5 1016.4531,181.7813 Q1016.75,182.0625 1016.75,182.7188 L1016.75,184.2813 Q1016.75,184.9375 1016.4688,185.2188 Q1016.1875,185.5 1015.75,185.5 Q1015.3594,185.5 1015.1094,185.3281 Q1014.8594,185.1563 1014.75,184.7031 Q1014.7031,184.3906 1014.5313,184.2188 Q1014.2188,183.8906 1013.6563,183.7031 Q1013.0938,183.5 1012.5313,183.5 Q1011.8281,183.5 1011.2344,183.7813 Q1010.6563,184.0625 1010.2031,184.6875 Q1009.75,185.3125 1009.75,186.1719 L1009.75,187.0938 Q1009.75,188.125 1010.5938,188.8125 Q1011.4375,189.5 1012.9375,189.5 Q1013.8281,189.5 1014.4531,189.2969 Q1014.8125,189.1875 1015.2188,188.8281 Q1015.4844,188.625 1015.625,188.5625 Q1015.7656,188.5 1015.9375,188.5 Q1016.2656,188.5 1016.5,188.7656 Q1016.75,189.0156 1016.75,189.375 Q1016.75,189.7188 1016.4063,190.125 Q1015.9063,190.7188 1015.1094,191.0469 Q1014.0625,191.5 1012.7813,191.5 Q1011.2813,191.5 1010.0781,190.9063 Q1009.1094,190.4375 1008.4219,189.4219 Q1007.75,188.4063 1007.75,187.2031 L1007.75,186.1094 Q1007.75,184.8594 1008.3438,183.7656 Q1008.9531,182.6719 1010,182.0938 Q1011.0625,181.5 1012.25,181.5 Q1012.9688,181.5 1013.5938,181.75 Q1014.2188,182 1014.75,182.5 Z " fill="#000000"/><text fill="#000000" font-family="sans-serif" font-size="12" lengthAdjust="spacing" textLength="30" x="1028.25" y="190.9102">Dose</text><line style="stroke:#A80036;stroke-width:1.5;" x1="992" x2="1067" y1="202" y2="202"/><text fill="#000000" font-family="sans-serif" font-size="11" lengthAdjust="spacing" textLength="65" x="997" y="217.4189">-doseNumber</text><text fill="#000000" font-family="sans-serif" font-size="11" lengthAdjust="spacing" textLength="40" x="997" y="231.2549">-dosage</text><!--MD5=[4bec8ac568776347aae0f1471b21fd4f]
class TimeInterval--><rect codeLine="35" fill="#FEFECE" filter="url(#f1lbon2gpvshtj)" height="53.8359" id="TimeInterval" style="stroke:#A80036;stroke-width:1.5;" width="99" x="831" y="241"/><ellipse cx="846" cy="257" fill="#ADD1B2" rx="11" ry="11" style="stroke:#A80036;stroke-width:1.0;"/><path d="M848,253.5 Q848.2031,253 848.4375,252.75 Q848.6719,252.5 848.9375,252.5 Q849.4063,252.5 849.7031,252.7813 Q850,253.0625 850,253.7188 L850,255.2813 Q850,255.9375 849.7188,256.2188 Q849.4375,256.5 849,256.5 Q848.6094,256.5 848.3594,256.3281 Q848.1094,256.1563 848,255.7031 Q847.9531,255.3906 847.7813,255.2188 Q847.4688,254.8906 846.9063,254.7031 Q846.3438,254.5 845.7813,254.5 Q845.0781,254.5 844.4844,254.7813 Q843.9063,255.0625 843.4531,255.6875 Q843,256.3125 843,257.1719 L843,258.0938 Q843,259.125 843.8438,259.8125 Q844.6875,260.5 846.1875,260.5 Q847.0781,260.5 847.7031,260.2969 Q848.0625,260.1875 848.4688,259.8281 Q848.7344,259.625 848.875,259.5625 Q849.0156,259.5 849.1875,259.5 Q849.5156,259.5 849.75,259.7656 Q850,260.0156 850,260.375 Q850,260.7188 849.6563,261.125 Q849.1563,261.7188 848.3594,262.0469 Q847.3125,262.5 846.0313,262.5 Q844.5313,262.5 843.3281,261.9063 Q842.3594,261.4375 841.6719,260.4219 Q841,259.4063 841,258.2031 L841,257.1094 Q841,255.8594 841.5938,254.7656 Q842.2031,253.6719 843.25,253.0938 Q844.3125,252.5 845.5,252.5 Q846.2188,252.5 846.8438,252.75 Q847.4688,253 848,253.5 Z " fill="#000000"/><text fill="#000000" font-family="sans-serif" font-size="12" lengthAdjust="spacing" textLength="67" x="860" y="261.9102">TimeInterval</text><line style="stroke:#A80036;stroke-width:1.5;" x1="832" x2="929" y1="273" y2="273"/><text fill="#000000" font-family="sans-serif" font-size="11" lengthAdjust="spacing" textLength="49" x="837" y="288.4189">-numDays</text><ellipse cx="880.5" cy="204" fill="#000000" rx="2" ry="2" style="stroke:none;stroke-width:1.0;"/><!--MD5=[05986564e1c13a00611587b35563d868]
link Company to VaccineType--><path codeLine="40" d="M92.12,100 C171.79,100 345.51,100 430.99,100 " fill="none" id="Company-VaccineType" style="stroke:#A80036;stroke-width:1.0;"/><polygon fill="#000000" points="232.5,91.1758,223.4549,88.2369,223.4549,94.1147,232.5,91.1758" style="stroke:#000000;stroke-width:1.0;"/><text fill="#000000" font-family="sans-serif" font-size="13" lengthAdjust="spacing" textLength="21" x="236.5" y="96.4951">has</text><text fill="#000000" font-family="sans-serif" font-size="13" lengthAdjust="spacing" textLength="7" x="100.0469" y="114.9285">1</text><text fill="#000000" font-family="sans-serif" font-size="13" lengthAdjust="spacing" textLength="5" x="417.8728" y="114.7596">*</text><!--MD5=[c29c8d42883934cbaf5793c72a334947]
link Company to Vaccine--><path codeLine="41" d="M92.13,126.39 C101.85,132.33 112.22,138.5 122,144 C148.66,158.98 179.47,174.65 202.85,186.22 " fill="none" id="Company-Vaccine" style="stroke:#A80036;stroke-width:1.0;"/><polygon fill="#000000" points="131.3988,137.5528,124.8384,130.6672,122.0441,135.8383,131.3988,137.5528" style="stroke:#000000;stroke-width:1.0;"/><text fill="#000000" font-family="sans-serif" font-size="13" lengthAdjust="spacing" textLength="21" x="136" y="140.4951">has</text><text fill="#000000" font-family="sans-serif" font-size="13" lengthAdjust="spacing" textLength="7" x="100.0586" y="145.8543">1</text><text fill="#000000" font-family="sans-serif" font-size="13" lengthAdjust="spacing" textLength="5" x="189.9455" y="197.8566">*</text><!--MD5=[eaea43e34e45c5b9d20b595fc78f1f20]
link Company to Administrator--><path codeLine="42" d="M92.45,83.8 C120.61,72.92 157.91,58.51 187.9,46.93 " fill="none" id="Company-Administrator" style="stroke:#A80036;stroke-width:1.0;"/><polygon fill="#000000" points="131.6641,49.3741,122.1677,49.8918,124.2856,55.3748,131.6641,49.3741" style="stroke:#000000;stroke-width:1.0;"/><text fill="#000000" font-family="sans-serif" font-size="13" lengthAdjust="spacing" textLength="21" x="136" y="56.4951">has</text><text fill="#000000" font-family="sans-serif" font-size="13" lengthAdjust="spacing" textLength="7" x="100.1433" y="95.9933">1</text><text fill="#000000" font-family="sans-serif" font-size="13" lengthAdjust="spacing" textLength="5" x="175.1516" y="64.3775">*</text><!--MD5=[d0b477519989ed3601cd00d052224350]
link Administrator to VaccineType--><path codeLine="43" d="M293.07,42.75 C333.82,55.2 390.36,72.47 430.66,84.78 " fill="none" id="Administrator-VaccineType" style="stroke:#A80036;stroke-width:1.0;"/><polygon fill="#000000" points="332.7819,45.6365,324.99,40.1833,323.2728,45.8047,332.7819,45.6365" style="stroke:#000000;stroke-width:1.0;"/><text fill="#000000" font-family="sans-serif" font-size="13" lengthAdjust="spacing" textLength="43" x="337" y="49.4951">creates</text><text fill="#000000" font-family="sans-serif" font-size="13" lengthAdjust="spacing" textLength="7" x="300.9548" y="59.6097">1</text><text fill="#000000" font-family="sans-serif" font-size="13" lengthAdjust="spacing" textLength="5" x="418.1591" y="97.2961">*</text><!--MD5=[ad53276a02bf0f65971002ced984ee45]
link Vaccine to VaccinationProcess--><path codeLine="44" d="M278.06,204 C313.23,204 367.33,204 410.75,204 " fill="none" id="Vaccine-VaccinationProcess" style="stroke:#A80036;stroke-width:1.0;"/><polygon fill="#000000" points="344,195.1758,334.9549,192.2369,334.9549,198.1147,344,195.1758" style="stroke:#000000;stroke-width:1.0;"/><text fill="#000000" font-family="sans-serif" font-size="13" lengthAdjust="spacing" textLength="21" x="348" y="200.4951">has</text><text fill="#000000" font-family="sans-serif" font-size="13" lengthAdjust="spacing" textLength="7" x="285.8871" y="219.0849">1</text><text fill="#000000" font-family="sans-serif" font-size="13" lengthAdjust="spacing" textLength="7" x="396.093" y="218.3467">1</text><!--MD5=[3568623adf67b2630dce9e60c05bd02a]
link Vaccine to VaccineType--><path codeLine="45" d="M278.26,188.31 C306.41,176.26 346.2,159.18 381,144 C397.27,136.9 415.01,129.08 430.94,122.03 " fill="none" id="Vaccine-VaccineType" style="stroke:#A80036;stroke-width:1.0;"/><polygon fill="#000000" points="343.5865,133.1847,334.1192,134.0907,336.4598,139.4824,343.5865,133.1847" style="stroke:#000000;stroke-width:1.0;"/><text fill="#000000" font-family="sans-serif" font-size="13" lengthAdjust="spacing" textLength="21" x="348" y="140.4951">has</text><text fill="#000000" font-family="sans-serif" font-size="13" lengthAdjust="spacing" textLength="5" x="285.9346" y="200.404">*</text><text fill="#000000" font-family="sans-serif" font-size="13" lengthAdjust="spacing" textLength="7" x="415.9999" y="139.9736">1</text><!--MD5=[4043e158886bce18152cac1904b53f75]
link VaccinationProcess to AgeGroup--><path codeLine="46" d="M552.05,204 C583.7,204 620.15,204 647.7,204 " fill="none" id="VaccinationProcess-AgeGroup" style="stroke:#A80036;stroke-width:1.0;"/><polygon fill="#000000" points="592,195.1758,582.9549,192.2369,582.9549,198.1147,592,195.1758" style="stroke:#000000;stroke-width:1.0;"/><text fill="#000000" font-family="sans-serif" font-size="13" lengthAdjust="spacing" textLength="21" x="596" y="200.4951">has</text><text fill="#000000" font-family="sans-serif" font-size="13" lengthAdjust="spacing" textLength="7" x="560.1492" y="218.3983">1</text><text fill="#000000" font-family="sans-serif" font-size="13" lengthAdjust="spacing" textLength="5" x="635.0316" y="218.8764">*</text><!--MD5=[bb8b860014466321bd0f1a44bf8bf3be]
link AgeGroup to apoint10849--><path d="M735.4,204 C787.16,204 868.52,204 878.49,204 " fill="none" id="AgeGroup-apoint10849" style="stroke:#A80036;stroke-width:1.0;"/><polygon fill="#000000" points="775,195.1758,765.9549,192.2369,765.9549,198.1147,775,195.1758" style="stroke:#000000;stroke-width:1.0;"/><text fill="#000000" font-family="sans-serif" font-size="13" lengthAdjust="spacing" textLength="21" x="779" y="200.4951">has</text><text fill="#000000" font-family="sans-serif" font-size="13" lengthAdjust="spacing" textLength="7" x="742.9544" y="218.8243">1</text><!--MD5=[1ead9fef6015da7e868d3fc06a4d768b]
link apoint10849 to Dose--><path d="M882.77,204 C892.12,204 950.95,204 990.94,204 " fill="none" id="apoint10849-Dose" style="stroke:#A80036;stroke-width:1.0;"/><text fill="#000000" font-family="sans-serif" font-size="13" lengthAdjust="spacing" textLength="5" x="978.1129" y="219.0849">*</text><!--MD5=[d0f05790aa936606303c505710b5f9bd]
link apoint10849 to TimeInterval--><path d="M880.5,206.02 C880.5,217.68 880.5,229.34 880.5,241 " fill="none" id="apoint10849-TimeInterval" style="stroke:#A80036;stroke-width:1.0;stroke-dasharray:7.0,7.0;"/><!--MD5=[db606b0f3f1e831cb9bc6350683a2d19]
@startuml
hide methods
left to right direction
skinparam classAttributeIconSize 0

class Administrator {
}

class Company {
  -designation
  -authFacade
}

class VaccineType {
  -disease
}

class Vaccine {
  -name
  -lotNumber
}

class VaccinationProcess{
    -recoveryPeriod
}

class AgeGroup{
    -minAge
    -maxAge
}
class Dose{
    -doseNumber
    -dosage
}

class TimeInterval{
    -numDays
}


Company "1" - - "*" VaccineType: has >
Company "1" - - "*" Vaccine: has >
Company "1" - - "*" Administrator: has >
Administrator "1" - - "*" VaccineType: creates >
Vaccine "1" - - "1" VaccinationProcess: has >
Vaccine "*" - - "1" VaccineType: has >
VaccinationProcess "1" - - "*" AgeGroup: has >
AgeGroup "1" - - "*" Dose: has >
(AgeGroup, Dose) .. TimeInterval


@enduml

PlantUML version 1.2022.1(Tue Feb 01 18:19:58 GMT 2022)
(GPL source distribution)
Java Runtime: OpenJDK Runtime Environment
JVM: OpenJDK 64-Bit Server VM
Default Encoding: Cp1252
Language: en
Country: GB
--></g></svg>