<?xml version="1.0" encoding="UTF-8" standalone="no"?><svg xmlns="http://www.w3.org/2000/svg" xmlns:xlink="http://www.w3.org/1999/xlink" contentStyleType="text/css" height="821px" preserveAspectRatio="none" style="width:3029px;height:821px;background:#FFFFFF;" version="1.1" viewBox="0 0 3029 821" width="3029px" zoomAndPan="magnify"><defs/><g><rect fill="#FFFFFF" height="638.0313" style="stroke:#181818;stroke-width:1.0;" width="10" x="43.5" y="92.6094"/><rect fill="#FFFFFF" height="91.0547" style="stroke:#181818;stroke-width:1.0;" width="10" x="357.5" y="114.9609"/><rect fill="#FFFFFF" height="494.2734" style="stroke:#181818;stroke-width:1.0;" width="10" x="357.5" y="236.3672"/><rect fill="#FFFFFF" height="121.0547" style="stroke:#181818;stroke-width:1.0;" width="10" x="927.5" y="145.3125"/><rect fill="#FFFFFF" height="221.4609" style="stroke:#181818;stroke-width:1.0;" width="10" x="927.5" y="509.1797"/><line style="stroke:#181818;stroke-width:0.5;stroke-dasharray:5.0,5.0;" x1="48" x2="48" y1="82.6094" y2="739.6406"/><line style="stroke:#181818;stroke-width:0.5;stroke-dasharray:5.0,5.0;" x1="362" x2="362" y1="82.6094" y2="739.6406"/><line style="stroke:#181818;stroke-width:0.5;stroke-dasharray:5.0,5.0;" x1="932" x2="932" y1="82.6094" y2="739.6406"/><line style="stroke:#181818;stroke-width:0.5;stroke-dasharray:5.0,5.0;" x1="1497.5" x2="1497.5" y1="82.6094" y2="739.6406"/><line style="stroke:#181818;stroke-width:0.5;stroke-dasharray:5.0,5.0;" x1="2123.5" x2="2123.5" y1="82.6094" y2="739.6406"/><line style="stroke:#181818;stroke-width:0.5;stroke-dasharray:5.0,5.0;" x1="2713" x2="2713" y1="82.6094" y2="739.6406"/><line style="stroke:#181818;stroke-width:0.5;stroke-dasharray:5.0,5.0;" x1="2808" x2="2808" y1="82.6094" y2="739.6406"/><line style="stroke:#181818;stroke-width:0.5;stroke-dasharray:5.0,5.0;" x1="2944" x2="2944" y1="82.6094" y2="739.6406"/><text fill="#000000" font-family="sans-serif" font-size="14" lengthAdjust="spacing" textLength="81" x="5" y="79.5332">Recepcionist</text><ellipse cx="48.5" cy="13.5" fill="#E2E2F0" rx="8" ry="8" style="stroke:#181818;stroke-width:0.5;"/><path d="M48.5,21.5 L48.5,48.5 M35.5,29.5 L61.5,29.5 M48.5,48.5 L35.5,63.5 M48.5,48.5 L61.5,63.5 " fill="none" style="stroke:#181818;stroke-width:0.5;"/><text fill="#000000" font-family="sans-serif" font-size="14" lengthAdjust="spacing" textLength="81" x="5" y="753.1738">Recepcionist</text><ellipse cx="48.5" cy="764.75" fill="#E2E2F0" rx="8" ry="8" style="stroke:#181818;stroke-width:0.5;"/><path d="M48.5,772.75 L48.5,799.75 M35.5,780.75 L61.5,780.75 M48.5,799.75 L35.5,814.75 M48.5,799.75 L61.5,814.75 " fill="none" style="stroke:#181818;stroke-width:0.5;"/><rect fill="#E2E2F0" height="31.6094" rx="2.5" ry="2.5" style="stroke:#181818;stroke-width:0.5;" width="107" x="309" y="50"/><text fill="#000000" font-family="sans-serif" font-size="14" lengthAdjust="spacing" textLength="93" x="316" y="71.5332">RecepcionistUI</text><rect fill="#E2E2F0" height="31.6094" rx="2.5" ry="2.5" style="stroke:#181818;stroke-width:0.5;" width="107" x="309" y="738.6406"/><text fill="#000000" font-family="sans-serif" font-size="14" lengthAdjust="spacing" textLength="93" x="316" y="760.1738">RecepcionistUI</text><rect fill="#E2E2F0" height="31.6094" rx="2.5" ry="2.5" style="stroke:#181818;stroke-width:0.5;" width="157" x="854" y="50"/><text fill="#000000" font-family="sans-serif" font-size="14" lengthAdjust="spacing" textLength="143" x="861" y="71.5332">RecepcionistController</text><rect fill="#E2E2F0" height="31.6094" rx="2.5" ry="2.5" style="stroke:#181818;stroke-width:0.5;" width="157" x="854" y="738.6406"/><text fill="#000000" font-family="sans-serif" font-size="14" lengthAdjust="spacing" textLength="143" x="861" y="760.1738">RecepcionistController</text><rect fill="#E2E2F0" height="31.6094" rx="2.5" ry="2.5" style="stroke:#181818;stroke-width:0.5;" width="74" x="1460.5" y="50"/><text fill="#000000" font-family="sans-serif" font-size="14" lengthAdjust="spacing" textLength="60" x="1467.5" y="71.5332">Company</text><rect fill="#E2E2F0" height="31.6094" rx="2.5" ry="2.5" style="stroke:#181818;stroke-width:0.5;" width="74" x="1460.5" y="738.6406"/><text fill="#000000" font-family="sans-serif" font-size="14" lengthAdjust="spacing" textLength="60" x="1467.5" y="760.1738">Company</text><rect fill="#E2E2F0" height="31.6094" rx="2.5" ry="2.5" style="stroke:#181818;stroke-width:0.5;" width="92" x="2077.5" y="50"/><text fill="#000000" font-family="sans-serif" font-size="14" lengthAdjust="spacing" textLength="78" x="2084.5" y="71.5332">Receptionist</text><rect fill="#E2E2F0" height="31.6094" rx="2.5" ry="2.5" style="stroke:#181818;stroke-width:0.5;" width="92" x="2077.5" y="738.6406"/><text fill="#000000" font-family="sans-serif" font-size="14" lengthAdjust="spacing" textLength="78" x="2084.5" y="760.1738">Receptionist</text><rect fill="#E2E2F0" height="31.6094" rx="2.5" ry="2.5" style="stroke:#181818;stroke-width:0.5;" width="73" x="2677" y="50"/><text fill="#000000" font-family="sans-serif" font-size="14" lengthAdjust="spacing" textLength="59" x="2684" y="71.5332">Schedule</text><rect fill="#E2E2F0" height="31.6094" rx="2.5" ry="2.5" style="stroke:#181818;stroke-width:0.5;" width="73" x="2677" y="738.6406"/><text fill="#000000" font-family="sans-serif" font-size="14" lengthAdjust="spacing" textLength="59" x="2684" y="760.1738">Schedule</text><rect fill="#E2E2F0" height="31.6094" rx="2.5" ry="2.5" style="stroke:#181818;stroke-width:0.5;" width="96" x="2760" y="50"/><text fill="#000000" font-family="sans-serif" font-size="14" lengthAdjust="spacing" textLength="82" x="2767" y="71.5332">VaccineType</text><rect fill="#E2E2F0" height="31.6094" rx="2.5" ry="2.5" style="stroke:#181818;stroke-width:0.5;" width="96" x="2760" y="738.6406"/><text fill="#000000" font-family="sans-serif" font-size="14" lengthAdjust="spacing" textLength="82" x="2767" y="760.1738">VaccineType</text><rect fill="#E2E2F0" height="31.6094" rx="2.5" ry="2.5" style="stroke:#181818;stroke-width:0.5;" width="157" x="2866" y="50"/><text fill="#000000" font-family="sans-serif" font-size="14" lengthAdjust="spacing" textLength="143" x="2873" y="71.5332">ScheduleVaccineStore</text><rect fill="#E2E2F0" height="31.6094" rx="2.5" ry="2.5" style="stroke:#181818;stroke-width:0.5;" width="157" x="2866" y="738.6406"/><text fill="#000000" font-family="sans-serif" font-size="14" lengthAdjust="spacing" textLength="143" x="2873" y="760.1738">ScheduleVaccineStore</text><rect fill="#FFFFFF" height="638.0313" style="stroke:#181818;stroke-width:1.0;" width="10" x="43.5" y="92.6094"/><rect fill="#FFFFFF" height="91.0547" style="stroke:#181818;stroke-width:1.0;" width="10" x="357.5" y="114.9609"/><rect fill="#FFFFFF" height="494.2734" style="stroke:#181818;stroke-width:1.0;" width="10" x="357.5" y="236.3672"/><rect fill="#FFFFFF" height="121.0547" style="stroke:#181818;stroke-width:1.0;" width="10" x="927.5" y="145.3125"/><rect fill="#FFFFFF" height="221.4609" style="stroke:#181818;stroke-width:1.0;" width="10" x="927.5" y="509.1797"/><polygon fill="#181818" points="345.5,110.9609,355.5,114.9609,345.5,118.9609,349.5,114.9609" style="stroke:#181818;stroke-width:1.0;"/><line style="stroke:#181818;stroke-width:1.0;" x1="53.5" x2="351.5" y1="114.9609" y2="114.9609"/><text fill="#000000" font-family="sans-serif" font-size="13" font-weight="bold" lengthAdjust="spacing" textLength="7" x="60.5" y="110.1045">1</text><text fill="#000000" font-family="sans-serif" font-size="13" lengthAdjust="spacing" textLength="184" x="71.5" y="110.1045">Starts scheduling a Vaccination</text><polygon fill="#181818" points="915.5,141.3125,925.5,145.3125,915.5,149.3125,919.5,145.3125" style="stroke:#181818;stroke-width:1.0;"/><line style="stroke:#181818;stroke-width:1.0;" x1="367.5" x2="921.5" y1="145.3125" y2="145.3125"/><text fill="#000000" font-family="sans-serif" font-size="13" font-weight="bold" lengthAdjust="spacing" textLength="7" x="374.5" y="140.4561">2</text><text fill="#000000" font-family="sans-serif" font-size="13" lengthAdjust="spacing" textLength="36" x="385.5" y="140.4561">create</text><polygon fill="#181818" points="1485.5,171.6641,1495.5,175.6641,1485.5,179.6641,1489.5,175.6641" style="stroke:#181818;stroke-width:1.0;"/><line style="stroke:#181818;stroke-width:1.0;" x1="937.5" x2="1491.5" y1="175.6641" y2="175.6641"/><text fill="#000000" font-family="sans-serif" font-size="13" font-weight="bold" lengthAdjust="spacing" textLength="7" x="944.5" y="170.8076">3</text><text fill="#000000" font-family="sans-serif" font-size="13" lengthAdjust="spacing" textLength="171" x="955.5" y="170.8076">company = App.getInstance()</text><polygon fill="#181818" points="64.5,202.0156,54.5,206.0156,64.5,210.0156,60.5,206.0156" style="stroke:#181818;stroke-width:1.0;"/><line style="stroke:#181818;stroke-width:1.0;stroke-dasharray:2.0,2.0;" x1="58.5" x2="361.5" y1="206.0156" y2="206.0156"/><text fill="#000000" font-family="sans-serif" font-size="13" font-weight="bold" lengthAdjust="spacing" textLength="7" x="70.5" y="201.1592">4</text><text fill="#000000" font-family="sans-serif" font-size="13" lengthAdjust="spacing" textLength="269" x="81.5" y="201.1592">Requests Date, hour and Sns User information</text><polygon fill="#181818" points="345.5,232.3672,355.5,236.3672,345.5,240.3672,349.5,236.3672" style="stroke:#181818;stroke-width:1.0;"/><line style="stroke:#181818;stroke-width:1.0;" x1="53.5" x2="351.5" y1="236.3672" y2="236.3672"/><text fill="#000000" font-family="sans-serif" font-size="13" font-weight="bold" lengthAdjust="spacing" textLength="7" x="60.5" y="231.5107">5</text><text fill="#000000" font-family="sans-serif" font-size="13" lengthAdjust="spacing" textLength="119" x="71.5" y="231.5107">Enters required Data</text><polygon fill="#181818" points="920.5,292.7188,930.5,296.7188,920.5,300.7188,924.5,296.7188" style="stroke:#181818;stroke-width:1.0;"/><line style="stroke:#181818;stroke-width:1.0;" x1="367.5" x2="926.5" y1="296.7188" y2="296.7188"/><text fill="#000000" font-family="sans-serif" font-size="13" font-weight="bold" lengthAdjust="spacing" textLength="7" x="374.5" y="291.8623">6</text><text fill="#000000" font-family="sans-serif" font-size="13" lengthAdjust="spacing" textLength="123" x="385.5" y="291.8623">getAllVaccineTypes()</text><polygon fill="#181818" points="1485.5,323.0703,1495.5,327.0703,1485.5,331.0703,1489.5,327.0703" style="stroke:#181818;stroke-width:1.0;"/><line style="stroke:#181818;stroke-width:1.0;" x1="932.5" x2="1491.5" y1="327.0703" y2="327.0703"/><text fill="#000000" font-family="sans-serif" font-size="13" font-weight="bold" lengthAdjust="spacing" textLength="7" x="939.5" y="322.2139">7</text><text fill="#000000" font-family="sans-serif" font-size="13" lengthAdjust="spacing" textLength="123" x="950.5" y="322.2139">getAllVaccineTypes()</text><polygon fill="#181818" points="2111.5,353.4219,2121.5,357.4219,2111.5,361.4219,2115.5,357.4219" style="stroke:#181818;stroke-width:1.0;"/><line style="stroke:#181818;stroke-width:1.0;" x1="1497.5" x2="2117.5" y1="357.4219" y2="357.4219"/><text fill="#000000" font-family="sans-serif" font-size="13" font-weight="bold" lengthAdjust="spacing" textLength="7" x="1504.5" y="352.5654">8</text><text fill="#000000" font-family="sans-serif" font-size="13" lengthAdjust="spacing" textLength="123" x="1515.5" y="352.5654">getAllVaccineTypes()</text><polygon fill="#181818" points="2796,383.7734,2806,387.7734,2796,391.7734,2800,387.7734" style="stroke:#181818;stroke-width:1.0;"/><line style="stroke:#181818;stroke-width:1.0;" x1="2123.5" x2="2802" y1="387.7734" y2="387.7734"/><text fill="#000000" font-family="sans-serif" font-size="13" font-weight="bold" lengthAdjust="spacing" textLength="7" x="2130.5" y="382.917">9</text><text fill="#000000" font-family="sans-serif" font-size="13" lengthAdjust="spacing" textLength="123" x="2141.5" y="382.917">getAllVaccineTypes()</text><polygon fill="#181818" points="920.5,414.125,930.5,418.125,920.5,422.125,924.5,418.125" style="stroke:#181818;stroke-width:1.0;"/><line style="stroke:#181818;stroke-width:1.0;" x1="367.5" x2="926.5" y1="418.125" y2="418.125"/><text fill="#000000" font-family="sans-serif" font-size="13" font-weight="bold" lengthAdjust="spacing" textLength="14" x="374.5" y="413.2686">10</text><text fill="#000000" font-family="sans-serif" font-size="13" lengthAdjust="spacing" textLength="523" x="392.5" y="413.2686">newVaccineSchedule(String date, int hour, int snsUserNumber, VaccineType vaccineType)</text><polygon fill="#181818" points="1485.5,444.4766,1495.5,448.4766,1485.5,452.4766,1489.5,448.4766" style="stroke:#181818;stroke-width:1.0;"/><line style="stroke:#181818;stroke-width:1.0;" x1="932.5" x2="1491.5" y1="448.4766" y2="448.4766"/><text fill="#000000" font-family="sans-serif" font-size="13" font-weight="bold" lengthAdjust="spacing" textLength="14" x="939.5" y="443.6201">11</text><text fill="#000000" font-family="sans-serif" font-size="13" lengthAdjust="spacing" textLength="523" x="957.5" y="443.6201">newVaccineSchedule(String date, int hour, int snsUserNumber, VaccineType vaccineType)</text><polygon fill="#181818" points="2111.5,474.8281,2121.5,478.8281,2111.5,482.8281,2115.5,478.8281" style="stroke:#181818;stroke-width:1.0;"/><line style="stroke:#181818;stroke-width:1.0;" x1="1497.5" x2="2117.5" y1="478.8281" y2="478.8281"/><text fill="#000000" font-family="sans-serif" font-size="13" font-weight="bold" lengthAdjust="spacing" textLength="14" x="1504.5" y="473.9717">12</text><text fill="#000000" font-family="sans-serif" font-size="13" lengthAdjust="spacing" textLength="584" x="1522.5" y="473.9717">receptionist = new Recepcionist(String date, int hour, int snsUserNumber, VaccineType vaccineType)</text><polygon fill="#181818" points="2701.5,505.1797,2711.5,509.1797,2701.5,513.1797,2705.5,509.1797" style="stroke:#181818;stroke-width:1.0;"/><line style="stroke:#181818;stroke-width:1.0;" x1="2123.5" x2="2707.5" y1="509.1797" y2="509.1797"/><text fill="#000000" font-family="sans-serif" font-size="13" font-weight="bold" lengthAdjust="spacing" textLength="14" x="2130.5" y="504.3232">13</text><text fill="#000000" font-family="sans-serif" font-size="13" lengthAdjust="spacing" textLength="548" x="2148.5" y="504.3232">schedule = new Schedule(String date, int hour, int snsUserNumber, VaccineType vaccineType)</text><polygon fill="#181818" points="64.5,535.5313,54.5,539.5313,64.5,543.5313,60.5,539.5313" style="stroke:#181818;stroke-width:1.0;"/><line style="stroke:#181818;stroke-width:1.0;stroke-dasharray:2.0,2.0;" x1="58.5" x2="356.5" y1="539.5313" y2="539.5313"/><text fill="#000000" font-family="sans-serif" font-size="13" font-weight="bold" lengthAdjust="spacing" textLength="14" x="70.5" y="534.6748">14</text><text fill="#000000" font-family="sans-serif" font-size="13" lengthAdjust="spacing" textLength="245" x="88.5" y="534.6748">Shows the Data and requests confirmation</text><polygon fill="#181818" points="345.5,565.8828,355.5,569.8828,345.5,573.8828,349.5,569.8828" style="stroke:#181818;stroke-width:1.0;"/><line style="stroke:#181818;stroke-width:1.0;" x1="53.5" x2="351.5" y1="569.8828" y2="569.8828"/><text fill="#000000" font-family="sans-serif" font-size="13" font-weight="bold" lengthAdjust="spacing" textLength="14" x="60.5" y="565.0264">15</text><text fill="#000000" font-family="sans-serif" font-size="13" lengthAdjust="spacing" textLength="82" x="78.5" y="565.0264">Confirms Data</text><polygon fill="#181818" points="915.5,596.2344,925.5,600.2344,915.5,604.2344,919.5,600.2344" style="stroke:#181818;stroke-width:1.0;"/><line style="stroke:#181818;stroke-width:1.0;" x1="367.5" x2="921.5" y1="600.2344" y2="600.2344"/><text fill="#000000" font-family="sans-serif" font-size="13" font-weight="bold" lengthAdjust="spacing" textLength="14" x="374.5" y="595.3779">16</text><text fill="#000000" font-family="sans-serif" font-size="13" lengthAdjust="spacing" textLength="88" x="392.5" y="595.3779">saveSchedule()</text><polygon fill="#181818" points="1485.5,626.5859,1495.5,630.5859,1485.5,634.5859,1489.5,630.5859" style="stroke:#181818;stroke-width:1.0;"/><line style="stroke:#181818;stroke-width:1.0;" x1="937.5" x2="1491.5" y1="630.5859" y2="630.5859"/><text fill="#000000" font-family="sans-serif" font-size="13" font-weight="bold" lengthAdjust="spacing" textLength="14" x="944.5" y="625.7295">17</text><text fill="#000000" font-family="sans-serif" font-size="13" lengthAdjust="spacing" textLength="88" x="962.5" y="625.7295">saveSchedule()</text><polygon fill="#181818" points="2111.5,656.9375,2121.5,660.9375,2111.5,664.9375,2115.5,660.9375" style="stroke:#181818;stroke-width:1.0;"/><line style="stroke:#181818;stroke-width:1.0;" x1="1497.5" x2="2117.5" y1="660.9375" y2="660.9375"/><text fill="#000000" font-family="sans-serif" font-size="13" font-weight="bold" lengthAdjust="spacing" textLength="14" x="1504.5" y="656.0811">18</text><text fill="#000000" font-family="sans-serif" font-size="13" lengthAdjust="spacing" textLength="88" x="1522.5" y="656.0811">saveSchedule()</text><polygon fill="#181818" points="2932.5,687.2891,2942.5,691.2891,2932.5,695.2891,2936.5,691.2891" style="stroke:#181818;stroke-width:1.0;"/><line style="stroke:#181818;stroke-width:1.0;" x1="2123.5" x2="2938.5" y1="691.2891" y2="691.2891"/><text fill="#000000" font-family="sans-serif" font-size="13" font-weight="bold" lengthAdjust="spacing" textLength="14" x="2130.5" y="686.4326">19</text><text fill="#000000" font-family="sans-serif" font-size="13" lengthAdjust="spacing" textLength="423" x="2148.5" y="686.4326">scheduleVaccineStore = new ScheduleVaccineStore(Schedule schedule)</text><polygon fill="#181818" points="64.5,717.6406,54.5,721.6406,64.5,725.6406,60.5,721.6406" style="stroke:#181818;stroke-width:1.0;"/><line style="stroke:#181818;stroke-width:1.0;stroke-dasharray:2.0,2.0;" x1="58.5" x2="356.5" y1="721.6406" y2="721.6406"/><text fill="#000000" font-family="sans-serif" font-size="13" font-weight="bold" lengthAdjust="spacing" textLength="14" x="70.5" y="716.7842">20</text><text fill="#000000" font-family="sans-serif" font-size="13" lengthAdjust="spacing" textLength="142" x="88.5" y="716.7842">Shows operation sucess</text><!--MD5=[2e6f800a2b8c1cc49f6f1c27c0e76a5a]
@startuml US002_SD
'https://plantuml.com/sequence-diagram

autonumber

actor "Recepcionist" as RCP

participant "RecepcionistUI" as UI
participant "RecepcionistController" as CTRL
participant "Company" as Comp
participant "Receptionist" as RECP
participant "Schedule" as SCH
participant "VaccineType" as VT
participant "ScheduleVaccineStore" as SVS


activate RCP
RCP -> UI : Starts scheduling a Vaccination
activate UI
UI -> CTRL : create

activate CTRL

CTRL -> Comp : company = App.getInstance()


UI - -> RCP : Requests Date, hour and Sns User information

deactivate UI

RCP -> UI : Enters required Data

activate UI


deactivate CTRL

UI -> CTRL : getAllVaccineTypes()
CTRL -> Comp : getAllVaccineTypes()
Comp -> RECP : getAllVaccineTypes()
RECP -> VT : getAllVaccineTypes()

UI -> CTRL : newVaccineSchedule(String date, int hour, int snsUserNumber, VaccineType vaccineType)
CTRL -> Comp : newVaccineSchedule(String date, int hour, int snsUserNumber, VaccineType vaccineType)
Comp -> RECP : receptionist = new Recepcionist(String date, int hour, int snsUserNumber, VaccineType vaccineType)
RECP -> SCH : schedule = new Schedule(String date, int hour, int snsUserNumber, VaccineType vaccineType)

activate CTRL

UI - -> RCP : Shows the Data and requests confirmation

RCP -> UI : Confirms Data
UI -> CTRL : saveSchedule()
CTRL -> Comp : saveSchedule()
Comp -> RECP : saveSchedule()
RECP -> SVS : scheduleVaccineStore = new ScheduleVaccineStore(Schedule schedule)
UI - -> RCP : Shows operation sucess


@enduml

@startuml US002_SD

autonumber

actor "Recepcionist" as RCP

participant "RecepcionistUI" as UI
participant "RecepcionistController" as CTRL
participant "Company" as Comp
participant "Receptionist" as RECP
participant "Schedule" as SCH
participant "VaccineType" as VT
participant "ScheduleVaccineStore" as SVS


activate RCP
RCP -> UI : Starts scheduling a Vaccination
activate UI
UI -> CTRL : create

activate CTRL

CTRL -> Comp : company = App.getInstance()


UI - -> RCP : Requests Date, hour and Sns User information

deactivate UI

RCP -> UI : Enters required Data

activate UI


deactivate CTRL

UI -> CTRL : getAllVaccineTypes()
CTRL -> Comp : getAllVaccineTypes()
Comp -> RECP : getAllVaccineTypes()
RECP -> VT : getAllVaccineTypes()

UI -> CTRL : newVaccineSchedule(String date, int hour, int snsUserNumber, VaccineType vaccineType)
CTRL -> Comp : newVaccineSchedule(String date, int hour, int snsUserNumber, VaccineType vaccineType)
Comp -> RECP : receptionist = new Recepcionist(String date, int hour, int snsUserNumber, VaccineType vaccineType)
RECP -> SCH : schedule = new Schedule(String date, int hour, int snsUserNumber, VaccineType vaccineType)

activate CTRL

UI - -> RCP : Shows the Data and requests confirmation

RCP -> UI : Confirms Data
UI -> CTRL : saveSchedule()
CTRL -> Comp : saveSchedule()
Comp -> RECP : saveSchedule()
RECP -> SVS : scheduleVaccineStore = new ScheduleVaccineStore(Schedule schedule)
UI - -> RCP : Shows operation sucess


@enduml

PlantUML version 1.2022.5(Sat Apr 30 11:55:52 BST 2022)
(GPL source distribution)
Java Runtime: OpenJDK Runtime Environment
JVM: OpenJDK 64-Bit Server VM
Default Encoding: Cp1252
Language: en
Country: GB
--></g></svg>