<?xml version="1.0" encoding="UTF-8" standalone="no"?><svg xmlns="http://www.w3.org/2000/svg" xmlns:xlink="http://www.w3.org/1999/xlink" contentStyleType="text/css" height="764px" preserveAspectRatio="none" style="width:588px;height:764px;background:#FFFFFF;" version="1.1" viewBox="0 0 588 764" width="588px" zoomAndPan="magnify"><defs/><g><!--MD5=[78e5e64882648ba365f369dfb4f7b083]
class RecepcionistUI--><g id="elem_RecepcionistUI"><rect fill="#F1F1F1" height="48" id="RecepcionistUI" rx="2.5" ry="2.5" style="stroke:#181818;stroke-width:0.5;" width="125" x="242.5" y="7"/><ellipse cx="257.5" cy="23" fill="#ADD1B2" rx="11" ry="11" style="stroke:#181818;stroke-width:1.0;"/><path d="M259.5,19.5 Q259.7031,19 259.9375,18.75 Q260.1719,18.5 260.4375,18.5 Q260.9063,18.5 261.2031,18.7813 Q261.5,19.0625 261.5,19.7188 L261.5,21.2813 Q261.5,21.9375 261.2188,22.2188 Q260.9375,22.5 260.5,22.5 Q260.1094,22.5 259.8594,22.3281 Q259.6094,22.1563 259.5,21.7031 Q259.4531,21.3906 259.2813,21.2188 Q258.9688,20.8906 258.4063,20.7031 Q257.8438,20.5 257.2813,20.5 Q256.5781,20.5 255.9844,20.7813 Q255.4063,21.0625 254.9531,21.6875 Q254.5,22.3125 254.5,23.1719 L254.5,24.0938 Q254.5,25.125 255.3438,25.8125 Q256.1875,26.5 257.6875,26.5 Q258.5781,26.5 259.2031,26.2969 Q259.5625,26.1875 259.9688,25.8281 Q260.2344,25.625 260.375,25.5625 Q260.5156,25.5 260.6875,25.5 Q261.0156,25.5 261.25,25.7656 Q261.5,26.0156 261.5,26.375 Q261.5,26.7188 261.1563,27.125 Q260.6563,27.7188 259.8594,28.0469 Q258.8125,28.5 257.5313,28.5 Q256.0313,28.5 254.8281,27.9063 Q253.8594,27.4375 253.1719,26.4219 Q252.5,25.4063 252.5,24.2031 L252.5,23.1094 Q252.5,21.8594 253.0938,20.7656 Q253.7031,19.6719 254.75,19.0938 Q255.8125,18.5 257,18.5 Q257.7188,18.5 258.3438,18.75 Q258.9688,19 259.5,19.5 Z " fill="#000000"/><text fill="#000000" font-family="sans-serif" font-size="14" lengthAdjust="spacing" textLength="93" x="271.5" y="28.7285">RecepcionistUI</text><line style="stroke:#181818;stroke-width:0.5;" x1="243.5" x2="366.5" y1="39" y2="39"/><line style="stroke:#181818;stroke-width:0.5;" x1="243.5" x2="366.5" y1="47" y2="47"/></g><!--MD5=[ed9b624240463be5388e12c0965d6bea]
class RecepcionistController--><g id="elem_RecepcionistController"><rect codeLine="11" fill="#F1F1F1" height="83.2188" id="RecepcionistController" rx="2.5" ry="2.5" style="stroke:#181818;stroke-width:0.5;" width="292" x="159" y="116"/><ellipse cx="229.25" cy="132" fill="#ADD1B2" rx="11" ry="11" style="stroke:#181818;stroke-width:1.0;"/><path d="M231.25,128.5 Q231.4531,128 231.6875,127.75 Q231.9219,127.5 232.1875,127.5 Q232.6563,127.5 232.9531,127.7813 Q233.25,128.0625 233.25,128.7188 L233.25,130.2813 Q233.25,130.9375 232.9688,131.2188 Q232.6875,131.5 232.25,131.5 Q231.8594,131.5 231.6094,131.3281 Q231.3594,131.1563 231.25,130.7031 Q231.2031,130.3906 231.0313,130.2188 Q230.7188,129.8906 230.1563,129.7031 Q229.5938,129.5 229.0313,129.5 Q228.3281,129.5 227.7344,129.7813 Q227.1563,130.0625 226.7031,130.6875 Q226.25,131.3125 226.25,132.1719 L226.25,133.0938 Q226.25,134.125 227.0938,134.8125 Q227.9375,135.5 229.4375,135.5 Q230.3281,135.5 230.9531,135.2969 Q231.3125,135.1875 231.7188,134.8281 Q231.9844,134.625 232.125,134.5625 Q232.2656,134.5 232.4375,134.5 Q232.7656,134.5 233,134.7656 Q233.25,135.0156 233.25,135.375 Q233.25,135.7188 232.9063,136.125 Q232.4063,136.7188 231.6094,137.0469 Q230.5625,137.5 229.2813,137.5 Q227.7813,137.5 226.5781,136.9063 Q225.6094,136.4375 224.9219,135.4219 Q224.25,134.4063 224.25,133.2031 L224.25,132.1094 Q224.25,130.8594 224.8438,129.7656 Q225.4531,128.6719 226.5,128.0938 Q227.5625,127.5 228.75,127.5 Q229.4688,127.5 230.0938,127.75 Q230.7188,128 231.25,128.5 Z " fill="#000000"/><text fill="#000000" font-family="sans-serif" font-size="14" lengthAdjust="spacing" textLength="143" x="249.75" y="137.7285">RecepcionistController</text><line style="stroke:#181818;stroke-width:0.5;" x1="160" x2="450" y1="148" y2="148"/><rect fill="none" height="6" style="stroke:#C82930;stroke-width:1.0;" width="6" x="167" y="156"/><text fill="#000000" font-family="sans-serif" font-size="14" lengthAdjust="spacing" textLength="121" x="179" y="166.5332">Company company</text><line style="stroke:#181818;stroke-width:1.0;" x1="160" x2="450" y1="173.6094" y2="173.6094"/><ellipse cx="170" cy="184.6094" fill="#84BE84" rx="3" ry="3" style="stroke:#038048;stroke-width:1.0;"/><text fill="#000000" font-family="sans-serif" font-size="14" lengthAdjust="spacing" textLength="266" x="179" y="192.1426">getAllVaccineTypes() : List&lt;VaccineType&gt;</text></g><!--MD5=[02e4b9b7573f1156f41e60aa5b4e25a4]
class Company--><g id="elem_Company"><rect codeLine="27" fill="#F1F1F1" height="83.2188" id="Company" rx="2.5" ry="2.5" style="stroke:#181818;stroke-width:0.5;" width="292" x="159" y="260"/><ellipse cx="270.75" cy="276" fill="#ADD1B2" rx="11" ry="11" style="stroke:#181818;stroke-width:1.0;"/><path d="M272.75,272.5 Q272.9531,272 273.1875,271.75 Q273.4219,271.5 273.6875,271.5 Q274.1563,271.5 274.4531,271.7813 Q274.75,272.0625 274.75,272.7188 L274.75,274.2813 Q274.75,274.9375 274.4688,275.2188 Q274.1875,275.5 273.75,275.5 Q273.3594,275.5 273.1094,275.3281 Q272.8594,275.1563 272.75,274.7031 Q272.7031,274.3906 272.5313,274.2188 Q272.2188,273.8906 271.6563,273.7031 Q271.0938,273.5 270.5313,273.5 Q269.8281,273.5 269.2344,273.7813 Q268.6563,274.0625 268.2031,274.6875 Q267.75,275.3125 267.75,276.1719 L267.75,277.0938 Q267.75,278.125 268.5938,278.8125 Q269.4375,279.5 270.9375,279.5 Q271.8281,279.5 272.4531,279.2969 Q272.8125,279.1875 273.2188,278.8281 Q273.4844,278.625 273.625,278.5625 Q273.7656,278.5 273.9375,278.5 Q274.2656,278.5 274.5,278.7656 Q274.75,279.0156 274.75,279.375 Q274.75,279.7188 274.4063,280.125 Q273.9063,280.7188 273.1094,281.0469 Q272.0625,281.5 270.7813,281.5 Q269.2813,281.5 268.0781,280.9063 Q267.1094,280.4375 266.4219,279.4219 Q265.75,278.4063 265.75,277.2031 L265.75,276.1094 Q265.75,274.8594 266.3438,273.7656 Q266.9531,272.6719 268,272.0938 Q269.0625,271.5 270.25,271.5 Q270.9688,271.5 271.5938,271.75 Q272.2188,272 272.75,272.5 Z " fill="#000000"/><text fill="#000000" font-family="sans-serif" font-size="14" lengthAdjust="spacing" textLength="60" x="291.25" y="281.7285">Company</text><line style="stroke:#181818;stroke-width:0.5;" x1="160" x2="450" y1="292" y2="292"/><rect fill="none" height="6" style="stroke:#C82930;stroke-width:1.0;" width="6" x="167" y="300"/><text fill="#000000" font-family="sans-serif" font-size="14" lengthAdjust="spacing" textLength="155" x="179" y="310.5332">Receptionist receptionist</text><line style="stroke:#181818;stroke-width:1.0;" x1="160" x2="450" y1="317.6094" y2="317.6094"/><ellipse cx="170" cy="328.6094" fill="#84BE84" rx="3" ry="3" style="stroke:#038048;stroke-width:1.0;"/><text fill="#000000" font-family="sans-serif" font-size="14" lengthAdjust="spacing" textLength="266" x="179" y="336.1426">getAllVaccineTypes() : List&lt;VaccineType&gt;</text></g><!--MD5=[03960189e81aa2c066c762ffabbee709]
class Receptionist--><g id="elem_Receptionist"><rect fill="#F1F1F1" height="48" id="Receptionist" rx="2.5" ry="2.5" style="stroke:#181818;stroke-width:0.5;" width="110" x="250" y="404"/><ellipse cx="265" cy="420" fill="#ADD1B2" rx="11" ry="11" style="stroke:#181818;stroke-width:1.0;"/><path d="M267,416.5 Q267.2031,416 267.4375,415.75 Q267.6719,415.5 267.9375,415.5 Q268.4063,415.5 268.7031,415.7813 Q269,416.0625 269,416.7188 L269,418.2813 Q269,418.9375 268.7188,419.2188 Q268.4375,419.5 268,419.5 Q267.6094,419.5 267.3594,419.3281 Q267.1094,419.1563 267,418.7031 Q266.9531,418.3906 266.7813,418.2188 Q266.4688,417.8906 265.9063,417.7031 Q265.3438,417.5 264.7813,417.5 Q264.0781,417.5 263.4844,417.7813 Q262.9063,418.0625 262.4531,418.6875 Q262,419.3125 262,420.1719 L262,421.0938 Q262,422.125 262.8438,422.8125 Q263.6875,423.5 265.1875,423.5 Q266.0781,423.5 266.7031,423.2969 Q267.0625,423.1875 267.4688,422.8281 Q267.7344,422.625 267.875,422.5625 Q268.0156,422.5 268.1875,422.5 Q268.5156,422.5 268.75,422.7656 Q269,423.0156 269,423.375 Q269,423.7188 268.6563,424.125 Q268.1563,424.7188 267.3594,425.0469 Q266.3125,425.5 265.0313,425.5 Q263.5313,425.5 262.3281,424.9063 Q261.3594,424.4375 260.6719,423.4219 Q260,422.4063 260,421.2031 L260,420.1094 Q260,418.8594 260.5938,417.7656 Q261.2031,416.6719 262.25,416.0938 Q263.3125,415.5 264.5,415.5 Q265.2188,415.5 265.8438,415.75 Q266.4688,416 267,416.5 Z " fill="#000000"/><text fill="#000000" font-family="sans-serif" font-size="14" lengthAdjust="spacing" textLength="78" x="279" y="425.7285">Receptionist</text><line style="stroke:#181818;stroke-width:0.5;" x1="251" x2="359" y1="436" y2="436"/><line style="stroke:#181818;stroke-width:0.5;" x1="251" x2="359" y1="444" y2="444"/></g><!--MD5=[c680266cf9e454ca06c2d1bb8b683e6b]
class Schedule--><g id="elem_Schedule"><rect codeLine="16" fill="#F1F1F1" height="65.6094" id="Schedule" rx="2.5" ry="2.5" style="stroke:#181818;stroke-width:0.5;" width="91" x="259.5" y="530"/><ellipse cx="274.5" cy="546" fill="#ADD1B2" rx="11" ry="11" style="stroke:#181818;stroke-width:1.0;"/><path d="M276.5,542.5 Q276.7031,542 276.9375,541.75 Q277.1719,541.5 277.4375,541.5 Q277.9063,541.5 278.2031,541.7813 Q278.5,542.0625 278.5,542.7188 L278.5,544.2813 Q278.5,544.9375 278.2188,545.2188 Q277.9375,545.5 277.5,545.5 Q277.1094,545.5 276.8594,545.3281 Q276.6094,545.1563 276.5,544.7031 Q276.4531,544.3906 276.2813,544.2188 Q275.9688,543.8906 275.4063,543.7031 Q274.8438,543.5 274.2813,543.5 Q273.5781,543.5 272.9844,543.7813 Q272.4063,544.0625 271.9531,544.6875 Q271.5,545.3125 271.5,546.1719 L271.5,547.0938 Q271.5,548.125 272.3438,548.8125 Q273.1875,549.5 274.6875,549.5 Q275.5781,549.5 276.2031,549.2969 Q276.5625,549.1875 276.9688,548.8281 Q277.2344,548.625 277.375,548.5625 Q277.5156,548.5 277.6875,548.5 Q278.0156,548.5 278.25,548.7656 Q278.5,549.0156 278.5,549.375 Q278.5,549.7188 278.1563,550.125 Q277.6563,550.7188 276.8594,551.0469 Q275.8125,551.5 274.5313,551.5 Q273.0313,551.5 271.8281,550.9063 Q270.8594,550.4375 270.1719,549.4219 Q269.5,548.4063 269.5,547.2031 L269.5,546.1094 Q269.5,544.8594 270.0938,543.7656 Q270.7031,542.6719 271.75,542.0938 Q272.8125,541.5 274,541.5 Q274.7188,541.5 275.3438,541.75 Q275.9688,542 276.5,542.5 Z " fill="#000000"/><text fill="#000000" font-family="sans-serif" font-size="14" lengthAdjust="spacing" textLength="59" x="288.5" y="551.7285">Schedule</text><line style="stroke:#181818;stroke-width:0.5;" x1="260.5" x2="349.5" y1="562" y2="562"/><rect fill="none" height="6" style="stroke:#C82930;stroke-width:1.0;" width="6" x="267.5" y="570"/><text fill="#000000" font-family="sans-serif" font-size="14" lengthAdjust="spacing" textLength="59" x="279.5" y="580.5332">dateTime</text><line style="stroke:#181818;stroke-width:0.5;" x1="260.5" x2="349.5" y1="587.6094" y2="587.6094"/></g><!--MD5=[0e501da62322464167c8ec4d233a6b7e]
class VaccineType--><g id="elem_VaccineType"><rect codeLine="19" fill="#F1F1F1" height="83.2188" id="VaccineType" rx="2.5" ry="2.5" style="stroke:#181818;stroke-width:0.5;" width="292" x="7" y="674"/><ellipse cx="107.75" cy="690" fill="#ADD1B2" rx="11" ry="11" style="stroke:#181818;stroke-width:1.0;"/><path d="M109.75,686.5 Q109.9531,686 110.1875,685.75 Q110.4219,685.5 110.6875,685.5 Q111.1563,685.5 111.4531,685.7813 Q111.75,686.0625 111.75,686.7188 L111.75,688.2813 Q111.75,688.9375 111.4688,689.2188 Q111.1875,689.5 110.75,689.5 Q110.3594,689.5 110.1094,689.3281 Q109.8594,689.1563 109.75,688.7031 Q109.7031,688.3906 109.5313,688.2188 Q109.2188,687.8906 108.6563,687.7031 Q108.0938,687.5 107.5313,687.5 Q106.8281,687.5 106.2344,687.7813 Q105.6563,688.0625 105.2031,688.6875 Q104.75,689.3125 104.75,690.1719 L104.75,691.0938 Q104.75,692.125 105.5938,692.8125 Q106.4375,693.5 107.9375,693.5 Q108.8281,693.5 109.4531,693.2969 Q109.8125,693.1875 110.2188,692.8281 Q110.4844,692.625 110.625,692.5625 Q110.7656,692.5 110.9375,692.5 Q111.2656,692.5 111.5,692.7656 Q111.75,693.0156 111.75,693.375 Q111.75,693.7188 111.4063,694.125 Q110.9063,694.7188 110.1094,695.0469 Q109.0625,695.5 107.7813,695.5 Q106.2813,695.5 105.0781,694.9063 Q104.1094,694.4375 103.4219,693.4219 Q102.75,692.4063 102.75,691.2031 L102.75,690.1094 Q102.75,688.8594 103.3438,687.7656 Q103.9531,686.6719 105,686.0938 Q106.0625,685.5 107.25,685.5 Q107.9688,685.5 108.5938,685.75 Q109.2188,686 109.75,686.5 Z " fill="#000000"/><text fill="#000000" font-family="sans-serif" font-size="14" lengthAdjust="spacing" textLength="82" x="128.25" y="695.7285">VaccineType</text><line style="stroke:#181818;stroke-width:0.5;" x1="8" x2="298" y1="706" y2="706"/><rect fill="none" height="6" style="stroke:#C82930;stroke-width:1.0;" width="6" x="15" y="714"/><text fill="#000000" font-family="sans-serif" font-size="14" lengthAdjust="spacing" textLength="90" x="27" y="724.5332">String disease</text><line style="stroke:#181818;stroke-width:1.0;" x1="8" x2="298" y1="731.6094" y2="731.6094"/><ellipse cx="18" cy="742.6094" fill="#84BE84" rx="3" ry="3" style="stroke:#038048;stroke-width:1.0;"/><text fill="#000000" font-family="sans-serif" font-size="14" lengthAdjust="spacing" textLength="266" x="27" y="750.1426">getAllVaccineTypes() : List&lt;VaccineType&gt;</text></g><!--MD5=[dddfbbf04cd811976a8d1b68c187d8cc]
class ScheduleVaccineStore--><g id="elem_ScheduleVaccineStore"><rect codeLine="24" fill="#F1F1F1" height="65.6094" id="ScheduleVaccineStore" rx="2.5" ry="2.5" style="stroke:#181818;stroke-width:0.5;" width="247" x="334.5" y="682.5"/><ellipse cx="382.25" cy="698.5" fill="#ADD1B2" rx="11" ry="11" style="stroke:#181818;stroke-width:1.0;"/><path d="M384.25,695 Q384.4531,694.5 384.6875,694.25 Q384.9219,694 385.1875,694 Q385.6563,694 385.9531,694.2813 Q386.25,694.5625 386.25,695.2188 L386.25,696.7813 Q386.25,697.4375 385.9688,697.7188 Q385.6875,698 385.25,698 Q384.8594,698 384.6094,697.8281 Q384.3594,697.6563 384.25,697.2031 Q384.2031,696.8906 384.0313,696.7188 Q383.7188,696.3906 383.1563,696.2031 Q382.5938,696 382.0313,696 Q381.3281,696 380.7344,696.2813 Q380.1563,696.5625 379.7031,697.1875 Q379.25,697.8125 379.25,698.6719 L379.25,699.5938 Q379.25,700.625 380.0938,701.3125 Q380.9375,702 382.4375,702 Q383.3281,702 383.9531,701.7969 Q384.3125,701.6875 384.7188,701.3281 Q384.9844,701.125 385.125,701.0625 Q385.2656,701 385.4375,701 Q385.7656,701 386,701.2656 Q386.25,701.5156 386.25,701.875 Q386.25,702.2188 385.9063,702.625 Q385.4063,703.2188 384.6094,703.5469 Q383.5625,704 382.2813,704 Q380.7813,704 379.5781,703.4063 Q378.6094,702.9375 377.9219,701.9219 Q377.25,700.9063 377.25,699.7031 L377.25,698.6094 Q377.25,697.3594 377.8438,696.2656 Q378.4531,695.1719 379.5,694.5938 Q380.5625,694 381.75,694 Q382.4688,694 383.0938,694.25 Q383.7188,694.5 384.25,695 Z " fill="#000000"/><text fill="#000000" font-family="sans-serif" font-size="14" lengthAdjust="spacing" textLength="143" x="402.75" y="704.2285">ScheduleVaccineStore</text><line style="stroke:#181818;stroke-width:0.5;" x1="335.5" x2="580.5" y1="714.5" y2="714.5"/><rect fill="none" height="6" style="stroke:#C82930;stroke-width:1.0;" width="6" x="342.5" y="722.5"/><text fill="#000000" font-family="sans-serif" font-size="14" lengthAdjust="spacing" textLength="221" x="354.5" y="733.0332">List&lt;Schedule&gt; schedulesArrayList</text><line style="stroke:#181818;stroke-width:0.5;" x1="335.5" x2="580.5" y1="740.1094" y2="740.1094"/></g><!--MD5=[1c7d3af9543fe43668cf83ebd3776857]
link RecepcionistUI to RecepcionistController--><g id="link_RecepcionistUI_RecepcionistController"><path codeLine="3" d="M305,55.13 C305,70.68 305,91.72 305,110.6 " fill="none" id="RecepcionistUI-to-RecepcionistController" style="stroke:#181818;stroke-width:1.0;stroke-dasharray:7.0,7.0;"/><polygon fill="#181818" points="305,115.86,309,106.86,305,110.86,301,106.86,305,115.86" style="stroke:#181818;stroke-width:1.0;"/></g><!--MD5=[9f1094ce4627c44bae417bea4b361dca]
link RecepcionistController to Company--><g id="link_RecepcionistController_Company"><path codeLine="4" d="M305,199.19 C305,216.42 305,236.59 305,254.37 " fill="none" id="RecepcionistController-to-Company" style="stroke:#181818;stroke-width:1.0;stroke-dasharray:7.0,7.0;"/><polygon fill="#181818" points="305,259.8,309,250.8,305,254.8,301,250.8,305,259.8" style="stroke:#181818;stroke-width:1.0;"/></g><!--MD5=[5448e79142bdfcbfebd9929e0faf45a6]
link Company to Receptionist--><g id="link_Company_Receptionist"><path codeLine="5" d="M305,343.27 C305,361.36 305,382.22 305,398.59 " fill="none" id="Company-to-Receptionist" style="stroke:#181818;stroke-width:1.0;"/><polygon fill="#181818" points="305,403.96,309,394.96,305,398.96,301,394.96,305,403.96" style="stroke:#181818;stroke-width:1.0;"/></g><!--MD5=[5bd8abec604a5efddd0fd669773de516]
link Receptionist to Schedule--><g id="link_Receptionist_Schedule"><path codeLine="7" d="M305,452.17 C305,473.6 305,505.67 305,529.63 " fill="none" id="Receptionist-Schedule" style="stroke:#181818;stroke-width:1.0;"/><polygon fill="#000000" points="310,496.1758,312.9389,487.1307,307.0611,487.1307,310,496.1758" style="stroke:#000000;stroke-width:1.0;"/><text fill="#000000" font-family="sans-serif" font-size="13" lengthAdjust="spacing" textLength="43" x="319" y="496.4951">creates</text><text fill="#000000" font-family="sans-serif" font-size="13" lengthAdjust="spacing" textLength="7" x="297.1469" y="473.5494">1</text><text fill="#000000" font-family="sans-serif" font-size="13" lengthAdjust="spacing" textLength="5" x="299.5078" y="519.0535">*</text></g><!--MD5=[fd59449717ce1c5334d382e3e36ca150]
link Schedule to VaccineType--><g id="link_Schedule_VaccineType"><path codeLine="8" d="M272.39,596.29 C249.45,619 218.57,649.57 193.97,673.93 " fill="none" id="Schedule-VaccineType" style="stroke:#181818;stroke-width:1.0;"/><polygon fill="#000000" points="240.4468,638.6936,248.9423,634.4183,244.8068,630.2413,240.4468,638.6936" style="stroke:#000000;stroke-width:1.0;"/><text fill="#000000" font-family="sans-serif" font-size="13" lengthAdjust="spacing" textLength="21" x="253" y="640.4951">has</text><text fill="#000000" font-family="sans-serif" font-size="13" lengthAdjust="spacing" textLength="5" x="261.136" y="617.206">*</text><text fill="#000000" font-family="sans-serif" font-size="13" lengthAdjust="spacing" textLength="7" x="193.176" y="663.2261">1</text></g><!--MD5=[d1b5cca3c76d39e16f18748f1e4a8a02]
link Schedule to ScheduleVaccineStore--><g id="link_Schedule_ScheduleVaccineStore"><path codeLine="9" d="M337.82,596.29 C363.64,621.68 399.43,656.89 425.23,682.27 " fill="none" id="Schedule-ScheduleVaccineStore" style="stroke:#181818;stroke-width:1.0;"/><polygon fill="#000000" points="394.5646,638.682,390.1771,630.244,386.0553,634.4344,394.5646,638.682" style="stroke:#000000;stroke-width:1.0;"/><text fill="#000000" font-family="sans-serif" font-size="13" lengthAdjust="spacing" textLength="47" x="400" y="640.4951">is saved</text><text fill="#000000" font-family="sans-serif" font-size="13" lengthAdjust="spacing" textLength="7" x="336.0426" y="617.206">1</text><text fill="#000000" font-family="sans-serif" font-size="13" lengthAdjust="spacing" textLength="7" x="411.0893" y="671.721">1</text></g><!--MD5=[dcd5eba996297f4a5ddbe3f64ceb9c5d]
@startuml
'https://plantuml.com/class-diagram

RecepcionistUI ..> RecepcionistController
RecepcionistController ..> Company
Company - -> Receptionist

Receptionist "1" - - "*" Schedule: creates >
Schedule "*" - - "1" VaccineType: has >
Schedule "1" - - "1" ScheduleVaccineStore: is saved >

class RecepcionistController {
-Company company
- - - -
+getAllVaccineTypes() : List<VaccineType>
}
class Schedule{
    -dateTime
}
class VaccineType{
-String disease
- - - -
+getAllVaccineTypes() : List<VaccineType>
}
class ScheduleVaccineStore{
    -List<Schedule> schedulesArrayList
}
class Company{
-Receptionist receptionist
- - - -
+getAllVaccineTypes() : List<VaccineType>
}

@enduml

@startuml

RecepcionistUI ..> RecepcionistController
RecepcionistController ..> Company
Company - -> Receptionist

Receptionist "1" - - "*" Schedule: creates >
Schedule "*" - - "1" VaccineType: has >
Schedule "1" - - "1" ScheduleVaccineStore: is saved >

class RecepcionistController {
-Company company
- - - -
+getAllVaccineTypes() : List<VaccineType>
}
class Schedule{
    -dateTime
}
class VaccineType{
-String disease
- - - -
+getAllVaccineTypes() : List<VaccineType>
}
class ScheduleVaccineStore{
    -List<Schedule> schedulesArrayList
}
class Company{
-Receptionist receptionist
- - - -
+getAllVaccineTypes() : List<VaccineType>
}

@enduml

PlantUML version 1.2022.5(Sat Apr 30 11:55:52 BST 2022)
(GPL source distribution)
Java Runtime: OpenJDK Runtime Environment
JVM: OpenJDK 64-Bit Server VM
Default Encoding: Cp1252
Language: en
Country: GB
--></g></svg>