<?xml version="1.0" encoding="UTF-8" standalone="no"?><svg xmlns="http://www.w3.org/2000/svg" xmlns:xlink="http://www.w3.org/1999/xlink" contentScriptType="application/ecmascript" contentStyleType="text/css" height="551px" preserveAspectRatio="none" style="width:431px;height:551px;background:#FFFFFF;" version="1.1" viewBox="0 0 431 551" width="431px" zoomAndPan="magnify"><defs><filter height="300%" id="f5d8nswxc01d8" width="300%" x="-1" y="-1"><feGaussianBlur result="blurOut" stdDeviation="2.0"/><feColorMatrix in="blurOut" result="blurOut2" type="matrix" values="0 0 0 0 0 0 0 0 0 0 0 0 0 0 0 0 0 0 .4 0"/><feOffset dx="4.0" dy="4.0" in="blurOut2" result="blurOut3"/><feBlend in="SourceGraphic" in2="blurOut3" mode="normal"/></filter></defs><g><!--MD5=[8e55428d92a5788b28670d4e184d7c1d]
class snsUser--><rect codeLine="3" fill="#FEFECE" filter="url(#f5d8nswxc01d8)" height="117.1797" id="snsUser" style="stroke:#A80036;stroke-width:1.5;" width="86" x="169" y="420"/><ellipse cx="186.7" cy="436" fill="#ADD1B2" rx="11" ry="11" style="stroke:#A80036;stroke-width:1.0;"/><path d="M188.7,432.5 Q188.9031,432 189.1375,431.75 Q189.3719,431.5 189.6375,431.5 Q190.1063,431.5 190.4031,431.7813 Q190.7,432.0625 190.7,432.7188 L190.7,434.2813 Q190.7,434.9375 190.4188,435.2188 Q190.1375,435.5 189.7,435.5 Q189.3094,435.5 189.0594,435.3281 Q188.8094,435.1563 188.7,434.7031 Q188.6531,434.3906 188.4813,434.2188 Q188.1688,433.8906 187.6063,433.7031 Q187.0438,433.5 186.4813,433.5 Q185.7781,433.5 185.1844,433.7813 Q184.6063,434.0625 184.1531,434.6875 Q183.7,435.3125 183.7,436.1719 L183.7,437.0938 Q183.7,438.125 184.5438,438.8125 Q185.3875,439.5 186.8875,439.5 Q187.7781,439.5 188.4031,439.2969 Q188.7625,439.1875 189.1688,438.8281 Q189.4344,438.625 189.575,438.5625 Q189.7156,438.5 189.8875,438.5 Q190.2156,438.5 190.45,438.7656 Q190.7,439.0156 190.7,439.375 Q190.7,439.7188 190.3563,440.125 Q189.8563,440.7188 189.0594,441.0469 Q188.0125,441.5 186.7313,441.5 Q185.2313,441.5 184.0281,440.9063 Q183.0594,440.4375 182.3719,439.4219 Q181.7,438.4063 181.7,437.2031 L181.7,436.1094 Q181.7,434.8594 182.2938,433.7656 Q182.9031,432.6719 183.95,432.0938 Q185.0125,431.5 186.2,431.5 Q186.9188,431.5 187.5438,431.75 Q188.1688,432 188.7,432.5 Z " fill="#000000"/><text fill="#000000" font-family="sans-serif" font-size="12" lengthAdjust="spacing" textLength="48" x="201.3" y="440.9102">snsUser</text><line style="stroke:#A80036;stroke-width:1.5;" x1="170" x2="254" y1="452" y2="452"/><text fill="#000000" font-family="sans-serif" font-size="11" lengthAdjust="spacing" textLength="62" x="175" y="467.4189">-snsNumber;</text><text fill="#000000" font-family="sans-serif" font-size="11" lengthAdjust="spacing" textLength="33" x="175" y="481.2549">-name;</text><text fill="#000000" font-family="sans-serif" font-size="11" lengthAdjust="spacing" textLength="25" x="175" y="495.0908">-age;</text><text fill="#000000" font-family="sans-serif" font-size="11" lengthAdjust="spacing" textLength="74" x="175" y="508.9268">-phoneNumber;</text><text fill="#000000" font-family="sans-serif" font-size="11" lengthAdjust="spacing" textLength="31" x="175" y="522.7627">-email;</text><line style="stroke:#A80036;stroke-width:1.5;" x1="170" x2="254" y1="529.1797" y2="529.1797"/><!--MD5=[02e4b9b7573f1156f41e60aa5b4e25a4]
class Company--><rect codeLine="11" fill="#FEFECE" filter="url(#f5d8nswxc01d8)" height="103.3438" id="Company" style="stroke:#A80036;stroke-width:1.5;" width="410" x="7" y="239"/><ellipse cx="181.25" cy="255" fill="#ADD1B2" rx="11" ry="11" style="stroke:#A80036;stroke-width:1.0;"/><path d="M183.25,251.5 Q183.4531,251 183.6875,250.75 Q183.9219,250.5 184.1875,250.5 Q184.6563,250.5 184.9531,250.7813 Q185.25,251.0625 185.25,251.7188 L185.25,253.2813 Q185.25,253.9375 184.9688,254.2188 Q184.6875,254.5 184.25,254.5 Q183.8594,254.5 183.6094,254.3281 Q183.3594,254.1563 183.25,253.7031 Q183.2031,253.3906 183.0313,253.2188 Q182.7188,252.8906 182.1563,252.7031 Q181.5938,252.5 181.0313,252.5 Q180.3281,252.5 179.7344,252.7813 Q179.1563,253.0625 178.7031,253.6875 Q178.25,254.3125 178.25,255.1719 L178.25,256.0938 Q178.25,257.125 179.0938,257.8125 Q179.9375,258.5 181.4375,258.5 Q182.3281,258.5 182.9531,258.2969 Q183.3125,258.1875 183.7188,257.8281 Q183.9844,257.625 184.125,257.5625 Q184.2656,257.5 184.4375,257.5 Q184.7656,257.5 185,257.7656 Q185.25,258.0156 185.25,258.375 Q185.25,258.7188 184.9063,259.125 Q184.4063,259.7188 183.6094,260.0469 Q182.5625,260.5 181.2813,260.5 Q179.7813,260.5 178.5781,259.9063 Q177.6094,259.4375 176.9219,258.4219 Q176.25,257.4063 176.25,256.2031 L176.25,255.1094 Q176.25,253.8594 176.8438,252.7656 Q177.4531,251.6719 178.5,251.0938 Q179.5625,250.5 180.75,250.5 Q181.4688,250.5 182.0938,250.75 Q182.7188,251 183.25,251.5 Z " fill="#000000"/><text fill="#000000" font-family="sans-serif" font-size="12" lengthAdjust="spacing" textLength="53" x="201.75" y="259.9102">Company</text><line style="stroke:#A80036;stroke-width:1.5;" x1="8" x2="416" y1="271" y2="271"/><text fill="#000000" font-family="sans-serif" font-size="11" lengthAdjust="spacing" textLength="93" x="13" y="286.4189">-String designation;</text><text fill="#000000" font-family="sans-serif" font-size="11" lengthAdjust="spacing" textLength="126" x="13" y="300.2549">-AuthFacade authFacade;</text><line style="stroke:#A80036;stroke-width:1.5;" x1="8" x2="416" y1="306.6719" y2="306.6719"/><text fill="#000000" font-family="sans-serif" font-size="11" lengthAdjust="spacing" textLength="398" x="13" y="322.0908">+Organization(name, VatNumber, webSite, phone, email, postalAddress, manager)</text><text fill="#000000" font-family="sans-serif" font-size="11" lengthAdjust="spacing" textLength="300" x="13" y="335.9268">+createsnsUser(snsNumber, name, age, phoneNumber, email)</text><!--MD5=[c2f692813858c0f81987f0662a923531]
class SnsUserController--><rect codeLine="19" fill="#FEFECE" filter="url(#f5d8nswxc01d8)" height="61.8359" id="SnsUserController" style="stroke:#A80036;stroke-width:1.5;" width="135" x="144.5" y="116"/><ellipse cx="159.5" cy="132" fill="#ADD1B2" rx="11" ry="11" style="stroke:#A80036;stroke-width:1.0;"/><path d="M161.5,128.5 Q161.7031,128 161.9375,127.75 Q162.1719,127.5 162.4375,127.5 Q162.9063,127.5 163.2031,127.7813 Q163.5,128.0625 163.5,128.7188 L163.5,130.2813 Q163.5,130.9375 163.2188,131.2188 Q162.9375,131.5 162.5,131.5 Q162.1094,131.5 161.8594,131.3281 Q161.6094,131.1563 161.5,130.7031 Q161.4531,130.3906 161.2813,130.2188 Q160.9688,129.8906 160.4063,129.7031 Q159.8438,129.5 159.2813,129.5 Q158.5781,129.5 157.9844,129.7813 Q157.4063,130.0625 156.9531,130.6875 Q156.5,131.3125 156.5,132.1719 L156.5,133.0938 Q156.5,134.125 157.3438,134.8125 Q158.1875,135.5 159.6875,135.5 Q160.5781,135.5 161.2031,135.2969 Q161.5625,135.1875 161.9688,134.8281 Q162.2344,134.625 162.375,134.5625 Q162.5156,134.5 162.6875,134.5 Q163.0156,134.5 163.25,134.7656 Q163.5,135.0156 163.5,135.375 Q163.5,135.7188 163.1563,136.125 Q162.6563,136.7188 161.8594,137.0469 Q160.8125,137.5 159.5313,137.5 Q158.0313,137.5 156.8281,136.9063 Q155.8594,136.4375 155.1719,135.4219 Q154.5,134.4063 154.5,133.2031 L154.5,132.1094 Q154.5,130.8594 155.0938,129.7656 Q155.7031,128.6719 156.75,128.0938 Q157.8125,127.5 159,127.5 Q159.7188,127.5 160.3438,127.75 Q160.9688,128 161.5,128.5 Z " fill="#000000"/><text fill="#000000" font-family="sans-serif" font-size="12" lengthAdjust="spacing" textLength="103" x="173.5" y="136.9102">SnsUserController</text><line style="stroke:#A80036;stroke-width:1.5;" x1="145.5" x2="278.5" y1="148" y2="148"/><line style="stroke:#A80036;stroke-width:1.5;" x1="145.5" x2="278.5" y1="156" y2="156"/><text fill="#000000" font-family="sans-serif" font-size="11" lengthAdjust="spacing" textLength="74" x="150.5" y="171.4189">+registerUser()</text><!--MD5=[e51f1aa3cba897edd46f2fedbd5a5cd6]
class RegisterSNSUserUI--><rect codeLine="23" fill="#FEFECE" filter="url(#f5d8nswxc01d8)" height="48" id="RegisterSNSUserUI" style="stroke:#A80036;stroke-width:1.5;" width="143" x="140.5" y="7"/><ellipse cx="155.5" cy="23" fill="#ADD1B2" rx="11" ry="11" style="stroke:#A80036;stroke-width:1.0;"/><path d="M157.5,19.5 Q157.7031,19 157.9375,18.75 Q158.1719,18.5 158.4375,18.5 Q158.9063,18.5 159.2031,18.7813 Q159.5,19.0625 159.5,19.7188 L159.5,21.2813 Q159.5,21.9375 159.2188,22.2188 Q158.9375,22.5 158.5,22.5 Q158.1094,22.5 157.8594,22.3281 Q157.6094,22.1563 157.5,21.7031 Q157.4531,21.3906 157.2813,21.2188 Q156.9688,20.8906 156.4063,20.7031 Q155.8438,20.5 155.2813,20.5 Q154.5781,20.5 153.9844,20.7813 Q153.4063,21.0625 152.9531,21.6875 Q152.5,22.3125 152.5,23.1719 L152.5,24.0938 Q152.5,25.125 153.3438,25.8125 Q154.1875,26.5 155.6875,26.5 Q156.5781,26.5 157.2031,26.2969 Q157.5625,26.1875 157.9688,25.8281 Q158.2344,25.625 158.375,25.5625 Q158.5156,25.5 158.6875,25.5 Q159.0156,25.5 159.25,25.7656 Q159.5,26.0156 159.5,26.375 Q159.5,26.7188 159.1563,27.125 Q158.6563,27.7188 157.8594,28.0469 Q156.8125,28.5 155.5313,28.5 Q154.0313,28.5 152.8281,27.9063 Q151.8594,27.4375 151.1719,26.4219 Q150.5,25.4063 150.5,24.2031 L150.5,23.1094 Q150.5,21.8594 151.0938,20.7656 Q151.7031,19.6719 152.75,19.0938 Q153.8125,18.5 155,18.5 Q155.7188,18.5 156.3438,18.75 Q156.9688,19 157.5,19.5 Z " fill="#000000"/><text fill="#000000" font-family="sans-serif" font-size="12" lengthAdjust="spacing" textLength="111" x="169.5" y="27.9102">RegisterSNSUserUI</text><line style="stroke:#A80036;stroke-width:1.5;" x1="141.5" x2="282.5" y1="39" y2="39"/><line style="stroke:#A80036;stroke-width:1.5;" x1="141.5" x2="282.5" y1="47" y2="47"/><!--MD5=[64ecd1d15449037b9175d7e9ad17ea3d]
link RegisterSNSUserUI to SnsUserController--><path codeLine="27" d="M212,55.07 C212,71.01 212,92.51 212,110.6 " fill="none" id="RegisterSNSUserUI-to-SnsUserController" style="stroke:#A80036;stroke-width:1.0;stroke-dasharray:7.0,7.0;"/><polygon fill="#A80036" points="212,115.61,216,106.61,212,110.61,208,106.61,212,115.61" style="stroke:#A80036;stroke-width:1.0;"/><!--MD5=[46b1385f8566a8c20f389069499ca318]
link SnsUserController to Company--><path codeLine="28" d="M212,178.01 C212,194.17 212,214.64 212,233.62 " fill="none" id="SnsUserController-to-Company" style="stroke:#A80036;stroke-width:1.0;stroke-dasharray:7.0,7.0;"/><polygon fill="#A80036" points="212,238.93,216,229.93,212,233.93,208,229.93,212,238.93" style="stroke:#A80036;stroke-width:1.0;"/><!--MD5=[0c9b420fc56b232efaaac5b09862b139]
link Company to snsUser--><path codeLine="30" d="M212,342.33 C212,364.62 212,391.03 212,414.56 " fill="none" id="Company-to-snsUser" style="stroke:#A80036;stroke-width:1.0;"/><polygon fill="#A80036" points="212,419.84,216,410.84,212,414.84,208,410.84,212,419.84" style="stroke:#A80036;stroke-width:1.0;"/><text fill="#000000" font-family="sans-serif" font-size="13" lengthAdjust="spacing" textLength="30" x="213" y="386.4951">owns</text><text fill="#000000" font-family="sans-serif" font-size="13" lengthAdjust="spacing" textLength="7" x="204.5297" y="363.8653">1</text><text fill="#000000" font-family="sans-serif" font-size="13" lengthAdjust="spacing" textLength="5" x="206.6953" y="409.2214">*</text><!--MD5=[47ee5fc00bea565d6ee10a8338628c59]
@startuml
skinparam classAttributeIconSize 0

class snsUser {
   -snsNumber;
   -name;
   -age;
   -phoneNumber;
   -email;
}

class Company {
   -String designation;
   -AuthFacade authFacade;
  +Organization(name, VatNumber, webSite, phone, email, postalAddress, manager)
  +createsnsUser(snsNumber, name, age, phoneNumber, email)
}


class SnsUserController {
 +registerUser()
}

class RegisterSNSUserUI {

}

RegisterSNSUserUI ..> SnsUserController
SnsUserController ..> Company

Company "1" - -> "*" snsUser : owns


@enduml

PlantUML version 1.2021.11(Sat Oct 02 14:26:11 BST 2021)
(GPL source distribution)
Java Runtime: OpenJDK Runtime Environment
JVM: OpenJDK 64-Bit Server VM
Default Encoding: Cp1252
Language: pt
Country: PT
--></g></svg>