<?xml version="1.0" encoding="UTF-8" standalone="no"?><svg xmlns="http://www.w3.org/2000/svg" xmlns:xlink="http://www.w3.org/1999/xlink" contentScriptType="application/ecmascript" contentStyleType="text/css" height="173px" preserveAspectRatio="none" style="width:687px;height:173px;background:#FFFFFF;" version="1.1" viewBox="0 0 687 173" width="687px" zoomAndPan="magnify"><defs><filter height="300%" id="f19f12og8h7bdb" width="300%" x="-1" y="-1"><feGaussianBlur result="blurOut" stdDeviation="2.0"/><feColorMatrix in="blurOut" result="blurOut2" type="matrix" values="0 0 0 0 0 0 0 0 0 0 0 0 0 0 0 0 0 0 .4 0"/><feOffset dx="4.0" dy="4.0" in="blurOut2" result="blurOut3"/><feBlend in="SourceGraphic" in2="blurOut3" mode="normal"/></filter></defs><g><!--MD5=[03960189e81aa2c066c762ffabbee709]
class Receptionist--><rect codeLine="6" fill="#FEFECE" filter="url(#f19f12og8h7bdb)" height="40" id="Receptionist" style="stroke:#A80036;stroke-width:1.5;" width="101" x="371" y="82.5"/><ellipse cx="386" cy="98.5" fill="#ADD1B2" rx="11" ry="11" style="stroke:#A80036;stroke-width:1.0;"/><path d="M388,95 Q388.2031,94.5 388.4375,94.25 Q388.6719,94 388.9375,94 Q389.4063,94 389.7031,94.2813 Q390,94.5625 390,95.2188 L390,96.7813 Q390,97.4375 389.7188,97.7188 Q389.4375,98 389,98 Q388.6094,98 388.3594,97.8281 Q388.1094,97.6563 388,97.2031 Q387.9531,96.8906 387.7813,96.7188 Q387.4688,96.3906 386.9063,96.2031 Q386.3438,96 385.7813,96 Q385.0781,96 384.4844,96.2813 Q383.9063,96.5625 383.4531,97.1875 Q383,97.8125 383,98.6719 L383,99.5938 Q383,100.625 383.8438,101.3125 Q384.6875,102 386.1875,102 Q387.0781,102 387.7031,101.7969 Q388.0625,101.6875 388.4688,101.3281 Q388.7344,101.125 388.875,101.0625 Q389.0156,101 389.1875,101 Q389.5156,101 389.75,101.2656 Q390,101.5156 390,101.875 Q390,102.2188 389.6563,102.625 Q389.1563,103.2188 388.3594,103.5469 Q387.3125,104 386.0313,104 Q384.5313,104 383.3281,103.4063 Q382.3594,102.9375 381.6719,101.9219 Q381,100.9063 381,99.7031 L381,98.6094 Q381,97.3594 381.5938,96.2656 Q382.2031,95.1719 383.25,94.5938 Q384.3125,94 385.5,94 Q386.2188,94 386.8438,94.25 Q387.4688,94.5 388,95 Z " fill="#000000"/><text fill="#000000" font-family="sans-serif" font-size="12" lengthAdjust="spacing" textLength="69" x="400" y="103.4102">Receptionist</text><line style="stroke:#A80036;stroke-width:1.5;" x1="372" x2="471" y1="114.5" y2="114.5"/><!--MD5=[02e4b9b7573f1156f41e60aa5b4e25a4]
class Company--><rect codeLine="9" fill="#FEFECE" filter="url(#f19f12og8h7bdb)" height="67.6719" id="Company" style="stroke:#A80036;stroke-width:1.5;" width="85" x="7" y="37.5"/><ellipse cx="22" cy="53.5" fill="#ADD1B2" rx="11" ry="11" style="stroke:#A80036;stroke-width:1.0;"/><path d="M24,50 Q24.2031,49.5 24.4375,49.25 Q24.6719,49 24.9375,49 Q25.4063,49 25.7031,49.2813 Q26,49.5625 26,50.2188 L26,51.7813 Q26,52.4375 25.7188,52.7188 Q25.4375,53 25,53 Q24.6094,53 24.3594,52.8281 Q24.1094,52.6563 24,52.2031 Q23.9531,51.8906 23.7813,51.7188 Q23.4688,51.3906 22.9063,51.2031 Q22.3438,51 21.7813,51 Q21.0781,51 20.4844,51.2813 Q19.9063,51.5625 19.4531,52.1875 Q19,52.8125 19,53.6719 L19,54.5938 Q19,55.625 19.8438,56.3125 Q20.6875,57 22.1875,57 Q23.0781,57 23.7031,56.7969 Q24.0625,56.6875 24.4688,56.3281 Q24.7344,56.125 24.875,56.0625 Q25.0156,56 25.1875,56 Q25.5156,56 25.75,56.2656 Q26,56.5156 26,56.875 Q26,57.2188 25.6563,57.625 Q25.1563,58.2188 24.3594,58.5469 Q23.3125,59 22.0313,59 Q20.5313,59 19.3281,58.4063 Q18.3594,57.9375 17.6719,56.9219 Q17,55.9063 17,54.7031 L17,53.6094 Q17,52.3594 17.5938,51.2656 Q18.2031,50.1719 19.25,49.5938 Q20.3125,49 21.5,49 Q22.2188,49 22.8438,49.25 Q23.4688,49.5 24,50 Z " fill="#000000"/><text fill="#000000" font-family="sans-serif" font-size="12" lengthAdjust="spacing" textLength="53" x="36" y="58.4102">Company</text><line style="stroke:#A80036;stroke-width:1.5;" x1="8" x2="91" y1="69.5" y2="69.5"/><text fill="#000000" font-family="sans-serif" font-size="11" lengthAdjust="spacing" textLength="59" x="13" y="84.9189">-designation</text><text fill="#000000" font-family="sans-serif" font-size="11" lengthAdjust="spacing" textLength="61" x="13" y="98.7549">-authFacade</text><!--MD5=[8e55428d92a5788b28670d4e184d7c1d]
class snsUser--><rect codeLine="14" fill="#FEFECE" filter="url(#f19f12og8h7bdb)" height="109.1797" id="snsUser" style="stroke:#A80036;stroke-width:1.5;" width="83" x="590" y="7"/><ellipse cx="606.35" cy="23" fill="#ADD1B2" rx="11" ry="11" style="stroke:#A80036;stroke-width:1.0;"/><path d="M608.35,19.5 Q608.5531,19 608.7875,18.75 Q609.0219,18.5 609.2875,18.5 Q609.7563,18.5 610.0531,18.7813 Q610.35,19.0625 610.35,19.7188 L610.35,21.2813 Q610.35,21.9375 610.0688,22.2188 Q609.7875,22.5 609.35,22.5 Q608.9594,22.5 608.7094,22.3281 Q608.4594,22.1563 608.35,21.7031 Q608.3031,21.3906 608.1313,21.2188 Q607.8188,20.8906 607.2563,20.7031 Q606.6938,20.5 606.1313,20.5 Q605.4281,20.5 604.8344,20.7813 Q604.2563,21.0625 603.8031,21.6875 Q603.35,22.3125 603.35,23.1719 L603.35,24.0938 Q603.35,25.125 604.1938,25.8125 Q605.0375,26.5 606.5375,26.5 Q607.4281,26.5 608.0531,26.2969 Q608.4125,26.1875 608.8188,25.8281 Q609.0844,25.625 609.225,25.5625 Q609.3656,25.5 609.5375,25.5 Q609.8656,25.5 610.1,25.7656 Q610.35,26.0156 610.35,26.375 Q610.35,26.7188 610.0063,27.125 Q609.5063,27.7188 608.7094,28.0469 Q607.6625,28.5 606.3813,28.5 Q604.8813,28.5 603.6781,27.9063 Q602.7094,27.4375 602.0219,26.4219 Q601.35,25.4063 601.35,24.2031 L601.35,23.1094 Q601.35,21.8594 601.9438,20.7656 Q602.5531,19.6719 603.6,19.0938 Q604.6625,18.5 605.85,18.5 Q606.5688,18.5 607.1938,18.75 Q607.8188,19 608.35,19.5 Z " fill="#000000"/><text fill="#000000" font-family="sans-serif" font-size="12" lengthAdjust="spacing" textLength="48" x="620.65" y="27.9102">snsUser</text><line style="stroke:#A80036;stroke-width:1.5;" x1="591" x2="672" y1="39" y2="39"/><text fill="#000000" font-family="sans-serif" font-size="11" lengthAdjust="spacing" textLength="59" x="596" y="54.4189">-snsNumber</text><text fill="#000000" font-family="sans-serif" font-size="11" lengthAdjust="spacing" textLength="30" x="596" y="68.2549">-name</text><text fill="#000000" font-family="sans-serif" font-size="11" lengthAdjust="spacing" textLength="22" x="596" y="82.0908">-age</text><text fill="#000000" font-family="sans-serif" font-size="11" lengthAdjust="spacing" textLength="71" x="596" y="95.9268">-phoneNumber</text><text fill="#000000" font-family="sans-serif" font-size="11" lengthAdjust="spacing" textLength="28" x="596" y="109.7627">-email</text><!--MD5=[7421f545a0d8420c5bec41e74b387d9c]
class Employee--><rect codeLine="22" fill="#FEFECE" filter="url(#f19f12og8h7bdb)" height="81.5078" id="Employee" style="stroke:#A80036;stroke-width:1.5;" width="87" x="188" y="77.5"/><ellipse cx="203" cy="93.5" fill="#ADD1B2" rx="11" ry="11" style="stroke:#A80036;stroke-width:1.0;"/><path d="M205,90 Q205.2031,89.5 205.4375,89.25 Q205.6719,89 205.9375,89 Q206.4063,89 206.7031,89.2813 Q207,89.5625 207,90.2188 L207,91.7813 Q207,92.4375 206.7188,92.7188 Q206.4375,93 206,93 Q205.6094,93 205.3594,92.8281 Q205.1094,92.6563 205,92.2031 Q204.9531,91.8906 204.7813,91.7188 Q204.4688,91.3906 203.9063,91.2031 Q203.3438,91 202.7813,91 Q202.0781,91 201.4844,91.2813 Q200.9063,91.5625 200.4531,92.1875 Q200,92.8125 200,93.6719 L200,94.5938 Q200,95.625 200.8438,96.3125 Q201.6875,97 203.1875,97 Q204.0781,97 204.7031,96.7969 Q205.0625,96.6875 205.4688,96.3281 Q205.7344,96.125 205.875,96.0625 Q206.0156,96 206.1875,96 Q206.5156,96 206.75,96.2656 Q207,96.5156 207,96.875 Q207,97.2188 206.6563,97.625 Q206.1563,98.2188 205.3594,98.5469 Q204.3125,99 203.0313,99 Q201.5313,99 200.3281,98.4063 Q199.3594,97.9375 198.6719,96.9219 Q198,95.9063 198,94.7031 L198,93.6094 Q198,92.3594 198.5938,91.2656 Q199.2031,90.1719 200.25,89.5938 Q201.3125,89 202.5,89 Q203.2188,89 203.8438,89.25 Q204.4688,89.5 205,90 Z " fill="#000000"/><text fill="#000000" font-family="sans-serif" font-size="12" lengthAdjust="spacing" textLength="55" x="217" y="98.4102">Employee</text><line style="stroke:#A80036;stroke-width:1.5;" x1="189" x2="274" y1="109.5" y2="109.5"/><text fill="#000000" font-family="sans-serif" font-size="11" lengthAdjust="spacing" textLength="30" x="194" y="124.9189">-name</text><text fill="#000000" font-family="sans-serif" font-size="11" lengthAdjust="spacing" textLength="71" x="194" y="138.7549">-phoneNumber</text><text fill="#000000" font-family="sans-serif" font-size="11" lengthAdjust="spacing" textLength="28" x="194" y="152.5908">-email</text><!--MD5=[1da12df22706e73e1def33b218b7f412]
link Employee to Receptionist--><path codeLine="28" d="M275.16,114.87 C303.54,112.45 340.94,109.27 370.69,106.74 " fill="none" id="Employee-Receptionist" style="stroke:#A80036;stroke-width:1.0;"/><polygon fill="#000000" points="310.518,102.0998,319.7797,104.2611,319.2813,98.4044,310.518,102.0998" style="stroke:#000000;stroke-width:1.0;"/><text fill="#000000" font-family="sans-serif" font-size="13" lengthAdjust="spacing" textLength="10" x="324.5" y="106.9951">is</text><text fill="#000000" font-family="sans-serif" font-size="13" lengthAdjust="spacing" textLength="7" x="282.9709" y="129.1588">1</text><text fill="#000000" font-family="sans-serif" font-size="13" lengthAdjust="spacing" textLength="7" x="356.0527" y="121.9811">1</text><!--MD5=[09366576ee87d48d594df10cacc83f45]
link Company to Employee--><path codeLine="29" d="M92.25,82.4 C120.91,89.89 158.85,99.79 187.73,107.33 " fill="none" id="Company-Employee" style="stroke:#A80036;stroke-width:1.0;"/><polygon fill="#000000" points="131.8378,83.9389,123.8286,78.8103,122.3437,84.4975,131.8378,83.9389" style="stroke:#000000;stroke-width:1.0;"/><text fill="#000000" font-family="sans-serif" font-size="13" lengthAdjust="spacing" textLength="21" x="136" y="87.9951">has</text><text fill="#000000" font-family="sans-serif" font-size="13" lengthAdjust="spacing" textLength="7" x="99.9102" y="99.0817">1</text><text fill="#000000" font-family="sans-serif" font-size="13" lengthAdjust="spacing" textLength="5" x="175.0665" y="120.37">*</text><!--MD5=[5d815903437a7a19c31f461919f5d1d9]
link Receptionist to snsUser--><path codeLine="30" d="M472.06,92.73 C507.98,85.65 555.99,76.19 589.7,69.54 " fill="none" id="Receptionist-snsUser" style="stroke:#A80036;stroke-width:1.0;"/><polygon fill="#000000" points="511.9056,66.7088,502.4629,65.5747,503.5997,71.3416,511.9056,66.7088" style="stroke:#000000;stroke-width:1.0;"/><text fill="#000000" font-family="sans-serif" font-size="13" lengthAdjust="spacing" textLength="43" x="516" y="72.9951">creates</text><text fill="#000000" font-family="sans-serif" font-size="13" lengthAdjust="spacing" textLength="7" x="480.0001" y="105.991">1</text><text fill="#000000" font-family="sans-serif" font-size="13" lengthAdjust="spacing" textLength="5" x="577.0859" y="85.8068">*</text><!--MD5=[0c9b420fc56b232efaaac5b09862b139]
link Company to snsUser--><path codeLine="31" d="M92.27,67.22 C119.5,64.58 155.82,61.36 188,59.5 C327.38,51.43 362.4,52.5 502,50.5 C527.78,50.13 534.3,48.51 560,50.5 C569.76,51.26 580.21,52.59 589.99,54.08 " fill="none" id="Company-snsUser" style="stroke:#A80036;stroke-width:1.0;"/><polygon fill="#000000" points="314.9983,44.5438,305.8788,41.8446,306.0339,47.7204,314.9983,44.5438" style="stroke:#000000;stroke-width:1.0;"/><text fill="#000000" font-family="sans-serif" font-size="13" lengthAdjust="spacing" textLength="21" x="319" y="49.9951">has</text><text fill="#000000" font-family="sans-serif" font-size="13" lengthAdjust="spacing" textLength="7" x="99.9335" y="81.3875">1</text><text fill="#000000" font-family="sans-serif" font-size="13" lengthAdjust="spacing" textLength="5" x="576.8757" y="48.7479">*</text><!--MD5=[98538ce13cf99145e4e4450bb6289765]
@startuml
hide methods
left to right direction
skinparam classAttributeIconSize 0


class Receptionist {
}

class Company {
  -designation
  -authFacade
}

class snsUser {
  -snsNumber
  -name
  -age
  -phoneNumber
  -email
}

class Employee {
  -name
  -phoneNumber
  -email
}

Employee "1" - - "1" Receptionist: is <
Company "1" - - "*" Employee: has >
Receptionist "1" - - "*" snsUser: creates >
Company "1" - - "*" snsUser: has >



@enduml

PlantUML version 1.2021.11(Sat Oct 02 14:26:11 BST 2021)
(GPL source distribution)
Java Runtime: OpenJDK Runtime Environment
JVM: OpenJDK 64-Bit Server VM
Default Encoding: Cp1252
Language: pt
Country: PT
--></g></svg>