<?xml version="1.0" encoding="UTF-8" standalone="no"?><svg xmlns="http://www.w3.org/2000/svg" xmlns:xlink="http://www.w3.org/1999/xlink" contentScriptType="application/ecmascript" contentStyleType="text/css" height="377px" preserveAspectRatio="none" style="width:459px;height:377px;background:#FFFFFF;" version="1.1" viewBox="0 0 459 377" width="459px" zoomAndPan="magnify"><defs><filter height="300%" id="fgv1h7o9f6jmv" width="300%" x="-1" y="-1"><feGaussianBlur result="blurOut" stdDeviation="2.0"/><feColorMatrix in="blurOut" result="blurOut2" type="matrix" values="0 0 0 0 0 0 0 0 0 0 0 0 0 0 0 0 0 0 .4 0"/><feOffset dx="4.0" dy="4.0" in="blurOut2" result="blurOut3"/><feBlend in="SourceGraphic" in2="blurOut3" mode="normal"/></filter></defs><g><rect fill="#FFFFFF" filter="url(#fgv1h7o9f6jmv)" height="174.1094" style="stroke:#A80036;stroke-width:1.0;" width="10" x="42" y="99.6094"/><rect fill="#FFFFFF" filter="url(#fgv1h7o9f6jmv)" height="30.3516" style="stroke:#A80036;stroke-width:1.0;" width="10" x="410" y="121.9609"/><rect fill="#FFFFFF" filter="url(#fgv1h7o9f6jmv)" height="30.3516" style="stroke:#A80036;stroke-width:1.0;" width="10" x="410" y="182.6641"/><rect fill="#FFFFFF" filter="url(#fgv1h7o9f6jmv)" height="30.3516" style="stroke:#A80036;stroke-width:1.0;" width="10" x="410" y="243.3672"/><line style="stroke:#A80036;stroke-width:1.0;stroke-dasharray:5.0,5.0;" x1="47" x2="47" y1="89.6094" y2="291.7188"/><line style="stroke:#A80036;stroke-width:1.0;stroke-dasharray:5.0,5.0;" x1="415" x2="415" y1="89.6094" y2="291.7188"/><text fill="#000000" font-family="sans-serif" font-size="14" lengthAdjust="spacing" textLength="78" x="5" y="86.5332">Receptionist</text><ellipse cx="47" cy="15" fill="#FEFECE" filter="url(#fgv1h7o9f6jmv)" rx="8" ry="8" style="stroke:#A80036;stroke-width:2.0;"/><path d="M47,23 L47,50 M34,31 L60,31 M47,50 L34,65 M47,50 L60,65 " fill="none" filter="url(#fgv1h7o9f6jmv)" style="stroke:#A80036;stroke-width:2.0;"/><text fill="#000000" font-family="sans-serif" font-size="14" lengthAdjust="spacing" textLength="78" x="5" y="305.252">Receptionist</text><ellipse cx="47" cy="318.3281" fill="#FEFECE" filter="url(#fgv1h7o9f6jmv)" rx="8" ry="8" style="stroke:#A80036;stroke-width:2.0;"/><path d="M47,326.3281 L47,353.3281 M34,334.3281 L60,334.3281 M47,353.3281 L34,368.3281 M47,353.3281 L60,368.3281 " fill="none" filter="url(#fgv1h7o9f6jmv)" style="stroke:#A80036;stroke-width:2.0;"/><rect fill="#FEFECE" filter="url(#fgv1h7o9f6jmv)" height="31.6094" style="stroke:#A80036;stroke-width:1.5;" width="64" x="381" y="53"/><text fill="#000000" font-family="sans-serif" font-size="14" lengthAdjust="spacing" textLength="50" x="388" y="74.5332">:System</text><rect fill="#FEFECE" filter="url(#fgv1h7o9f6jmv)" height="31.6094" style="stroke:#A80036;stroke-width:1.5;" width="64" x="381" y="290.7188"/><text fill="#000000" font-family="sans-serif" font-size="14" lengthAdjust="spacing" textLength="50" x="388" y="312.252">:System</text><rect fill="#FFFFFF" filter="url(#fgv1h7o9f6jmv)" height="174.1094" style="stroke:#A80036;stroke-width:1.0;" width="10" x="42" y="99.6094"/><rect fill="#FFFFFF" filter="url(#fgv1h7o9f6jmv)" height="30.3516" style="stroke:#A80036;stroke-width:1.0;" width="10" x="410" y="121.9609"/><rect fill="#FFFFFF" filter="url(#fgv1h7o9f6jmv)" height="30.3516" style="stroke:#A80036;stroke-width:1.0;" width="10" x="410" y="182.6641"/><rect fill="#FFFFFF" filter="url(#fgv1h7o9f6jmv)" height="30.3516" style="stroke:#A80036;stroke-width:1.0;" width="10" x="410" y="243.3672"/><polygon fill="#A80036" points="398,117.9609,408,121.9609,398,125.9609,402,121.9609" style="stroke:#A80036;stroke-width:1.0;"/><line style="stroke:#A80036;stroke-width:1.0;" x1="52" x2="404" y1="121.9609" y2="121.9609"/><text fill="#000000" font-family="sans-serif" font-size="13" font-weight="bold" lengthAdjust="spacing" textLength="7" x="59" y="117.1045">1</text><text fill="#000000" font-family="sans-serif" font-size="13" lengthAdjust="spacing" textLength="195" x="70" y="117.1045">Starts to register a new SNS user</text><polygon fill="#A80036" points="63,148.3125,53,152.3125,63,156.3125,59,152.3125" style="stroke:#A80036;stroke-width:1.0;"/><line style="stroke:#A80036;stroke-width:1.0;stroke-dasharray:2.0,2.0;" x1="57" x2="414" y1="152.3125" y2="152.3125"/><text fill="#000000" font-family="sans-serif" font-size="13" font-weight="bold" lengthAdjust="spacing" textLength="7" x="69" y="147.4561">2</text><text fill="#000000" font-family="sans-serif" font-size="13" lengthAdjust="spacing" textLength="323" x="80" y="147.4561">requests data (snsNumber,name, age,phoneNum,email)</text><polygon fill="#A80036" points="398,178.6641,408,182.6641,398,186.6641,402,182.6641" style="stroke:#A80036;stroke-width:1.0;"/><line style="stroke:#A80036;stroke-width:1.0;" x1="52" x2="404" y1="182.6641" y2="182.6641"/><text fill="#000000" font-family="sans-serif" font-size="13" font-weight="bold" lengthAdjust="spacing" textLength="7" x="59" y="177.8076">3</text><text fill="#000000" font-family="sans-serif" font-size="13" lengthAdjust="spacing" textLength="122" x="70" y="177.8076">types requested data</text><polygon fill="#A80036" points="63,209.0156,53,213.0156,63,217.0156,59,213.0156" style="stroke:#A80036;stroke-width:1.0;"/><line style="stroke:#A80036;stroke-width:1.0;stroke-dasharray:2.0,2.0;" x1="57" x2="414" y1="213.0156" y2="213.0156"/><text fill="#000000" font-family="sans-serif" font-size="13" font-weight="bold" lengthAdjust="spacing" textLength="7" x="69" y="208.1592">4</text><text fill="#000000" font-family="sans-serif" font-size="13" lengthAdjust="spacing" textLength="236" x="80" y="208.1592">shows all data and requests confirmation</text><polygon fill="#A80036" points="398,239.3672,408,243.3672,398,247.3672,402,243.3672" style="stroke:#A80036;stroke-width:1.0;"/><line style="stroke:#A80036;stroke-width:1.0;" x1="52" x2="404" y1="243.3672" y2="243.3672"/><text fill="#000000" font-family="sans-serif" font-size="13" font-weight="bold" lengthAdjust="spacing" textLength="7" x="59" y="238.5107">5</text><text fill="#000000" font-family="sans-serif" font-size="13" lengthAdjust="spacing" textLength="100" x="70" y="238.5107">confirms the data</text><polygon fill="#A80036" points="58,269.7188,48,273.7188,58,277.7188,54,273.7188" style="stroke:#A80036;stroke-width:1.0;"/><line style="stroke:#A80036;stroke-width:1.0;stroke-dasharray:2.0,2.0;" x1="52" x2="414" y1="273.7188" y2="273.7188"/><text fill="#000000" font-family="sans-serif" font-size="13" font-weight="bold" lengthAdjust="spacing" textLength="7" x="64" y="268.8623">6</text><text fill="#000000" font-family="sans-serif" font-size="13" lengthAdjust="spacing" textLength="152" x="75" y="268.8623">informs operation success</text><!--MD5=[25ac1bce4e7eb5954c7b1e60d6dc427e]
@startuml
autonumber
actor "Receptionist" as OE

activate OE
OE -> ":System" : Starts to register a new SNS user
activate ":System"
":System" - -> OE : requests data (snsNumber,name, age,phoneNum,email)
deactivate ":System"

OE -> ":System" : types requested data
activate ":System"
":System" - -> OE : shows all data and requests confirmation
deactivate ":System"

OE -> ":System" : confirms the data
activate ":System"
":System" - -> OE : informs operation success
deactivate ":System"

deactivate OE

@enduml

PlantUML version 1.2021.11(Sat Oct 02 14:26:11 BST 2021)
(GPL source distribution)
Java Runtime: OpenJDK Runtime Environment
JVM: OpenJDK 64-Bit Server VM
Default Encoding: Cp1252
Language: pt
Country: PT
--></g></svg>