<?xml version="1.0" encoding="UTF-8" standalone="no"?><svg xmlns="http://www.w3.org/2000/svg" xmlns:xlink="http://www.w3.org/1999/xlink" contentScriptType="application/ecmascript" contentStyleType="text/css" height="470px" preserveAspectRatio="none" style="width:1236px;height:470px;background:#FFFFFF;" version="1.1" viewBox="0 0 1236 470" width="1236px" zoomAndPan="magnify"><defs><filter height="300%" id="f7kxa6lf0lwa9" width="300%" x="-1" y="-1"><feGaussianBlur result="blurOut" stdDeviation="2.0"/><feColorMatrix in="blurOut" result="blurOut2" type="matrix" values="0 0 0 0 0 0 0 0 0 0 0 0 0 0 0 0 0 0 .4 0"/><feOffset dx="4.0" dy="4.0" in="blurOut2" result="blurOut3"/><feBlend in="SourceGraphic" in2="blurOut3" mode="normal"/></filter></defs><g><rect fill="#FFFFFF" filter="url(#f7kxa6lf0lwa9)" height="267.1641" style="stroke:#A80036;stroke-width:1.0;" width="10" x="44.5" y="99.6094"/><rect fill="#FFFFFF" filter="url(#f7kxa6lf0lwa9)" height="244.8125" style="stroke:#A80036;stroke-width:1.0;" width="10" x="319.5" y="121.9609"/><rect fill="#FFFFFF" filter="url(#f7kxa6lf0lwa9)" height="184.1094" style="stroke:#A80036;stroke-width:1.0;" width="10" x="527.5" y="152.3125"/><rect fill="#FFFFFF" filter="url(#f7kxa6lf0lwa9)" height="86.0547" style="stroke:#A80036;stroke-width:1.0;" width="10" x="677.5" y="152.3125"/><rect fill="#FFFFFF" filter="url(#f7kxa6lf0lwa9)" height="30.3516" style="stroke:#A80036;stroke-width:1.0;" width="10" x="783" y="268.7188"/><rect fill="#FFFFFF" filter="url(#f7kxa6lf0lwa9)" height="139.7578" style="stroke:#000000;stroke-width:2.0;" width="761.5" x="461" y="167.3125"/><line style="stroke:#A80036;stroke-width:1.0;stroke-dasharray:5.0,5.0;" x1="49" x2="49" y1="89.6094" y2="384.7734"/><line style="stroke:#A80036;stroke-width:1.0;stroke-dasharray:5.0,5.0;" x1="324" x2="324" y1="89.6094" y2="384.7734"/><line style="stroke:#A80036;stroke-width:1.0;stroke-dasharray:5.0,5.0;" x1="532" x2="532" y1="89.6094" y2="384.7734"/><line style="stroke:#A80036;stroke-width:1.0;stroke-dasharray:5.0,5.0;" x1="682" x2="682" y1="89.6094" y2="384.7734"/><line style="stroke:#A80036;stroke-width:1.0;stroke-dasharray:5.0,5.0;" x1="788" x2="788" y1="89.6094" y2="384.7734"/><line style="stroke:#A80036;stroke-width:1.0;stroke-dasharray:5.0,5.0;" x1="1174.5" x2="1174.5" y1="89.6094" y2="384.7734"/><text fill="#000000" font-family="sans-serif" font-size="14" lengthAdjust="spacing" textLength="83" x="5" y="86.5332">Administrator</text><ellipse cx="49.5" cy="15" fill="#FEFECE" filter="url(#f7kxa6lf0lwa9)" rx="8" ry="8" style="stroke:#A80036;stroke-width:2.0;"/><path d="M49.5,23 L49.5,50 M36.5,31 L62.5,31 M49.5,50 L36.5,65 M49.5,50 L62.5,65 " fill="none" filter="url(#f7kxa6lf0lwa9)" style="stroke:#A80036;stroke-width:2.0;"/><text fill="#000000" font-family="sans-serif" font-size="14" lengthAdjust="spacing" textLength="83" x="5" y="398.3066">Administrator</text><ellipse cx="49.5" cy="411.3828" fill="#FEFECE" filter="url(#f7kxa6lf0lwa9)" rx="8" ry="8" style="stroke:#A80036;stroke-width:2.0;"/><path d="M49.5,419.3828 L49.5,446.3828 M36.5,427.3828 L62.5,427.3828 M49.5,446.3828 L36.5,461.3828 M49.5,446.3828 L62.5,461.3828 " fill="none" filter="url(#f7kxa6lf0lwa9)" style="stroke:#A80036;stroke-width:2.0;"/><rect fill="#FEFECE" filter="url(#f7kxa6lf0lwa9)" height="31.6094" style="stroke:#A80036;stroke-width:1.5;" width="113" x="266" y="53"/><text fill="#000000" font-family="sans-serif" font-size="14" lengthAdjust="spacing" textLength="99" x="273" y="74.5332">:AdministratorUI</text><rect fill="#FEFECE" filter="url(#f7kxa6lf0lwa9)" height="31.6094" style="stroke:#A80036;stroke-width:1.5;" width="113" x="266" y="383.7734"/><text fill="#000000" font-family="sans-serif" font-size="14" lengthAdjust="spacing" textLength="99" x="273" y="405.3066">:AdministratorUI</text><rect fill="#FEFECE" filter="url(#f7kxa6lf0lwa9)" height="31.6094" style="stroke:#A80036;stroke-width:1.5;" width="119" x="471" y="53"/><text fill="#000000" font-family="sans-serif" font-size="14" lengthAdjust="spacing" textLength="105" x="478" y="74.5332">:AdminController</text><rect fill="#FEFECE" filter="url(#f7kxa6lf0lwa9)" height="31.6094" style="stroke:#A80036;stroke-width:1.5;" width="119" x="471" y="383.7734"/><text fill="#000000" font-family="sans-serif" font-size="14" lengthAdjust="spacing" textLength="105" x="478" y="405.3066">:AdminController</text><rect fill="#FEFECE" filter="url(#f7kxa6lf0lwa9)" height="49.2188" style="stroke:#A80036;stroke-width:1.5;" width="105" x="628" y="35.3906"/><text fill="#000000" font-family="sans-serif" font-size="14" lengthAdjust="spacing" textLength="27" x="665" y="56.9238">:File</text><text fill="#000000" font-family="sans-serif" font-size="14" lengthAdjust="spacing" textLength="87" x="639" y="74.5332">&lt;&lt;Interface&gt;&gt;</text><rect fill="#FEFECE" filter="url(#f7kxa6lf0lwa9)" height="49.2188" style="stroke:#A80036;stroke-width:1.5;" width="105" x="628" y="383.7734"/><text fill="#000000" font-family="sans-serif" font-size="14" lengthAdjust="spacing" textLength="27" x="665" y="405.3066">:File</text><text fill="#000000" font-family="sans-serif" font-size="14" lengthAdjust="spacing" textLength="87" x="639" y="422.916">&lt;&lt;Interface&gt;&gt;</text><rect fill="#FEFECE" filter="url(#f7kxa6lf0lwa9)" height="31.6094" style="stroke:#A80036;stroke-width:1.5;" width="78" x="747" y="53"/><text fill="#000000" font-family="sans-serif" font-size="14" lengthAdjust="spacing" textLength="64" x="754" y="74.5332">:Company</text><rect fill="#FEFECE" filter="url(#f7kxa6lf0lwa9)" height="31.6094" style="stroke:#A80036;stroke-width:1.5;" width="78" x="747" y="383.7734"/><text fill="#000000" font-family="sans-serif" font-size="14" lengthAdjust="spacing" textLength="64" x="754" y="405.3066">:Company</text><rect fill="#FEFECE" filter="url(#f7kxa6lf0lwa9)" height="31.6094" style="stroke:#A80036;stroke-width:1.5;" width="71" x="1137.5" y="53"/><text fill="#000000" font-family="sans-serif" font-size="14" lengthAdjust="spacing" textLength="57" x="1144.5" y="74.5332">:SnsUser</text><rect fill="#FEFECE" filter="url(#f7kxa6lf0lwa9)" height="31.6094" style="stroke:#A80036;stroke-width:1.5;" width="71" x="1137.5" y="383.7734"/><text fill="#000000" font-family="sans-serif" font-size="14" lengthAdjust="spacing" textLength="57" x="1144.5" y="405.3066">:SnsUser</text><rect fill="#FFFFFF" filter="url(#f7kxa6lf0lwa9)" height="267.1641" style="stroke:#A80036;stroke-width:1.0;" width="10" x="44.5" y="99.6094"/><rect fill="#FFFFFF" filter="url(#f7kxa6lf0lwa9)" height="244.8125" style="stroke:#A80036;stroke-width:1.0;" width="10" x="319.5" y="121.9609"/><rect fill="#FFFFFF" filter="url(#f7kxa6lf0lwa9)" height="184.1094" style="stroke:#A80036;stroke-width:1.0;" width="10" x="527.5" y="152.3125"/><rect fill="#FFFFFF" filter="url(#f7kxa6lf0lwa9)" height="86.0547" style="stroke:#A80036;stroke-width:1.0;" width="10" x="677.5" y="152.3125"/><rect fill="#FFFFFF" filter="url(#f7kxa6lf0lwa9)" height="30.3516" style="stroke:#A80036;stroke-width:1.0;" width="10" x="783" y="268.7188"/><polygon fill="#A80036" points="307.5,117.9609,317.5,121.9609,307.5,125.9609,311.5,121.9609" style="stroke:#A80036;stroke-width:1.0;"/><line style="stroke:#A80036;stroke-width:1.0;" x1="54.5" x2="313.5" y1="121.9609" y2="121.9609"/><text fill="#000000" font-family="sans-serif" font-size="13" font-weight="bold" lengthAdjust="spacing" textLength="7" x="61.5" y="117.1045">1</text><text fill="#000000" font-family="sans-serif" font-size="13" lengthAdjust="spacing" textLength="235" x="72.5" y="117.1045">Asks to input SNS users from a CSV file</text><polygon fill="#A80036" points="515.5,148.3125,525.5,152.3125,515.5,156.3125,519.5,152.3125" style="stroke:#A80036;stroke-width:1.0;"/><line style="stroke:#A80036;stroke-width:1.0;" x1="329.5" x2="521.5" y1="152.3125" y2="152.3125"/><text fill="#000000" font-family="sans-serif" font-size="13" font-weight="bold" lengthAdjust="spacing" textLength="7" x="336.5" y="147.4561">2</text><text fill="#000000" font-family="sans-serif" font-size="13" lengthAdjust="spacing" textLength="95" x="347.5" y="147.4561">importFromFile()</text><path d="M461,167.3125 L534,167.3125 L534,175.3125 L524,185.3125 L461,185.3125 L461,167.3125 " fill="#EEEEEE" style="stroke:#000000;stroke-width:1.0;"/><rect fill="none" height="139.7578" style="stroke:#000000;stroke-width:2.0;" width="761.5" x="461" y="167.3125"/><text fill="#000000" font-family="sans-serif" font-size="13" font-weight="bold" lengthAdjust="spacing" textLength="28" x="476" y="181.8076">loop</text><polygon fill="#A80036" points="665.5,204.0156,675.5,208.0156,665.5,212.0156,669.5,208.0156" style="stroke:#A80036;stroke-width:1.0;"/><line style="stroke:#A80036;stroke-width:1.0;" x1="537.5" x2="671.5" y1="208.0156" y2="208.0156"/><text fill="#000000" font-family="sans-serif" font-size="13" font-weight="bold" lengthAdjust="spacing" textLength="7" x="544.5" y="203.1592">3</text><text fill="#000000" font-family="sans-serif" font-size="13" lengthAdjust="spacing" textLength="105" x="555.5" y="203.1592">reads info from file</text><polygon fill="#A80036" points="548.5,234.3672,538.5,238.3672,548.5,242.3672,544.5,238.3672" style="stroke:#A80036;stroke-width:1.0;"/><line style="stroke:#A80036;stroke-width:1.0;" x1="542.5" x2="681.5" y1="238.3672" y2="238.3672"/><text fill="#000000" font-family="sans-serif" font-size="13" font-weight="bold" lengthAdjust="spacing" textLength="7" x="554.5" y="233.5107">4</text><text fill="#000000" font-family="sans-serif" font-size="13" lengthAdjust="spacing" textLength="101" x="565.5" y="233.5107">splits info into list</text><polygon fill="#A80036" points="771,264.7188,781,268.7188,771,272.7188,775,268.7188" style="stroke:#A80036;stroke-width:1.0;"/><line style="stroke:#A80036;stroke-width:1.0;" x1="537.5" x2="777" y1="268.7188" y2="268.7188"/><text fill="#000000" font-family="sans-serif" font-size="13" font-weight="bold" lengthAdjust="spacing" textLength="7" x="544.5" y="263.8623">5</text><text fill="#000000" font-family="sans-serif" font-size="13" lengthAdjust="spacing" textLength="154" x="555.5" y="263.8623">gives info about Sns Users</text><polygon fill="#A80036" points="1163,295.0703,1173,299.0703,1163,303.0703,1167,299.0703" style="stroke:#A80036;stroke-width:1.0;"/><line style="stroke:#A80036;stroke-width:1.0;stroke-dasharray:2.0,2.0;" x1="788" x2="1169" y1="299.0703" y2="299.0703"/><text fill="#000000" font-family="sans-serif" font-size="13" font-weight="bold" lengthAdjust="spacing" textLength="7" x="795" y="294.2139">6</text><text fill="#000000" font-family="sans-serif" font-size="13" lengthAdjust="spacing" textLength="347" x="806" y="294.2139">creates snsuser(snsNumber;name;age;phoneNumber;email)</text><polygon fill="#A80036" points="340.5,332.4219,330.5,336.4219,340.5,340.4219,336.5,336.4219" style="stroke:#A80036;stroke-width:1.0;"/><line style="stroke:#A80036;stroke-width:1.0;stroke-dasharray:2.0,2.0;" x1="334.5" x2="531.5" y1="336.4219" y2="336.4219"/><text fill="#000000" font-family="sans-serif" font-size="13" font-weight="bold" lengthAdjust="spacing" textLength="7" x="346.5" y="331.5654">7</text><text fill="#000000" font-family="sans-serif" font-size="13" lengthAdjust="spacing" textLength="163" x="357.5" y="331.5654">inform operation (in)success</text><polygon fill="#A80036" points="60.5,362.7734,50.5,366.7734,60.5,370.7734,56.5,366.7734" style="stroke:#A80036;stroke-width:1.0;"/><line style="stroke:#A80036;stroke-width:1.0;stroke-dasharray:2.0,2.0;" x1="54.5" x2="323.5" y1="366.7734" y2="366.7734"/><text fill="#000000" font-family="sans-serif" font-size="13" font-weight="bold" lengthAdjust="spacing" textLength="7" x="66.5" y="361.917">8</text><text fill="#000000" font-family="sans-serif" font-size="13" lengthAdjust="spacing" textLength="163" x="77.5" y="361.917">inform operation (in)success</text><!--MD5=[9b071eaa15c7ae489668d57b647f520b]
@startuml
autonumber

actor "Administrator" as ADM

participant ":AdministratorUI" as UI
participant ":AdminController" as CTRL
participant ":File \n <<Interface>>" as FILE
participant ":Company" as ORG
participant ":SnsUser" as USER


activate ADM
ADM -> UI :Asks to input SNS users from a CSV file
activate UI
UI -> CTRL: importFromFile()
activate CTRL
 loop
activate FILE
CTRL -> FILE: reads info from file
FILE -> CTRL: splits info into list
deactivate FILE
CTRL -> ORG: gives info about Sns Users
activate ORG
ORG - -> USER:creates snsuser(snsNumber;name;age;phoneNumber;email)
deactivate ORG
end loop
CTRL - -> UI: inform operation (in)success
deactivate CTRL
UI - -> ADM: inform operation (in)success
deactivate UI

deactivate ADM


@enduml

PlantUML version 1.2021.11(Sat Oct 02 14:26:11 BST 2021)
(GPL source distribution)
Java Runtime: OpenJDK Runtime Environment
JVM: OpenJDK 64-Bit Server VM
Default Encoding: Cp1252
Language: pt
Country: PT
--></g></svg>