<?xml version="1.0" encoding="UTF-8" standalone="no"?><svg xmlns="http://www.w3.org/2000/svg" xmlns:xlink="http://www.w3.org/1999/xlink" contentScriptType="application/ecmascript" contentStyleType="text/css" height="593px" preserveAspectRatio="none" style="width:562px;height:593px;background:#FFFFFF;" version="1.1" viewBox="0 0 562 593" width="562px" zoomAndPan="magnify"><defs><filter height="300%" id="f1gls8tkwaotiu" width="300%" x="-1" y="-1"><feGaussianBlur result="blurOut" stdDeviation="2.0"/><feColorMatrix in="blurOut" result="blurOut2" type="matrix" values="0 0 0 0 0 0 0 0 0 0 0 0 0 0 0 0 0 0 .4 0"/><feOffset dx="4.0" dy="4.0" in="blurOut2" result="blurOut3"/><feBlend in="SourceGraphic" in2="blurOut3" mode="normal"/></filter></defs><g><!--MD5=[02e4b9b7573f1156f41e60aa5b4e25a4]
class Company--><rect codeLine="3" fill="#FEFECE" filter="url(#f1gls8tkwaotiu)" height="103.3438" id="Company" style="stroke:#A80036;stroke-width:1.5;" width="410" x="7" y="281"/><ellipse cx="181.25" cy="297" fill="#ADD1B2" rx="11" ry="11" style="stroke:#A80036;stroke-width:1.0;"/><path d="M183.25,293.5 Q183.4531,293 183.6875,292.75 Q183.9219,292.5 184.1875,292.5 Q184.6563,292.5 184.9531,292.7813 Q185.25,293.0625 185.25,293.7188 L185.25,295.2813 Q185.25,295.9375 184.9688,296.2188 Q184.6875,296.5 184.25,296.5 Q183.8594,296.5 183.6094,296.3281 Q183.3594,296.1563 183.25,295.7031 Q183.2031,295.3906 183.0313,295.2188 Q182.7188,294.8906 182.1563,294.7031 Q181.5938,294.5 181.0313,294.5 Q180.3281,294.5 179.7344,294.7813 Q179.1563,295.0625 178.7031,295.6875 Q178.25,296.3125 178.25,297.1719 L178.25,298.0938 Q178.25,299.125 179.0938,299.8125 Q179.9375,300.5 181.4375,300.5 Q182.3281,300.5 182.9531,300.2969 Q183.3125,300.1875 183.7188,299.8281 Q183.9844,299.625 184.125,299.5625 Q184.2656,299.5 184.4375,299.5 Q184.7656,299.5 185,299.7656 Q185.25,300.0156 185.25,300.375 Q185.25,300.7188 184.9063,301.125 Q184.4063,301.7188 183.6094,302.0469 Q182.5625,302.5 181.2813,302.5 Q179.7813,302.5 178.5781,301.9063 Q177.6094,301.4375 176.9219,300.4219 Q176.25,299.4063 176.25,298.2031 L176.25,297.1094 Q176.25,295.8594 176.8438,294.7656 Q177.4531,293.6719 178.5,293.0938 Q179.5625,292.5 180.75,292.5 Q181.4688,292.5 182.0938,292.75 Q182.7188,293 183.25,293.5 Z " fill="#000000"/><text fill="#000000" font-family="sans-serif" font-size="12" lengthAdjust="spacing" textLength="53" x="201.75" y="301.9102">Company</text><line style="stroke:#A80036;stroke-width:1.5;" x1="8" x2="416" y1="313" y2="313"/><text fill="#000000" font-family="sans-serif" font-size="11" lengthAdjust="spacing" textLength="93" x="13" y="328.4189">-String designation;</text><text fill="#000000" font-family="sans-serif" font-size="11" lengthAdjust="spacing" textLength="126" x="13" y="342.2549">-AuthFacade authFacade;</text><line style="stroke:#A80036;stroke-width:1.5;" x1="8" x2="416" y1="348.6719" y2="348.6719"/><text fill="#000000" font-family="sans-serif" font-size="11" lengthAdjust="spacing" textLength="398" x="13" y="364.0908">+Organization(name, VatNumber, webSite, phone, email, postalAddress, manager)</text><text fill="#000000" font-family="sans-serif" font-size="11" lengthAdjust="spacing" textLength="289" x="13" y="377.9268">+createSnsUser(snsNumber;name;age;phoneNumber;email)</text><!--MD5=[4b10d7a6977b22f9b7afa06230f82a98]
class AdminController--><rect codeLine="11" fill="#FEFECE" filter="url(#f1gls8tkwaotiu)" height="75.6719" id="AdminController" style="stroke:#A80036;stroke-width:1.5;" width="194" x="259" y="144"/><ellipse cx="307.25" cy="160" fill="#ADD1B2" rx="11" ry="11" style="stroke:#A80036;stroke-width:1.0;"/><path d="M309.25,156.5 Q309.4531,156 309.6875,155.75 Q309.9219,155.5 310.1875,155.5 Q310.6563,155.5 310.9531,155.7813 Q311.25,156.0625 311.25,156.7188 L311.25,158.2813 Q311.25,158.9375 310.9688,159.2188 Q310.6875,159.5 310.25,159.5 Q309.8594,159.5 309.6094,159.3281 Q309.3594,159.1563 309.25,158.7031 Q309.2031,158.3906 309.0313,158.2188 Q308.7188,157.8906 308.1563,157.7031 Q307.5938,157.5 307.0313,157.5 Q306.3281,157.5 305.7344,157.7813 Q305.1563,158.0625 304.7031,158.6875 Q304.25,159.3125 304.25,160.1719 L304.25,161.0938 Q304.25,162.125 305.0938,162.8125 Q305.9375,163.5 307.4375,163.5 Q308.3281,163.5 308.9531,163.2969 Q309.3125,163.1875 309.7188,162.8281 Q309.9844,162.625 310.125,162.5625 Q310.2656,162.5 310.4375,162.5 Q310.7656,162.5 311,162.7656 Q311.25,163.0156 311.25,163.375 Q311.25,163.7188 310.9063,164.125 Q310.4063,164.7188 309.6094,165.0469 Q308.5625,165.5 307.2813,165.5 Q305.7813,165.5 304.5781,164.9063 Q303.6094,164.4375 302.9219,163.4219 Q302.25,162.4063 302.25,161.2031 L302.25,160.1094 Q302.25,158.8594 302.8438,157.7656 Q303.4531,156.6719 304.5,156.0938 Q305.5625,155.5 306.75,155.5 Q307.4688,155.5 308.0938,155.75 Q308.7188,156 309.25,156.5 Z " fill="#000000"/><text fill="#000000" font-family="sans-serif" font-size="12" lengthAdjust="spacing" textLength="89" x="327.75" y="164.9102">AdminController</text><line style="stroke:#A80036;stroke-width:1.5;" x1="260" x2="452" y1="176" y2="176"/><line style="stroke:#A80036;stroke-width:1.5;" x1="260" x2="452" y1="184" y2="184"/><text fill="#000000" font-family="sans-serif" font-size="11" lengthAdjust="spacing" textLength="182" x="265" y="199.4189">+AdminController(Company company)</text><text fill="#000000" font-family="sans-serif" font-size="11" lengthAdjust="spacing" textLength="154" x="265" y="213.2549">+importFromFile(String filename)</text><!--MD5=[9128c02ce84da732ed6e004fcd91c0b1]
class AdmininistratorUI--><rect codeLine="16" fill="#FEFECE" filter="url(#f1gls8tkwaotiu)" height="75.6719" id="AdmininistratorUI" style="stroke:#A80036;stroke-width:1.5;" width="183" x="264.5" y="7"/><ellipse cx="304.7" cy="23" fill="#ADD1B2" rx="11" ry="11" style="stroke:#A80036;stroke-width:1.0;"/><path d="M306.7,19.5 Q306.9031,19 307.1375,18.75 Q307.3719,18.5 307.6375,18.5 Q308.1063,18.5 308.4031,18.7813 Q308.7,19.0625 308.7,19.7188 L308.7,21.2813 Q308.7,21.9375 308.4188,22.2188 Q308.1375,22.5 307.7,22.5 Q307.3094,22.5 307.0594,22.3281 Q306.8094,22.1563 306.7,21.7031 Q306.6531,21.3906 306.4813,21.2188 Q306.1688,20.8906 305.6063,20.7031 Q305.0438,20.5 304.4813,20.5 Q303.7781,20.5 303.1844,20.7813 Q302.6063,21.0625 302.1531,21.6875 Q301.7,22.3125 301.7,23.1719 L301.7,24.0938 Q301.7,25.125 302.5438,25.8125 Q303.3875,26.5 304.8875,26.5 Q305.7781,26.5 306.4031,26.2969 Q306.7625,26.1875 307.1688,25.8281 Q307.4344,25.625 307.575,25.5625 Q307.7156,25.5 307.8875,25.5 Q308.2156,25.5 308.45,25.7656 Q308.7,26.0156 308.7,26.375 Q308.7,26.7188 308.3563,27.125 Q307.8563,27.7188 307.0594,28.0469 Q306.0125,28.5 304.7313,28.5 Q303.2313,28.5 302.0281,27.9063 Q301.0594,27.4375 300.3719,26.4219 Q299.7,25.4063 299.7,24.2031 L299.7,23.1094 Q299.7,21.8594 300.2938,20.7656 Q300.9031,19.6719 301.95,19.0938 Q303.0125,18.5 304.2,18.5 Q304.9188,18.5 305.5438,18.75 Q306.1688,19 306.7,19.5 Z " fill="#000000"/><text fill="#000000" font-family="sans-serif" font-size="12" lengthAdjust="spacing" textLength="95" x="324.3" y="27.9102">AdmininistratorUI</text><line style="stroke:#A80036;stroke-width:1.5;" x1="265.5" x2="446.5" y1="39" y2="39"/><text fill="#000000" font-family="sans-serif" font-size="11" lengthAdjust="spacing" textLength="98" x="270.5" y="54.4189">+Company company</text><text fill="#000000" font-family="sans-serif" font-size="11" lengthAdjust="spacing" textLength="171" x="270.5" y="68.2549">+AdminController snsuserController</text><line style="stroke:#A80036;stroke-width:1.5;" x1="265.5" x2="446.5" y1="74.6719" y2="74.6719"/><!--MD5=[63dd87716ef75a5caca5dce59428e94a]
class File--><rect codeLine="21" fill="#FEFECE" filter="url(#f1gls8tkwaotiu)" height="75.6719" id="File" style="stroke:#A80036;stroke-width:1.5;" width="96" x="452" y="294.5"/><ellipse cx="486.8" cy="310.5" fill="#B4A7E5" rx="11" ry="11" style="stroke:#A80036;stroke-width:1.0;"/><path d="M487.8,307.5 L487.8,313.5 L489.8,313.5 L490.2844,313.5 L490.8,314.125 L490.8,314.5 L490.8,314.875 L490.2844,315.5 L489.8,315.5 L483.8,315.5 L483.3156,315.5 L482.8,314.875 L482.8,314.5 L482.8,314.125 L483.3156,313.5 L483.8,313.5 L485.8,313.5 L485.8,307.5 L483.8,307.5 L483.3156,307.5 L482.8,306.875 L482.8,306.5 L482.8,306.125 L483.3156,305.5 L483.8,305.5 L489.8,305.5 L490.2844,305.5 L490.8,306.125 L490.8,306.5 L490.8,306.875 L490.2844,307.5 L489.8,307.5 L487.8,307.5 Z " fill="#000000"/><text fill="#000000" font-family="sans-serif" font-size="12" font-style="italic" lengthAdjust="spacing" textLength="20" x="505.2" y="315.4102">File</text><line style="stroke:#A80036;stroke-width:1.5;" x1="453" x2="547" y1="326.5" y2="326.5"/><text fill="#000000" font-family="sans-serif" font-size="11" lengthAdjust="spacing" textLength="84" x="458" y="341.9189">+BufferedReader</text><text fill="#000000" font-family="sans-serif" font-size="11" lengthAdjust="spacing" textLength="59" x="458" y="355.7549">+splitintoList</text><line style="stroke:#A80036;stroke-width:1.5;" x1="453" x2="547" y1="362.1719" y2="362.1719"/><!--MD5=[c4593935f45e4a2a0cefc4788932b53f]
class SnsUser--><rect codeLine="26" fill="#FEFECE" filter="url(#f1gls8tkwaotiu)" height="117.1797" id="SnsUser" style="stroke:#A80036;stroke-width:1.5;" width="83" x="170.5" y="462"/><ellipse cx="186.4" cy="478" fill="#ADD1B2" rx="11" ry="11" style="stroke:#A80036;stroke-width:1.0;"/><path d="M188.4,474.5 Q188.6031,474 188.8375,473.75 Q189.0719,473.5 189.3375,473.5 Q189.8063,473.5 190.1031,473.7813 Q190.4,474.0625 190.4,474.7188 L190.4,476.2813 Q190.4,476.9375 190.1188,477.2188 Q189.8375,477.5 189.4,477.5 Q189.0094,477.5 188.7594,477.3281 Q188.5094,477.1563 188.4,476.7031 Q188.3531,476.3906 188.1813,476.2188 Q187.8688,475.8906 187.3063,475.7031 Q186.7438,475.5 186.1813,475.5 Q185.4781,475.5 184.8844,475.7813 Q184.3063,476.0625 183.8531,476.6875 Q183.4,477.3125 183.4,478.1719 L183.4,479.0938 Q183.4,480.125 184.2438,480.8125 Q185.0875,481.5 186.5875,481.5 Q187.4781,481.5 188.1031,481.2969 Q188.4625,481.1875 188.8688,480.8281 Q189.1344,480.625 189.275,480.5625 Q189.4156,480.5 189.5875,480.5 Q189.9156,480.5 190.15,480.7656 Q190.4,481.0156 190.4,481.375 Q190.4,481.7188 190.0563,482.125 Q189.5563,482.7188 188.7594,483.0469 Q187.7125,483.5 186.4313,483.5 Q184.9313,483.5 183.7281,482.9063 Q182.7594,482.4375 182.0719,481.4219 Q181.4,480.4063 181.4,479.2031 L181.4,478.1094 Q181.4,476.8594 181.9938,475.7656 Q182.6031,474.6719 183.65,474.0938 Q184.7125,473.5 185.9,473.5 Q186.6188,473.5 187.2438,473.75 Q187.8688,474 188.4,474.5 Z " fill="#000000"/><text fill="#000000" font-family="sans-serif" font-size="12" lengthAdjust="spacing" textLength="49" x="200.6" y="482.9102">SnsUser</text><line style="stroke:#A80036;stroke-width:1.5;" x1="171.5" x2="252.5" y1="494" y2="494"/><text fill="#000000" font-family="sans-serif" font-size="11" lengthAdjust="spacing" textLength="59" x="176.5" y="509.4189">-snsNumber</text><text fill="#000000" font-family="sans-serif" font-size="11" lengthAdjust="spacing" textLength="30" x="176.5" y="523.2549">-name</text><text fill="#000000" font-family="sans-serif" font-size="11" lengthAdjust="spacing" textLength="22" x="176.5" y="537.0908">-age</text><text fill="#000000" font-family="sans-serif" font-size="11" lengthAdjust="spacing" textLength="71" x="176.5" y="550.9268">-phoneNumber</text><text fill="#000000" font-family="sans-serif" font-size="11" lengthAdjust="spacing" textLength="28" x="176.5" y="564.7627">-email</text><line style="stroke:#A80036;stroke-width:1.5;" x1="171.5" x2="252.5" y1="571.1797" y2="571.1797"/><!--MD5=[6497bb671b437a086032aafad9a459ab]
link AdminController to File--><path codeLine="35" d="M391.97,220.09 C412.76,241.53 438.95,268.54 460.33,290.59 " fill="none" id="AdminController-to-File" style="stroke:#A80036;stroke-width:1.0;stroke-dasharray:7.0,7.0;"/><polygon fill="#A80036" points="463.99,294.37,460.5848,285.1285,460.5048,290.7848,454.8485,290.7048,463.99,294.37" style="stroke:#A80036;stroke-width:1.0;"/><!--MD5=[4f6ed501764ac6d5fa4a3e554a632e61]
link AdmininistratorUI to AdminController--><path codeLine="36" d="M356,83.25 C356,100.36 356,120.75 356,138.47 " fill="none" id="AdmininistratorUI-to-AdminController" style="stroke:#A80036;stroke-width:1.0;stroke-dasharray:7.0,7.0;"/><polygon fill="#A80036" points="356,143.87,360,134.87,356,138.87,352,134.87,356,143.87" style="stroke:#A80036;stroke-width:1.0;"/><!--MD5=[42f363e5ba79a810722c75d5482929e8]
link AdminController to Company--><path codeLine="37" d="M320.03,220.09 C303.32,237.32 283.12,258.16 264.73,277.13 " fill="none" id="AdminController-to-Company" style="stroke:#A80036;stroke-width:1.0;stroke-dasharray:7.0,7.0;"/><polygon fill="#A80036" points="261.07,280.89,270.2115,277.2248,264.5552,277.3048,264.4752,271.6485,261.07,280.89" style="stroke:#A80036;stroke-width:1.0;"/><!--MD5=[7ea5958ae75d1b49d8885d6c52a43a8a]
link Company to SnsUser--><path codeLine="42" d="M212,384.33 C212,406.62 212,433.03 212,456.56 " fill="none" id="Company-to-SnsUser" style="stroke:#A80036;stroke-width:1.0;"/><polygon fill="#A80036" points="212,461.84,216,452.84,212,456.84,208,452.84,212,461.84" style="stroke:#A80036;stroke-width:1.0;"/><text fill="#000000" font-family="sans-serif" font-size="13" lengthAdjust="spacing" textLength="30" x="213" y="428.4951">owns</text><text fill="#000000" font-family="sans-serif" font-size="13" lengthAdjust="spacing" textLength="7" x="204.5297" y="405.8653">1</text><text fill="#000000" font-family="sans-serif" font-size="13" lengthAdjust="spacing" textLength="5" x="206.6953" y="451.2214">*</text><!--MD5=[4143d4d1b9d7a8d1252ebc206a58bd4a]
@startuml
skinparam classAttributeIconSize 0

class Company {
    -String designation;
    -AuthFacade authFacade;
    +Organization(name, VatNumber, webSite, phone, email, postalAddress, manager)
    +createSnsUser(snsNumber;name;age;phoneNumber;email)
 }


class AdminController {
    +AdminController(Company company)
    +importFromFile(String filename)
}

class AdmininistratorUI {
    +Company company
    +AdminController snsuserController
}

interface File {
    +BufferedReader
    +splitintoList
}

class SnsUser{
    -snsNumber
    -name
    -age
    -phoneNumber
    -email
}


AdminController ..> File
 AdmininistratorUI ..> AdminController
 AdminController ..> Company




 Company "1" - -> "*" SnsUser : owns





@enduml

PlantUML version 1.2021.11(Sat Oct 02 14:26:11 BST 2021)
(GPL source distribution)
Java Runtime: OpenJDK Runtime Environment
JVM: OpenJDK 64-Bit Server VM
Default Encoding: Cp1252
Language: pt
Country: PT
--></g></svg>