<?xml version="1.0" encoding="UTF-8" standalone="no"?><svg xmlns="http://www.w3.org/2000/svg" xmlns:xlink="http://www.w3.org/1999/xlink" contentStyleType="text/css" height="687px" preserveAspectRatio="none" style="width:893px;height:687px;background:#FFFFFF;" version="1.1" viewBox="0 0 893 687" width="893px" zoomAndPan="magnify"><defs/><g><!--MD5=[f999011da0b255f482cec84e70f2aa63]
class CountAdministrationsUI--><g id="elem_CountAdministrationsUI"><rect codeLine="2" fill="#F1F1F1" height="48" id="CountAdministrationsUI" rx="2.5" ry="2.5" style="stroke:#181818;stroke-width:0.5;" width="178" x="32" y="7"/><ellipse cx="47" cy="23" fill="#ADD1B2" rx="11" ry="11" style="stroke:#181818;stroke-width:1.0;"/><path d="M49,19.5 Q49.2031,19 49.4375,18.75 Q49.6719,18.5 49.9375,18.5 Q50.4063,18.5 50.7031,18.7813 Q51,19.0625 51,19.7188 L51,21.2813 Q51,21.9375 50.7188,22.2188 Q50.4375,22.5 50,22.5 Q49.6094,22.5 49.3594,22.3281 Q49.1094,22.1563 49,21.7031 Q48.9531,21.3906 48.7813,21.2188 Q48.4688,20.8906 47.9063,20.7031 Q47.3438,20.5 46.7813,20.5 Q46.0781,20.5 45.4844,20.7813 Q44.9063,21.0625 44.4531,21.6875 Q44,22.3125 44,23.1719 L44,24.0938 Q44,25.125 44.8438,25.8125 Q45.6875,26.5 47.1875,26.5 Q48.0781,26.5 48.7031,26.2969 Q49.0625,26.1875 49.4688,25.8281 Q49.7344,25.625 49.875,25.5625 Q50.0156,25.5 50.1875,25.5 Q50.5156,25.5 50.75,25.7656 Q51,26.0156 51,26.375 Q51,26.7188 50.6563,27.125 Q50.1563,27.7188 49.3594,28.0469 Q48.3125,28.5 47.0313,28.5 Q45.5313,28.5 44.3281,27.9063 Q43.3594,27.4375 42.6719,26.4219 Q42,25.4063 42,24.2031 L42,23.1094 Q42,21.8594 42.5938,20.7656 Q43.2031,19.6719 44.25,19.0938 Q45.3125,18.5 46.5,18.5 Q47.2188,18.5 47.8438,18.75 Q48.4688,19 49,19.5 Z " fill="#000000"/><text fill="#000000" font-family="sans-serif" font-size="14" lengthAdjust="spacing" textLength="146" x="61" y="28.7285">CountAdministrationsUI</text><line style="stroke:#181818;stroke-width:0.5;" x1="33" x2="209" y1="39" y2="39"/><line style="stroke:#181818;stroke-width:0.5;" x1="33" x2="209" y1="47" y2="47"/></g><!--MD5=[d399ac92afd065bc9845163c23d73c11]
class CountAdministrationsController--><g id="elem_CountAdministrationsController"><rect codeLine="4" fill="#F1F1F1" height="48" id="CountAdministrationsController" rx="2.5" ry="2.5" style="stroke:#181818;stroke-width:0.5;" width="228" x="7" y="115"/><ellipse cx="22" cy="131" fill="#ADD1B2" rx="11" ry="11" style="stroke:#181818;stroke-width:1.0;"/><path d="M24,127.5 Q24.2031,127 24.4375,126.75 Q24.6719,126.5 24.9375,126.5 Q25.4063,126.5 25.7031,126.7813 Q26,127.0625 26,127.7188 L26,129.2813 Q26,129.9375 25.7188,130.2188 Q25.4375,130.5 25,130.5 Q24.6094,130.5 24.3594,130.3281 Q24.1094,130.1563 24,129.7031 Q23.9531,129.3906 23.7813,129.2188 Q23.4688,128.8906 22.9063,128.7031 Q22.3438,128.5 21.7813,128.5 Q21.0781,128.5 20.4844,128.7813 Q19.9063,129.0625 19.4531,129.6875 Q19,130.3125 19,131.1719 L19,132.0938 Q19,133.125 19.8438,133.8125 Q20.6875,134.5 22.1875,134.5 Q23.0781,134.5 23.7031,134.2969 Q24.0625,134.1875 24.4688,133.8281 Q24.7344,133.625 24.875,133.5625 Q25.0156,133.5 25.1875,133.5 Q25.5156,133.5 25.75,133.7656 Q26,134.0156 26,134.375 Q26,134.7188 25.6563,135.125 Q25.1563,135.7188 24.3594,136.0469 Q23.3125,136.5 22.0313,136.5 Q20.5313,136.5 19.3281,135.9063 Q18.3594,135.4375 17.6719,134.4219 Q17,133.4063 17,132.2031 L17,131.1094 Q17,129.8594 17.5938,128.7656 Q18.2031,127.6719 19.25,127.0938 Q20.3125,126.5 21.5,126.5 Q22.2188,126.5 22.8438,126.75 Q23.4688,127 24,127.5 Z " fill="#000000"/><text fill="#000000" font-family="sans-serif" font-size="14" lengthAdjust="spacing" textLength="196" x="36" y="136.7285">CountAdministrationsController</text><line style="stroke:#181818;stroke-width:0.5;" x1="8" x2="234" y1="147" y2="147"/><line style="stroke:#181818;stroke-width:0.5;" x1="8" x2="234" y1="155" y2="155"/></g><!--MD5=[335f4d9be48430461c68bf6d6fdba145]
class App--><g id="elem_App"><rect codeLine="6" fill="#F1F1F1" height="48" id="App" rx="2.5" ry="2.5" style="stroke:#181818;stroke-width:0.5;" width="57" x="141.5" y="223"/><ellipse cx="156.5" cy="239" fill="#ADD1B2" rx="11" ry="11" style="stroke:#181818;stroke-width:1.0;"/><path d="M158.5,235.5 Q158.7031,235 158.9375,234.75 Q159.1719,234.5 159.4375,234.5 Q159.9063,234.5 160.2031,234.7813 Q160.5,235.0625 160.5,235.7188 L160.5,237.2813 Q160.5,237.9375 160.2188,238.2188 Q159.9375,238.5 159.5,238.5 Q159.1094,238.5 158.8594,238.3281 Q158.6094,238.1563 158.5,237.7031 Q158.4531,237.3906 158.2813,237.2188 Q157.9688,236.8906 157.4063,236.7031 Q156.8438,236.5 156.2813,236.5 Q155.5781,236.5 154.9844,236.7813 Q154.4063,237.0625 153.9531,237.6875 Q153.5,238.3125 153.5,239.1719 L153.5,240.0938 Q153.5,241.125 154.3438,241.8125 Q155.1875,242.5 156.6875,242.5 Q157.5781,242.5 158.2031,242.2969 Q158.5625,242.1875 158.9688,241.8281 Q159.2344,241.625 159.375,241.5625 Q159.5156,241.5 159.6875,241.5 Q160.0156,241.5 160.25,241.7656 Q160.5,242.0156 160.5,242.375 Q160.5,242.7188 160.1563,243.125 Q159.6563,243.7188 158.8594,244.0469 Q157.8125,244.5 156.5313,244.5 Q155.0313,244.5 153.8281,243.9063 Q152.8594,243.4375 152.1719,242.4219 Q151.5,241.4063 151.5,240.2031 L151.5,239.1094 Q151.5,237.8594 152.0938,236.7656 Q152.7031,235.6719 153.75,235.0938 Q154.8125,234.5 156,234.5 Q156.7188,234.5 157.3438,234.75 Q157.9688,235 158.5,235.5 Z " fill="#000000"/><text fill="#000000" font-family="sans-serif" font-size="14" lengthAdjust="spacing" textLength="25" x="170.5" y="244.7285">App</text><line style="stroke:#181818;stroke-width:0.5;" x1="142.5" x2="197.5" y1="255" y2="255"/><line style="stroke:#181818;stroke-width:0.5;" x1="142.5" x2="197.5" y1="263" y2="263"/></g><!--MD5=[02e4b9b7573f1156f41e60aa5b4e25a4]
class Company--><g id="elem_Company"><rect codeLine="7" fill="#F1F1F1" height="48" id="Company" rx="2.5" ry="2.5" style="stroke:#181818;stroke-width:0.5;" width="92" x="133" y="331"/><ellipse cx="148" cy="347" fill="#ADD1B2" rx="11" ry="11" style="stroke:#181818;stroke-width:1.0;"/><path d="M150,343.5 Q150.2031,343 150.4375,342.75 Q150.6719,342.5 150.9375,342.5 Q151.4063,342.5 151.7031,342.7813 Q152,343.0625 152,343.7188 L152,345.2813 Q152,345.9375 151.7188,346.2188 Q151.4375,346.5 151,346.5 Q150.6094,346.5 150.3594,346.3281 Q150.1094,346.1563 150,345.7031 Q149.9531,345.3906 149.7813,345.2188 Q149.4688,344.8906 148.9063,344.7031 Q148.3438,344.5 147.7813,344.5 Q147.0781,344.5 146.4844,344.7813 Q145.9063,345.0625 145.4531,345.6875 Q145,346.3125 145,347.1719 L145,348.0938 Q145,349.125 145.8438,349.8125 Q146.6875,350.5 148.1875,350.5 Q149.0781,350.5 149.7031,350.2969 Q150.0625,350.1875 150.4688,349.8281 Q150.7344,349.625 150.875,349.5625 Q151.0156,349.5 151.1875,349.5 Q151.5156,349.5 151.75,349.7656 Q152,350.0156 152,350.375 Q152,350.7188 151.6563,351.125 Q151.1563,351.7188 150.3594,352.0469 Q149.3125,352.5 148.0313,352.5 Q146.5313,352.5 145.3281,351.9063 Q144.3594,351.4375 143.6719,350.4219 Q143,349.4063 143,348.2031 L143,347.1094 Q143,345.8594 143.5938,344.7656 Q144.2031,343.6719 145.25,343.0938 Q146.3125,342.5 147.5,342.5 Q148.2188,342.5 148.8438,342.75 Q149.4688,343 150,343.5 Z " fill="#000000"/><text fill="#000000" font-family="sans-serif" font-size="14" lengthAdjust="spacing" textLength="60" x="162" y="352.7285">Company</text><line style="stroke:#181818;stroke-width:0.5;" x1="134" x2="224" y1="363" y2="363"/><line style="stroke:#181818;stroke-width:0.5;" x1="134" x2="224" y1="371" y2="371"/></g><!--MD5=[de60e6d4f424ae4d0522096f76a59010]
class VaccinationCenter--><g id="elem_VaccinationCenter"><rect codeLine="8" fill="#F1F1F1" height="241.7031" id="VaccinationCenter" rx="2.5" ry="2.5" style="stroke:#181818;stroke-width:0.5;" width="148" x="615" y="439"/><ellipse cx="630" cy="455" fill="#ADD1B2" rx="11" ry="11" style="stroke:#181818;stroke-width:1.0;"/><path d="M632,451.5 Q632.2031,451 632.4375,450.75 Q632.6719,450.5 632.9375,450.5 Q633.4063,450.5 633.7031,450.7813 Q634,451.0625 634,451.7188 L634,453.2813 Q634,453.9375 633.7188,454.2188 Q633.4375,454.5 633,454.5 Q632.6094,454.5 632.3594,454.3281 Q632.1094,454.1563 632,453.7031 Q631.9531,453.3906 631.7813,453.2188 Q631.4688,452.8906 630.9063,452.7031 Q630.3438,452.5 629.7813,452.5 Q629.0781,452.5 628.4844,452.7813 Q627.9063,453.0625 627.4531,453.6875 Q627,454.3125 627,455.1719 L627,456.0938 Q627,457.125 627.8438,457.8125 Q628.6875,458.5 630.1875,458.5 Q631.0781,458.5 631.7031,458.2969 Q632.0625,458.1875 632.4688,457.8281 Q632.7344,457.625 632.875,457.5625 Q633.0156,457.5 633.1875,457.5 Q633.5156,457.5 633.75,457.7656 Q634,458.0156 634,458.375 Q634,458.7188 633.6563,459.125 Q633.1563,459.7188 632.3594,460.0469 Q631.3125,460.5 630.0313,460.5 Q628.5313,460.5 627.3281,459.9063 Q626.3594,459.4375 625.6719,458.4219 Q625,457.4063 625,456.2031 L625,455.1094 Q625,453.8594 625.5938,452.7656 Q626.2031,451.6719 627.25,451.0938 Q628.3125,450.5 629.5,450.5 Q630.2188,450.5 630.8438,450.75 Q631.4688,451 632,451.5 Z " fill="#000000"/><text fill="#000000" font-family="sans-serif" font-size="14" lengthAdjust="spacing" textLength="116" x="644" y="460.7285">VaccinationCenter</text><line style="stroke:#181818;stroke-width:0.5;" x1="616" x2="762" y1="471" y2="471"/><rect fill="none" height="6" style="stroke:#C82930;stroke-width:1.0;" width="6" x="623" y="479"/><text fill="#000000" font-family="sans-serif" font-size="14" lengthAdjust="spacing" textLength="35" x="635" y="489.5332">name</text><rect fill="none" height="6" style="stroke:#C82930;stroke-width:1.0;" width="6" x="623" y="496.6094"/><text fill="#000000" font-family="sans-serif" font-size="14" lengthAdjust="spacing" textLength="51" x="635" y="507.1426">address</text><rect fill="none" height="6" style="stroke:#C82930;stroke-width:1.0;" width="6" x="623" y="514.2188"/><text fill="#000000" font-family="sans-serif" font-size="14" lengthAdjust="spacing" textLength="89" x="635" y="524.752">phoneNumber</text><rect fill="none" height="6" style="stroke:#C82930;stroke-width:1.0;" width="6" x="623" y="531.8281"/><text fill="#000000" font-family="sans-serif" font-size="14" lengthAdjust="spacing" textLength="85" x="635" y="542.3613">emailAddress</text><rect fill="none" height="6" style="stroke:#C82930;stroke-width:1.0;" width="6" x="623" y="549.4375"/><text fill="#000000" font-family="sans-serif" font-size="14" lengthAdjust="spacing" textLength="67" x="635" y="559.9707">faxNumber</text><rect fill="none" height="6" style="stroke:#C82930;stroke-width:1.0;" width="6" x="623" y="567.0469"/><text fill="#000000" font-family="sans-serif" font-size="14" lengthAdjust="spacing" textLength="99" x="635" y="577.5801">websiteAddress</text><rect fill="none" height="6" style="stroke:#C82930;stroke-width:1.0;" width="6" x="623" y="584.6563"/><text fill="#000000" font-family="sans-serif" font-size="14" lengthAdjust="spacing" textLength="88" x="635" y="595.1895">openingHours</text><rect fill="none" height="6" style="stroke:#C82930;stroke-width:1.0;" width="6" x="623" y="602.2656"/><text fill="#000000" font-family="sans-serif" font-size="14" lengthAdjust="spacing" textLength="81" x="635" y="612.7988">closingHours</text><rect fill="none" height="6" style="stroke:#C82930;stroke-width:1.0;" width="6" x="623" y="619.875"/><text fill="#000000" font-family="sans-serif" font-size="14" lengthAdjust="spacing" textLength="76" x="635" y="630.4082">slotDuration</text><rect fill="none" height="6" style="stroke:#C82930;stroke-width:1.0;" width="6" x="623" y="637.4844"/><text fill="#000000" font-family="sans-serif" font-size="14" lengthAdjust="spacing" textLength="122" x="635" y="648.0176">maxNumVaxPerSlot</text><rect fill="none" height="6" style="stroke:#C82930;stroke-width:1.0;" width="6" x="623" y="655.0938"/><text fill="#000000" font-family="sans-serif" font-size="14" lengthAdjust="spacing" textLength="52" x="635" y="665.627">capacity</text><line style="stroke:#181818;stroke-width:0.5;" x1="616" x2="762" y1="672.7031" y2="672.7031"/></g><!--MD5=[a29876ea2f21a6ca48ea477740122fd8]
class VaccinationCenterStore--><g id="elem_VaccinationCenterStore"><rect codeLine="21" fill="#F1F1F1" height="48" id="VaccinationCenterStore" rx="2.5" ry="2.5" style="stroke:#181818;stroke-width:0.5;" width="182" x="398" y="536"/><ellipse cx="413" cy="552" fill="#ADD1B2" rx="11" ry="11" style="stroke:#181818;stroke-width:1.0;"/><path d="M415,548.5 Q415.2031,548 415.4375,547.75 Q415.6719,547.5 415.9375,547.5 Q416.4063,547.5 416.7031,547.7813 Q417,548.0625 417,548.7188 L417,550.2813 Q417,550.9375 416.7188,551.2188 Q416.4375,551.5 416,551.5 Q415.6094,551.5 415.3594,551.3281 Q415.1094,551.1563 415,550.7031 Q414.9531,550.3906 414.7813,550.2188 Q414.4688,549.8906 413.9063,549.7031 Q413.3438,549.5 412.7813,549.5 Q412.0781,549.5 411.4844,549.7813 Q410.9063,550.0625 410.4531,550.6875 Q410,551.3125 410,552.1719 L410,553.0938 Q410,554.125 410.8438,554.8125 Q411.6875,555.5 413.1875,555.5 Q414.0781,555.5 414.7031,555.2969 Q415.0625,555.1875 415.4688,554.8281 Q415.7344,554.625 415.875,554.5625 Q416.0156,554.5 416.1875,554.5 Q416.5156,554.5 416.75,554.7656 Q417,555.0156 417,555.375 Q417,555.7188 416.6563,556.125 Q416.1563,556.7188 415.3594,557.0469 Q414.3125,557.5 413.0313,557.5 Q411.5313,557.5 410.3281,556.9063 Q409.3594,556.4375 408.6719,555.4219 Q408,554.4063 408,553.2031 L408,552.1094 Q408,550.8594 408.5938,549.7656 Q409.2031,548.6719 410.25,548.0938 Q411.3125,547.5 412.5,547.5 Q413.2188,547.5 413.8438,547.75 Q414.4688,548 415,548.5 Z " fill="#000000"/><text fill="#000000" font-family="sans-serif" font-size="14" lengthAdjust="spacing" textLength="150" x="427" y="557.7285">VaccinationCenterStore</text><line style="stroke:#181818;stroke-width:0.5;" x1="399" x2="579" y1="568" y2="568"/><line style="stroke:#181818;stroke-width:0.5;" x1="399" x2="579" y1="576" y2="576"/></g><!--MD5=[72be06cc7ae02ccc98efe28a50e62246]
class SNSUser--><g id="elem_SNSUser"><rect codeLine="22" fill="#F1F1F1" height="48" id="SNSUser" rx="2.5" ry="2.5" style="stroke:#181818;stroke-width:0.5;" width="88" x="798" y="536"/><ellipse cx="813" cy="552" fill="#ADD1B2" rx="11" ry="11" style="stroke:#181818;stroke-width:1.0;"/><path d="M815,548.5 Q815.2031,548 815.4375,547.75 Q815.6719,547.5 815.9375,547.5 Q816.4063,547.5 816.7031,547.7813 Q817,548.0625 817,548.7188 L817,550.2813 Q817,550.9375 816.7188,551.2188 Q816.4375,551.5 816,551.5 Q815.6094,551.5 815.3594,551.3281 Q815.1094,551.1563 815,550.7031 Q814.9531,550.3906 814.7813,550.2188 Q814.4688,549.8906 813.9063,549.7031 Q813.3438,549.5 812.7813,549.5 Q812.0781,549.5 811.4844,549.7813 Q810.9063,550.0625 810.4531,550.6875 Q810,551.3125 810,552.1719 L810,553.0938 Q810,554.125 810.8438,554.8125 Q811.6875,555.5 813.1875,555.5 Q814.0781,555.5 814.7031,555.2969 Q815.0625,555.1875 815.4688,554.8281 Q815.7344,554.625 815.875,554.5625 Q816.0156,554.5 816.1875,554.5 Q816.5156,554.5 816.75,554.7656 Q817,555.0156 817,555.375 Q817,555.7188 816.6563,556.125 Q816.1563,556.7188 815.3594,557.0469 Q814.3125,557.5 813.0313,557.5 Q811.5313,557.5 810.3281,556.9063 Q809.3594,556.4375 808.6719,555.4219 Q808,554.4063 808,553.2031 L808,552.1094 Q808,550.8594 808.5938,549.7656 Q809.2031,548.6719 810.25,548.0938 Q811.3125,547.5 812.5,547.5 Q813.2188,547.5 813.8438,547.75 Q814.4688,548 815,548.5 Z " fill="#000000"/><text fill="#000000" font-family="sans-serif" font-size="14" lengthAdjust="spacing" textLength="56" x="827" y="557.7285">SNSUser</text><line style="stroke:#181818;stroke-width:0.5;" x1="799" x2="885" y1="568" y2="568"/><line style="stroke:#181818;stroke-width:0.5;" x1="799" x2="885" y1="576" y2="576"/></g><!--MD5=[d61987a7aa818eb3587ce913f2a7d429]
class Administration--><g id="elem_Administration"><rect codeLine="23" fill="#F1F1F1" height="48" id="Administration" rx="2.5" ry="2.5" style="stroke:#181818;stroke-width:0.5;" width="121" x="241.5" y="536"/><ellipse cx="256.5" cy="552" fill="#ADD1B2" rx="11" ry="11" style="stroke:#181818;stroke-width:1.0;"/><path d="M258.5,548.5 Q258.7031,548 258.9375,547.75 Q259.1719,547.5 259.4375,547.5 Q259.9063,547.5 260.2031,547.7813 Q260.5,548.0625 260.5,548.7188 L260.5,550.2813 Q260.5,550.9375 260.2188,551.2188 Q259.9375,551.5 259.5,551.5 Q259.1094,551.5 258.8594,551.3281 Q258.6094,551.1563 258.5,550.7031 Q258.4531,550.3906 258.2813,550.2188 Q257.9688,549.8906 257.4063,549.7031 Q256.8438,549.5 256.2813,549.5 Q255.5781,549.5 254.9844,549.7813 Q254.4063,550.0625 253.9531,550.6875 Q253.5,551.3125 253.5,552.1719 L253.5,553.0938 Q253.5,554.125 254.3438,554.8125 Q255.1875,555.5 256.6875,555.5 Q257.5781,555.5 258.2031,555.2969 Q258.5625,555.1875 258.9688,554.8281 Q259.2344,554.625 259.375,554.5625 Q259.5156,554.5 259.6875,554.5 Q260.0156,554.5 260.25,554.7656 Q260.5,555.0156 260.5,555.375 Q260.5,555.7188 260.1563,556.125 Q259.6563,556.7188 258.8594,557.0469 Q257.8125,557.5 256.5313,557.5 Q255.0313,557.5 253.8281,556.9063 Q252.8594,556.4375 252.1719,555.4219 Q251.5,554.4063 251.5,553.2031 L251.5,552.1094 Q251.5,550.8594 252.0938,549.7656 Q252.7031,548.6719 253.75,548.0938 Q254.8125,547.5 256,547.5 Q256.7188,547.5 257.3438,547.75 Q257.9688,548 258.5,548.5 Z " fill="#000000"/><text fill="#000000" font-family="sans-serif" font-size="14" lengthAdjust="spacing" textLength="89" x="270.5" y="557.7285">Administration</text><line style="stroke:#181818;stroke-width:0.5;" x1="242.5" x2="361.5" y1="568" y2="568"/><line style="stroke:#181818;stroke-width:0.5;" x1="242.5" x2="361.5" y1="576" y2="576"/></g><!--MD5=[11378d7f62f067c90a7d51a54be8d3d1]
class AdministrationStore--><g id="elem_AdministrationStore"><rect codeLine="24" fill="#F1F1F1" height="48" id="AdministrationStore" rx="2.5" ry="2.5" style="stroke:#181818;stroke-width:0.5;" width="155" x="51.5" y="536"/><ellipse cx="66.5" cy="552" fill="#ADD1B2" rx="11" ry="11" style="stroke:#181818;stroke-width:1.0;"/><path d="M68.5,548.5 Q68.7031,548 68.9375,547.75 Q69.1719,547.5 69.4375,547.5 Q69.9063,547.5 70.2031,547.7813 Q70.5,548.0625 70.5,548.7188 L70.5,550.2813 Q70.5,550.9375 70.2188,551.2188 Q69.9375,551.5 69.5,551.5 Q69.1094,551.5 68.8594,551.3281 Q68.6094,551.1563 68.5,550.7031 Q68.4531,550.3906 68.2813,550.2188 Q67.9688,549.8906 67.4063,549.7031 Q66.8438,549.5 66.2813,549.5 Q65.5781,549.5 64.9844,549.7813 Q64.4063,550.0625 63.9531,550.6875 Q63.5,551.3125 63.5,552.1719 L63.5,553.0938 Q63.5,554.125 64.3438,554.8125 Q65.1875,555.5 66.6875,555.5 Q67.5781,555.5 68.2031,555.2969 Q68.5625,555.1875 68.9688,554.8281 Q69.2344,554.625 69.375,554.5625 Q69.5156,554.5 69.6875,554.5 Q70.0156,554.5 70.25,554.7656 Q70.5,555.0156 70.5,555.375 Q70.5,555.7188 70.1563,556.125 Q69.6563,556.7188 68.8594,557.0469 Q67.8125,557.5 66.5313,557.5 Q65.0313,557.5 63.8281,556.9063 Q62.8594,556.4375 62.1719,555.4219 Q61.5,554.4063 61.5,553.2031 L61.5,552.1094 Q61.5,550.8594 62.0938,549.7656 Q62.7031,548.6719 63.75,548.0938 Q64.8125,547.5 66,547.5 Q66.7188,547.5 67.3438,547.75 Q67.9688,548 68.5,548.5 Z " fill="#000000"/><text fill="#000000" font-family="sans-serif" font-size="14" lengthAdjust="spacing" textLength="123" x="80.5" y="557.7285">AdministrationStore</text><line style="stroke:#181818;stroke-width:0.5;" x1="52.5" x2="205.5" y1="568" y2="568"/><line style="stroke:#181818;stroke-width:0.5;" x1="52.5" x2="205.5" y1="576" y2="576"/></g><!--MD5=[09815c2507707619e7cd59c998439343]
link CountAdministrationsUI to CountAdministrationsController--><g id="link_CountAdministrationsUI_CountAdministrationsController"><path codeLine="27" d="M121,55 C121,71 121,92.45 121,109.53 " fill="none" id="CountAdministrationsUI-to-CountAdministrationsController" style="stroke:#181818;stroke-width:1.0;stroke-dasharray:7.0,7.0;"/><polygon fill="#181818" points="121,114.68,125,105.68,121,109.68,117,105.68,121,114.68" style="stroke:#181818;stroke-width:1.0;"/></g><!--MD5=[8e25c356a86458e49dd2b92097111b0f]
link CountAdministrationsController to App--><g id="link_CountAdministrationsController_App"><path codeLine="28" d="M131.63,163 C139.09,179.14 149.11,200.82 157.04,217.97 " fill="none" id="CountAdministrationsController-to-App" style="stroke:#181818;stroke-width:1.0;stroke-dasharray:7.0,7.0;"/><polygon fill="#181818" points="159.22,222.68,159.1,212.8319,157.1338,218.136,151.8296,216.1698,159.22,222.68" style="stroke:#181818;stroke-width:1.0;"/></g><!--MD5=[1d65c2794521edf275b7cca138504fed]
link CountAdministrationsController to AdministrationStore--><g id="link_CountAdministrationsController_AdministrationStore"><path codeLine="29" d="M119.44,163.08 C116.78,205.73 111.92,299.78 115,379 C117.09,432.73 122.66,495.29 126.12,530.71 " fill="none" id="CountAdministrationsController-to-AdministrationStore" style="stroke:#181818;stroke-width:1.0;"/><polygon fill="#181818" points="126.61,535.73,129.7159,526.3837,126.1238,530.7537,121.7538,527.1616,126.61,535.73" style="stroke:#181818;stroke-width:1.0;"/></g><!--MD5=[5b0f1873c15ced29becf7ded48d12cb7]
link App to Company--><g id="link_App_Company"><path codeLine="30" d="M171.95,271 C173.31,287 175.13,308.45 176.58,325.53 " fill="none" id="App-to-Company" style="stroke:#181818;stroke-width:1.0;stroke-dasharray:7.0,7.0;"/><polygon fill="#181818" points="177.02,330.68,180.261,321.3797,176.606,325.6972,172.2885,322.0421,177.02,330.68" style="stroke:#181818;stroke-width:1.0;"/></g><!--MD5=[6d5f4ee2ae4f1a4676d084be7517c3de]
link Company to AdministrationStore--><g id="link_Company_AdministrationStore"><path codeLine="31" d="M173.26,379.29 C164.03,416.76 145.91,490.33 135.96,530.75 " fill="none" id="Company-to-AdministrationStore" style="stroke:#181818;stroke-width:1.0;stroke-dasharray:7.0,7.0;"/><polygon fill="#181818" points="134.67,535.98,140.7172,528.2062,135.8726,531.1268,132.952,526.2821,134.67,535.98" style="stroke:#181818;stroke-width:1.0;"/></g><!--MD5=[ee6a870efb22dca9f0946326a7279dbb]
link AdministrationStore to VaccinationCenterStore--><g id="link_AdministrationStore_VaccinationCenterStore"><path codeLine="32" d="M138.56,535.84 C154.09,500.39 188.47,435.62 241.5,409 C289.56,384.87 313.77,386.25 362.5,409 C416.33,434.13 455.35,494.67 474.87,531.01 " fill="none" id="AdministrationStore-to-VaccinationCenterStore" style="stroke:#181818;stroke-width:1.0;"/><polygon fill="#181818" points="477.39,535.75,476.7039,525.9251,475.046,531.3335,469.6375,529.6755,477.39,535.75" style="stroke:#181818;stroke-width:1.0;"/></g><!--MD5=[eded9c7555022fe49749f28a4039ae6c]
link AdministrationStore to Administration--><g id="link_AdministrationStore_Administration"><path codeLine="33" d="M206.71,560 C216.54,560 226.37,560 236.19,560 " fill="none" id="AdministrationStore-to-Administration" style="stroke:#181818;stroke-width:1.0;"/><polygon fill="#181818" points="241.33,560,232.33,556,236.33,560,232.33,564,241.33,560" style="stroke:#181818;stroke-width:1.0;"/></g><!--MD5=[8c304936b446fd8cea914e03fbadd4b7]
link VaccinationCenterStore to VaccinationCenter--><g id="link_VaccinationCenterStore_VaccinationCenter"><path codeLine="34" d="M580.02,560 C589.92,560 599.83,560 609.74,560 " fill="none" id="VaccinationCenterStore-to-VaccinationCenter" style="stroke:#181818;stroke-width:1.0;"/><polygon fill="#181818" points="614.92,560,605.92,556,609.92,560,605.92,564,614.92,560" style="stroke:#181818;stroke-width:1.0;"/></g><!--MD5=[365ff630f9f838a80248091f1b038ffe]
link VaccinationCenter to SNSUser--><g id="link_VaccinationCenter_SNSUser"><path codeLine="35" d="M763.11,560 C772.99,560 782.88,560 792.76,560 " fill="none" id="VaccinationCenter-to-SNSUser" style="stroke:#181818;stroke-width:1.0;"/><polygon fill="#181818" points="797.93,560,788.93,556,792.93,560,788.93,564,797.93,560" style="stroke:#181818;stroke-width:1.0;"/></g><!--MD5=[e8ac47a859255b0572d0f75b4913b651]
@startuml

class CountAdministrationsUI{
}
class CountAdministrationsController{
}
class App{}
class Company{}
class VaccinationCenter {
    -name
    -address
    -phoneNumber
    -emailAddress
    -faxNumber
    -websiteAddress
    -openingHours
    -closingHours
    -slotDuration
    -maxNumVaxPerSlot
    -capacity
}
class VaccinationCenterStore{}
class SNSUser{}
class Administration{}
class AdministrationStore{}


CountAdministrationsUI ..> CountAdministrationsController
CountAdministrationsController ..> App
CountAdministrationsController -> AdministrationStore
App ..> Company
Company ..> AdministrationStore
AdministrationStore -> VaccinationCenterStore
AdministrationStore -> Administration
VaccinationCenterStore -> VaccinationCenter
VaccinationCenter -> SNSUser

@enduml

PlantUML version 1.2022.5(Sat Apr 30 11:55:52 BST 2022)
(GPL source distribution)
Java Runtime: OpenJDK Runtime Environment
JVM: OpenJDK 64-Bit Server VM
Default Encoding: Cp1252
Language: en
Country: GB
--></g></svg>