<?xml version="1.0" encoding="UTF-8" standalone="no"?><svg xmlns="http://www.w3.org/2000/svg" xmlns:xlink="http://www.w3.org/1999/xlink" contentStyleType="text/css" height="614px" preserveAspectRatio="none" style="width:162px;height:614px;background:#FFFFFF;" version="1.1" viewBox="0 0 162 614" width="162px" zoomAndPan="magnify"><defs/><g><!--MD5=[de60e6d4f424ae4d0522096f76a59010]
class VaccinationCenter--><g id="elem_VaccinationCenter"><rect codeLine="1" fill="#F1F1F1" height="241.7031" id="VaccinationCenter" rx="2.5" ry="2.5" style="stroke:#181818;stroke-width:0.5;" width="148" x="7" y="151"/><ellipse cx="22" cy="167" fill="#ADD1B2" rx="11" ry="11" style="stroke:#181818;stroke-width:1.0;"/><path d="M24,163.5 Q24.2031,163 24.4375,162.75 Q24.6719,162.5 24.9375,162.5 Q25.4063,162.5 25.7031,162.7813 Q26,163.0625 26,163.7188 L26,165.2813 Q26,165.9375 25.7188,166.2188 Q25.4375,166.5 25,166.5 Q24.6094,166.5 24.3594,166.3281 Q24.1094,166.1563 24,165.7031 Q23.9531,165.3906 23.7813,165.2188 Q23.4688,164.8906 22.9063,164.7031 Q22.3438,164.5 21.7813,164.5 Q21.0781,164.5 20.4844,164.7813 Q19.9063,165.0625 19.4531,165.6875 Q19,166.3125 19,167.1719 L19,168.0938 Q19,169.125 19.8438,169.8125 Q20.6875,170.5 22.1875,170.5 Q23.0781,170.5 23.7031,170.2969 Q24.0625,170.1875 24.4688,169.8281 Q24.7344,169.625 24.875,169.5625 Q25.0156,169.5 25.1875,169.5 Q25.5156,169.5 25.75,169.7656 Q26,170.0156 26,170.375 Q26,170.7188 25.6563,171.125 Q25.1563,171.7188 24.3594,172.0469 Q23.3125,172.5 22.0313,172.5 Q20.5313,172.5 19.3281,171.9063 Q18.3594,171.4375 17.6719,170.4219 Q17,169.4063 17,168.2031 L17,167.1094 Q17,165.8594 17.5938,164.7656 Q18.2031,163.6719 19.25,163.0938 Q20.3125,162.5 21.5,162.5 Q22.2188,162.5 22.8438,162.75 Q23.4688,163 24,163.5 Z " fill="#000000"/><text fill="#000000" font-family="sans-serif" font-size="14" lengthAdjust="spacing" textLength="116" x="36" y="172.7285">VaccinationCenter</text><line style="stroke:#181818;stroke-width:0.5;" x1="8" x2="154" y1="183" y2="183"/><rect fill="none" height="6" style="stroke:#C82930;stroke-width:1.0;" width="6" x="15" y="191"/><text fill="#000000" font-family="sans-serif" font-size="14" lengthAdjust="spacing" textLength="35" x="27" y="201.5332">name</text><rect fill="none" height="6" style="stroke:#C82930;stroke-width:1.0;" width="6" x="15" y="208.6094"/><text fill="#000000" font-family="sans-serif" font-size="14" lengthAdjust="spacing" textLength="51" x="27" y="219.1426">address</text><rect fill="none" height="6" style="stroke:#C82930;stroke-width:1.0;" width="6" x="15" y="226.2188"/><text fill="#000000" font-family="sans-serif" font-size="14" lengthAdjust="spacing" textLength="89" x="27" y="236.752">phoneNumber</text><rect fill="none" height="6" style="stroke:#C82930;stroke-width:1.0;" width="6" x="15" y="243.8281"/><text fill="#000000" font-family="sans-serif" font-size="14" lengthAdjust="spacing" textLength="85" x="27" y="254.3613">emailAddress</text><rect fill="none" height="6" style="stroke:#C82930;stroke-width:1.0;" width="6" x="15" y="261.4375"/><text fill="#000000" font-family="sans-serif" font-size="14" lengthAdjust="spacing" textLength="67" x="27" y="271.9707">faxNumber</text><rect fill="none" height="6" style="stroke:#C82930;stroke-width:1.0;" width="6" x="15" y="279.0469"/><text fill="#000000" font-family="sans-serif" font-size="14" lengthAdjust="spacing" textLength="99" x="27" y="289.5801">websiteAddress</text><rect fill="none" height="6" style="stroke:#C82930;stroke-width:1.0;" width="6" x="15" y="296.6563"/><text fill="#000000" font-family="sans-serif" font-size="14" lengthAdjust="spacing" textLength="88" x="27" y="307.1895">openingHours</text><rect fill="none" height="6" style="stroke:#C82930;stroke-width:1.0;" width="6" x="15" y="314.2656"/><text fill="#000000" font-family="sans-serif" font-size="14" lengthAdjust="spacing" textLength="81" x="27" y="324.7988">closingHours</text><rect fill="none" height="6" style="stroke:#C82930;stroke-width:1.0;" width="6" x="15" y="331.875"/><text fill="#000000" font-family="sans-serif" font-size="14" lengthAdjust="spacing" textLength="76" x="27" y="342.4082">slotDuration</text><rect fill="none" height="6" style="stroke:#C82930;stroke-width:1.0;" width="6" x="15" y="349.4844"/><text fill="#000000" font-family="sans-serif" font-size="14" lengthAdjust="spacing" textLength="122" x="27" y="360.0176">maxNumVaxPerSlot</text><rect fill="none" height="6" style="stroke:#C82930;stroke-width:1.0;" width="6" x="15" y="367.0938"/><text fill="#000000" font-family="sans-serif" font-size="14" lengthAdjust="spacing" textLength="52" x="27" y="377.627">capacity</text><line style="stroke:#181818;stroke-width:0.5;" x1="8" x2="154" y1="384.7031" y2="384.7031"/></g><!--MD5=[c680266cf9e454ca06c2d1bb8b683e6b]
class Schedule--><g id="elem_Schedule"><rect codeLine="15" fill="#F1F1F1" height="65.6094" id="Schedule" rx="2.5" ry="2.5" style="stroke:#181818;stroke-width:0.5;" width="91" x="35.5" y="7"/><ellipse cx="50.5" cy="23" fill="#ADD1B2" rx="11" ry="11" style="stroke:#181818;stroke-width:1.0;"/><path d="M52.5,19.5 Q52.7031,19 52.9375,18.75 Q53.1719,18.5 53.4375,18.5 Q53.9063,18.5 54.2031,18.7813 Q54.5,19.0625 54.5,19.7188 L54.5,21.2813 Q54.5,21.9375 54.2188,22.2188 Q53.9375,22.5 53.5,22.5 Q53.1094,22.5 52.8594,22.3281 Q52.6094,22.1563 52.5,21.7031 Q52.4531,21.3906 52.2813,21.2188 Q51.9688,20.8906 51.4063,20.7031 Q50.8438,20.5 50.2813,20.5 Q49.5781,20.5 48.9844,20.7813 Q48.4063,21.0625 47.9531,21.6875 Q47.5,22.3125 47.5,23.1719 L47.5,24.0938 Q47.5,25.125 48.3438,25.8125 Q49.1875,26.5 50.6875,26.5 Q51.5781,26.5 52.2031,26.2969 Q52.5625,26.1875 52.9688,25.8281 Q53.2344,25.625 53.375,25.5625 Q53.5156,25.5 53.6875,25.5 Q54.0156,25.5 54.25,25.7656 Q54.5,26.0156 54.5,26.375 Q54.5,26.7188 54.1563,27.125 Q53.6563,27.7188 52.8594,28.0469 Q51.8125,28.5 50.5313,28.5 Q49.0313,28.5 47.8281,27.9063 Q46.8594,27.4375 46.1719,26.4219 Q45.5,25.4063 45.5,24.2031 L45.5,23.1094 Q45.5,21.8594 46.0938,20.7656 Q46.7031,19.6719 47.75,19.0938 Q48.8125,18.5 50,18.5 Q50.7188,18.5 51.3438,18.75 Q51.9688,19 52.5,19.5 Z " fill="#000000"/><text fill="#000000" font-family="sans-serif" font-size="14" lengthAdjust="spacing" textLength="59" x="64.5" y="28.7285">Schedule</text><line style="stroke:#181818;stroke-width:0.5;" x1="36.5" x2="125.5" y1="39" y2="39"/><rect fill="none" height="6" style="stroke:#C82930;stroke-width:1.0;" width="6" x="43.5" y="47"/><text fill="#000000" font-family="sans-serif" font-size="14" lengthAdjust="spacing" textLength="59" x="55.5" y="57.5332">dateTime</text><line style="stroke:#181818;stroke-width:0.5;" x1="36.5" x2="125.5" y1="64.6094" y2="64.6094"/></g><!--MD5=[72be06cc7ae02ccc98efe28a50e62246]
class SNSUser--><g id="elem_SNSUser"><rect codeLine="18" fill="#F1F1F1" height="136.0469" id="SNSUser" rx="2.5" ry="2.5" style="stroke:#181818;stroke-width:0.5;" width="97" x="32.5" y="471"/><ellipse cx="51.55" cy="487" fill="#ADD1B2" rx="11" ry="11" style="stroke:#181818;stroke-width:1.0;"/><path d="M53.55,483.5 Q53.7531,483 53.9875,482.75 Q54.2219,482.5 54.4875,482.5 Q54.9563,482.5 55.2531,482.7813 Q55.55,483.0625 55.55,483.7188 L55.55,485.2813 Q55.55,485.9375 55.2688,486.2188 Q54.9875,486.5 54.55,486.5 Q54.1594,486.5 53.9094,486.3281 Q53.6594,486.1563 53.55,485.7031 Q53.5031,485.3906 53.3313,485.2188 Q53.0188,484.8906 52.4563,484.7031 Q51.8938,484.5 51.3313,484.5 Q50.6281,484.5 50.0344,484.7813 Q49.4563,485.0625 49.0031,485.6875 Q48.55,486.3125 48.55,487.1719 L48.55,488.0938 Q48.55,489.125 49.3938,489.8125 Q50.2375,490.5 51.7375,490.5 Q52.6281,490.5 53.2531,490.2969 Q53.6125,490.1875 54.0188,489.8281 Q54.2844,489.625 54.425,489.5625 Q54.5656,489.5 54.7375,489.5 Q55.0656,489.5 55.3,489.7656 Q55.55,490.0156 55.55,490.375 Q55.55,490.7188 55.2063,491.125 Q54.7063,491.7188 53.9094,492.0469 Q52.8625,492.5 51.5813,492.5 Q50.0813,492.5 48.8781,491.9063 Q47.9094,491.4375 47.2219,490.4219 Q46.55,489.4063 46.55,488.2031 L46.55,487.1094 Q46.55,485.8594 47.1438,484.7656 Q47.7531,483.6719 48.8,483.0938 Q49.8625,482.5 51.05,482.5 Q51.7688,482.5 52.3938,482.75 Q53.0188,483 53.55,483.5 Z " fill="#000000"/><text fill="#000000" font-family="sans-serif" font-size="14" lengthAdjust="spacing" textLength="56" x="66.45" y="492.7285">SNSUser</text><line style="stroke:#181818;stroke-width:0.5;" x1="33.5" x2="128.5" y1="503" y2="503"/><rect fill="none" height="6" style="stroke:#C82930;stroke-width:1.0;" width="6" x="40.5" y="511"/><text fill="#000000" font-family="sans-serif" font-size="14" lengthAdjust="spacing" textLength="71" x="52.5" y="521.5332">snsNumber</text><rect fill="none" height="6" style="stroke:#C82930;stroke-width:1.0;" width="6" x="40.5" y="528.6094"/><text fill="#000000" font-family="sans-serif" font-size="14" lengthAdjust="spacing" textLength="35" x="52.5" y="539.1426">name</text><rect fill="none" height="6" style="stroke:#C82930;stroke-width:1.0;" width="6" x="40.5" y="546.2188"/><text fill="#000000" font-family="sans-serif" font-size="14" lengthAdjust="spacing" textLength="24" x="52.5" y="556.752">age</text><rect fill="none" height="6" style="stroke:#C82930;stroke-width:1.0;" width="6" x="40.5" y="563.8281"/><text fill="#000000" font-family="sans-serif" font-size="14" lengthAdjust="spacing" textLength="68" x="52.5" y="574.3613">phoneNum</text><rect fill="none" height="6" style="stroke:#C82930;stroke-width:1.0;" width="6" x="40.5" y="581.4375"/><text fill="#000000" font-family="sans-serif" font-size="14" lengthAdjust="spacing" textLength="33" x="52.5" y="591.9707">email</text><line style="stroke:#181818;stroke-width:0.5;" x1="33.5" x2="128.5" y1="599.0469" y2="599.0469"/></g><!--MD5=[365ff630f9f838a80248091f1b038ffe]
link VaccinationCenter to SNSUser--><g id="link_VaccinationCenter_SNSUser"><path codeLine="26" d="M81,393.09 C81,419.8 81,447.18 81,470.85 " fill="none" id="VaccinationCenter-SNSUser" style="stroke:#181818;stroke-width:1.0;"/><polygon fill="#000000" points="86,437.1758,88.9389,428.1307,83.0611,428.1307,86,437.1758" style="stroke:#000000;stroke-width:1.0;"/><text fill="#000000" font-family="sans-serif" font-size="13" lengthAdjust="spacing" textLength="21" x="95" y="437.4951">has</text><text fill="#000000" font-family="sans-serif" font-size="13" lengthAdjust="spacing" textLength="7" x="73.7977" y="414.0669">1</text><text fill="#000000" font-family="sans-serif" font-size="13" lengthAdjust="spacing" textLength="5" x="75.7266" y="460.0329">*</text></g><!--MD5=[b663e1a5626dc490590fd67fca32619d]
link Schedule to VaccinationCenter--><g id="link_Schedule_VaccinationCenter"><path codeLine="27" d="M81,73.47 C81,94.14 81,122.35 81,150.97 " fill="none" id="Schedule-VaccinationCenter" style="stroke:#181818;stroke-width:1.0;"/><polygon fill="#000000" points="86,107.1758,83.0611,116.2209,88.9389,116.2209,86,107.1758" style="stroke:#000000;stroke-width:1.0;"/><text fill="#000000" font-family="sans-serif" font-size="13" lengthAdjust="spacing" textLength="21" x="95" y="117.4951">has</text><text fill="#000000" font-family="sans-serif" font-size="13" lengthAdjust="spacing" textLength="5" x="75.5703" y="94.1566">*</text><text fill="#000000" font-family="sans-serif" font-size="13" lengthAdjust="spacing" textLength="7" x="73.7758" y="140.2199">1</text></g><!--MD5=[75057c57a13108b5ee444820a25af1f0]
@startuml
class VaccinationCenter {
    -name
    -address
    -phoneNumber
    -emailAddress
    -faxNumber
    -websiteAddress
    -openingHours
    -closingHours
    -slotDuration
    -maxNumVaxPerSlot
    -capacity

}
class Schedule{
    -dateTime
}
class SNSUser {
    -snsNumber
    -name
    -age
    -phoneNum
    -email
}

VaccinationCenter "1" - - "*" SNSUser: has >
Schedule "*" - - "1" VaccinationCenter: has <

@enduml

PlantUML version 1.2022.5(Sat Apr 30 11:55:52 BST 2022)
(GPL source distribution)
Java Runtime: OpenJDK Runtime Environment
JVM: OpenJDK 64-Bit Server VM
Default Encoding: Cp1252
Language: en
Country: GB
--></g></svg>