<?xml version="1.0" encoding="UTF-8" standalone="no"?><svg xmlns="http://www.w3.org/2000/svg" xmlns:xlink="http://www.w3.org/1999/xlink" contentStyleType="text/css" height="823.2px" preserveAspectRatio="none" style="width:2059px;height:823px;background:#FFFFFF;" version="1.1" viewBox="0 0 2059 823" width="2059.4px" zoomAndPan="magnify"><defs/><g><rect fill="#FFFFFF" height="699.7484" style="stroke:#181818;stroke-width:0.6999999999999998;" width="7" x="229.6" y="88.6648"/><rect fill="#FFFFFF" height="21" style="stroke:#181818;stroke-width:0.6999999999999998;" width="7" x="361.2" y="131.157"/><rect fill="#FFFFFF" height="21" style="stroke:#181818;stroke-width:0.6999999999999998;" width="7" x="476" y="173.4031"/><rect fill="#FFFFFF" height="21" style="stroke:#181818;stroke-width:0.6999999999999998;" width="7" x="476" y="215.6492"/><rect fill="#FFFFFF" height="21" style="stroke:#181818;stroke-width:0.6999999999999998;" width="7" x="616.7" y="257.8953"/><rect fill="#FFFFFF" height="21" style="stroke:#181818;stroke-width:0.6999999999999998;" width="7" x="785.4" y="300.1414"/><rect fill="#FFFFFF" height="21" style="stroke:#181818;stroke-width:0.6999999999999998;" width="7" x="935.9" y="360.1336"/><rect fill="#FFFFFF" height="21" style="stroke:#181818;stroke-width:0.6999999999999998;" width="7" x="935.9" y="602.6289"/><rect fill="#FFFFFF" height="21" style="stroke:#181818;stroke-width:0.6999999999999998;" width="7" x="935.9" y="662.6211"/><rect fill="#FFFFFF" height="21" style="stroke:#181818;stroke-width:0.6999999999999998;" width="7" x="1483.65" y="512.8102"/><rect fill="#FFFFFF" height="21" style="stroke:#181818;stroke-width:0.6999999999999998;" width="7" x="1655.85" y="704.8672"/><rect fill="#FFFFFF" height="21" style="stroke:#181818;stroke-width:0.6999999999999998;" width="7" x="1915.9" y="747.1133"/><rect height="110.25" style="stroke:#000000;stroke-width:1.0499999999999998;fill:none;" width="870.45" x="144.2" y="331.6414"/><rect height="45.3578" style="stroke:#000000;stroke-width:1.0499999999999998;fill:none;" width="192.5" x="151.2" y="391.6336"/><rect height="299.1953" style="stroke:#000000;stroke-width:1.0499999999999998;fill:none;" width="1865.15" x="137.2" y="484.318"/><rect height="204.4766" style="stroke:#000000;stroke-width:1.0499999999999998;fill:none;" width="1851.15" x="144.2" y="574.1367"/><rect height="139.5844" style="stroke:#000000;stroke-width:1.0499999999999998;fill:none;" width="1837.15" x="151.2" y="634.1289"/><line style="stroke:#181818;stroke-width:0.3499999999999999;fill:none;stroke-dasharray:5.0,5.0;" x1="233.1" x2="233.1" y1="29.1266" y2="795.4133"/><line style="stroke:#181818;stroke-width:0.3499999999999999;fill:none;stroke-dasharray:5.0,5.0;" x1="364.7" x2="364.7" y1="29.1266" y2="795.4133"/><line style="stroke:#181818;stroke-width:0.3499999999999999;fill:none;stroke-dasharray:5.0,5.0;" x1="479.15" x2="479.15" y1="29.1266" y2="795.4133"/><line style="stroke:#181818;stroke-width:0.3499999999999999;fill:none;stroke-dasharray:5.0,5.0;" x1="619.85" x2="619.85" y1="29.1266" y2="795.4133"/><line style="stroke:#181818;stroke-width:0.3499999999999999;fill:none;stroke-dasharray:5.0,5.0;" x1="788.55" x2="788.55" y1="29.1266" y2="795.4133"/><line style="stroke:#181818;stroke-width:0.3499999999999999;fill:none;stroke-dasharray:5.0,5.0;" x1="939.05" x2="939.05" y1="29.1266" y2="795.4133"/><line style="stroke:#181818;stroke-width:0.3499999999999999;fill:none;stroke-dasharray:5.0,5.0;" x1="1050.35" x2="1050.35" y1="29.1266" y2="795.4133"/><line style="stroke:#181818;stroke-width:0.3499999999999999;fill:none;stroke-dasharray:5.0,5.0;" x1="1153.95" x2="1153.95" y1="29.1266" y2="795.4133"/><line style="stroke:#181818;stroke-width:0.3499999999999999;fill:none;stroke-dasharray:5.0,5.0;" x1="1303.75" x2="1303.75" y1="29.1266" y2="795.4133"/><line style="stroke:#181818;stroke-width:0.3499999999999999;fill:none;stroke-dasharray:5.0,5.0;" x1="1487.15" x2="1487.15" y1="29.1266" y2="795.4133"/><line style="stroke:#181818;stroke-width:0.3499999999999999;fill:none;stroke-dasharray:5.0,5.0;" x1="1659.35" x2="1659.35" y1="29.1266" y2="795.4133"/><line style="stroke:#181818;stroke-width:0.3499999999999999;fill:none;stroke-dasharray:5.0,5.0;" x1="1793.75" x2="1793.75" y1="29.1266" y2="795.4133"/><line style="stroke:#181818;stroke-width:0.3499999999999999;fill:none;stroke-dasharray:5.0,5.0;" x1="1919.05" x2="1919.05" y1="561.3234" y2="795.4133"/><line style="stroke:#181818;stroke-width:0.3499999999999999;fill:none;stroke-dasharray:5.0,5.0;" x1="2021.95" x2="2021.95" y1="470.1047" y2="795.4133"/><rect fill="#E2E2F0" height="22.1266" rx="1.75" ry="1.75" style="stroke:#181818;stroke-width:0.3499999999999999;" width="149.8" x="158.2" y="6.3"/><text fill="#000000" font-family="sans-serif" font-size="9.8" lengthAdjust="spacing" textLength="140" x="163.1" y="21.3732">:CountAdministrationsController</text><rect fill="#E2E2F0" height="22.1266" rx="1.75" ry="1.75" style="stroke:#181818;stroke-width:0.3499999999999999;" width="149.8" x="158.2" y="794.7133"/><text fill="#000000" font-family="sans-serif" font-size="9.8" lengthAdjust="spacing" textLength="140" x="163.1" y="809.7865">:CountAdministrationsController</text><rect fill="#E2E2F0" height="22.1266" rx="1.75" ry="1.75" style="stroke:#181818;stroke-width:0.3499999999999999;" width="70" x="329.7" y="6.3"/><text fill="#000000" font-family="sans-serif" font-size="9.8" lengthAdjust="spacing" textLength="60.2" x="334.6" y="21.3732">singleton:App</text><rect fill="#E2E2F0" height="22.1266" rx="1.75" ry="1.75" style="stroke:#181818;stroke-width:0.3499999999999999;" width="70" x="329.7" y="794.7133"/><text fill="#000000" font-family="sans-serif" font-size="9.8" lengthAdjust="spacing" textLength="60.2" x="334.6" y="809.7865">singleton:App</text><rect fill="#E2E2F0" height="22.1266" rx="1.75" ry="1.75" style="stroke:#181818;stroke-width:0.3499999999999999;" width="94.5" x="432.25" y="6.3"/><text fill="#000000" font-family="sans-serif" font-size="9.8" lengthAdjust="spacing" textLength="84.7" x="437.15" y="21.3732">company:Company</text><rect fill="#E2E2F0" height="22.1266" rx="1.75" ry="1.75" style="stroke:#181818;stroke-width:0.3499999999999999;" width="94.5" x="432.25" y="794.7133"/><text fill="#000000" font-family="sans-serif" font-size="9.8" lengthAdjust="spacing" textLength="84.7" x="437.15" y="809.7865">company:Company</text><rect fill="#E2E2F0" height="22.1266" rx="1.75" ry="1.75" style="stroke:#181818;stroke-width:0.3499999999999999;" width="172.9" x="533.75" y="6.3"/><text fill="#000000" font-family="sans-serif" font-size="9.8" lengthAdjust="spacing" textLength="163.1" x="538.65" y="21.3732">admininistrations:AdministrationStore</text><rect fill="#E2E2F0" height="22.1266" rx="1.75" ry="1.75" style="stroke:#181818;stroke-width:0.3499999999999999;" width="172.9" x="533.75" y="794.7133"/><text fill="#000000" font-family="sans-serif" font-size="9.8" lengthAdjust="spacing" textLength="163.1" x="538.65" y="809.7865">admininistrations:AdministrationStore</text><rect fill="#E2E2F0" height="22.1266" rx="1.75" ry="1.75" style="stroke:#181818;stroke-width:0.3499999999999999;" width="150.5" x="713.65" y="6.3"/><text fill="#000000" font-family="sans-serif" font-size="9.8" lengthAdjust="spacing" textLength="140.7" x="718.55" y="21.3732">centers:VaccinationCenterStore</text><rect fill="#E2E2F0" height="22.1266" rx="1.75" ry="1.75" style="stroke:#181818;stroke-width:0.3499999999999999;" width="150.5" x="713.65" y="794.7133"/><text fill="#000000" font-family="sans-serif" font-size="9.8" lengthAdjust="spacing" textLength="140.7" x="718.55" y="809.7865">centers:VaccinationCenterStore</text><rect fill="#E2E2F0" height="22.1266" rx="1.75" ry="1.75" style="stroke:#181818;stroke-width:0.3499999999999999;" width="136.5" x="871.15" y="6.3"/><text fill="#000000" font-family="sans-serif" font-size="9.8" lengthAdjust="spacing" textLength="126.7" x="876.05" y="21.3732">administration:Administration</text><rect fill="#E2E2F0" height="22.1266" rx="1.75" ry="1.75" style="stroke:#181818;stroke-width:0.3499999999999999;" width="136.5" x="871.15" y="794.7133"/><text fill="#000000" font-family="sans-serif" font-size="9.8" lengthAdjust="spacing" textLength="126.7" x="876.05" y="809.7865">administration:Administration</text><rect fill="#E2E2F0" height="22.1266" rx="1.75" ry="1.75" style="stroke:#181818;stroke-width:0.3499999999999999;" width="71.4" x="1014.65" y="6.3"/><text fill="#000000" font-family="sans-serif" font-size="9.8" lengthAdjust="spacing" textLength="61.6" x="1019.55" y="21.3732">user:SNSUser</text><rect fill="#E2E2F0" height="22.1266" rx="1.75" ry="1.75" style="stroke:#181818;stroke-width:0.3499999999999999;" width="71.4" x="1014.65" y="794.7133"/><text fill="#000000" font-family="sans-serif" font-size="9.8" lengthAdjust="spacing" textLength="61.6" x="1019.55" y="809.7865">user:SNSUser</text><rect fill="#E2E2F0" height="22.1266" rx="1.75" ry="1.75" style="stroke:#181818;stroke-width:0.3499999999999999;" width="121.8" x="1093.05" y="6.3"/><text fill="#000000" font-family="sans-serif" font-size="9.8" lengthAdjust="spacing" textLength="112" x="1097.95" y="21.3732">center:VaccinationCenter</text><rect fill="#E2E2F0" height="22.1266" rx="1.75" ry="1.75" style="stroke:#181818;stroke-width:0.3499999999999999;" width="121.8" x="1093.05" y="794.7133"/><text fill="#000000" font-family="sans-serif" font-size="9.8" lengthAdjust="spacing" textLength="112" x="1097.95" y="809.7865">center:VaccinationCenter</text><rect fill="#E2E2F0" height="22.1266" rx="1.75" ry="1.75" style="stroke:#181818;stroke-width:0.3499999999999999;" width="163.8" x="1221.85" y="6.3"/><text fill="#000000" font-family="sans-serif" font-size="9.8" lengthAdjust="spacing" textLength="154" x="1226.75" y="21.3732">centerDTO:VaccinationCenterDTO</text><rect fill="#E2E2F0" height="22.1266" rx="1.75" ry="1.75" style="stroke:#181818;stroke-width:0.3499999999999999;" width="163.8" x="1221.85" y="794.7133"/><text fill="#000000" font-family="sans-serif" font-size="9.8" lengthAdjust="spacing" textLength="154" x="1226.75" y="809.7865">centerDTO:VaccinationCenterDTO</text><rect fill="#E2E2F0" height="22.1266" rx="1.75" ry="1.75" style="stroke:#181818;stroke-width:0.3499999999999999;" width="189" x="1392.65" y="6.3"/><text fill="#000000" font-family="sans-serif" font-size="9.8" lengthAdjust="spacing" textLength="179.2" x="1397.55" y="21.3732">centerMapper:VaccinationCenterMapper</text><rect fill="#E2E2F0" height="22.1266" rx="1.75" ry="1.75" style="stroke:#181818;stroke-width:0.3499999999999999;" width="189" x="1392.65" y="794.7133"/><text fill="#000000" font-family="sans-serif" font-size="9.8" lengthAdjust="spacing" textLength="179.2" x="1397.55" y="809.7865">centerMapper:VaccinationCenterMapper</text><rect fill="#E2E2F0" height="22.1266" rx="1.75" ry="1.75" style="stroke:#181818;stroke-width:0.3499999999999999;" width="141.4" x="1588.65" y="6.3"/><text fill="#000000" font-family="sans-serif" font-size="9.8" lengthAdjust="spacing" textLength="131.6" x="1593.55" y="21.3732">userMapper: SNSUserMapper</text><rect fill="#E2E2F0" height="22.1266" rx="1.75" ry="1.75" style="stroke:#181818;stroke-width:0.3499999999999999;" width="141.4" x="1588.65" y="794.7133"/><text fill="#000000" font-family="sans-serif" font-size="9.8" lengthAdjust="spacing" textLength="131.6" x="1593.55" y="809.7865">userMapper: SNSUserMapper</text><rect fill="#E2E2F0" height="22.1266" rx="1.75" ry="1.75" style="stroke:#181818;stroke-width:0.3499999999999999;" width="113.4" x="1737.05" y="6.3"/><text fill="#000000" font-family="sans-serif" font-size="9.8" lengthAdjust="spacing" textLength="103.6" x="1741.95" y="21.3732">userDTO:SNSUserDTO</text><rect fill="#E2E2F0" height="22.1266" rx="1.75" ry="1.75" style="stroke:#181818;stroke-width:0.3499999999999999;" width="113.4" x="1737.05" y="794.7133"/><text fill="#000000" font-family="sans-serif" font-size="9.8" lengthAdjust="spacing" textLength="103.6" x="1741.95" y="809.7865">userDTO:SNSUserDTO</text><rect fill="#E2E2F0" height="22.1266" rx="1.75" ry="1.75" style="stroke:#181818;stroke-width:0.3499999999999999;" width="123.9" x="1857.45" y="794.7133"/><text fill="#000000" font-family="sans-serif" font-size="9.8" lengthAdjust="spacing" textLength="114.1" x="1862.35" y="809.7865">stats:VaccinationStatistics</text><rect fill="#E2E2F0" height="22.1266" style="stroke:#181818;stroke-width:0.3499999999999999;" width="64.4" x="1991.15" y="794.7133"/><rect fill="#E2E2F0" height="22.1266" style="stroke:#181818;stroke-width:0.3499999999999999;" width="64.4" x="1988.35" y="797.5133"/><text fill="#000000" font-family="sans-serif" font-size="9.8" lengthAdjust="spacing" textLength="54.6" x="1993.25" y="812.5865">statsList:List</text><rect fill="#FFFFFF" height="699.7484" style="stroke:#181818;stroke-width:0.6999999999999998;" width="7" x="229.6" y="88.6648"/><rect fill="#FFFFFF" height="21" style="stroke:#181818;stroke-width:0.6999999999999998;" width="7" x="361.2" y="131.157"/><rect fill="#FFFFFF" height="21" style="stroke:#181818;stroke-width:0.6999999999999998;" width="7" x="476" y="173.4031"/><rect fill="#FFFFFF" height="21" style="stroke:#181818;stroke-width:0.6999999999999998;" width="7" x="476" y="215.6492"/><rect fill="#FFFFFF" height="21" style="stroke:#181818;stroke-width:0.6999999999999998;" width="7" x="616.7" y="257.8953"/><rect fill="#FFFFFF" height="21" style="stroke:#181818;stroke-width:0.6999999999999998;" width="7" x="785.4" y="300.1414"/><rect fill="#FFFFFF" height="21" style="stroke:#181818;stroke-width:0.6999999999999998;" width="7" x="935.9" y="360.1336"/><rect fill="#FFFFFF" height="21" style="stroke:#181818;stroke-width:0.6999999999999998;" width="7" x="935.9" y="602.6289"/><rect fill="#FFFFFF" height="21" style="stroke:#181818;stroke-width:0.6999999999999998;" width="7" x="935.9" y="662.6211"/><rect fill="#FFFFFF" height="21" style="stroke:#181818;stroke-width:0.6999999999999998;" width="7" x="1483.65" y="512.8102"/><rect fill="#FFFFFF" height="21" style="stroke:#181818;stroke-width:0.6999999999999998;" width="7" x="1655.85" y="704.8672"/><rect fill="#FFFFFF" height="21" style="stroke:#181818;stroke-width:0.6999999999999998;" width="7" x="1915.9" y="747.1133"/><path d="M159.6,39.6266 L159.6,69.0266 L305.9,69.0266 L305.9,46.6266 L298.9,39.6266 L159.6,39.6266 " fill="#FEFFDD" style="stroke:#181818;stroke-width:0.3499999999999999;"/><path d="M298.9,39.6266 L298.9,46.6266 L305.9,46.6266 L298.9,39.6266 " fill="#FEFFDD" style="stroke:#181818;stroke-width:0.3499999999999999;"/><text fill="#000000" font-family="sans-serif" font-size="9.1" lengthAdjust="spacing" textLength="130.9" x="163.8" y="52.5731">This controller is created with an</text><text fill="#000000" font-family="sans-serif" font-size="9.1" lengthAdjust="spacing" textLength="131.6" x="163.8" y="64.0192">attribute called date of type Date</text><polygon fill="#181818" points="221.2,85.8648,228.2,88.6648,221.2,91.4648,224,88.6648" style="stroke:#181818;stroke-width:0.6999999999999998;"/><line style="stroke:#181818;stroke-width:0.6999999999999998;" x1="0" x2="225.4" y1="88.6648" y2="88.6648"/><text fill="#000000" font-family="sans-serif" font-size="9.1" font-weight="bold" lengthAdjust="spacing" textLength="4.9" x="4.9" y="85.2653">1</text><text fill="#000000" font-family="sans-serif" font-size="9.1" lengthAdjust="spacing" textLength="208.6" x="12.6" y="85.2653">countAdministrations(): List&lt;VaccinationStatistics&gt;</text><polygon fill="#181818" points="356.3,107.1109,363.3,109.9109,356.3,112.7109,359.1,109.9109" style="stroke:#181818;stroke-width:0.6999999999999998;"/><line style="stroke:#181818;stroke-width:0.6999999999999998;" x1="236.6" x2="360.5" y1="109.9109" y2="109.9109"/><text fill="#000000" font-family="sans-serif" font-size="9.1" font-weight="bold" lengthAdjust="spacing" textLength="4.9" x="241.5" y="106.5114">2</text><text fill="#000000" font-family="sans-serif" font-size="9.1" lengthAdjust="spacing" text-decoration="underline" textLength="52.5" x="249.2" y="106.5114">getInstance()</text><text fill="#000000" font-family="sans-serif" font-size="9.1" lengthAdjust="spacing" textLength="21.7" x="304.5" y="106.5114">: App</text><polygon fill="#181818" points="352.8,128.357,359.8,131.157,352.8,133.957,355.6,131.157" style="stroke:#181818;stroke-width:0.6999999999999998;"/><line style="stroke:#181818;stroke-width:0.6999999999999998;" x1="236.6" x2="357" y1="131.157" y2="131.157"/><text fill="#000000" font-family="sans-serif" font-size="9.1" font-weight="bold" lengthAdjust="spacing" textLength="4.9" x="241.5" y="127.7575">3</text><text fill="#000000" font-family="sans-serif" font-size="9.1" lengthAdjust="spacing" textLength="103.6" x="249.2" y="127.7575">getCompany() : Company</text><polygon fill="#181818" points="467.6,170.6031,474.6,173.4031,467.6,176.2031,470.4,173.4031" style="stroke:#181818;stroke-width:0.6999999999999998;"/><line style="stroke:#181818;stroke-width:0.6999999999999998;" x1="236.6" x2="471.8" y1="173.4031" y2="173.4031"/><text fill="#000000" font-family="sans-serif" font-size="9.1" font-weight="bold" lengthAdjust="spacing" textLength="4.9" x="241.5" y="170.0036">4</text><text fill="#000000" font-family="sans-serif" font-size="9.1" lengthAdjust="spacing" textLength="186.2" x="249.2" y="170.0036">getAdministrationStore() : AdministrationStore</text><polygon fill="#181818" points="467.6,212.8492,474.6,215.6492,467.6,218.4492,470.4,215.6492" style="stroke:#181818;stroke-width:0.6999999999999998;"/><line style="stroke:#181818;stroke-width:0.6999999999999998;" x1="236.6" x2="471.8" y1="215.6492" y2="215.6492"/><text fill="#000000" font-family="sans-serif" font-size="9.1" font-weight="bold" lengthAdjust="spacing" textLength="4.9" x="241.5" y="212.2497">5</text><text fill="#000000" font-family="sans-serif" font-size="9.1" lengthAdjust="spacing" textLength="218.4" x="249.2" y="212.2497">getVaccinationCenterStore() : VaccinationCenterStore</text><polygon fill="#181818" points="608.3,255.0953,615.3,257.8953,608.3,260.6953,611.1,257.8953" style="stroke:#181818;stroke-width:0.6999999999999998;"/><line style="stroke:#181818;stroke-width:0.6999999999999998;" x1="236.6" x2="612.5" y1="257.8953" y2="257.8953"/><text fill="#000000" font-family="sans-serif" font-size="9.1" font-weight="bold" lengthAdjust="spacing" textLength="4.9" x="241.5" y="254.4958">6</text><text fill="#000000" font-family="sans-serif" font-size="9.1" lengthAdjust="spacing" textLength="193.9" x="249.2" y="254.4958">administrations = getAll() : List&lt;Administration&gt;</text><polygon fill="#181818" points="777,297.3414,784,300.1414,777,302.9414,779.8,300.1414" style="stroke:#181818;stroke-width:0.6999999999999998;"/><line style="stroke:#181818;stroke-width:0.6999999999999998;" x1="236.6" x2="781.2" y1="300.1414" y2="300.1414"/><text fill="#000000" font-family="sans-serif" font-size="9.1" font-weight="bold" lengthAdjust="spacing" textLength="4.9" x="241.5" y="296.7419">7</text><text fill="#000000" font-family="sans-serif" font-size="9.1" lengthAdjust="spacing" textLength="178.5" x="249.2" y="296.7419">centers = getAll() : List&lt;VaccinationCenter&gt;</text><path d="M144.2,331.6414 L195.3,331.6414 L195.3,337.4875 L188.3,344.4875 L144.2,344.4875 L144.2,331.6414 " fill="#EEEEEE" style="stroke:#000000;stroke-width:1.0499999999999998;"/><rect fill="none" height="110.25" style="stroke:#000000;stroke-width:1.0499999999999998;" width="870.45" x="144.2" y="331.6414"/><text fill="#000000" font-family="sans-serif" font-size="9.1" font-weight="bold" lengthAdjust="spacing" textLength="19.6" x="154.7" y="341.788">loop</text><text fill="#000000" font-family="sans-serif" font-size="7.7" font-weight="bold" lengthAdjust="spacing" textLength="86.1" x="205.8" y="341.0347">[over administrations]</text><polygon fill="#181818" points="927.5,357.3336,934.5,360.1336,927.5,362.9336,930.3,360.1336" style="stroke:#181818;stroke-width:0.6999999999999998;"/><line style="stroke:#181818;stroke-width:0.6999999999999998;" x1="236.6" x2="931.7" y1="360.1336" y2="360.1336"/><text fill="#000000" font-family="sans-serif" font-size="9.1" font-weight="bold" lengthAdjust="spacing" textLength="4.9" x="241.5" y="356.7341">8</text><text fill="#000000" font-family="sans-serif" font-size="9.1" lengthAdjust="spacing" textLength="112" x="249.2" y="356.7341">admDate = getDate() : Date</text><path d="M151.2,391.6336 L193.9,391.6336 L193.9,397.4797 L186.9,404.4797 L151.2,404.4797 L151.2,391.6336 " fill="#EEEEEE" style="stroke:#000000;stroke-width:1.0499999999999998;"/><rect fill="none" height="45.3578" style="stroke:#000000;stroke-width:1.0499999999999998;" width="192.5" x="151.2" y="391.6336"/><text fill="#000000" font-family="sans-serif" font-size="9.1" font-weight="bold" lengthAdjust="spacing" textLength="11.2" x="161.7" y="401.7802">alt</text><text fill="#000000" font-family="sans-serif" font-size="7.7" font-weight="bold" lengthAdjust="spacing" textLength="135.8" x="204.4" y="401.0269">[admDate is not same date as date]</text><rect height="29.0117" style="stroke:#000000;stroke-width:1.0499999999999998;fill:none;" width="177.1" x="156.1" y="404.4797"/><path d="M156.1,404.4797 L199.5,404.4797 L199.5,410.0797 L192.5,417.0797 L156.1,417.0797 L156.1,404.4797 " fill="#EEEEEE" style="stroke:#000000;stroke-width:1.3999999999999997;"/><text fill="#000000" font-family="sans-serif" font-size="9.1" font-weight="bold" lengthAdjust="spacing" textLength="11.9" x="165.2" y="415.3263">ref</text><text fill="#000000" font-family="sans-serif" font-size="8.4" lengthAdjust="spacing" textLength="171.5" x="158.9" y="428.5996">Remove administration from administrations</text><polygon fill="#181818" points="1979.95,459.6375,1986.95,462.4375,1979.95,465.2375,1982.75,462.4375" style="stroke:#181818;stroke-width:0.6999999999999998;"/><line style="stroke:#181818;stroke-width:0.6999999999999998;" x1="236.6" x2="1984.15" y1="462.4375" y2="462.4375"/><text fill="#000000" font-family="sans-serif" font-size="9.1" font-weight="bold" lengthAdjust="spacing" textLength="4.9" x="241.5" y="459.038">9</text><text fill="#000000" font-family="sans-serif" font-size="9.1" lengthAdjust="spacing" textLength="132.3" x="249.2" y="459.038">«create&lt;VaccinationStatistics&gt;»</text><rect fill="#E2E2F0" height="22.1266" style="stroke:#181818;stroke-width:0.3499999999999999;" width="64.4" x="1991.15" y="446.7914"/><rect fill="#E2E2F0" height="22.1266" style="stroke:#181818;stroke-width:0.3499999999999999;" width="64.4" x="1988.35" y="449.5914"/><text fill="#000000" font-family="sans-serif" font-size="9.8" lengthAdjust="spacing" textLength="54.6" x="1993.25" y="464.6646">statsList:List</text><path d="M137.2,484.318 L188.3,484.318 L188.3,490.1641 L181.3,497.1641 L137.2,497.1641 L137.2,484.318 " fill="#EEEEEE" style="stroke:#000000;stroke-width:1.0499999999999998;"/><rect fill="none" height="299.1953" style="stroke:#000000;stroke-width:1.0499999999999998;" width="1865.15" x="137.2" y="484.318"/><text fill="#000000" font-family="sans-serif" font-size="9.1" font-weight="bold" lengthAdjust="spacing" textLength="19.6" x="147.7" y="494.4646">loop</text><text fill="#000000" font-family="sans-serif" font-size="7.7" font-weight="bold" lengthAdjust="spacing" textLength="93.8" x="198.8" y="493.7112">[over centers as center]</text><polygon fill="#181818" points="1475.25,510.0102,1482.25,512.8102,1475.25,515.6102,1478.05,512.8102" style="stroke:#181818;stroke-width:0.6999999999999998;"/><line style="stroke:#181818;stroke-width:0.6999999999999998;" x1="236.6" x2="1479.45" y1="512.8102" y2="512.8102"/><text fill="#000000" font-family="sans-serif" font-size="9.1" font-weight="bold" lengthAdjust="spacing" textLength="9.8" x="241.5" y="509.4106">10</text><text fill="#000000" font-family="sans-serif" font-size="9.1" lengthAdjust="spacing" textLength="212.1" x="254.1" y="509.4106">centerDTO = toDTO(center) : VaccinationCenterDTO</text><polygon fill="#181818" points="1849.05,552.2562,1856.05,555.0562,1849.05,557.8562,1851.85,555.0562" style="stroke:#181818;stroke-width:0.6999999999999998;"/><line style="stroke:#181818;stroke-width:0.6999999999999998;" x1="236.6" x2="1853.25" y1="555.0562" y2="555.0562"/><text fill="#000000" font-family="sans-serif" font-size="9.1" font-weight="bold" lengthAdjust="spacing" textLength="9.8" x="241.5" y="551.6567">11</text><text fill="#000000" font-family="sans-serif" font-size="9.1" lengthAdjust="spacing" textLength="84" x="254.1" y="551.6567">«create(centerDTO)»</text><rect fill="#E2E2F0" height="22.1266" rx="1.75" ry="1.75" style="stroke:#181818;stroke-width:0.3499999999999999;" width="123.9" x="1857.45" y="539.4102"/><text fill="#000000" font-family="sans-serif" font-size="9.8" lengthAdjust="spacing" textLength="114.1" x="1862.35" y="554.4834">stats:VaccinationStatistics</text><path d="M144.2,574.1367 L195.3,574.1367 L195.3,579.9828 L188.3,586.9828 L144.2,586.9828 L144.2,574.1367 " fill="#EEEEEE" style="stroke:#000000;stroke-width:1.0499999999999998;"/><rect fill="none" height="204.4766" style="stroke:#000000;stroke-width:1.0499999999999998;" width="1851.15" x="144.2" y="574.1367"/><text fill="#000000" font-family="sans-serif" font-size="9.1" font-weight="bold" lengthAdjust="spacing" textLength="19.6" x="154.7" y="584.2833">loop</text><text fill="#000000" font-family="sans-serif" font-size="7.7" font-weight="bold" lengthAdjust="spacing" textLength="86.1" x="205.8" y="583.53">[over administrations]</text><polygon fill="#181818" points="927.5,599.8289,934.5,602.6289,927.5,605.4289,930.3,602.6289" style="stroke:#181818;stroke-width:0.6999999999999998;"/><line style="stroke:#181818;stroke-width:0.6999999999999998;" x1="236.6" x2="931.7" y1="602.6289" y2="602.6289"/><text fill="#000000" font-family="sans-serif" font-size="9.1" font-weight="bold" lengthAdjust="spacing" textLength="9.8" x="241.5" y="599.2294">12</text><text fill="#000000" font-family="sans-serif" font-size="9.1" lengthAdjust="spacing" textLength="182.7" x="254.1" y="599.2294">admCenter = getCenter() : VaccinationCenter</text><path d="M151.2,634.1289 L193.9,634.1289 L193.9,639.975 L186.9,646.975 L151.2,646.975 L151.2,634.1289 " fill="#EEEEEE" style="stroke:#000000;stroke-width:1.0499999999999998;"/><rect fill="none" height="139.5844" style="stroke:#000000;stroke-width:1.0499999999999998;" width="1837.15" x="151.2" y="634.1289"/><text fill="#000000" font-family="sans-serif" font-size="9.1" font-weight="bold" lengthAdjust="spacing" textLength="11.2" x="161.7" y="644.2755">alt</text><text fill="#000000" font-family="sans-serif" font-size="7.7" font-weight="bold" lengthAdjust="spacing" textLength="129.5" x="204.4" y="643.5222">[admCenter is equal from center]</text><polygon fill="#181818" points="927.5,659.8211,934.5,662.6211,927.5,665.4211,930.3,662.6211" style="stroke:#181818;stroke-width:0.6999999999999998;"/><line style="stroke:#181818;stroke-width:0.6999999999999998;" x1="236.6" x2="931.7" y1="662.6211" y2="662.6211"/><text fill="#000000" font-family="sans-serif" font-size="9.1" font-weight="bold" lengthAdjust="spacing" textLength="9.8" x="241.5" y="659.2216">13</text><text fill="#000000" font-family="sans-serif" font-size="9.1" lengthAdjust="spacing" textLength="132.3" x="254.1" y="659.2216">user = getSNSUser() : SNSUSer</text><polygon fill="#181818" points="1647.45,702.0672,1654.45,704.8672,1647.45,707.6672,1650.25,704.8672" style="stroke:#181818;stroke-width:0.6999999999999998;"/><line style="stroke:#181818;stroke-width:0.6999999999999998;" x1="236.6" x2="1651.65" y1="704.8672" y2="704.8672"/><text fill="#000000" font-family="sans-serif" font-size="9.1" font-weight="bold" lengthAdjust="spacing" textLength="9.8" x="241.5" y="701.4677">14</text><text fill="#000000" font-family="sans-serif" font-size="9.1" lengthAdjust="spacing" textLength="160.3" x="254.1" y="701.4677">userDTO = toDTO(user) : SNSUserDTO</text><polygon fill="#181818" points="1907.5,744.3133,1914.5,747.1133,1907.5,749.9133,1910.3,747.1133" style="stroke:#181818;stroke-width:0.6999999999999998;"/><line style="stroke:#181818;stroke-width:0.6999999999999998;" x1="236.6" x2="1911.7" y1="747.1133" y2="747.1133"/><text fill="#000000" font-family="sans-serif" font-size="9.1" font-weight="bold" lengthAdjust="spacing" textLength="9.8" x="241.5" y="743.7138">15</text><text fill="#000000" font-family="sans-serif" font-size="9.1" lengthAdjust="spacing" textLength="98.7" x="254.1" y="743.7138">addUser(userDTO) : void</text><!--MD5=[0d2dd5e80e85909a9873fb3e79ee115a]
@startuml US006_SD

participant ":CountAdministrationsController" as ctrl
participant "singleton:App" as app
participant "company:Company" as cmp
participant "admininistrations:AdministrationStore" as str
participant "centers:VaccinationCenterStore" as cstr
participant "administration:Administration" as adm
participant "user:SNSUser" as usr
participant "center:VaccinationCenter" as cntr
participant "centerDTO:VaccinationCenterDTO" as cDTO
participant "centerMapper:VaccinationCenterMapper" as cMapper
participant "userMapper: SNSUserMapper" as sMapper
participant "userDTO:SNSUserDTO" as sDTO
participant "stats:VaccinationStatistics" as stats
collections "statsList:List" as l

autonumber

note over ctrl
This controller is created with an
attribute called date of type Date
end note
->ctrl: countAdministrations(): List<VaccinationStatistics>
activate ctrl
ctrl -> app : __getInstance()__ : App
ctrl-> app : getCompany() : Company
activate app
deactivate
ctrl -> cmp : getAdministrationStore() : AdministrationStore
activate cmp
deactivate
ctrl -> cmp : getVaccinationCenterStore() : VaccinationCenterStore
activate cmp
deactivate

ctrl -> str : administrations = getAll() : List<Administration>
activate str
deactivate
ctrl -> cstr : centers = getAll() : List<VaccinationCenter>
activate cstr
deactivate
loop over administrations
ctrl -> adm : admDate = getDate() : Date
activate adm
deactivate
alt admDate is not same date as date
ref over ctrl
Remove administration from administrations
end ref
end alt
end loop

ctrl->l**:«create<VaccinationStatistics>»
loop over centers as center
ctrl->cMapper : centerDTO = toDTO(center) : VaccinationCenterDTO
activate cMapper
deactivate
ctrl->stats**: «create(centerDTO)»
loop over administrations
ctrl->adm : admCenter = getCenter() : VaccinationCenter
activate adm
deactivate
alt  admCenter is equal from center
ctrl-> adm : user = getSNSUser() : SNSUSer
activate adm
deactivate
ctrl-> sMapper : userDTO = toDTO(user) : SNSUserDTO
activate sMapper
deactivate
ctrl->stats: addUser(userDTO) : void
activate stats
deactivate
end alt
end loop
end loop
deactivate ctrl

@enduml

PlantUML version 1.2022.5(Sat Apr 30 11:55:52 BST 2022)
(GPL source distribution)
Java Runtime: OpenJDK Runtime Environment
JVM: OpenJDK 64-Bit Server VM
Default Encoding: Cp1252
Language: en
Country: GB
--></g></svg>