<?xml version="1.0" encoding="UTF-8" standalone="no"?><svg xmlns="http://www.w3.org/2000/svg" xmlns:xlink="http://www.w3.org/1999/xlink" contentStyleType="text/css" height="1261px" preserveAspectRatio="none" style="width:1808px;height:1261px;background:#FFFFFF;" version="1.1" viewBox="0 0 1808 1261" width="1808px" zoomAndPan="magnify"><defs/><g><rect fill="#FFFFFF" height="1053.9531" style="stroke:#181818;stroke-width:1.0;" width="10" x="87" y="92.6094"/><rect fill="#FFFFFF" height="1031.6016" style="stroke:#181818;stroke-width:1.0;" width="10" x="381" y="114.9609"/><rect fill="#FFFFFF" height="134.4063" style="stroke:#181818;stroke-width:1.0;" width="10" x="815" y="145.3125"/><rect fill="#FFFFFF" height="226.7188" style="stroke:#181818;stroke-width:1.0;" width="10" x="815" y="492.1797"/><rect fill="#FFFFFF" height="265.9063" style="stroke:#181818;stroke-width:1.0;" width="10" x="815" y="835.3047"/><rect fill="#FFFFFF" height="30.3516" style="stroke:#181818;stroke-width:1.0;" width="10" x="1100" y="175.6641"/><rect fill="#FFFFFF" height="166.0156" style="stroke:#181818;stroke-width:1.0;" width="10" x="1100" y="522.5313"/><rect fill="#FFFFFF" height="105.3125" style="stroke:#181818;stroke-width:1.0;" width="10" x="1385" y="552.8828"/><rect fill="#FFFFFF" height="205.2031" style="stroke:#181818;stroke-width:1.0;" width="10" x="1666.5" y="865.6563"/><rect height="60.9609" style="stroke:#000000;stroke-width:1.5;fill:none;" width="293.5" x="1333.5" y="567.8828"/><rect height="398.1484" style="stroke:#000000;stroke-width:1.5;fill:none;" width="1791.5" x="10" y="764.25"/><rect height="216.2969" style="stroke:#000000;stroke-width:1.5;fill:none;" width="1706" x="20" y="923.2656"/><line style="stroke:#181818;stroke-width:0.5;fill:none;stroke-dasharray:5.0,5.0;" x1="92" x2="92" y1="82.6094" y2="1179.3984"/><line style="stroke:#181818;stroke-width:0.5;fill:none;stroke-dasharray:5.0,5.0;" x1="386" x2="386" y1="82.6094" y2="1179.3984"/><line style="stroke:#181818;stroke-width:0.5;fill:none;stroke-dasharray:5.0,5.0;" x1="820" x2="820" y1="82.6094" y2="1179.3984"/><line style="stroke:#181818;stroke-width:0.5;fill:none;stroke-dasharray:5.0,5.0;" x1="1105" x2="1105" y1="82.6094" y2="1179.3984"/><line style="stroke:#181818;stroke-width:0.5;fill:none;stroke-dasharray:5.0,5.0;" x1="1389.5" x2="1389.5" y1="82.6094" y2="1179.3984"/><line style="stroke:#181818;stroke-width:0.5;fill:none;stroke-dasharray:5.0,5.0;" x1="1545" x2="1545" y1="617.5391" y2="1179.3984"/><line style="stroke:#181818;stroke-width:0.5;fill:none;stroke-dasharray:5.0,5.0;" x1="1671" x2="1671" y1="82.6094" y2="1179.3984"/><line style="stroke:#181818;stroke-width:0.5;fill:none;stroke-dasharray:5.0,5.0;" x1="1772.5" x2="1772.5" y1="904.9609" y2="1179.3984"/><text fill="#000000" font-family="sans-serif" font-size="14" lengthAdjust="spacing" textLength="118" x="30" y="79.5332">CenterCoordinator</text><ellipse cx="92" cy="13.5" fill="#E2E2F0" rx="8" ry="8" style="stroke:#181818;stroke-width:0.5;"/><path d="M92,21.5 L92,48.5 M79,29.5 L105,29.5 M92,48.5 L79,63.5 M92,48.5 L105,63.5 " fill="none" style="stroke:#181818;stroke-width:0.5;"/><text fill="#000000" font-family="sans-serif" font-size="14" lengthAdjust="spacing" textLength="118" x="30" y="1192.9316">CenterCoordinator</text><ellipse cx="92" cy="1204.5078" fill="#E2E2F0" rx="8" ry="8" style="stroke:#181818;stroke-width:0.5;"/><path d="M92,1212.5078 L92,1239.5078 M79,1220.5078 L105,1220.5078 M92,1239.5078 L79,1254.5078 M92,1239.5078 L105,1254.5078 " fill="none" style="stroke:#181818;stroke-width:0.5;"/><rect fill="#E2E2F0" height="31.6094" rx="2.5" ry="2.5" style="stroke:#181818;stroke-width:0.5;" width="148" x="312" y="50"/><text fill="#000000" font-family="sans-serif" font-size="14" lengthAdjust="spacing" textLength="134" x="319" y="71.5332">:CenterCoordinatorUI</text><rect fill="#E2E2F0" height="31.6094" rx="2.5" ry="2.5" style="stroke:#181818;stroke-width:0.5;" width="148" x="312" y="1178.3984"/><text fill="#000000" font-family="sans-serif" font-size="14" lengthAdjust="spacing" textLength="134" x="319" y="1199.9316">:CenterCoordinatorUI</text><rect fill="#E2E2F0" height="31.6094" rx="2.5" ry="2.5" style="stroke:#181818;stroke-width:0.5;" width="198" x="721" y="50"/><text fill="#000000" font-family="sans-serif" font-size="14" lengthAdjust="spacing" textLength="184" x="728" y="71.5332">:CenterCoordinatorController</text><rect fill="#E2E2F0" height="31.6094" rx="2.5" ry="2.5" style="stroke:#181818;stroke-width:0.5;" width="198" x="721" y="1178.3984"/><text fill="#000000" font-family="sans-serif" font-size="14" lengthAdjust="spacing" textLength="184" x="728" y="1199.9316">:CenterCoordinatorController</text><rect fill="#E2E2F0" height="31.6094" rx="2.5" ry="2.5" style="stroke:#181818;stroke-width:0.5;" width="78" x="1066" y="50"/><text fill="#000000" font-family="sans-serif" font-size="14" lengthAdjust="spacing" textLength="64" x="1073" y="71.5332">:Company</text><rect fill="#E2E2F0" height="31.6094" rx="2.5" ry="2.5" style="stroke:#181818;stroke-width:0.5;" width="78" x="1066" y="1178.3984"/><text fill="#000000" font-family="sans-serif" font-size="14" lengthAdjust="spacing" textLength="64" x="1073" y="1199.9316">:Company</text><rect fill="#E2E2F0" height="31.6094" rx="2.5" ry="2.5" style="stroke:#181818;stroke-width:0.5;" width="93" x="1343.5" y="50"/><text fill="#000000" font-family="sans-serif" font-size="14" lengthAdjust="spacing" textLength="79" x="1350.5" y="71.5332">:SnsUserList</text><rect fill="#E2E2F0" height="31.6094" rx="2.5" ry="2.5" style="stroke:#181818;stroke-width:0.5;" width="93" x="1343.5" y="1178.3984"/><text fill="#000000" font-family="sans-serif" font-size="14" lengthAdjust="spacing" textLength="79" x="1350.5" y="1199.9316">:SnsUserList</text><rect fill="#E2E2F0" height="31.6094" rx="2.5" ry="2.5" style="stroke:#181818;stroke-width:0.5;" width="144" x="1473" y="1178.3984"/><text fill="#000000" font-family="sans-serif" font-size="14" lengthAdjust="spacing" textLength="130" x="1480" y="1199.9316">:FullVaccinationDTO</text><rect fill="#E2E2F0" height="49.2188" rx="2.5" ry="2.5" style="stroke:#181818;stroke-width:0.5;" width="89" x="1627" y="32.3906"/><text fill="#000000" font-family="sans-serif" font-size="14" lengthAdjust="spacing" textLength="75" x="1634" y="53.9238">:FileCreator</text><text fill="#000000" font-family="sans-serif" font-size="14" lengthAdjust="spacing" textLength="67" x="1638" y="71.5332">&lt;&lt;Static&gt;&gt;</text><rect fill="#E2E2F0" height="49.2188" rx="2.5" ry="2.5" style="stroke:#181818;stroke-width:0.5;" width="89" x="1627" y="1178.3984"/><text fill="#000000" font-family="sans-serif" font-size="14" lengthAdjust="spacing" textLength="75" x="1634" y="1199.9316">:FileCreator</text><text fill="#000000" font-family="sans-serif" font-size="14" lengthAdjust="spacing" textLength="67" x="1638" y="1217.541">&lt;&lt;Static&gt;&gt;</text><rect fill="#E2E2F0" height="31.6094" rx="2.5" ry="2.5" style="stroke:#181818;stroke-width:0.5;" width="37" x="1754.5" y="1178.3984"/><text fill="#000000" font-family="sans-serif" font-size="14" lengthAdjust="spacing" textLength="23" x="1761.5" y="1199.9316">File</text><rect fill="#FFFFFF" height="1053.9531" style="stroke:#181818;stroke-width:1.0;" width="10" x="87" y="92.6094"/><rect fill="#FFFFFF" height="1031.6016" style="stroke:#181818;stroke-width:1.0;" width="10" x="381" y="114.9609"/><rect fill="#FFFFFF" height="134.4063" style="stroke:#181818;stroke-width:1.0;" width="10" x="815" y="145.3125"/><rect fill="#FFFFFF" height="226.7188" style="stroke:#181818;stroke-width:1.0;" width="10" x="815" y="492.1797"/><rect fill="#FFFFFF" height="265.9063" style="stroke:#181818;stroke-width:1.0;" width="10" x="815" y="835.3047"/><rect fill="#FFFFFF" height="30.3516" style="stroke:#181818;stroke-width:1.0;" width="10" x="1100" y="175.6641"/><rect fill="#FFFFFF" height="166.0156" style="stroke:#181818;stroke-width:1.0;" width="10" x="1100" y="522.5313"/><rect fill="#FFFFFF" height="105.3125" style="stroke:#181818;stroke-width:1.0;" width="10" x="1385" y="552.8828"/><rect fill="#FFFFFF" height="205.2031" style="stroke:#181818;stroke-width:1.0;" width="10" x="1666.5" y="865.6563"/><polygon fill="#181818" points="369,110.9609,379,114.9609,369,118.9609,373,114.9609" style="stroke:#181818;stroke-width:1.0;"/><line style="stroke:#181818;stroke-width:1.0;" x1="97" x2="375" y1="114.9609" y2="114.9609"/><text fill="#000000" font-family="sans-serif" font-size="13" font-weight="bold" lengthAdjust="spacing" textLength="7" x="104" y="110.1045">1</text><text fill="#000000" font-family="sans-serif" font-size="13" lengthAdjust="spacing" textLength="254" x="115" y="110.1045">Starts to check/export vaccination statistics</text><polygon fill="#181818" points="803,141.3125,813,145.3125,803,149.3125,807,145.3125" style="stroke:#181818;stroke-width:1.0;"/><line style="stroke:#181818;stroke-width:1.0;" x1="391" x2="809" y1="145.3125" y2="145.3125"/><text fill="#000000" font-family="sans-serif" font-size="13" font-weight="bold" lengthAdjust="spacing" textLength="7" x="398" y="140.4561">2</text><text fill="#000000" font-family="sans-serif" font-size="13" lengthAdjust="spacing" textLength="108" x="409" y="140.4561">getVacCenterList()</text><polygon fill="#181818" points="1088,171.6641,1098,175.6641,1088,179.6641,1092,175.6641" style="stroke:#181818;stroke-width:1.0;"/><line style="stroke:#181818;stroke-width:1.0;" x1="825" x2="1094" y1="175.6641" y2="175.6641"/><text fill="#000000" font-family="sans-serif" font-size="13" font-weight="bold" lengthAdjust="spacing" textLength="7" x="832" y="170.8076">3</text><text fill="#000000" font-family="sans-serif" font-size="13" lengthAdjust="spacing" textLength="108" x="843" y="170.8076">getVacCenterList()</text><polygon fill="#181818" points="836,202.0156,826,206.0156,836,210.0156,832,206.0156" style="stroke:#181818;stroke-width:1.0;"/><line style="stroke:#181818;stroke-width:1.0;stroke-dasharray:2.0,2.0;" x1="830" x2="1104" y1="206.0156" y2="206.0156"/><text fill="#000000" font-family="sans-serif" font-size="13" font-weight="bold" lengthAdjust="spacing" textLength="7" x="842" y="201.1592">4</text><text fill="#000000" font-family="sans-serif" font-size="13" lengthAdjust="spacing" textLength="78" x="853" y="201.1592">vacCenterList</text><line style="stroke:#181818;stroke-width:1.0;" x1="825" x2="867" y1="236.3672" y2="236.3672"/><line style="stroke:#181818;stroke-width:1.0;" x1="867" x2="867" y1="236.3672" y2="249.3672"/><line style="stroke:#181818;stroke-width:1.0;" x1="826" x2="867" y1="249.3672" y2="249.3672"/><polygon fill="#181818" points="836,245.3672,826,249.3672,836,253.3672,832,249.3672" style="stroke:#181818;stroke-width:1.0;"/><text fill="#000000" font-family="sans-serif" font-size="13" font-weight="bold" lengthAdjust="spacing" textLength="7" x="832" y="231.5107">5</text><text fill="#000000" font-family="sans-serif" font-size="13" lengthAdjust="spacing" textLength="203" x="843" y="231.5107">vacCenterList.showAllVacCenters()</text><polygon fill="#181818" points="402,275.7188,392,279.7188,402,283.7188,398,279.7188" style="stroke:#181818;stroke-width:1.0;"/><line style="stroke:#181818;stroke-width:1.0;stroke-dasharray:2.0,2.0;" x1="396" x2="819" y1="279.7188" y2="279.7188"/><text fill="#000000" font-family="sans-serif" font-size="13" font-weight="bold" lengthAdjust="spacing" textLength="7" x="408" y="274.8623">6</text><text fill="#000000" font-family="sans-serif" font-size="13" lengthAdjust="spacing" textLength="99" x="419" y="274.8623">list of vacCenters</text><polygon fill="#181818" points="108,306.0703,98,310.0703,108,314.0703,104,310.0703" style="stroke:#181818;stroke-width:1.0;"/><line style="stroke:#181818;stroke-width:1.0;stroke-dasharray:2.0,2.0;" x1="102" x2="380" y1="310.0703" y2="310.0703"/><text fill="#000000" font-family="sans-serif" font-size="13" font-weight="bold" lengthAdjust="spacing" textLength="7" x="114" y="305.2139">7</text><text fill="#000000" font-family="sans-serif" font-size="13" lengthAdjust="spacing" textLength="195" x="125" y="305.2139">requests which vaccination center</text><polygon fill="#181818" points="369,336.4219,379,340.4219,369,344.4219,373,340.4219" style="stroke:#181818;stroke-width:1.0;"/><line style="stroke:#181818;stroke-width:1.0;" x1="97" x2="375" y1="340.4219" y2="340.4219"/><text fill="#000000" font-family="sans-serif" font-size="13" font-weight="bold" lengthAdjust="spacing" textLength="7" x="104" y="335.5654">8</text><text fill="#000000" font-family="sans-serif" font-size="13" lengthAdjust="spacing" textLength="157" x="115" y="335.5654">chooses vaccination center</text><polygon fill="#181818" points="108,366.7734,98,370.7734,108,374.7734,104,370.7734" style="stroke:#181818;stroke-width:1.0;"/><line style="stroke:#181818;stroke-width:1.0;stroke-dasharray:2.0,2.0;" x1="102" x2="380" y1="370.7734" y2="370.7734"/><text fill="#000000" font-family="sans-serif" font-size="13" font-weight="bold" lengthAdjust="spacing" textLength="7" x="114" y="365.917">9</text><text fill="#000000" font-family="sans-serif" font-size="13" lengthAdjust="spacing" textLength="134" x="125" y="365.917">requests new operation</text><polygon fill="#181818" points="369,397.125,379,401.125,369,405.125,373,401.125" style="stroke:#181818;stroke-width:1.0;"/><line style="stroke:#181818;stroke-width:1.0;" x1="97" x2="375" y1="401.125" y2="401.125"/><text fill="#000000" font-family="sans-serif" font-size="13" font-weight="bold" lengthAdjust="spacing" textLength="14" x="104" y="396.2686">10</text><text fill="#000000" font-family="sans-serif" font-size="13" lengthAdjust="spacing" textLength="234" x="122" y="396.2686">chooses to check Vaccination Statistics</text><polygon fill="#181818" points="108,427.4766,98,431.4766,108,435.4766,104,431.4766" style="stroke:#181818;stroke-width:1.0;"/><line style="stroke:#181818;stroke-width:1.0;stroke-dasharray:2.0,2.0;" x1="102" x2="380" y1="431.4766" y2="431.4766"/><text fill="#000000" font-family="sans-serif" font-size="13" font-weight="bold" lengthAdjust="spacing" textLength="14" x="114" y="426.6201">11</text><text fill="#000000" font-family="sans-serif" font-size="13" lengthAdjust="spacing" textLength="130" x="132" y="426.6201">asks for a date interval</text><polygon fill="#181818" points="369,457.8281,379,461.8281,369,465.8281,373,461.8281" style="stroke:#181818;stroke-width:1.0;"/><line style="stroke:#181818;stroke-width:1.0;" x1="97" x2="375" y1="461.8281" y2="461.8281"/><text fill="#000000" font-family="sans-serif" font-size="13" font-weight="bold" lengthAdjust="spacing" textLength="14" x="104" y="456.9717">12</text><text fill="#000000" font-family="sans-serif" font-size="13" lengthAdjust="spacing" textLength="108" x="122" y="456.9717">inputs date interval</text><polygon fill="#181818" points="803,488.1797,813,492.1797,803,496.1797,807,492.1797" style="stroke:#181818;stroke-width:1.0;"/><line style="stroke:#181818;stroke-width:1.0;" x1="391" x2="809" y1="492.1797" y2="492.1797"/><text fill="#000000" font-family="sans-serif" font-size="13" font-weight="bold" lengthAdjust="spacing" textLength="14" x="398" y="487.3232">13</text><text fill="#000000" font-family="sans-serif" font-size="13" lengthAdjust="spacing" textLength="238" x="416" y="487.3232">getFullyVaccinated(localDate,localDate2)</text><polygon fill="#181818" points="1088,518.5313,1098,522.5313,1088,526.5313,1092,522.5313" style="stroke:#181818;stroke-width:1.0;"/><line style="stroke:#181818;stroke-width:1.0;" x1="825" x2="1094" y1="522.5313" y2="522.5313"/><text fill="#000000" font-family="sans-serif" font-size="13" font-weight="bold" lengthAdjust="spacing" textLength="14" x="832" y="517.6748">14</text><text fill="#000000" font-family="sans-serif" font-size="13" lengthAdjust="spacing" textLength="238" x="850" y="517.6748">getFullyVaccinated(localDate,localDate2)</text><polygon fill="#181818" points="1373,548.8828,1383,552.8828,1373,556.8828,1377,552.8828" style="stroke:#181818;stroke-width:1.0;"/><line style="stroke:#181818;stroke-width:1.0;" x1="1110" x2="1379" y1="552.8828" y2="552.8828"/><text fill="#000000" font-family="sans-serif" font-size="13" font-weight="bold" lengthAdjust="spacing" textLength="14" x="1117" y="548.0264">15</text><text fill="#000000" font-family="sans-serif" font-size="13" lengthAdjust="spacing" textLength="238" x="1135" y="548.0264">getFullyVaccinated(localDate,localDate2)</text><path d="M1333.5,567.8828 L1406.5,567.8828 L1406.5,576.2344 L1396.5,586.2344 L1333.5,586.2344 L1333.5,567.8828 " fill="#EEEEEE" style="stroke:#000000;stroke-width:1.5;"/><rect fill="none" height="60.9609" style="stroke:#000000;stroke-width:1.5;" width="293.5" x="1333.5" y="567.8828"/><text fill="#000000" font-family="sans-serif" font-size="13" font-weight="bold" lengthAdjust="spacing" textLength="28" x="1348.5" y="582.3779">loop</text><text fill="#000000" font-family="sans-serif" font-size="11" font-weight="bold" lengthAdjust="spacing" textLength="167" x="1421.5" y="581.3018">[for all fully vaccinated people]</text><polygon fill="#181818" points="1461,604.5859,1471,608.5859,1461,612.5859,1465,608.5859" style="stroke:#181818;stroke-width:1.0;"/><line style="stroke:#181818;stroke-width:1.0;" x1="1395" x2="1467" y1="608.5859" y2="608.5859"/><text fill="#000000" font-family="sans-serif" font-size="13" font-weight="bold" lengthAdjust="spacing" textLength="14" x="1402" y="603.7295">16</text><text fill="#000000" font-family="sans-serif" font-size="13" lengthAdjust="spacing" textLength="36" x="1420" y="603.7295">create</text><rect fill="#E2E2F0" height="31.6094" rx="2.5" ry="2.5" style="stroke:#181818;stroke-width:0.5;" width="144" x="1473" y="586.2344"/><text fill="#000000" font-family="sans-serif" font-size="14" lengthAdjust="spacing" textLength="130" x="1480" y="607.7676">:FullVaccinationDTO</text><polygon fill="#181818" points="1121,654.1953,1111,658.1953,1121,662.1953,1117,658.1953" style="stroke:#181818;stroke-width:1.0;"/><line style="stroke:#181818;stroke-width:1.0;stroke-dasharray:2.0,2.0;" x1="1115" x2="1389" y1="658.1953" y2="658.1953"/><text fill="#000000" font-family="sans-serif" font-size="13" font-weight="bold" lengthAdjust="spacing" textLength="14" x="1127" y="653.3389">17</text><text fill="#000000" font-family="sans-serif" font-size="13" lengthAdjust="spacing" textLength="140" x="1145" y="653.3389">FullVaccinationDTO List</text><polygon fill="#181818" points="836,684.5469,826,688.5469,836,692.5469,832,688.5469" style="stroke:#181818;stroke-width:1.0;"/><line style="stroke:#181818;stroke-width:1.0;stroke-dasharray:2.0,2.0;" x1="830" x2="1104" y1="688.5469" y2="688.5469"/><text fill="#000000" font-family="sans-serif" font-size="13" font-weight="bold" lengthAdjust="spacing" textLength="14" x="842" y="683.6904">18</text><text fill="#000000" font-family="sans-serif" font-size="13" lengthAdjust="spacing" textLength="140" x="860" y="683.6904">FullVaccinationDTO List</text><polygon fill="#181818" points="402,714.8984,392,718.8984,402,722.8984,398,718.8984" style="stroke:#181818;stroke-width:1.0;"/><line style="stroke:#181818;stroke-width:1.0;stroke-dasharray:2.0,2.0;" x1="396" x2="819" y1="718.8984" y2="718.8984"/><text fill="#000000" font-family="sans-serif" font-size="13" font-weight="bold" lengthAdjust="spacing" textLength="14" x="408" y="714.042">19</text><text fill="#000000" font-family="sans-serif" font-size="13" lengthAdjust="spacing" textLength="140" x="426" y="714.042">FullVaccinationDTO List</text><polygon fill="#181818" points="108,745.25,98,749.25,108,753.25,104,749.25" style="stroke:#181818;stroke-width:1.0;"/><line style="stroke:#181818;stroke-width:1.0;stroke-dasharray:2.0,2.0;" x1="102" x2="380" y1="749.25" y2="749.25"/><text fill="#000000" font-family="sans-serif" font-size="13" font-weight="bold" lengthAdjust="spacing" textLength="14" x="114" y="744.3936">20</text><text fill="#000000" font-family="sans-serif" font-size="13" lengthAdjust="spacing" textLength="168" x="132" y="744.3936">shows Vaccination Statistics</text><path d="M10,764.25 L71,764.25 L71,772.6016 L61,782.6016 L10,782.6016 L10,764.25 " fill="#EEEEEE" style="stroke:#000000;stroke-width:1.5;"/><rect fill="none" height="398.1484" style="stroke:#000000;stroke-width:1.5;" width="1791.5" x="10" y="764.25"/><text fill="#000000" font-family="sans-serif" font-size="13" font-weight="bold" lengthAdjust="spacing" textLength="16" x="25" y="778.7451">alt</text><text fill="#000000" font-family="sans-serif" font-size="11" font-weight="bold" lengthAdjust="spacing" textLength="156" x="86" y="777.6689">[in case CC wants to export]</text><polygon fill="#181818" points="369,800.9531,379,804.9531,369,808.9531,373,804.9531" style="stroke:#181818;stroke-width:1.0;"/><line style="stroke:#181818;stroke-width:1.0;" x1="97" x2="375" y1="804.9531" y2="804.9531"/><text fill="#000000" font-family="sans-serif" font-size="13" font-weight="bold" lengthAdjust="spacing" textLength="14" x="104" y="800.0967">21</text><text fill="#000000" font-family="sans-serif" font-size="13" lengthAdjust="spacing" textLength="133" x="122" y="800.0967">chooses to export data</text><polygon fill="#181818" points="803,831.3047,813,835.3047,803,839.3047,807,835.3047" style="stroke:#181818;stroke-width:1.0;"/><line style="stroke:#181818;stroke-width:1.0;" x1="391" x2="809" y1="835.3047" y2="835.3047"/><text fill="#000000" font-family="sans-serif" font-size="13" font-weight="bold" lengthAdjust="spacing" textLength="14" x="398" y="830.4482">22</text><text fill="#000000" font-family="sans-serif" font-size="13" lengthAdjust="spacing" textLength="387" x="416" y="830.4482">treatVaccinationData(fullyVaccinatedDTOList,localDate,localDate2)</text><polygon fill="#181818" points="1654.5,861.6563,1664.5,865.6563,1654.5,869.6563,1658.5,865.6563" style="stroke:#181818;stroke-width:1.0;"/><line style="stroke:#181818;stroke-width:1.0;" x1="825" x2="1660.5" y1="865.6563" y2="865.6563"/><text fill="#000000" font-family="sans-serif" font-size="13" font-weight="bold" lengthAdjust="spacing" textLength="14" x="832" y="860.7998">23</text><text fill="#000000" font-family="sans-serif" font-size="13" lengthAdjust="spacing" textLength="387" x="850" y="860.7998">treatVaccinationData(fullyVaccinatedDTOList,localDate,localDate2)</text><polygon fill="#181818" points="1742.5,892.0078,1752.5,896.0078,1742.5,900.0078,1746.5,896.0078" style="stroke:#181818;stroke-width:1.0;"/><line style="stroke:#181818;stroke-width:1.0;" x1="1676.5" x2="1748.5" y1="896.0078" y2="896.0078"/><text fill="#000000" font-family="sans-serif" font-size="13" font-weight="bold" lengthAdjust="spacing" textLength="14" x="1683.5" y="891.1514">24</text><text fill="#000000" font-family="sans-serif" font-size="13" lengthAdjust="spacing" textLength="36" x="1701.5" y="891.1514">create</text><rect fill="#E2E2F0" height="31.6094" rx="2.5" ry="2.5" style="stroke:#181818;stroke-width:0.5;" width="37" x="1754.5" y="873.6563"/><text fill="#000000" font-family="sans-serif" font-size="14" lengthAdjust="spacing" textLength="23" x="1761.5" y="895.1895">File</text><path d="M20,923.2656 L81,923.2656 L81,931.6172 L71,941.6172 L20,941.6172 L20,923.2656 " fill="#EEEEEE" style="stroke:#000000;stroke-width:1.5;"/><rect fill="none" height="216.2969" style="stroke:#000000;stroke-width:1.5;" width="1706" x="20" y="923.2656"/><text fill="#000000" font-family="sans-serif" font-size="13" font-weight="bold" lengthAdjust="spacing" textLength="16" x="35" y="937.7607">alt</text><text fill="#000000" font-family="sans-serif" font-size="11" font-weight="bold" lengthAdjust="spacing" textLength="121" x="96" y="936.6846">[exportation success]</text><polygon fill="#181818" points="836,959.9688,826,963.9688,836,967.9688,832,963.9688" style="stroke:#181818;stroke-width:1.0;"/><line style="stroke:#181818;stroke-width:1.0;stroke-dasharray:2.0,2.0;" x1="830" x2="1665.5" y1="963.9688" y2="963.9688"/><text fill="#000000" font-family="sans-serif" font-size="13" font-weight="bold" lengthAdjust="spacing" textLength="14" x="842" y="959.1123">25</text><text fill="#000000" font-family="sans-serif" font-size="13" lengthAdjust="spacing" textLength="158" x="860" y="959.1123">shows exportation success</text><polygon fill="#181818" points="402,990.3203,392,994.3203,402,998.3203,398,994.3203" style="stroke:#181818;stroke-width:1.0;"/><line style="stroke:#181818;stroke-width:1.0;stroke-dasharray:2.0,2.0;" x1="396" x2="814" y1="994.3203" y2="994.3203"/><text fill="#000000" font-family="sans-serif" font-size="13" font-weight="bold" lengthAdjust="spacing" textLength="14" x="408" y="989.4639">26</text><text fill="#000000" font-family="sans-serif" font-size="13" lengthAdjust="spacing" textLength="158" x="426" y="989.4639">shows exportation success</text><polygon fill="#181818" points="108,1020.6719,98,1024.6719,108,1028.6719,104,1024.6719" style="stroke:#181818;stroke-width:1.0;"/><line style="stroke:#181818;stroke-width:1.0;stroke-dasharray:2.0,2.0;" x1="102" x2="380" y1="1024.6719" y2="1024.6719"/><text fill="#000000" font-family="sans-serif" font-size="13" font-weight="bold" lengthAdjust="spacing" textLength="14" x="114" y="1019.8154">27</text><text fill="#000000" font-family="sans-serif" font-size="13" lengthAdjust="spacing" textLength="158" x="132" y="1019.8154">shows exportation success</text><line style="stroke:#000000;stroke-width:1.0;stroke-dasharray:2.0,2.0;" x1="20" x2="1726" y1="1033.6719" y2="1033.6719"/><text fill="#000000" font-family="sans-serif" font-size="11" font-weight="bold" lengthAdjust="spacing" textLength="131" x="25" y="1045.0908">[exportation insuccess]</text><polygon fill="#181818" points="836,1066.8594,826,1070.8594,836,1074.8594,832,1070.8594" style="stroke:#181818;stroke-width:1.0;"/><line style="stroke:#181818;stroke-width:1.0;stroke-dasharray:2.0,2.0;" x1="830" x2="1670.5" y1="1070.8594" y2="1070.8594"/><text fill="#000000" font-family="sans-serif" font-size="13" font-weight="bold" lengthAdjust="spacing" textLength="14" x="842" y="1066.0029">28</text><text fill="#000000" font-family="sans-serif" font-size="13" lengthAdjust="spacing" textLength="26" x="860" y="1066.0029">error</text><polygon fill="#181818" points="402,1097.2109,392,1101.2109,402,1105.2109,398,1101.2109" style="stroke:#181818;stroke-width:1.0;"/><line style="stroke:#181818;stroke-width:1.0;stroke-dasharray:2.0,2.0;" x1="396" x2="819" y1="1101.2109" y2="1101.2109"/><text fill="#000000" font-family="sans-serif" font-size="13" font-weight="bold" lengthAdjust="spacing" textLength="14" x="408" y="1096.3545">29</text><text fill="#000000" font-family="sans-serif" font-size="13" lengthAdjust="spacing" textLength="26" x="426" y="1096.3545">error</text><polygon fill="#181818" points="108,1127.5625,98,1131.5625,108,1135.5625,104,1131.5625" style="stroke:#181818;stroke-width:1.0;"/><line style="stroke:#181818;stroke-width:1.0;stroke-dasharray:2.0,2.0;" x1="102" x2="380" y1="1131.5625" y2="1131.5625"/><text fill="#000000" font-family="sans-serif" font-size="13" font-weight="bold" lengthAdjust="spacing" textLength="14" x="114" y="1126.7061">30</text><text fill="#000000" font-family="sans-serif" font-size="13" lengthAdjust="spacing" textLength="168" x="132" y="1126.7061">shows exportation insuccess</text><line style="stroke:#000000;stroke-width:1.0;stroke-dasharray:2.0,2.0;" x1="10" x2="1801.5" y1="1147.5625" y2="1147.5625"/><text fill="#000000" font-family="sans-serif" font-size="11" font-weight="bold" lengthAdjust="spacing" textLength="240" x="15" y="1158.9814">[CenterCoordinator doesn't want to export]</text><!--MD5=[ebd372322ff9f7ab79556311ff97fd60]
@startuml
autonumber
actor "CenterCoordinator" as CC

participant ":CenterCoordinatorUI" as UI
participant ":CenterCoordinatorController" as CTRL
participant ":Company" as ORG
participant ":SnsUserList" as USERLIST
participant ":FullVaccinationDTO" as DTO
participant ":FileCreator\n<<Static>>" as FC
participant ":File" as FC


activate CC
CC -> UI: Starts to check/export vaccination statistics
activate UI

UI -> CTRL: getVacCenterList()
activate CTRL
CTRL -> ORG: getVacCenterList()
activate ORG
ORG - -> CTRL: vacCenterList
deactivate ORG
CTRL -> CTRL: vacCenterList.showAllVacCenters()
CTRL - -> UI: list of vacCenters
deactivate CTRL


UI - -> CC : requests which vaccination center

CC -> UI : chooses vaccination center

UI - -> "CC" : requests new operation

CC -> UI : chooses to check Vaccination Statistics

UI - -> CC : asks for a date interval

CC -> UI : inputs date interval

UI -> CTRL: getFullyVaccinated(localDate,localDate2)
activate CTRL

CTRL -> ORG: getFullyVaccinated(localDate,localDate2)
activate ORG

ORG -> USERLIST: getFullyVaccinated(localDate,localDate2)
activate USERLIST

loop for all fully vaccinated people
USERLIST -> DTO **: create
end

USERLIST - -> ORG: FullVaccinationDTO List
deactivate USERLIST

ORG - -> CTRL: FullVaccinationDTO List
deactivate ORG

CTRL - -> UI: FullVaccinationDTO List




deactivate CTRL
UI - -> CC : shows Vaccination Statistics

alt in case CC wants to export

    CC -> UI: chooses to export data

    UI -> CTRL: treatVaccinationData(fullyVaccinatedDTOList,localDate,localDate2)
    activate CTRL

    CTRL -> FC: treatVaccinationData(fullyVaccinatedDTOList,localDate,localDate2)
    activate FC
    FC -> File**: create

    alt exportation success

        FC - -> CTRL: shows exportation success
        CTRL - -> UI : shows exportation success
        UI - -> CC : shows exportation success

    else exportation insuccess

        FC - -> CTRL: error
        deactivate FC
        CTRL - -> UI : error
        deactivate CTRL
        UI - -> CC : shows exportation insuccess
    end

    deactivate UI

    deactivate CC
else CenterCoordinator doesn't want to export

end


@enduml

PlantUML version 1.2022.5(Sat Apr 30 11:55:52 BST 2022)
(GPL source distribution)
Java Runtime: OpenJDK Runtime Environment
JVM: OpenJDK 64-Bit Server VM
Default Encoding: Cp1252
Language: en
Country: GB
--></g></svg>