<?xml version="1.0" encoding="UTF-8" standalone="no"?><svg xmlns="http://www.w3.org/2000/svg" xmlns:xlink="http://www.w3.org/1999/xlink" contentStyleType="text/css" height="614px" preserveAspectRatio="none" style="width:445px;height:614px;background:#FFFFFF;" version="1.1" viewBox="0 0 445 614" width="445px" zoomAndPan="magnify"><defs/><g><rect fill="#FFFFFF" height="407.4063" style="stroke:#181818;stroke-width:1.0;" width="10" x="87" y="92.6094"/><rect fill="#FFFFFF" height="385.0547" style="stroke:#181818;stroke-width:1.0;" width="10" x="381" y="114.9609"/><rect height="173.4297" style="stroke:#000000;stroke-width:1.5;fill:none;" width="428" x="10" y="342.4219"/><rect height="94.8906" style="stroke:#000000;stroke-width:1.5;fill:none;" width="408" x="20" y="398.125"/><line style="stroke:#181818;stroke-width:0.5;fill:none;stroke-dasharray:5.0,5.0;" x1="92" x2="92" y1="82.6094" y2="532.8516"/><line style="stroke:#181818;stroke-width:0.5;fill:none;stroke-dasharray:5.0,5.0;" x1="386" x2="386" y1="82.6094" y2="532.8516"/><text fill="#000000" font-family="sans-serif" font-size="14" lengthAdjust="spacing" textLength="118" x="30" y="79.5332">CenterCoordinator</text><ellipse cx="92" cy="13.5" fill="#E2E2F0" rx="8" ry="8" style="stroke:#181818;stroke-width:0.5;"/><path d="M92,21.5 L92,48.5 M79,29.5 L105,29.5 M92,48.5 L79,63.5 M92,48.5 L105,63.5 " fill="none" style="stroke:#181818;stroke-width:0.5;"/><text fill="#000000" font-family="sans-serif" font-size="14" lengthAdjust="spacing" textLength="118" x="30" y="546.3848">CenterCoordinator</text><ellipse cx="92" cy="557.9609" fill="#E2E2F0" rx="8" ry="8" style="stroke:#181818;stroke-width:0.5;"/><path d="M92,565.9609 L92,592.9609 M79,573.9609 L105,573.9609 M92,592.9609 L79,607.9609 M92,592.9609 L105,607.9609 " fill="none" style="stroke:#181818;stroke-width:0.5;"/><rect fill="#E2E2F0" height="31.6094" rx="2.5" ry="2.5" style="stroke:#181818;stroke-width:0.5;" width="64" x="354" y="50"/><text fill="#000000" font-family="sans-serif" font-size="14" lengthAdjust="spacing" textLength="50" x="361" y="71.5332">:System</text><rect fill="#E2E2F0" height="31.6094" rx="2.5" ry="2.5" style="stroke:#181818;stroke-width:0.5;" width="64" x="354" y="531.8516"/><text fill="#000000" font-family="sans-serif" font-size="14" lengthAdjust="spacing" textLength="50" x="361" y="553.3848">:System</text><rect fill="#FFFFFF" height="407.4063" style="stroke:#181818;stroke-width:1.0;" width="10" x="87" y="92.6094"/><rect fill="#FFFFFF" height="385.0547" style="stroke:#181818;stroke-width:1.0;" width="10" x="381" y="114.9609"/><polygon fill="#181818" points="369,110.9609,379,114.9609,369,118.9609,373,114.9609" style="stroke:#181818;stroke-width:1.0;"/><line style="stroke:#181818;stroke-width:1.0;" x1="97" x2="375" y1="114.9609" y2="114.9609"/><text fill="#000000" font-family="sans-serif" font-size="13" font-weight="bold" lengthAdjust="spacing" textLength="7" x="104" y="110.1045">1</text><text fill="#000000" font-family="sans-serif" font-size="13" lengthAdjust="spacing" textLength="254" x="115" y="110.1045">Starts to check/export vaccination statistics</text><polygon fill="#181818" points="108,141.3125,98,145.3125,108,149.3125,104,145.3125" style="stroke:#181818;stroke-width:1.0;"/><line style="stroke:#181818;stroke-width:1.0;stroke-dasharray:2.0,2.0;" x1="102" x2="380" y1="145.3125" y2="145.3125"/><text fill="#000000" font-family="sans-serif" font-size="13" font-weight="bold" lengthAdjust="spacing" textLength="7" x="114" y="140.4561">2</text><text fill="#000000" font-family="sans-serif" font-size="13" lengthAdjust="spacing" textLength="195" x="125" y="140.4561">requests which vaccination center</text><polygon fill="#181818" points="369,171.6641,379,175.6641,369,179.6641,373,175.6641" style="stroke:#181818;stroke-width:1.0;"/><line style="stroke:#181818;stroke-width:1.0;" x1="97" x2="375" y1="175.6641" y2="175.6641"/><text fill="#000000" font-family="sans-serif" font-size="13" font-weight="bold" lengthAdjust="spacing" textLength="7" x="104" y="170.8076">3</text><text fill="#000000" font-family="sans-serif" font-size="13" lengthAdjust="spacing" textLength="157" x="115" y="170.8076">chooses vaccination center</text><polygon fill="#181818" points="108,202.0156,98,206.0156,108,210.0156,104,206.0156" style="stroke:#181818;stroke-width:1.0;"/><line style="stroke:#181818;stroke-width:1.0;stroke-dasharray:2.0,2.0;" x1="102" x2="380" y1="206.0156" y2="206.0156"/><text fill="#000000" font-family="sans-serif" font-size="13" font-weight="bold" lengthAdjust="spacing" textLength="7" x="114" y="201.1592">4</text><text fill="#000000" font-family="sans-serif" font-size="13" lengthAdjust="spacing" textLength="134" x="125" y="201.1592">requests new operation</text><polygon fill="#181818" points="369,232.3672,379,236.3672,369,240.3672,373,236.3672" style="stroke:#181818;stroke-width:1.0;"/><line style="stroke:#181818;stroke-width:1.0;" x1="97" x2="375" y1="236.3672" y2="236.3672"/><text fill="#000000" font-family="sans-serif" font-size="13" font-weight="bold" lengthAdjust="spacing" textLength="7" x="104" y="231.5107">5</text><text fill="#000000" font-family="sans-serif" font-size="13" lengthAdjust="spacing" textLength="234" x="115" y="231.5107">chooses to check Vaccination Statistics</text><polygon fill="#181818" points="108,262.7188,98,266.7188,108,270.7188,104,266.7188" style="stroke:#181818;stroke-width:1.0;"/><line style="stroke:#181818;stroke-width:1.0;stroke-dasharray:2.0,2.0;" x1="102" x2="380" y1="266.7188" y2="266.7188"/><text fill="#000000" font-family="sans-serif" font-size="13" font-weight="bold" lengthAdjust="spacing" textLength="7" x="114" y="261.8623">6</text><text fill="#000000" font-family="sans-serif" font-size="13" lengthAdjust="spacing" textLength="130" x="125" y="261.8623">asks for a date interval</text><polygon fill="#181818" points="369,293.0703,379,297.0703,369,301.0703,373,297.0703" style="stroke:#181818;stroke-width:1.0;"/><line style="stroke:#181818;stroke-width:1.0;" x1="97" x2="375" y1="297.0703" y2="297.0703"/><text fill="#000000" font-family="sans-serif" font-size="13" font-weight="bold" lengthAdjust="spacing" textLength="7" x="104" y="292.2139">7</text><text fill="#000000" font-family="sans-serif" font-size="13" lengthAdjust="spacing" textLength="108" x="115" y="292.2139">inputs date interval</text><polygon fill="#181818" points="108,323.4219,98,327.4219,108,331.4219,104,327.4219" style="stroke:#181818;stroke-width:1.0;"/><line style="stroke:#181818;stroke-width:1.0;stroke-dasharray:2.0,2.0;" x1="102" x2="380" y1="327.4219" y2="327.4219"/><text fill="#000000" font-family="sans-serif" font-size="13" font-weight="bold" lengthAdjust="spacing" textLength="7" x="114" y="322.5654">8</text><text fill="#000000" font-family="sans-serif" font-size="13" lengthAdjust="spacing" textLength="168" x="125" y="322.5654">shows Vaccination Statistics</text><path d="M10,342.4219 L71,342.4219 L71,350.7734 L61,360.7734 L10,360.7734 L10,342.4219 " fill="#EEEEEE" style="stroke:#000000;stroke-width:1.5;"/><rect fill="none" height="173.4297" style="stroke:#000000;stroke-width:1.5;" width="428" x="10" y="342.4219"/><text fill="#000000" font-family="sans-serif" font-size="13" font-weight="bold" lengthAdjust="spacing" textLength="16" x="25" y="356.917">alt</text><text fill="#000000" font-family="sans-serif" font-size="11" font-weight="bold" lengthAdjust="spacing" textLength="156" x="86" y="355.8408">[in case CC wants to export]</text><polygon fill="#181818" points="369,379.125,379,383.125,369,387.125,373,383.125" style="stroke:#181818;stroke-width:1.0;"/><line style="stroke:#181818;stroke-width:1.0;" x1="97" x2="375" y1="383.125" y2="383.125"/><text fill="#000000" font-family="sans-serif" font-size="13" font-weight="bold" lengthAdjust="spacing" textLength="7" x="104" y="378.2686">9</text><text fill="#000000" font-family="sans-serif" font-size="13" lengthAdjust="spacing" textLength="133" x="115" y="378.2686">chooses to export data</text><path d="M20,398.125 L81,398.125 L81,406.4766 L71,416.4766 L20,416.4766 L20,398.125 " fill="#EEEEEE" style="stroke:#000000;stroke-width:1.5;"/><rect fill="none" height="94.8906" style="stroke:#000000;stroke-width:1.5;" width="408" x="20" y="398.125"/><text fill="#000000" font-family="sans-serif" font-size="13" font-weight="bold" lengthAdjust="spacing" textLength="16" x="35" y="412.6201">alt</text><text fill="#000000" font-family="sans-serif" font-size="11" font-weight="bold" lengthAdjust="spacing" textLength="121" x="96" y="411.5439">[exportation success]</text><polygon fill="#181818" points="108,434.8281,98,438.8281,108,442.8281,104,438.8281" style="stroke:#181818;stroke-width:1.0;"/><line style="stroke:#181818;stroke-width:1.0;stroke-dasharray:2.0,2.0;" x1="102" x2="380" y1="438.8281" y2="438.8281"/><text fill="#000000" font-family="sans-serif" font-size="13" font-weight="bold" lengthAdjust="spacing" textLength="14" x="114" y="433.9717">10</text><text fill="#000000" font-family="sans-serif" font-size="13" lengthAdjust="spacing" textLength="158" x="132" y="433.9717">shows exportation success</text><line style="stroke:#000000;stroke-width:1.0;stroke-dasharray:2.0,2.0;" x1="20" x2="428" y1="447.8281" y2="447.8281"/><text fill="#000000" font-family="sans-serif" font-size="11" font-weight="bold" lengthAdjust="spacing" textLength="131" x="25" y="459.2471">[exportation insuccess]</text><polygon fill="#181818" points="108,481.0156,98,485.0156,108,489.0156,104,485.0156" style="stroke:#181818;stroke-width:1.0;"/><line style="stroke:#181818;stroke-width:1.0;stroke-dasharray:2.0,2.0;" x1="102" x2="380" y1="485.0156" y2="485.0156"/><text fill="#000000" font-family="sans-serif" font-size="13" font-weight="bold" lengthAdjust="spacing" textLength="14" x="114" y="480.1592">11</text><text fill="#000000" font-family="sans-serif" font-size="13" lengthAdjust="spacing" textLength="168" x="132" y="480.1592">shows exportation insuccess</text><line style="stroke:#000000;stroke-width:1.0;stroke-dasharray:2.0,2.0;" x1="10" x2="438" y1="501.0156" y2="501.0156"/><text fill="#000000" font-family="sans-serif" font-size="11" font-weight="bold" lengthAdjust="spacing" textLength="240" x="15" y="512.4346">[CenterCoordinator doesn't want to export]</text><!--MD5=[6585803411e410e7c9344688dea5c010]
@startuml
autonumber
actor "CenterCoordinator" as CC

activate CC
CC -> ":System" : Starts to check/export vaccination statistics
activate ":System"
":System" - -> CC : requests which vaccination center

CC -> ":System" : chooses vaccination center

":System" - -> "CC" : requests new operation

CC -> ":System" : chooses to check Vaccination Statistics

":System" - -> CC : asks for a date interval

CC -> ":System" : inputs date interval

":System" - -> CC : shows Vaccination Statistics

alt in case CC wants to export

    CC -> ":System": chooses to export data

    alt exportation success

        ":System" - -> CC : shows exportation success

    else exportation insuccess

        ":System" - -> CC : shows exportation insuccess
    end

    deactivate ":System"

    deactivate CC
else CenterCoordinator doesn't want to export

end


@enduml

PlantUML version 1.2022.5(Sat Apr 30 11:55:52 BST 2022)
(GPL source distribution)
Java Runtime: OpenJDK Runtime Environment
JVM: OpenJDK 64-Bit Server VM
Default Encoding: Cp1252
Language: en
Country: GB
--></g></svg>