<?xml version="1.0" encoding="UTF-8" standalone="no"?><svg xmlns="http://www.w3.org/2000/svg" xmlns:xlink="http://www.w3.org/1999/xlink" contentStyleType="text/css" height="565px" preserveAspectRatio="none" style="width:1550px;height:565px;background:#FFFFFF;" version="1.1" viewBox="0 0 1550 565" width="1550px" zoomAndPan="magnify"><defs/><g><!--MD5=[de60e6d4f424ae4d0522096f76a59010]
class VaccinationCenter--><g id="elem_VaccinationCenter"><rect codeLine="5" fill="#F1F1F1" height="233.7031" id="VaccinationCenter" rx="2.5" ry="2.5" style="stroke:#181818;stroke-width:0.5;" width="148" x="195" y="7"/><ellipse cx="210" cy="23" fill="#ADD1B2" rx="11" ry="11" style="stroke:#181818;stroke-width:1.0;"/><path d="M212,19.5 Q212.2031,19 212.4375,18.75 Q212.6719,18.5 212.9375,18.5 Q213.4063,18.5 213.7031,18.7813 Q214,19.0625 214,19.7188 L214,21.2813 Q214,21.9375 213.7188,22.2188 Q213.4375,22.5 213,22.5 Q212.6094,22.5 212.3594,22.3281 Q212.1094,22.1563 212,21.7031 Q211.9531,21.3906 211.7813,21.2188 Q211.4688,20.8906 210.9063,20.7031 Q210.3438,20.5 209.7813,20.5 Q209.0781,20.5 208.4844,20.7813 Q207.9063,21.0625 207.4531,21.6875 Q207,22.3125 207,23.1719 L207,24.0938 Q207,25.125 207.8438,25.8125 Q208.6875,26.5 210.1875,26.5 Q211.0781,26.5 211.7031,26.2969 Q212.0625,26.1875 212.4688,25.8281 Q212.7344,25.625 212.875,25.5625 Q213.0156,25.5 213.1875,25.5 Q213.5156,25.5 213.75,25.7656 Q214,26.0156 214,26.375 Q214,26.7188 213.6563,27.125 Q213.1563,27.7188 212.3594,28.0469 Q211.3125,28.5 210.0313,28.5 Q208.5313,28.5 207.3281,27.9063 Q206.3594,27.4375 205.6719,26.4219 Q205,25.4063 205,24.2031 L205,23.1094 Q205,21.8594 205.5938,20.7656 Q206.2031,19.6719 207.25,19.0938 Q208.3125,18.5 209.5,18.5 Q210.2188,18.5 210.8438,18.75 Q211.4688,19 212,19.5 Z " fill="#000000"/><text fill="#000000" font-family="sans-serif" font-size="14" lengthAdjust="spacing" textLength="116" x="224" y="28.7285">VaccinationCenter</text><line style="stroke:#181818;stroke-width:0.5;" x1="196" x2="342" y1="39" y2="39"/><text fill="#000000" font-family="sans-serif" font-size="14" lengthAdjust="spacing" textLength="40" x="201" y="57.5332">-name</text><text fill="#000000" font-family="sans-serif" font-size="14" lengthAdjust="spacing" textLength="56" x="201" y="75.1426">-address</text><text fill="#000000" font-family="sans-serif" font-size="14" lengthAdjust="spacing" textLength="94" x="201" y="92.752">-phoneNumber</text><text fill="#000000" font-family="sans-serif" font-size="14" lengthAdjust="spacing" textLength="90" x="201" y="110.3613">-emailAddress</text><text fill="#000000" font-family="sans-serif" font-size="14" lengthAdjust="spacing" textLength="72" x="201" y="127.9707">-faxNumber</text><text fill="#000000" font-family="sans-serif" font-size="14" lengthAdjust="spacing" textLength="104" x="201" y="145.5801">-websiteAddress</text><text fill="#000000" font-family="sans-serif" font-size="14" lengthAdjust="spacing" textLength="93" x="201" y="163.1895">-openingHours</text><text fill="#000000" font-family="sans-serif" font-size="14" lengthAdjust="spacing" textLength="86" x="201" y="180.7988">-closingHours</text><text fill="#000000" font-family="sans-serif" font-size="14" lengthAdjust="spacing" textLength="81" x="201" y="198.4082">-slotDuration</text><text fill="#000000" font-family="sans-serif" font-size="14" lengthAdjust="spacing" textLength="127" x="201" y="216.0176">-maxNumVaxPerSlot</text><text fill="#000000" font-family="sans-serif" font-size="14" lengthAdjust="spacing" textLength="57" x="201" y="233.627">-capacity</text></g><!--MD5=[02e4b9b7573f1156f41e60aa5b4e25a4]
class Company--><g id="elem_Company"><rect codeLine="20" fill="#F1F1F1" height="40" id="Company" rx="2.5" ry="2.5" style="stroke:#181818;stroke-width:0.5;" width="92" x="7" y="351"/><ellipse cx="22" cy="367" fill="#ADD1B2" rx="11" ry="11" style="stroke:#181818;stroke-width:1.0;"/><path d="M24,363.5 Q24.2031,363 24.4375,362.75 Q24.6719,362.5 24.9375,362.5 Q25.4063,362.5 25.7031,362.7813 Q26,363.0625 26,363.7188 L26,365.2813 Q26,365.9375 25.7188,366.2188 Q25.4375,366.5 25,366.5 Q24.6094,366.5 24.3594,366.3281 Q24.1094,366.1563 24,365.7031 Q23.9531,365.3906 23.7813,365.2188 Q23.4688,364.8906 22.9063,364.7031 Q22.3438,364.5 21.7813,364.5 Q21.0781,364.5 20.4844,364.7813 Q19.9063,365.0625 19.4531,365.6875 Q19,366.3125 19,367.1719 L19,368.0938 Q19,369.125 19.8438,369.8125 Q20.6875,370.5 22.1875,370.5 Q23.0781,370.5 23.7031,370.2969 Q24.0625,370.1875 24.4688,369.8281 Q24.7344,369.625 24.875,369.5625 Q25.0156,369.5 25.1875,369.5 Q25.5156,369.5 25.75,369.7656 Q26,370.0156 26,370.375 Q26,370.7188 25.6563,371.125 Q25.1563,371.7188 24.3594,372.0469 Q23.3125,372.5 22.0313,372.5 Q20.5313,372.5 19.3281,371.9063 Q18.3594,371.4375 17.6719,370.4219 Q17,369.4063 17,368.2031 L17,367.1094 Q17,365.8594 17.5938,364.7656 Q18.2031,363.6719 19.25,363.0938 Q20.3125,362.5 21.5,362.5 Q22.2188,362.5 22.8438,362.75 Q23.4688,363 24,363.5 Z " fill="#000000"/><text fill="#000000" font-family="sans-serif" font-size="14" lengthAdjust="spacing" textLength="60" x="36" y="372.7285">Company</text><line style="stroke:#181818;stroke-width:0.5;" x1="8" x2="98" y1="383" y2="383"/></g><!--MD5=[72be06cc7ae02ccc98efe28a50e62246]
class SNSUser--><g id="elem_SNSUser"><rect codeLine="24" fill="#F1F1F1" height="128.0469" id="SNSUser" rx="2.5" ry="2.5" style="stroke:#181818;stroke-width:0.5;" width="88" x="225" y="351"/><ellipse cx="240" cy="367" fill="#ADD1B2" rx="11" ry="11" style="stroke:#181818;stroke-width:1.0;"/><path d="M242,363.5 Q242.2031,363 242.4375,362.75 Q242.6719,362.5 242.9375,362.5 Q243.4063,362.5 243.7031,362.7813 Q244,363.0625 244,363.7188 L244,365.2813 Q244,365.9375 243.7188,366.2188 Q243.4375,366.5 243,366.5 Q242.6094,366.5 242.3594,366.3281 Q242.1094,366.1563 242,365.7031 Q241.9531,365.3906 241.7813,365.2188 Q241.4688,364.8906 240.9063,364.7031 Q240.3438,364.5 239.7813,364.5 Q239.0781,364.5 238.4844,364.7813 Q237.9063,365.0625 237.4531,365.6875 Q237,366.3125 237,367.1719 L237,368.0938 Q237,369.125 237.8438,369.8125 Q238.6875,370.5 240.1875,370.5 Q241.0781,370.5 241.7031,370.2969 Q242.0625,370.1875 242.4688,369.8281 Q242.7344,369.625 242.875,369.5625 Q243.0156,369.5 243.1875,369.5 Q243.5156,369.5 243.75,369.7656 Q244,370.0156 244,370.375 Q244,370.7188 243.6563,371.125 Q243.1563,371.7188 242.3594,372.0469 Q241.3125,372.5 240.0313,372.5 Q238.5313,372.5 237.3281,371.9063 Q236.3594,371.4375 235.6719,370.4219 Q235,369.4063 235,368.2031 L235,367.1094 Q235,365.8594 235.5938,364.7656 Q236.2031,363.6719 237.25,363.0938 Q238.3125,362.5 239.5,362.5 Q240.2188,362.5 240.8438,362.75 Q241.4688,363 242,363.5 Z " fill="#000000"/><text fill="#000000" font-family="sans-serif" font-size="14" lengthAdjust="spacing" textLength="56" x="254" y="372.7285">SNSUser</text><line style="stroke:#181818;stroke-width:0.5;" x1="226" x2="312" y1="383" y2="383"/><text fill="#000000" font-family="sans-serif" font-size="14" lengthAdjust="spacing" textLength="76" x="231" y="401.5332">-snsNumber</text><text fill="#000000" font-family="sans-serif" font-size="14" lengthAdjust="spacing" textLength="40" x="231" y="419.1426">-name</text><text fill="#000000" font-family="sans-serif" font-size="14" lengthAdjust="spacing" textLength="29" x="231" y="436.752">-age</text><text fill="#000000" font-family="sans-serif" font-size="14" lengthAdjust="spacing" textLength="73" x="231" y="454.3613">-phoneNum</text><text fill="#000000" font-family="sans-serif" font-size="14" lengthAdjust="spacing" textLength="38" x="231" y="471.9707">-email</text></g><!--MD5=[896d2519f405e74f6898b5ee922ef4fe]
class UserVaccines--><g id="elem_UserVaccines"><rect codeLine="32" fill="#F1F1F1" height="40" id="UserVaccines" rx="2.5" ry="2.5" style="stroke:#181818;stroke-width:0.5;" width="118" x="439" y="395"/><ellipse cx="454" cy="411" fill="#ADD1B2" rx="11" ry="11" style="stroke:#181818;stroke-width:1.0;"/><path d="M456,407.5 Q456.2031,407 456.4375,406.75 Q456.6719,406.5 456.9375,406.5 Q457.4063,406.5 457.7031,406.7813 Q458,407.0625 458,407.7188 L458,409.2813 Q458,409.9375 457.7188,410.2188 Q457.4375,410.5 457,410.5 Q456.6094,410.5 456.3594,410.3281 Q456.1094,410.1563 456,409.7031 Q455.9531,409.3906 455.7813,409.2188 Q455.4688,408.8906 454.9063,408.7031 Q454.3438,408.5 453.7813,408.5 Q453.0781,408.5 452.4844,408.7813 Q451.9063,409.0625 451.4531,409.6875 Q451,410.3125 451,411.1719 L451,412.0938 Q451,413.125 451.8438,413.8125 Q452.6875,414.5 454.1875,414.5 Q455.0781,414.5 455.7031,414.2969 Q456.0625,414.1875 456.4688,413.8281 Q456.7344,413.625 456.875,413.5625 Q457.0156,413.5 457.1875,413.5 Q457.5156,413.5 457.75,413.7656 Q458,414.0156 458,414.375 Q458,414.7188 457.6563,415.125 Q457.1563,415.7188 456.3594,416.0469 Q455.3125,416.5 454.0313,416.5 Q452.5313,416.5 451.3281,415.9063 Q450.3594,415.4375 449.6719,414.4219 Q449,413.4063 449,412.2031 L449,411.1094 Q449,409.8594 449.5938,408.7656 Q450.2031,407.6719 451.25,407.0938 Q452.3125,406.5 453.5,406.5 Q454.2188,406.5 454.8438,406.75 Q455.4688,407 456,407.5 Z " fill="#000000"/><text fill="#000000" font-family="sans-serif" font-size="14" lengthAdjust="spacing" textLength="86" x="468" y="416.7285">UserVaccines</text><line style="stroke:#181818;stroke-width:0.5;" x1="440" x2="556" y1="427" y2="427"/></g><!--MD5=[0e501da62322464167c8ec4d233a6b7e]
class VaccineType--><g id="elem_VaccineType"><rect codeLine="36" fill="#F1F1F1" height="57.6094" id="VaccineType" rx="2.5" ry="2.5" style="stroke:#181818;stroke-width:0.5;" width="114" x="852" y="386"/><ellipse cx="867" cy="402" fill="#ADD1B2" rx="11" ry="11" style="stroke:#181818;stroke-width:1.0;"/><path d="M869,398.5 Q869.2031,398 869.4375,397.75 Q869.6719,397.5 869.9375,397.5 Q870.4063,397.5 870.7031,397.7813 Q871,398.0625 871,398.7188 L871,400.2813 Q871,400.9375 870.7188,401.2188 Q870.4375,401.5 870,401.5 Q869.6094,401.5 869.3594,401.3281 Q869.1094,401.1563 869,400.7031 Q868.9531,400.3906 868.7813,400.2188 Q868.4688,399.8906 867.9063,399.7031 Q867.3438,399.5 866.7813,399.5 Q866.0781,399.5 865.4844,399.7813 Q864.9063,400.0625 864.4531,400.6875 Q864,401.3125 864,402.1719 L864,403.0938 Q864,404.125 864.8438,404.8125 Q865.6875,405.5 867.1875,405.5 Q868.0781,405.5 868.7031,405.2969 Q869.0625,405.1875 869.4688,404.8281 Q869.7344,404.625 869.875,404.5625 Q870.0156,404.5 870.1875,404.5 Q870.5156,404.5 870.75,404.7656 Q871,405.0156 871,405.375 Q871,405.7188 870.6563,406.125 Q870.1563,406.7188 869.3594,407.0469 Q868.3125,407.5 867.0313,407.5 Q865.5313,407.5 864.3281,406.9063 Q863.3594,406.4375 862.6719,405.4219 Q862,404.4063 862,403.2031 L862,402.1094 Q862,400.8594 862.5938,399.7656 Q863.2031,398.6719 864.25,398.0938 Q865.3125,397.5 866.5,397.5 Q867.2188,397.5 867.8438,397.75 Q868.4688,398 869,398.5 Z " fill="#000000"/><text fill="#000000" font-family="sans-serif" font-size="14" lengthAdjust="spacing" textLength="82" x="881" y="407.7285">VaccineType</text><line style="stroke:#181818;stroke-width:0.5;" x1="853" x2="965" y1="418" y2="418"/><text fill="#000000" font-family="sans-serif" font-size="14" lengthAdjust="spacing" textLength="54" x="858" y="436.5332">-disease</text></g><!--MD5=[19e445fc4d3b48519cbe33da05496394]
class Vaccine--><g id="elem_Vaccine"><rect codeLine="41" fill="#F1F1F1" height="75.2188" id="Vaccine" rx="2.5" ry="2.5" style="stroke:#181818;stroke-width:0.5;" width="82" x="653" y="377.5"/><ellipse cx="668" cy="393.5" fill="#ADD1B2" rx="11" ry="11" style="stroke:#181818;stroke-width:1.0;"/><path d="M670,390 Q670.2031,389.5 670.4375,389.25 Q670.6719,389 670.9375,389 Q671.4063,389 671.7031,389.2813 Q672,389.5625 672,390.2188 L672,391.7813 Q672,392.4375 671.7188,392.7188 Q671.4375,393 671,393 Q670.6094,393 670.3594,392.8281 Q670.1094,392.6563 670,392.2031 Q669.9531,391.8906 669.7813,391.7188 Q669.4688,391.3906 668.9063,391.2031 Q668.3438,391 667.7813,391 Q667.0781,391 666.4844,391.2813 Q665.9063,391.5625 665.4531,392.1875 Q665,392.8125 665,393.6719 L665,394.5938 Q665,395.625 665.8438,396.3125 Q666.6875,397 668.1875,397 Q669.0781,397 669.7031,396.7969 Q670.0625,396.6875 670.4688,396.3281 Q670.7344,396.125 670.875,396.0625 Q671.0156,396 671.1875,396 Q671.5156,396 671.75,396.2656 Q672,396.5156 672,396.875 Q672,397.2188 671.6563,397.625 Q671.1563,398.2188 670.3594,398.5469 Q669.3125,399 668.0313,399 Q666.5313,399 665.3281,398.4063 Q664.3594,397.9375 663.6719,396.9219 Q663,395.9063 663,394.7031 L663,393.6094 Q663,392.3594 663.5938,391.2656 Q664.2031,390.1719 665.25,389.5938 Q666.3125,389 667.5,389 Q668.2188,389 668.8438,389.25 Q669.4688,389.5 670,390 Z " fill="#000000"/><text fill="#000000" font-family="sans-serif" font-size="14" lengthAdjust="spacing" textLength="50" x="682" y="399.2285">Vaccine</text><line style="stroke:#181818;stroke-width:0.5;" x1="654" x2="734" y1="409.5" y2="409.5"/><text fill="#000000" font-family="sans-serif" font-size="14" lengthAdjust="spacing" textLength="40" x="659" y="428.0332">-name</text><text fill="#000000" font-family="sans-serif" font-size="14" lengthAdjust="spacing" textLength="48" x="659" y="445.6426">-lotNum</text></g><!--MD5=[f1aa797bbb856f196dbabe5d61960c3a]
class VaccinationProcess--><g id="elem_VaccinationProcess"><rect codeLine="47" fill="#F1F1F1" height="57.6094" id="VaccinationProcess" rx="2.5" ry="2.5" style="stroke:#181818;stroke-width:0.5;" width="156" x="831" y="286"/><ellipse cx="846" cy="302" fill="#ADD1B2" rx="11" ry="11" style="stroke:#181818;stroke-width:1.0;"/><path d="M848,298.5 Q848.2031,298 848.4375,297.75 Q848.6719,297.5 848.9375,297.5 Q849.4063,297.5 849.7031,297.7813 Q850,298.0625 850,298.7188 L850,300.2813 Q850,300.9375 849.7188,301.2188 Q849.4375,301.5 849,301.5 Q848.6094,301.5 848.3594,301.3281 Q848.1094,301.1563 848,300.7031 Q847.9531,300.3906 847.7813,300.2188 Q847.4688,299.8906 846.9063,299.7031 Q846.3438,299.5 845.7813,299.5 Q845.0781,299.5 844.4844,299.7813 Q843.9063,300.0625 843.4531,300.6875 Q843,301.3125 843,302.1719 L843,303.0938 Q843,304.125 843.8438,304.8125 Q844.6875,305.5 846.1875,305.5 Q847.0781,305.5 847.7031,305.2969 Q848.0625,305.1875 848.4688,304.8281 Q848.7344,304.625 848.875,304.5625 Q849.0156,304.5 849.1875,304.5 Q849.5156,304.5 849.75,304.7656 Q850,305.0156 850,305.375 Q850,305.7188 849.6563,306.125 Q849.1563,306.7188 848.3594,307.0469 Q847.3125,307.5 846.0313,307.5 Q844.5313,307.5 843.3281,306.9063 Q842.3594,306.4375 841.6719,305.4219 Q841,304.4063 841,303.2031 L841,302.1094 Q841,300.8594 841.5938,299.7656 Q842.2031,298.6719 843.25,298.0938 Q844.3125,297.5 845.5,297.5 Q846.2188,297.5 846.8438,297.75 Q847.4688,298 848,298.5 Z " fill="#000000"/><text fill="#000000" font-family="sans-serif" font-size="14" lengthAdjust="spacing" textLength="124" x="860" y="307.7285">VaccinationProcess</text><line style="stroke:#181818;stroke-width:0.5;" x1="832" x2="986" y1="318" y2="318"/><text fill="#000000" font-family="sans-serif" font-size="14" lengthAdjust="spacing" textLength="101" x="837" y="336.5332">-recoveryPeriod</text></g><!--MD5=[c59c99efa75f30327e326596f335a568]
class AgeGroup--><g id="elem_AgeGroup"><rect codeLine="51" fill="#F1F1F1" height="75.2188" id="AgeGroup" rx="2.5" ry="2.5" style="stroke:#181818;stroke-width:0.5;" width="97" x="1083" y="277.5"/><ellipse cx="1098" cy="293.5" fill="#ADD1B2" rx="11" ry="11" style="stroke:#181818;stroke-width:1.0;"/><path d="M1100,290 Q1100.2031,289.5 1100.4375,289.25 Q1100.6719,289 1100.9375,289 Q1101.4063,289 1101.7031,289.2813 Q1102,289.5625 1102,290.2188 L1102,291.7813 Q1102,292.4375 1101.7188,292.7188 Q1101.4375,293 1101,293 Q1100.6094,293 1100.3594,292.8281 Q1100.1094,292.6563 1100,292.2031 Q1099.9531,291.8906 1099.7813,291.7188 Q1099.4688,291.3906 1098.9063,291.2031 Q1098.3438,291 1097.7813,291 Q1097.0781,291 1096.4844,291.2813 Q1095.9063,291.5625 1095.4531,292.1875 Q1095,292.8125 1095,293.6719 L1095,294.5938 Q1095,295.625 1095.8438,296.3125 Q1096.6875,297 1098.1875,297 Q1099.0781,297 1099.7031,296.7969 Q1100.0625,296.6875 1100.4688,296.3281 Q1100.7344,296.125 1100.875,296.0625 Q1101.0156,296 1101.1875,296 Q1101.5156,296 1101.75,296.2656 Q1102,296.5156 1102,296.875 Q1102,297.2188 1101.6563,297.625 Q1101.1563,298.2188 1100.3594,298.5469 Q1099.3125,299 1098.0313,299 Q1096.5313,299 1095.3281,298.4063 Q1094.3594,297.9375 1093.6719,296.9219 Q1093,295.9063 1093,294.7031 L1093,293.6094 Q1093,292.3594 1093.5938,291.2656 Q1094.2031,290.1719 1095.25,289.5938 Q1096.3125,289 1097.5,289 Q1098.2188,289 1098.8438,289.25 Q1099.4688,289.5 1100,290 Z " fill="#000000"/><text fill="#000000" font-family="sans-serif" font-size="14" lengthAdjust="spacing" textLength="65" x="1112" y="299.2285">AgeGroup</text><line style="stroke:#181818;stroke-width:0.5;" x1="1084" x2="1179" y1="309.5" y2="309.5"/><text fill="#000000" font-family="sans-serif" font-size="14" lengthAdjust="spacing" textLength="52" x="1089" y="328.0332">-minAge</text><text fill="#000000" font-family="sans-serif" font-size="14" lengthAdjust="spacing" textLength="55" x="1089" y="345.6426">-maxAge</text></g><!--MD5=[03e3bb7aef77bf14822eb3fb6d15ab17]
class Dose--><g id="elem_Dose"><rect codeLine="56" fill="#F1F1F1" height="75.2188" id="Dose" rx="2.5" ry="2.5" style="stroke:#181818;stroke-width:0.5;" width="97" x="1446" y="277.5"/><ellipse cx="1475.4" cy="293.5" fill="#ADD1B2" rx="11" ry="11" style="stroke:#181818;stroke-width:1.0;"/><path d="M1477.4,290 Q1477.6031,289.5 1477.8375,289.25 Q1478.0719,289 1478.3375,289 Q1478.8063,289 1479.1031,289.2813 Q1479.4,289.5625 1479.4,290.2188 L1479.4,291.7813 Q1479.4,292.4375 1479.1188,292.7188 Q1478.8375,293 1478.4,293 Q1478.0094,293 1477.7594,292.8281 Q1477.5094,292.6563 1477.4,292.2031 Q1477.3531,291.8906 1477.1813,291.7188 Q1476.8688,291.3906 1476.3063,291.2031 Q1475.7438,291 1475.1813,291 Q1474.4781,291 1473.8844,291.2813 Q1473.3063,291.5625 1472.8531,292.1875 Q1472.4,292.8125 1472.4,293.6719 L1472.4,294.5938 Q1472.4,295.625 1473.2438,296.3125 Q1474.0875,297 1475.5875,297 Q1476.4781,297 1477.1031,296.7969 Q1477.4625,296.6875 1477.8688,296.3281 Q1478.1344,296.125 1478.275,296.0625 Q1478.4156,296 1478.5875,296 Q1478.9156,296 1479.15,296.2656 Q1479.4,296.5156 1479.4,296.875 Q1479.4,297.2188 1479.0563,297.625 Q1478.5563,298.2188 1477.7594,298.5469 Q1476.7125,299 1475.4313,299 Q1473.9313,299 1472.7281,298.4063 Q1471.7594,297.9375 1471.0719,296.9219 Q1470.4,295.9063 1470.4,294.7031 L1470.4,293.6094 Q1470.4,292.3594 1470.9938,291.2656 Q1471.6031,290.1719 1472.65,289.5938 Q1473.7125,289 1474.9,289 Q1475.6188,289 1476.2438,289.25 Q1476.8688,289.5 1477.4,290 Z " fill="#000000"/><text fill="#000000" font-family="sans-serif" font-size="14" lengthAdjust="spacing" textLength="33" x="1492.6" y="299.2285">Dose</text><line style="stroke:#181818;stroke-width:0.5;" x1="1447" x2="1542" y1="309.5" y2="309.5"/><text fill="#000000" font-family="sans-serif" font-size="14" lengthAdjust="spacing" textLength="85" x="1452" y="328.0332">-doseNumber</text><text fill="#000000" font-family="sans-serif" font-size="14" lengthAdjust="spacing" textLength="52" x="1452" y="345.6426">-dosage</text></g><!--MD5=[4bec8ac568776347aae0f1471b21fd4f]
class TimeInterval--><g id="elem_TimeInterval"><rect codeLine="61" fill="#F1F1F1" height="57.6094" id="TimeInterval" rx="2.5" ry="2.5" style="stroke:#181818;stroke-width:0.5;" width="109" x="1276" y="352"/><ellipse cx="1291" cy="368" fill="#ADD1B2" rx="11" ry="11" style="stroke:#181818;stroke-width:1.0;"/><path d="M1293,364.5 Q1293.2031,364 1293.4375,363.75 Q1293.6719,363.5 1293.9375,363.5 Q1294.4063,363.5 1294.7031,363.7813 Q1295,364.0625 1295,364.7188 L1295,366.2813 Q1295,366.9375 1294.7188,367.2188 Q1294.4375,367.5 1294,367.5 Q1293.6094,367.5 1293.3594,367.3281 Q1293.1094,367.1563 1293,366.7031 Q1292.9531,366.3906 1292.7813,366.2188 Q1292.4688,365.8906 1291.9063,365.7031 Q1291.3438,365.5 1290.7813,365.5 Q1290.0781,365.5 1289.4844,365.7813 Q1288.9063,366.0625 1288.4531,366.6875 Q1288,367.3125 1288,368.1719 L1288,369.0938 Q1288,370.125 1288.8438,370.8125 Q1289.6875,371.5 1291.1875,371.5 Q1292.0781,371.5 1292.7031,371.2969 Q1293.0625,371.1875 1293.4688,370.8281 Q1293.7344,370.625 1293.875,370.5625 Q1294.0156,370.5 1294.1875,370.5 Q1294.5156,370.5 1294.75,370.7656 Q1295,371.0156 1295,371.375 Q1295,371.7188 1294.6563,372.125 Q1294.1563,372.7188 1293.3594,373.0469 Q1292.3125,373.5 1291.0313,373.5 Q1289.5313,373.5 1288.3281,372.9063 Q1287.3594,372.4375 1286.6719,371.4219 Q1286,370.4063 1286,369.2031 L1286,368.1094 Q1286,366.8594 1286.5938,365.7656 Q1287.2031,364.6719 1288.25,364.0938 Q1289.3125,363.5 1290.5,363.5 Q1291.2188,363.5 1291.8438,363.75 Q1292.4688,364 1293,364.5 Z " fill="#000000"/><text fill="#000000" font-family="sans-serif" font-size="14" lengthAdjust="spacing" textLength="77" x="1305" y="373.7285">TimeInterval</text><line style="stroke:#181818;stroke-width:0.5;" x1="1277" x2="1384" y1="384" y2="384"/><text fill="#000000" font-family="sans-serif" font-size="14" lengthAdjust="spacing" textLength="64" x="1282" y="402.5332">-numDays</text></g><ellipse cx="1330.5" cy="315" fill="#000000" rx="2" ry="2" style="stroke:none;stroke-width:1.0;"/><!--MD5=[5d2bdee92db0d01b75732190da037553]
class Coordinator--><g id="elem_Coordinator"><rect fill="#F1F1F1" height="40" id="Coordinator" rx="2.5" ry="2.5" style="stroke:#181818;stroke-width:0.5;" width="107" x="444.5" y="276"/><ellipse cx="459.5" cy="292" fill="#ADD1B2" rx="11" ry="11" style="stroke:#181818;stroke-width:1.0;"/><path d="M461.5,288.5 Q461.7031,288 461.9375,287.75 Q462.1719,287.5 462.4375,287.5 Q462.9063,287.5 463.2031,287.7813 Q463.5,288.0625 463.5,288.7188 L463.5,290.2813 Q463.5,290.9375 463.2188,291.2188 Q462.9375,291.5 462.5,291.5 Q462.1094,291.5 461.8594,291.3281 Q461.6094,291.1563 461.5,290.7031 Q461.4531,290.3906 461.2813,290.2188 Q460.9688,289.8906 460.4063,289.7031 Q459.8438,289.5 459.2813,289.5 Q458.5781,289.5 457.9844,289.7813 Q457.4063,290.0625 456.9531,290.6875 Q456.5,291.3125 456.5,292.1719 L456.5,293.0938 Q456.5,294.125 457.3438,294.8125 Q458.1875,295.5 459.6875,295.5 Q460.5781,295.5 461.2031,295.2969 Q461.5625,295.1875 461.9688,294.8281 Q462.2344,294.625 462.375,294.5625 Q462.5156,294.5 462.6875,294.5 Q463.0156,294.5 463.25,294.7656 Q463.5,295.0156 463.5,295.375 Q463.5,295.7188 463.1563,296.125 Q462.6563,296.7188 461.8594,297.0469 Q460.8125,297.5 459.5313,297.5 Q458.0313,297.5 456.8281,296.9063 Q455.8594,296.4375 455.1719,295.4219 Q454.5,294.4063 454.5,293.2031 L454.5,292.1094 Q454.5,290.8594 455.0938,289.7656 Q455.7031,288.6719 456.75,288.0938 Q457.8125,287.5 459,287.5 Q459.7188,287.5 460.3438,287.75 Q460.9688,288 461.5,288.5 Z " fill="#000000"/><text fill="#000000" font-family="sans-serif" font-size="14" lengthAdjust="spacing" textLength="75" x="473.5" y="297.7285">Coordinator</text><line style="stroke:#181818;stroke-width:0.5;" x1="445.5" x2="550.5" y1="308" y2="308"/></g><!--MD5=[7421f545a0d8420c5bec41e74b387d9c]
class Employee--><g id="elem_Employee"><rect fill="#F1F1F1" height="40" id="Employee" rx="2.5" ry="2.5" style="stroke:#181818;stroke-width:0.5;" width="94" x="222" y="276"/><ellipse cx="237" cy="292" fill="#ADD1B2" rx="11" ry="11" style="stroke:#181818;stroke-width:1.0;"/><path d="M239,288.5 Q239.2031,288 239.4375,287.75 Q239.6719,287.5 239.9375,287.5 Q240.4063,287.5 240.7031,287.7813 Q241,288.0625 241,288.7188 L241,290.2813 Q241,290.9375 240.7188,291.2188 Q240.4375,291.5 240,291.5 Q239.6094,291.5 239.3594,291.3281 Q239.1094,291.1563 239,290.7031 Q238.9531,290.3906 238.7813,290.2188 Q238.4688,289.8906 237.9063,289.7031 Q237.3438,289.5 236.7813,289.5 Q236.0781,289.5 235.4844,289.7813 Q234.9063,290.0625 234.4531,290.6875 Q234,291.3125 234,292.1719 L234,293.0938 Q234,294.125 234.8438,294.8125 Q235.6875,295.5 237.1875,295.5 Q238.0781,295.5 238.7031,295.2969 Q239.0625,295.1875 239.4688,294.8281 Q239.7344,294.625 239.875,294.5625 Q240.0156,294.5 240.1875,294.5 Q240.5156,294.5 240.75,294.7656 Q241,295.0156 241,295.375 Q241,295.7188 240.6563,296.125 Q240.1563,296.7188 239.3594,297.0469 Q238.3125,297.5 237.0313,297.5 Q235.5313,297.5 234.3281,296.9063 Q233.3594,296.4375 232.6719,295.4219 Q232,294.4063 232,293.2031 L232,292.1094 Q232,290.8594 232.5938,289.7656 Q233.2031,288.6719 234.25,288.0938 Q235.3125,287.5 236.5,287.5 Q237.2188,287.5 237.8438,287.75 Q238.4688,288 239,288.5 Z " fill="#000000"/><text fill="#000000" font-family="sans-serif" font-size="14" lengthAdjust="spacing" textLength="62" x="251" y="297.7285">Employee</text><line style="stroke:#181818;stroke-width:0.5;" x1="223" x2="315" y1="308" y2="308"/></g><!--MD5=[ad53276a02bf0f65971002ced984ee45]
link Vaccine to VaccinationProcess--><g id="link_Vaccine_VaccinationProcess"><path codeLine="66" d="M735.06,396.19 C766.28,381.54 810.16,360.94 845.92,344.15 " fill="none" id="Vaccine-VaccinationProcess" style="stroke:#181818;stroke-width:1.0;"/><polygon fill="#000000" points="774.5261,356.0511,765.0894,357.2343,767.5871,362.5551,774.5261,356.0511" style="stroke:#000000;stroke-width:1.0;"/><text fill="#000000" font-family="sans-serif" font-size="13" lengthAdjust="spacing" textLength="21" x="779" y="363.4951">has</text><text fill="#000000" font-family="sans-serif" font-size="13" lengthAdjust="spacing" textLength="7" x="742.9972" y="407.7714">1</text><text fill="#000000" font-family="sans-serif" font-size="13" lengthAdjust="spacing" textLength="7" x="825.8121" y="365.0321">1</text></g><!--MD5=[3568623adf67b2630dce9e60c05bd02a]
link Vaccine to VaccineType--><g id="link_Vaccine_VaccineType"><path codeLine="67" d="M735.06,415 C767.96,415 814.94,415 851.64,415 " fill="none" id="Vaccine-VaccineType" style="stroke:#181818;stroke-width:1.0;"/><polygon fill="#000000" points="775,406.1758,765.9549,403.2369,765.9549,409.1147,775,406.1758" style="stroke:#000000;stroke-width:1.0;"/><text fill="#000000" font-family="sans-serif" font-size="13" lengthAdjust="spacing" textLength="21" x="779" y="411.4951">has</text><text fill="#000000" font-family="sans-serif" font-size="13" lengthAdjust="spacing" textLength="5" x="743.0914" y="429.9824">*</text><text fill="#000000" font-family="sans-serif" font-size="13" lengthAdjust="spacing" textLength="7" x="836.8423" y="429.5677">1</text></g><!--MD5=[4043e158886bce18152cac1904b53f75]
link VaccinationProcess to AgeGroup--><g id="link_VaccinationProcess_AgeGroup"><path codeLine="68" d="M987.12,315 C1019.04,315 1055.04,315 1082.98,315 " fill="none" id="VaccinationProcess-AgeGroup" style="stroke:#181818;stroke-width:1.0;"/><polygon fill="#000000" points="1027,306.1758,1017.9549,303.2369,1017.9549,309.1147,1027,306.1758" style="stroke:#000000;stroke-width:1.0;"/><text fill="#000000" font-family="sans-serif" font-size="13" lengthAdjust="spacing" textLength="21" x="1031" y="311.4951">has</text><text fill="#000000" font-family="sans-serif" font-size="13" lengthAdjust="spacing" textLength="7" x="994.8994" y="329.293">1</text><text fill="#000000" font-family="sans-serif" font-size="13" lengthAdjust="spacing" textLength="5" x="1069.8487" y="329.7807">*</text></g><!--MD5=[309b395a57f67449a97a1b13aa6dbef4]
link AgeGroup to apoint2945--><g id="link_AgeGroup_apoint2945"><path d="M1180.19,315 C1234.85,315 1318.25,315 1328.46,315 " fill="none" id="AgeGroup-apoint2945" style="stroke:#181818;stroke-width:1.0;"/><polygon fill="#000000" points="1220,306.1758,1210.9549,303.2369,1210.9549,309.1147,1220,306.1758" style="stroke:#000000;stroke-width:1.0;"/><text fill="#000000" font-family="sans-serif" font-size="13" lengthAdjust="spacing" textLength="21" x="1224" y="311.4951">has</text><text fill="#000000" font-family="sans-serif" font-size="13" lengthAdjust="spacing" textLength="7" x="1187.8554" y="329.6799">1</text></g><!--MD5=[ca0adba69868db6de3e49d122d394d55]
link apoint2945 to Dose--><g id="link_apoint2945_Dose"><path d="M1332.53,315 C1341.13,315 1401.5,315 1445.79,315 " fill="none" id="apoint2945-Dose" style="stroke:#181818;stroke-width:1.0;"/><text fill="#000000" font-family="sans-serif" font-size="13" lengthAdjust="spacing" textLength="5" x="1432.9485" y="329.7303">*</text></g><!--MD5=[774288dd56fe3747936163f756e1a2d3]
link apoint2945 to TimeInterval--><g id="link_apoint2945_TimeInterval"><path d="M1330.5,317.02 C1330.5,328.64 1330.5,340.25 1330.5,351.87 " fill="none" id="apoint2945-TimeInterval" style="stroke:#181818;stroke-width:1.0;stroke-dasharray:7.0,7.0;"/></g><!--MD5=[49dab45482ce825a685ef99fd95a9156]
link VaccinationCenter to Coordinator--><g id="link_VaccinationCenter_Coordinator"><path codeLine="71" d="M343.07,179.37 C386.62,212.37 439.3,252.29 470.38,275.83 " fill="none" id="VaccinationCenter-Coordinator" style="stroke:#181818;stroke-width:1.0;"/><polygon fill="#000000" points="381.9853,199.1953,376.5507,191.3904,373.001,196.0754,381.9853,199.1953" style="stroke:#000000;stroke-width:1.0;"/><text fill="#000000" font-family="sans-serif" font-size="13" lengthAdjust="spacing" textLength="21" x="387" y="201.4951">has</text><text fill="#000000" font-family="sans-serif" font-size="13" lengthAdjust="spacing" textLength="7" x="351.0694" y="199.4336">1</text><text fill="#000000" font-family="sans-serif" font-size="13" lengthAdjust="spacing" textLength="7" x="454.2385" y="265.1018">1</text></g><!--MD5=[7f45cd623d65d6b71bd9dc1a08827f9d]
link Coordinator to VaccinationProcess--><g id="link_Coordinator_VaccinationProcess"><path codeLine="73" d="M551.63,298.45 C622.51,301.74 749.13,307.62 830.8,311.42 " fill="none" id="Coordinator-VaccinationProcess" style="stroke:#181818;stroke-width:1.0;"/><polygon fill="#000000" points="671.4946,295.4078,662.5957,292.0523,662.3229,297.9238,671.4946,295.4078" style="stroke:#000000;stroke-width:1.0;"/><text fill="#000000" font-family="sans-serif" font-size="13" lengthAdjust="spacing" textLength="50" x="675.5" y="300.4951">monitors</text><text fill="#000000" font-family="sans-serif" font-size="13" lengthAdjust="spacing" textLength="7" x="559.6639" y="313.4394">1</text><text fill="#000000" font-family="sans-serif" font-size="13" lengthAdjust="spacing" textLength="5" x="818.1083" y="325.3718">*</text></g><!--MD5=[1a8aa2b864b87f860d28abceaa28b7a5]
link Company to SNSUser--><g id="link_Company_SNSUser"><path codeLine="74" d="M99.12,380.28 C136.16,387.89 188.26,398.61 224.77,406.11 " fill="none" id="Company-SNSUser" style="stroke:#181818;stroke-width:1.0;"/><polygon fill="#000000" points="138.8976,378.1826,130.6296,373.4825,129.446,379.24,138.8976,378.1826" style="stroke:#000000;stroke-width:1.0;"/><text fill="#000000" font-family="sans-serif" font-size="13" lengthAdjust="spacing" textLength="21" x="143" y="382.4951">has</text><text fill="#000000" font-family="sans-serif" font-size="13" lengthAdjust="spacing" textLength="7" x="107.0282" y="396.5571">1</text><text fill="#000000" font-family="sans-serif" font-size="13" lengthAdjust="spacing" textLength="5" x="212.0303" y="419.4829">*</text></g><!--MD5=[c29c8d42883934cbaf5793c72a334947]
link Company to Vaccine--><g id="link_Company_Vaccine"><path codeLine="75" d="M68.54,391.16 C91.46,421 139.18,475.7 195,497 C357.09,558.87 566.35,475.98 652.86,435.25 " fill="none" id="Company-Vaccine" style="stroke:#181818;stroke-width:1.0;"/><polygon fill="#000000" points="382.9858,504.552,374.1875,500.9408,373.7453,506.802,382.9858,504.552" style="stroke:#000000;stroke-width:1.0;"/><text fill="#000000" font-family="sans-serif" font-size="13" lengthAdjust="spacing" textLength="21" x="387" y="509.4951">has</text><text fill="#000000" font-family="sans-serif" font-size="13" lengthAdjust="spacing" textLength="7" x="64.9263" y="412.6246">1</text><text fill="#000000" font-family="sans-serif" font-size="13" lengthAdjust="spacing" textLength="5" x="640.0866" y="453.789">*</text></g><!--MD5=[eebe9b198877275d05dd12630ed9e401]
link Company to VaccinationCenter--><g id="link_Company_VaccinationCenter"><path codeLine="76" d="M71.51,350.79 C98.27,319.91 150.85,259.22 194.89,208.39 " fill="none" id="Company-VaccinationCenter" style="stroke:#181818;stroke-width:1.0;"/><polygon fill="#000000" points="137.2741,235.3969,129.13,240.3085,133.5723,244.1575,137.2741,235.3969" style="stroke:#000000;stroke-width:1.0;"/><text fill="#000000" font-family="sans-serif" font-size="13" lengthAdjust="spacing" textLength="21" x="143" y="244.4951">has</text><text fill="#000000" font-family="sans-serif" font-size="13" lengthAdjust="spacing" textLength="7" x="68.9192" y="340.0501">1</text><text fill="#000000" font-family="sans-serif" font-size="13" lengthAdjust="spacing" textLength="5" x="181.9896" y="231.4463">*</text></g><!--MD5=[09366576ee87d48d594df10cacc83f45]
link Company to Employee--><g id="link_Company_Employee"><path codeLine="77" d="M99.12,355.19 C135.17,342.55 185.51,324.91 221.83,312.18 " fill="none" id="Company-Employee" style="stroke:#181818;stroke-width:1.0;"/><polygon fill="#000000" points="138.7186,323.5219,129.2105,323.7403,131.1547,329.2873,138.7186,323.5219" style="stroke:#000000;stroke-width:1.0;"/><text fill="#000000" font-family="sans-serif" font-size="13" lengthAdjust="spacing" textLength="21" x="143" y="330.4951">has</text><text fill="#000000" font-family="sans-serif" font-size="13" lengthAdjust="spacing" textLength="7" x="107.0282" y="367.4684">1</text><text fill="#000000" font-family="sans-serif" font-size="13" lengthAdjust="spacing" textLength="5" x="208.9138" y="329.5568">*</text></g><!--MD5=[d8cf155570c2fc8069691ea2f7bdb19f]
link Employee to Coordinator--><g id="link_Employee_Coordinator"><path codeLine="78" d="M316.21,296 C353.41,296 405.72,296 444.5,296 " fill="none" id="Employee-Coordinator" style="stroke:#181818;stroke-width:1.0;"/><polygon fill="#000000" points="378.5,287.1758,387.5451,290.1147,387.5451,284.2369,378.5,287.1758" style="stroke:#000000;stroke-width:1.0;"/><text fill="#000000" font-family="sans-serif" font-size="13" lengthAdjust="spacing" textLength="10" x="392.5" y="292.4951">is</text><text fill="#000000" font-family="sans-serif" font-size="13" lengthAdjust="spacing" textLength="7" x="323.975" y="310.747">1</text><text fill="#000000" font-family="sans-serif" font-size="13" lengthAdjust="spacing" textLength="7" x="429.4844" y="310.6448">1</text></g><!--MD5=[9e1bafab1e50b2a0c49aafba4881c2ec]
link SNSUser to UserVaccines--><g id="link_SNSUser_UserVaccines"><path codeLine="79" d="M313.23,415 C348.86,415 399.73,415 438.92,415 " fill="none" id="SNSUser-UserVaccines" style="stroke:#181818;stroke-width:1.0;"/><polygon fill="#000000" points="383,406.1758,373.9549,403.2369,373.9549,409.1147,383,406.1758" style="stroke:#000000;stroke-width:1.0;"/><text fill="#000000" font-family="sans-serif" font-size="13" lengthAdjust="spacing" textLength="21" x="387" y="411.4951">has</text><text fill="#000000" font-family="sans-serif" font-size="13" lengthAdjust="spacing" textLength="7" x="321.1353" y="429.8453">1</text><text fill="#000000" font-family="sans-serif" font-size="13" lengthAdjust="spacing" textLength="5" x="426.0301" y="429.5426">*</text></g><!--MD5=[625143ad3f3e454f80dce889a626af15]
link UserVaccines to Vaccine--><g id="link_UserVaccines_Vaccine"><path codeLine="80" d="M557.21,415 C588.12,415 625.33,415 652.98,415 " fill="none" id="UserVaccines-Vaccine" style="stroke:#181818;stroke-width:1.0;"/><polygon fill="#000000" points="597,406.1758,587.9549,403.2369,587.9549,409.1147,597,406.1758" style="stroke:#000000;stroke-width:1.0;"/><text fill="#000000" font-family="sans-serif" font-size="13" lengthAdjust="spacing" textLength="21" x="601" y="411.4951">has</text><text fill="#000000" font-family="sans-serif" font-size="13" lengthAdjust="spacing" textLength="7" x="564.8528" y="429.4915">1</text><text fill="#000000" font-family="sans-serif" font-size="13" lengthAdjust="spacing" textLength="5" x="639.956" y="429.9824">*</text></g><!--MD5=[f2793a2a9c0b37c631b257b90876fd43]
@startuml
hide methods
left to right direction
skinparam classAttributeIconSize 0

class VaccinationCenter {
    -name
    -address
    -phoneNumber
    -emailAddress
    -faxNumber
    -websiteAddress
    -openingHours
    -closingHours
    -slotDuration
    -maxNumVaxPerSlot
    -capacity

}

class Company{

}

class SNSUser {
    -snsNumber
    -name
    -age
    -phoneNum
    -email
}

class UserVaccines{

}

class VaccineType{
    -disease

}

class Vaccine{
    -name
    -lotNum
}


class VaccinationProcess{
    -recoveryPeriod
}

class AgeGroup{
    -minAge
    -maxAge
}

class Dose{
    -doseNumber
    -dosage
}

class TimeInterval{
    -numDays
}


Vaccine "1" - - "1" VaccinationProcess: has >
Vaccine "*" - - "1" VaccineType: has >
VaccinationProcess "1" - - "*" AgeGroup: has >
AgeGroup "1" - - "*" Dose: has >
(AgeGroup, Dose) .. TimeInterval
VaccinationCenter "1" - - "1" Coordinator: has >

Coordinator "1" - - "*" VaccinationProcess: monitors >
Company "1" - - "*" SNSUser: has >
Company "1" - - "*" Vaccine: has >
Company "1" - - "*" VaccinationCenter: has >
Company "1" - - "*" Employee: has >
Employee "1" - - "1" Coordinator: is <
SNSUser "1" - - "*" UserVaccines: has >
UserVaccines "1" - -"*" Vaccine: has >

@enduml

PlantUML version 1.2022.5(Sat Apr 30 11:55:52 BST 2022)
(GPL source distribution)
Java Runtime: OpenJDK Runtime Environment
JVM: OpenJDK 64-Bit Server VM
Default Encoding: Cp1252
Language: en
Country: GB
--></g></svg>