<?xml version="1.0" encoding="UTF-8" standalone="no"?><svg xmlns="http://www.w3.org/2000/svg" xmlns:xlink="http://www.w3.org/1999/xlink" contentScriptType="application/ecmascript" contentStyleType="text/css" height="220px" preserveAspectRatio="none" style="width:858px;height:220px;background:#FFFFFF;" version="1.1" viewBox="0 0 858 220" width="858px" zoomAndPan="magnify"><defs><filter height="300%" id="fn9vv7bnpelpt" width="300%" x="-1" y="-1"><feGaussianBlur result="blurOut" stdDeviation="2.0"/><feColorMatrix in="blurOut" result="blurOut2" type="matrix" values="0 0 0 0 0 0 0 0 0 0 0 0 0 0 0 0 0 0 .4 0"/><feOffset dx="4.0" dy="4.0" in="blurOut2" result="blurOut3"/><feBlend in="SourceGraphic" in2="blurOut3" mode="normal"/></filter></defs><g><!--MD5=[a059576e163b46f56762f12600c49258]
class Nurse--><rect codeLine="7" fill="#FEFECE" filter="url(#fn9vv7bnpelpt)" height="81.5078" id="Nurse" style="stroke:#A80036;stroke-width:1.5;" width="66" x="188" y="7"/><ellipse cx="203" cy="23" fill="#ADD1B2" rx="11" ry="11" style="stroke:#A80036;stroke-width:1.0;"/><path d="M205,19.5 Q205.2031,19 205.4375,18.75 Q205.6719,18.5 205.9375,18.5 Q206.4063,18.5 206.7031,18.7813 Q207,19.0625 207,19.7188 L207,21.2813 Q207,21.9375 206.7188,22.2188 Q206.4375,22.5 206,22.5 Q205.6094,22.5 205.3594,22.3281 Q205.1094,22.1563 205,21.7031 Q204.9531,21.3906 204.7813,21.2188 Q204.4688,20.8906 203.9063,20.7031 Q203.3438,20.5 202.7813,20.5 Q202.0781,20.5 201.4844,20.7813 Q200.9063,21.0625 200.4531,21.6875 Q200,22.3125 200,23.1719 L200,24.0938 Q200,25.125 200.8438,25.8125 Q201.6875,26.5 203.1875,26.5 Q204.0781,26.5 204.7031,26.2969 Q205.0625,26.1875 205.4688,25.8281 Q205.7344,25.625 205.875,25.5625 Q206.0156,25.5 206.1875,25.5 Q206.5156,25.5 206.75,25.7656 Q207,26.0156 207,26.375 Q207,26.7188 206.6563,27.125 Q206.1563,27.7188 205.3594,28.0469 Q204.3125,28.5 203.0313,28.5 Q201.5313,28.5 200.3281,27.9063 Q199.3594,27.4375 198.6719,26.4219 Q198,25.4063 198,24.2031 L198,23.1094 Q198,21.8594 198.5938,20.7656 Q199.2031,19.6719 200.25,19.0938 Q201.3125,18.5 202.5,18.5 Q203.2188,18.5 203.8438,18.75 Q204.4688,19 205,19.5 Z " fill="#000000"/><text fill="#000000" font-family="sans-serif" font-size="12" lengthAdjust="spacing" textLength="34" x="217" y="27.9102">Nurse</text><line style="stroke:#A80036;stroke-width:1.5;" x1="189" x2="253" y1="39" y2="39"/><text fill="#000000" font-family="sans-serif" font-size="11" lengthAdjust="spacing" textLength="30" x="194" y="54.4189">-name</text><text fill="#000000" font-family="sans-serif" font-size="11" lengthAdjust="spacing" textLength="22" x="194" y="68.2549">-age</text><text fill="#000000" font-family="sans-serif" font-size="11" lengthAdjust="spacing" textLength="44" x="194" y="82.0908">-address</text><!--MD5=[02e4b9b7573f1156f41e60aa5b4e25a4]
class Company--><rect codeLine="13" fill="#FEFECE" filter="url(#fn9vv7bnpelpt)" height="40" id="Company" style="stroke:#A80036;stroke-width:1.5;" width="85" x="7" y="122"/><ellipse cx="22" cy="138" fill="#ADD1B2" rx="11" ry="11" style="stroke:#A80036;stroke-width:1.0;"/><path d="M24,134.5 Q24.2031,134 24.4375,133.75 Q24.6719,133.5 24.9375,133.5 Q25.4063,133.5 25.7031,133.7813 Q26,134.0625 26,134.7188 L26,136.2813 Q26,136.9375 25.7188,137.2188 Q25.4375,137.5 25,137.5 Q24.6094,137.5 24.3594,137.3281 Q24.1094,137.1563 24,136.7031 Q23.9531,136.3906 23.7813,136.2188 Q23.4688,135.8906 22.9063,135.7031 Q22.3438,135.5 21.7813,135.5 Q21.0781,135.5 20.4844,135.7813 Q19.9063,136.0625 19.4531,136.6875 Q19,137.3125 19,138.1719 L19,139.0938 Q19,140.125 19.8438,140.8125 Q20.6875,141.5 22.1875,141.5 Q23.0781,141.5 23.7031,141.2969 Q24.0625,141.1875 24.4688,140.8281 Q24.7344,140.625 24.875,140.5625 Q25.0156,140.5 25.1875,140.5 Q25.5156,140.5 25.75,140.7656 Q26,141.0156 26,141.375 Q26,141.7188 25.6563,142.125 Q25.1563,142.7188 24.3594,143.0469 Q23.3125,143.5 22.0313,143.5 Q20.5313,143.5 19.3281,142.9063 Q18.3594,142.4375 17.6719,141.4219 Q17,140.4063 17,139.2031 L17,138.1094 Q17,136.8594 17.5938,135.7656 Q18.2031,134.6719 19.25,134.0938 Q20.3125,133.5 21.5,133.5 Q22.2188,133.5 22.8438,133.75 Q23.4688,134 24,134.5 Z " fill="#000000"/><text fill="#000000" font-family="sans-serif" font-size="12" lengthAdjust="spacing" textLength="53" x="36" y="142.9102">Company</text><line style="stroke:#A80036;stroke-width:1.5;" x1="8" x2="91" y1="154" y2="154"/><!--MD5=[72be06cc7ae02ccc98efe28a50e62246]
class SNSUser--><rect codeLine="17" fill="#FEFECE" filter="url(#fn9vv7bnpelpt)" height="109.1797" id="SNSUser" style="stroke:#A80036;stroke-width:1.5;" width="84" x="578" y="50.5"/><ellipse cx="593" cy="66.5" fill="#ADD1B2" rx="11" ry="11" style="stroke:#A80036;stroke-width:1.0;"/><path d="M595,63 Q595.2031,62.5 595.4375,62.25 Q595.6719,62 595.9375,62 Q596.4063,62 596.7031,62.2813 Q597,62.5625 597,63.2188 L597,64.7813 Q597,65.4375 596.7188,65.7188 Q596.4375,66 596,66 Q595.6094,66 595.3594,65.8281 Q595.1094,65.6563 595,65.2031 Q594.9531,64.8906 594.7813,64.7188 Q594.4688,64.3906 593.9063,64.2031 Q593.3438,64 592.7813,64 Q592.0781,64 591.4844,64.2813 Q590.9063,64.5625 590.4531,65.1875 Q590,65.8125 590,66.6719 L590,67.5938 Q590,68.625 590.8438,69.3125 Q591.6875,70 593.1875,70 Q594.0781,70 594.7031,69.7969 Q595.0625,69.6875 595.4688,69.3281 Q595.7344,69.125 595.875,69.0625 Q596.0156,69 596.1875,69 Q596.5156,69 596.75,69.2656 Q597,69.5156 597,69.875 Q597,70.2188 596.6563,70.625 Q596.1563,71.2188 595.3594,71.5469 Q594.3125,72 593.0313,72 Q591.5313,72 590.3281,71.4063 Q589.3594,70.9375 588.6719,69.9219 Q588,68.9063 588,67.7031 L588,66.6094 Q588,65.3594 588.5938,64.2656 Q589.2031,63.1719 590.25,62.5938 Q591.3125,62 592.5,62 Q593.2188,62 593.8438,62.25 Q594.4688,62.5 595,63 Z " fill="#000000"/><text fill="#000000" font-family="sans-serif" font-size="12" lengthAdjust="spacing" textLength="52" x="607" y="71.4102">SNSUser</text><line style="stroke:#A80036;stroke-width:1.5;" x1="579" x2="661" y1="82.5" y2="82.5"/><text fill="#000000" font-family="sans-serif" font-size="11" lengthAdjust="spacing" textLength="59" x="584" y="97.9189">-snsNumber</text><text fill="#000000" font-family="sans-serif" font-size="11" lengthAdjust="spacing" textLength="30" x="584" y="111.7549">-name</text><text fill="#000000" font-family="sans-serif" font-size="11" lengthAdjust="spacing" textLength="22" x="584" y="125.5908">-age</text><text fill="#000000" font-family="sans-serif" font-size="11" lengthAdjust="spacing" textLength="55" x="584" y="139.4268">-phoneNum</text><text fill="#000000" font-family="sans-serif" font-size="11" lengthAdjust="spacing" textLength="28" x="584" y="153.2627">-email</text><!--MD5=[89f8fc8f0d476badd2cea6f77fcce7fe]
class userVaccines--><rect codeLine="25" fill="#FEFECE" filter="url(#fn9vv7bnpelpt)" height="40" id="userVaccines" style="stroke:#A80036;stroke-width:1.5;" width="107" x="375" y="39"/><ellipse cx="390" cy="55" fill="#ADD1B2" rx="11" ry="11" style="stroke:#A80036;stroke-width:1.0;"/><path d="M392,51.5 Q392.2031,51 392.4375,50.75 Q392.6719,50.5 392.9375,50.5 Q393.4063,50.5 393.7031,50.7813 Q394,51.0625 394,51.7188 L394,53.2813 Q394,53.9375 393.7188,54.2188 Q393.4375,54.5 393,54.5 Q392.6094,54.5 392.3594,54.3281 Q392.1094,54.1563 392,53.7031 Q391.9531,53.3906 391.7813,53.2188 Q391.4688,52.8906 390.9063,52.7031 Q390.3438,52.5 389.7813,52.5 Q389.0781,52.5 388.4844,52.7813 Q387.9063,53.0625 387.4531,53.6875 Q387,54.3125 387,55.1719 L387,56.0938 Q387,57.125 387.8438,57.8125 Q388.6875,58.5 390.1875,58.5 Q391.0781,58.5 391.7031,58.2969 Q392.0625,58.1875 392.4688,57.8281 Q392.7344,57.625 392.875,57.5625 Q393.0156,57.5 393.1875,57.5 Q393.5156,57.5 393.75,57.7656 Q394,58.0156 394,58.375 Q394,58.7188 393.6563,59.125 Q393.1563,59.7188 392.3594,60.0469 Q391.3125,60.5 390.0313,60.5 Q388.5313,60.5 387.3281,59.9063 Q386.3594,59.4375 385.6719,58.4219 Q385,57.4063 385,56.2031 L385,55.1094 Q385,53.8594 385.5938,52.7656 Q386.2031,51.6719 387.25,51.0938 Q388.3125,50.5 389.5,50.5 Q390.2188,50.5 390.8438,50.75 Q391.4688,51 392,51.5 Z " fill="#000000"/><text fill="#000000" font-family="sans-serif" font-size="12" lengthAdjust="spacing" textLength="75" x="404" y="59.9102">userVaccines</text><line style="stroke:#A80036;stroke-width:1.5;" x1="376" x2="481" y1="71" y2="71"/><!--MD5=[19e445fc4d3b48519cbe33da05496394]
class Vaccine--><rect fill="#FEFECE" filter="url(#fn9vv7bnpelpt)" height="40" id="Vaccine" style="stroke:#A80036;stroke-width:1.5;" width="75" x="769" y="164"/><ellipse cx="784" cy="180" fill="#ADD1B2" rx="11" ry="11" style="stroke:#A80036;stroke-width:1.0;"/><path d="M786,176.5 Q786.2031,176 786.4375,175.75 Q786.6719,175.5 786.9375,175.5 Q787.4063,175.5 787.7031,175.7813 Q788,176.0625 788,176.7188 L788,178.2813 Q788,178.9375 787.7188,179.2188 Q787.4375,179.5 787,179.5 Q786.6094,179.5 786.3594,179.3281 Q786.1094,179.1563 786,178.7031 Q785.9531,178.3906 785.7813,178.2188 Q785.4688,177.8906 784.9063,177.7031 Q784.3438,177.5 783.7813,177.5 Q783.0781,177.5 782.4844,177.7813 Q781.9063,178.0625 781.4531,178.6875 Q781,179.3125 781,180.1719 L781,181.0938 Q781,182.125 781.8438,182.8125 Q782.6875,183.5 784.1875,183.5 Q785.0781,183.5 785.7031,183.2969 Q786.0625,183.1875 786.4688,182.8281 Q786.7344,182.625 786.875,182.5625 Q787.0156,182.5 787.1875,182.5 Q787.5156,182.5 787.75,182.7656 Q788,183.0156 788,183.375 Q788,183.7188 787.6563,184.125 Q787.1563,184.7188 786.3594,185.0469 Q785.3125,185.5 784.0313,185.5 Q782.5313,185.5 781.3281,184.9063 Q780.3594,184.4375 779.6719,183.4219 Q779,182.4063 779,181.2031 L779,180.1094 Q779,178.8594 779.5938,177.7656 Q780.2031,176.6719 781.25,176.0938 Q782.3125,175.5 783.5,175.5 Q784.2188,175.5 784.8438,175.75 Q785.4688,176 786,176.5 Z " fill="#000000"/><text fill="#000000" font-family="sans-serif" font-size="12" lengthAdjust="spacing" textLength="43" x="798" y="184.9102">Vaccine</text><line style="stroke:#A80036;stroke-width:1.5;" x1="770" x2="843" y1="196" y2="196"/><!--MD5=[f67bbca986ce6a65e937e2da0f683c3f]
link Company to Nurse--><path codeLine="28" d="M86.86,121.83 C116.92,105.17 159.19,81.72 187.98,65.76 " fill="none" id="Company-Nurse" style="stroke:#A80036;stroke-width:1.0;"/><polygon fill="#000000" points="131.3728,72.7511,122.0372,74.5671,124.8875,79.7076,131.3728,72.7511" style="stroke:#000000;stroke-width:1.0;"/><text fill="#000000" font-family="sans-serif" font-size="13" lengthAdjust="spacing" textLength="21" x="136" y="80.4951">has</text><text fill="#000000" font-family="sans-serif" font-size="13" lengthAdjust="spacing" textLength="7" x="89.8064" y="111.1018">1</text><text fill="#000000" font-family="sans-serif" font-size="13" lengthAdjust="spacing" textLength="5" x="175.21" y="84.9824">*</text><!--MD5=[1a8aa2b864b87f860d28abceaa28b7a5]
link Company to SNSUser--><path codeLine="29" d="M92.3,139.28 C197.69,132.42 473.28,114.48 577.9,107.67 " fill="none" id="Company-SNSUser" style="stroke:#A80036;stroke-width:1.0;"/><polygon fill="#000000" points="306.4894,114.851,297.2726,112.5058,297.6544,118.3713,306.4894,114.851" style="stroke:#000000;stroke-width:1.0;"/><text fill="#000000" font-family="sans-serif" font-size="13" lengthAdjust="spacing" textLength="21" x="310.5" y="120.4951">has</text><text fill="#000000" font-family="sans-serif" font-size="13" lengthAdjust="spacing" textLength="7" x="99.9684" y="153.6787">1</text><text fill="#000000" font-family="sans-serif" font-size="13" lengthAdjust="spacing" textLength="5" x="564.9556" y="123.081">*</text><!--MD5=[c29c8d42883934cbaf5793c72a334947]
link Company to Vaccine--><path codeLine="30" d="M78.98,162.16 C111.49,183.15 167.04,213 220,213 C220,213 220,213 621,213 C672.72,213 731.61,201.74 768.66,193.26 " fill="none" id="Company-Vaccine" style="stroke:#A80036;stroke-width:1.0;"/><polygon fill="#000000" points="415.9949,204.401,407.0914,201.0576,406.8266,206.9295,415.9949,204.401" style="stroke:#000000;stroke-width:1.0;"/><text fill="#000000" font-family="sans-serif" font-size="13" lengthAdjust="spacing" textLength="30" x="420" y="209.4951">owns</text><text fill="#000000" font-family="sans-serif" font-size="13" lengthAdjust="spacing" textLength="7" x="79.2869" y="183.6246">1</text><text fill="#000000" font-family="sans-serif" font-size="13" lengthAdjust="spacing" textLength="5" x="755.9702" y="210.0788">*</text><!--MD5=[86663ec7e57c1a973aac97f296658386]
link Nurse to userVaccines--><path codeLine="31" d="M254.11,49.72 C286.39,51.45 336.71,54.14 374.85,56.18 " fill="none" id="Nurse-userVaccines" style="stroke:#A80036;stroke-width:1.0;"/><polygon fill="#000000" points="293.9929,43.4429,285.1177,40.0249,284.8037,45.8944,293.9929,43.4429" style="stroke:#000000;stroke-width:1.0;"/><text fill="#000000" font-family="sans-serif" font-size="13" lengthAdjust="spacing" textLength="46" x="298" y="48.4951">updates</text><text fill="#000000" font-family="sans-serif" font-size="13" lengthAdjust="spacing" textLength="7" x="262.1184" y="65.4337">1</text><text fill="#000000" font-family="sans-serif" font-size="13" lengthAdjust="spacing" textLength="5" x="361.9539" y="70.4283">*</text><!--MD5=[e274b14c180bb57c9950685a9e1ed7bd]
link userVaccines to SNSUser--><path codeLine="32" d="M482.03,71.75 C512.27,79.09 549.7,88.18 577.8,95 " fill="none" id="userVaccines-SNSUser" style="stroke:#A80036;stroke-width:1.0;"/><polygon fill="#000000" points="512.1411,69.9962,520.2376,74.9861,521.6242,69.2741,512.1411,69.9962" style="stroke:#000000;stroke-width:1.0;"/><text fill="#000000" font-family="sans-serif" font-size="13" lengthAdjust="spacing" textLength="21" x="526" y="76.4951">has</text><text fill="#000000" font-family="sans-serif" font-size="13" lengthAdjust="spacing" textLength="7" x="490.0498" y="88.1878">1</text><text fill="#000000" font-family="sans-serif" font-size="13" lengthAdjust="spacing" textLength="7" x="562.9453" y="89.4161">1</text><!--MD5=[0e6b2441f6980354f17e2a2b41c9848d]
link SNSUser to Vaccine--><path codeLine="33" d="M662.41,122.73 C694.38,136.42 738.22,155.19 768.92,168.34 " fill="none" id="SNSUser-Vaccine" style="stroke:#A80036;stroke-width:1.0;"/><polygon fill="#000000" points="692.4037,127.2075,699.5616,133.4698,701.8754,128.0665,692.4037,127.2075" style="stroke:#000000;stroke-width:1.0;"/><text fill="#000000" font-family="sans-serif" font-size="13" lengthAdjust="spacing" textLength="32" x="706" y="134.4951">takes</text><text fill="#000000" font-family="sans-serif" font-size="13" lengthAdjust="spacing" textLength="7" x="670.0138" y="140.5009">1</text><text fill="#000000" font-family="sans-serif" font-size="13" lengthAdjust="spacing" textLength="5" x="756.0292" y="180.3617">*</text><!--MD5=[f75be1d015925e8c85f7bf581c3b5e3e]
@startuml
hide methods
left to right direction
skinparam classAttributeIconSize 0



class Nurse{
-name
-age
-address
}

class Company{

}

class SNSUser {
    -snsNumber
    -name
    -age
    -phoneNum
    -email
}

class userVaccines{}


Company "1" - -"*" Nurse: has >
Company "1" - -"*" SNSUser : has >
Company "1" - - "*" Vaccine: owns >
Nurse"1" - -"*" userVaccines : updates >
userVaccines"1" - -"1" SNSUser : has <
SNSUser "1"- -"*" Vaccine: takes <
@enduml

PlantUML version 1.2021.11(Sat Oct 02 14:26:11 BST 2021)
(GPL source distribution)
Java Runtime: OpenJDK Runtime Environment
JVM: OpenJDK 64-Bit Server VM
Default Encoding: Cp1252
Language: pt
Country: PT
--></g></svg>