<?xml version="1.0" encoding="UTF-8" standalone="no"?><svg xmlns="http://www.w3.org/2000/svg" xmlns:xlink="http://www.w3.org/1999/xlink" contentScriptType="application/ecmascript" contentStyleType="text/css" height="1000px" preserveAspectRatio="none" style="width:839px;height:1000px;background:#FFFFFF;" version="1.1" viewBox="0 0 839 1000" width="839px" zoomAndPan="magnify"><defs><filter height="300%" id="f1rbpazrymeyw9" width="300%" x="-1" y="-1"><feGaussianBlur result="blurOut" stdDeviation="2.0"/><feColorMatrix in="blurOut" result="blurOut2" type="matrix" values="0 0 0 0 0 0 0 0 0 0 0 0 0 0 0 0 0 0 .4 0"/><feOffset dx="4.0" dy="4.0" in="blurOut2" result="blurOut3"/><feBlend in="SourceGraphic" in2="blurOut3" mode="normal"/></filter></defs><g><rect fill="#FFFFFF" filter="url(#f1rbpazrymeyw9)" height="797.4922" style="stroke:#A80036;stroke-width:1.0;" width="10" x="21.5" y="99.6094"/><rect fill="#FFFFFF" filter="url(#f1rbpazrymeyw9)" height="775.1406" style="stroke:#A80036;stroke-width:1.0;" width="10" x="247.5" y="121.9609"/><rect fill="#FFFFFF" filter="url(#f1rbpazrymeyw9)" height="653.7344" style="stroke:#A80036;stroke-width:1.0;" width="10" x="478.5" y="152.3125"/><rect fill="#FFFFFF" filter="url(#f1rbpazrymeyw9)" height="30.3516" style="stroke:#A80036;stroke-width:1.0;" width="10" x="698.5" y="182.6641"/><rect fill="#FFFFFF" filter="url(#f1rbpazrymeyw9)" height="30.3516" style="stroke:#A80036;stroke-width:1.0;" width="10" x="698.5" y="381.125"/><rect fill="#FFFFFF" filter="url(#f1rbpazrymeyw9)" height="30.3516" style="stroke:#A80036;stroke-width:1.0;" width="10" x="698.5" y="623.9375"/><rect fill="#FFFFFF" filter="url(#f1rbpazrymeyw9)" height="30.3516" style="stroke:#A80036;stroke-width:1.0;" width="10" x="787" y="563.2344"/><line style="stroke:#A80036;stroke-width:1.0;stroke-dasharray:5.0,5.0;" x1="26" x2="26" y1="89.6094" y2="915.1016"/><line style="stroke:#A80036;stroke-width:1.0;stroke-dasharray:5.0,5.0;" x1="252.5" x2="252.5" y1="89.6094" y2="915.1016"/><line style="stroke:#A80036;stroke-width:1.0;stroke-dasharray:5.0,5.0;" x1="483" x2="483" y1="89.6094" y2="915.1016"/><line style="stroke:#A80036;stroke-width:1.0;stroke-dasharray:5.0,5.0;" x1="703.5" x2="703.5" y1="89.6094" y2="915.1016"/><line style="stroke:#A80036;stroke-width:1.0;stroke-dasharray:5.0,5.0;" x1="791.5" x2="791.5" y1="89.6094" y2="915.1016"/><text fill="#000000" font-family="sans-serif" font-size="14" lengthAdjust="spacing" textLength="37" x="5" y="86.5332">Nurse</text><ellipse cx="26.5" cy="15" fill="#FEFECE" filter="url(#f1rbpazrymeyw9)" rx="8" ry="8" style="stroke:#A80036;stroke-width:2.0;"/><path d="M26.5,23 L26.5,50 M13.5,31 L39.5,31 M26.5,50 L13.5,65 M26.5,50 L39.5,65 " fill="none" filter="url(#f1rbpazrymeyw9)" style="stroke:#A80036;stroke-width:2.0;"/><text fill="#000000" font-family="sans-serif" font-size="14" lengthAdjust="spacing" textLength="37" x="5" y="928.6348">Nurse</text><ellipse cx="26.5" cy="941.7109" fill="#FEFECE" filter="url(#f1rbpazrymeyw9)" rx="8" ry="8" style="stroke:#A80036;stroke-width:2.0;"/><path d="M26.5,949.7109 L26.5,976.7109 M13.5,957.7109 L39.5,957.7109 M26.5,976.7109 L13.5,991.7109 M26.5,976.7109 L39.5,991.7109 " fill="none" filter="url(#f1rbpazrymeyw9)" style="stroke:#A80036;stroke-width:2.0;"/><rect fill="#FEFECE" filter="url(#f1rbpazrymeyw9)" height="31.6094" style="stroke:#A80036;stroke-width:1.5;" width="78" x="211.5" y="53"/><text fill="#000000" font-family="sans-serif" font-size="14" lengthAdjust="spacing" textLength="64" x="218.5" y="74.5332">:NurseGUI</text><rect fill="#FEFECE" filter="url(#f1rbpazrymeyw9)" height="31.6094" style="stroke:#A80036;stroke-width:1.5;" width="78" x="211.5" y="914.1016"/><text fill="#000000" font-family="sans-serif" font-size="14" lengthAdjust="spacing" textLength="64" x="218.5" y="935.6348">:NurseGUI</text><rect fill="#FEFECE" filter="url(#f1rbpazrymeyw9)" height="31.6094" style="stroke:#A80036;stroke-width:1.5;" width="217" x="373" y="53"/><text fill="#000000" font-family="sans-serif" font-size="14" lengthAdjust="spacing" textLength="203" x="380" y="74.5332">:registerAdministrationController</text><rect fill="#FEFECE" filter="url(#f1rbpazrymeyw9)" height="31.6094" style="stroke:#A80036;stroke-width:1.5;" width="217" x="373" y="914.1016"/><text fill="#000000" font-family="sans-serif" font-size="14" lengthAdjust="spacing" textLength="203" x="380" y="935.6348">:registerAdministrationController</text><rect fill="#FEFECE" filter="url(#f1rbpazrymeyw9)" height="31.6094" style="stroke:#A80036;stroke-width:1.5;" width="78" x="662.5" y="53"/><text fill="#000000" font-family="sans-serif" font-size="14" lengthAdjust="spacing" textLength="64" x="669.5" y="74.5332">:Company</text><rect fill="#FEFECE" filter="url(#f1rbpazrymeyw9)" height="31.6094" style="stroke:#A80036;stroke-width:1.5;" width="78" x="662.5" y="914.1016"/><text fill="#000000" font-family="sans-serif" font-size="14" lengthAdjust="spacing" textLength="64" x="669.5" y="935.6348">:Company</text><rect fill="#FEFECE" filter="url(#f1rbpazrymeyw9)" height="31.6094" style="stroke:#A80036;stroke-width:1.5;" width="71" x="754.5" y="53"/><text fill="#000000" font-family="sans-serif" font-size="14" lengthAdjust="spacing" textLength="57" x="761.5" y="74.5332">:SnsUser</text><rect fill="#FEFECE" filter="url(#f1rbpazrymeyw9)" height="31.6094" style="stroke:#A80036;stroke-width:1.5;" width="71" x="754.5" y="914.1016"/><text fill="#000000" font-family="sans-serif" font-size="14" lengthAdjust="spacing" textLength="57" x="761.5" y="935.6348">:SnsUser</text><rect fill="#FFFFFF" filter="url(#f1rbpazrymeyw9)" height="797.4922" style="stroke:#A80036;stroke-width:1.0;" width="10" x="21.5" y="99.6094"/><rect fill="#FFFFFF" filter="url(#f1rbpazrymeyw9)" height="775.1406" style="stroke:#A80036;stroke-width:1.0;" width="10" x="247.5" y="121.9609"/><rect fill="#FFFFFF" filter="url(#f1rbpazrymeyw9)" height="653.7344" style="stroke:#A80036;stroke-width:1.0;" width="10" x="478.5" y="152.3125"/><rect fill="#FFFFFF" filter="url(#f1rbpazrymeyw9)" height="30.3516" style="stroke:#A80036;stroke-width:1.0;" width="10" x="698.5" y="182.6641"/><rect fill="#FFFFFF" filter="url(#f1rbpazrymeyw9)" height="30.3516" style="stroke:#A80036;stroke-width:1.0;" width="10" x="698.5" y="381.125"/><rect fill="#FFFFFF" filter="url(#f1rbpazrymeyw9)" height="30.3516" style="stroke:#A80036;stroke-width:1.0;" width="10" x="698.5" y="623.9375"/><rect fill="#FFFFFF" filter="url(#f1rbpazrymeyw9)" height="30.3516" style="stroke:#A80036;stroke-width:1.0;" width="10" x="787" y="563.2344"/><polygon fill="#A80036" points="235.5,117.9609,245.5,121.9609,235.5,125.9609,239.5,121.9609" style="stroke:#A80036;stroke-width:1.0;"/><line style="stroke:#A80036;stroke-width:1.0;" x1="31.5" x2="241.5" y1="121.9609" y2="121.9609"/><text fill="#000000" font-family="sans-serif" font-size="13" font-weight="bold" lengthAdjust="spacing" textLength="7" x="38.5" y="117.1045">1</text><text fill="#000000" font-family="sans-serif" font-size="13" lengthAdjust="spacing" textLength="97" x="49.5" y="117.1045">Clicks left button</text><polygon fill="#A80036" points="466.5,148.3125,476.5,152.3125,466.5,156.3125,470.5,152.3125" style="stroke:#A80036;stroke-width:1.0;"/><line style="stroke:#A80036;stroke-width:1.0;" x1="257.5" x2="472.5" y1="152.3125" y2="152.3125"/><text fill="#000000" font-family="sans-serif" font-size="13" font-weight="bold" lengthAdjust="spacing" textLength="7" x="264.5" y="147.4561">2</text><text fill="#000000" font-family="sans-serif" font-size="13" lengthAdjust="spacing" textLength="191" x="275.5" y="147.4561">loadFXML(registerAdministration)</text><polygon fill="#A80036" points="686.5,178.6641,696.5,182.6641,686.5,186.6641,690.5,182.6641" style="stroke:#A80036;stroke-width:1.0;"/><line style="stroke:#A80036;stroke-width:1.0;" x1="488.5" x2="692.5" y1="182.6641" y2="182.6641"/><text fill="#000000" font-family="sans-serif" font-size="13" font-weight="bold" lengthAdjust="spacing" textLength="7" x="495.5" y="177.8076">3</text><text fill="#000000" font-family="sans-serif" font-size="13" lengthAdjust="spacing" textLength="55" x="506.5" y="177.8076">initialize()</text><polygon fill="#A80036" points="499.5,209.0156,489.5,213.0156,499.5,217.0156,495.5,213.0156" style="stroke:#A80036;stroke-width:1.0;"/><line style="stroke:#A80036;stroke-width:1.0;stroke-dasharray:2.0,2.0;" x1="493.5" x2="702.5" y1="213.0156" y2="213.0156"/><text fill="#000000" font-family="sans-serif" font-size="13" font-weight="bold" lengthAdjust="spacing" textLength="7" x="505.5" y="208.1592">4</text><text fill="#000000" font-family="sans-serif" font-size="13" lengthAdjust="spacing" textLength="171" x="516.5" y="208.1592">returns list of VaccineCenters</text><polygon fill="#A80036" points="268.5,239.3672,258.5,243.3672,268.5,247.3672,264.5,243.3672" style="stroke:#A80036;stroke-width:1.0;"/><line style="stroke:#A80036;stroke-width:1.0;" x1="262.5" x2="477.5" y1="243.3672" y2="243.3672"/><text fill="#000000" font-family="sans-serif" font-size="13" font-weight="bold" lengthAdjust="spacing" textLength="7" x="274.5" y="238.5107">5</text><text fill="#000000" font-family="sans-serif" font-size="13" lengthAdjust="spacing" textLength="58" x="285.5" y="238.5107">setItems()</text><polygon fill="#A80036" points="42.5,286.0703,32.5,290.0703,42.5,294.0703,38.5,290.0703" style="stroke:#A80036;stroke-width:1.0;"/><line style="stroke:#A80036;stroke-width:1.0;" x1="36.5" x2="246.5" y1="290.0703" y2="290.0703"/><text fill="#000000" font-family="sans-serif" font-size="13" font-weight="bold" lengthAdjust="spacing" textLength="7" x="48.5" y="277.0381">6</text><text fill="#000000" font-family="sans-serif" font-size="13" lengthAdjust="spacing" textLength="148" x="59.5" y="268.8623">Shows Vaccenter options</text><text fill="#000000" font-family="sans-serif" font-size="13" lengthAdjust="spacing" textLength="107" x="63.5" y="285.2139">on the options box</text><polygon fill="#A80036" points="235.5,316.4219,245.5,320.4219,235.5,324.4219,239.5,320.4219" style="stroke:#A80036;stroke-width:1.0;"/><line style="stroke:#A80036;stroke-width:1.0;" x1="31.5" x2="241.5" y1="320.4219" y2="320.4219"/><text fill="#000000" font-family="sans-serif" font-size="13" font-weight="bold" lengthAdjust="spacing" textLength="7" x="38.5" y="315.5654">7</text><text fill="#000000" font-family="sans-serif" font-size="13" lengthAdjust="spacing" textLength="91" x="49.5" y="315.5654">Chooses center</text><polygon fill="#A80036" points="466.5,346.7734,476.5,350.7734,466.5,354.7734,470.5,350.7734" style="stroke:#A80036;stroke-width:1.0;"/><line style="stroke:#A80036;stroke-width:1.0;" x1="257.5" x2="472.5" y1="350.7734" y2="350.7734"/><text fill="#000000" font-family="sans-serif" font-size="13" font-weight="bold" lengthAdjust="spacing" textLength="7" x="264.5" y="345.917">8</text><text fill="#000000" font-family="sans-serif" font-size="13" lengthAdjust="spacing" textLength="104" x="275.5" y="345.917">getWaitingRoom()</text><polygon fill="#A80036" points="686.5,377.125,696.5,381.125,686.5,385.125,690.5,381.125" style="stroke:#A80036;stroke-width:1.0;"/><line style="stroke:#A80036;stroke-width:1.0;" x1="488.5" x2="692.5" y1="381.125" y2="381.125"/><text fill="#000000" font-family="sans-serif" font-size="13" font-weight="bold" lengthAdjust="spacing" textLength="7" x="495.5" y="376.2686">9</text><text fill="#000000" font-family="sans-serif" font-size="13" lengthAdjust="spacing" textLength="141" x="506.5" y="376.2686">waitingRoom(Vaccenter)</text><polygon fill="#A80036" points="499.5,407.4766,489.5,411.4766,499.5,415.4766,495.5,411.4766" style="stroke:#A80036;stroke-width:1.0;"/><line style="stroke:#A80036;stroke-width:1.0;stroke-dasharray:2.0,2.0;" x1="493.5" x2="702.5" y1="411.4766" y2="411.4766"/><text fill="#000000" font-family="sans-serif" font-size="13" font-weight="bold" lengthAdjust="spacing" textLength="14" x="505.5" y="406.6201">10</text><text fill="#000000" font-family="sans-serif" font-size="13" lengthAdjust="spacing" textLength="168" x="523.5" y="406.6201">returns users in waitingRoom</text><polygon fill="#A80036" points="268.5,437.8281,258.5,441.8281,268.5,445.8281,264.5,441.8281" style="stroke:#A80036;stroke-width:1.0;"/><line style="stroke:#A80036;stroke-width:1.0;" x1="262.5" x2="477.5" y1="441.8281" y2="441.8281"/><text fill="#000000" font-family="sans-serif" font-size="13" font-weight="bold" lengthAdjust="spacing" textLength="14" x="274.5" y="436.9717">11</text><text fill="#000000" font-family="sans-serif" font-size="13" lengthAdjust="spacing" textLength="58" x="292.5" y="436.9717">setItems()</text><polygon fill="#A80036" points="42.5,468.1797,32.5,472.1797,42.5,476.1797,38.5,472.1797" style="stroke:#A80036;stroke-width:1.0;"/><line style="stroke:#A80036;stroke-width:1.0;" x1="36.5" x2="246.5" y1="472.1797" y2="472.1797"/><text fill="#000000" font-family="sans-serif" font-size="13" font-weight="bold" lengthAdjust="spacing" textLength="14" x="48.5" y="467.3232">12</text><text fill="#000000" font-family="sans-serif" font-size="13" lengthAdjust="spacing" textLength="112" x="66.5" y="467.3232">shows user options</text><polygon fill="#A80036" points="235.5,498.5313,245.5,502.5313,235.5,506.5313,239.5,502.5313" style="stroke:#A80036;stroke-width:1.0;"/><line style="stroke:#A80036;stroke-width:1.0;" x1="31.5" x2="241.5" y1="502.5313" y2="502.5313"/><text fill="#000000" font-family="sans-serif" font-size="13" font-weight="bold" lengthAdjust="spacing" textLength="14" x="38.5" y="497.6748">13</text><text fill="#000000" font-family="sans-serif" font-size="13" lengthAdjust="spacing" textLength="78" x="56.5" y="497.6748">chooses user</text><polygon fill="#A80036" points="466.5,528.8828,476.5,532.8828,466.5,536.8828,470.5,532.8828" style="stroke:#A80036;stroke-width:1.0;"/><line style="stroke:#A80036;stroke-width:1.0;" x1="257.5" x2="472.5" y1="532.8828" y2="532.8828"/><text fill="#000000" font-family="sans-serif" font-size="13" font-weight="bold" lengthAdjust="spacing" textLength="14" x="264.5" y="528.0264">14</text><text fill="#000000" font-family="sans-serif" font-size="13" lengthAdjust="spacing" textLength="134" x="282.5" y="528.0264">registerAdministration()</text><polygon fill="#A80036" points="775,559.2344,785,563.2344,775,567.2344,779,563.2344" style="stroke:#A80036;stroke-width:1.0;"/><line style="stroke:#A80036;stroke-width:1.0;" x1="488.5" x2="781" y1="563.2344" y2="563.2344"/><text fill="#000000" font-family="sans-serif" font-size="13" font-weight="bold" lengthAdjust="spacing" textLength="14" x="495.5" y="558.3779">15</text><text fill="#000000" font-family="sans-serif" font-size="13" lengthAdjust="spacing" textLength="49" x="513.5" y="558.3779">getAge()</text><polygon fill="#A80036" points="499.5,589.5859,489.5,593.5859,499.5,597.5859,495.5,593.5859" style="stroke:#A80036;stroke-width:1.0;"/><line style="stroke:#A80036;stroke-width:1.0;stroke-dasharray:2.0,2.0;" x1="493.5" x2="791" y1="593.5859" y2="593.5859"/><text fill="#000000" font-family="sans-serif" font-size="13" font-weight="bold" lengthAdjust="spacing" textLength="14" x="505.5" y="588.7295">16</text><text fill="#000000" font-family="sans-serif" font-size="13" lengthAdjust="spacing" textLength="65" x="523.5" y="588.7295">returns age</text><polygon fill="#A80036" points="686.5,619.9375,696.5,623.9375,686.5,627.9375,690.5,623.9375" style="stroke:#A80036;stroke-width:1.0;"/><line style="stroke:#A80036;stroke-width:1.0;" x1="488.5" x2="692.5" y1="623.9375" y2="623.9375"/><text fill="#000000" font-family="sans-serif" font-size="13" font-weight="bold" lengthAdjust="spacing" textLength="14" x="495.5" y="619.0811">17</text><text fill="#000000" font-family="sans-serif" font-size="13" lengthAdjust="spacing" textLength="80" x="513.5" y="619.0811">getVaccines()</text><polygon fill="#A80036" points="499.5,650.2891,489.5,654.2891,499.5,658.2891,495.5,654.2891" style="stroke:#A80036;stroke-width:1.0;"/><line style="stroke:#A80036;stroke-width:1.0;stroke-dasharray:2.0,2.0;" x1="493.5" x2="702.5" y1="654.2891" y2="654.2891"/><text fill="#000000" font-family="sans-serif" font-size="13" font-weight="bold" lengthAdjust="spacing" textLength="14" x="505.5" y="649.4326">18</text><text fill="#000000" font-family="sans-serif" font-size="13" lengthAdjust="spacing" textLength="87" x="523.5" y="649.4326">return vaccines</text><polygon fill="#A80036" points="268.5,680.6406,258.5,684.6406,268.5,688.6406,264.5,684.6406" style="stroke:#A80036;stroke-width:1.0;"/><line style="stroke:#A80036;stroke-width:1.0;stroke-dasharray:2.0,2.0;" x1="262.5" x2="477.5" y1="684.6406" y2="684.6406"/><text fill="#000000" font-family="sans-serif" font-size="13" font-weight="bold" lengthAdjust="spacing" textLength="14" x="274.5" y="679.7842">19</text><text fill="#000000" font-family="sans-serif" font-size="13" lengthAdjust="spacing" textLength="94" x="292.5" y="679.7842">returns vaccines</text><polygon fill="#A80036" points="42.5,710.9922,32.5,714.9922,42.5,718.9922,38.5,714.9922" style="stroke:#A80036;stroke-width:1.0;"/><line style="stroke:#A80036;stroke-width:1.0;" x1="36.5" x2="246.5" y1="714.9922" y2="714.9922"/><text fill="#000000" font-family="sans-serif" font-size="13" font-weight="bold" lengthAdjust="spacing" textLength="14" x="48.5" y="710.1357">20</text><text fill="#000000" font-family="sans-serif" font-size="13" lengthAdjust="spacing" textLength="174" x="66.5" y="710.1357">shows vaccines user can take</text><polygon fill="#A80036" points="235.5,741.3438,245.5,745.3438,235.5,749.3438,239.5,745.3438" style="stroke:#A80036;stroke-width:1.0;"/><line style="stroke:#A80036;stroke-width:1.0;" x1="31.5" x2="241.5" y1="745.3438" y2="745.3438"/><text fill="#000000" font-family="sans-serif" font-size="13" font-weight="bold" lengthAdjust="spacing" textLength="14" x="38.5" y="740.4873">21</text><text fill="#000000" font-family="sans-serif" font-size="13" lengthAdjust="spacing" textLength="96" x="56.5" y="740.4873">chooses vaccine</text><polygon fill="#A80036" points="466.5,771.6953,476.5,775.6953,466.5,779.6953,470.5,775.6953" style="stroke:#A80036;stroke-width:1.0;"/><line style="stroke:#A80036;stroke-width:1.0;" x1="257.5" x2="472.5" y1="775.6953" y2="775.6953"/><text fill="#000000" font-family="sans-serif" font-size="13" font-weight="bold" lengthAdjust="spacing" textLength="14" x="264.5" y="770.8389">22</text><text fill="#000000" font-family="sans-serif" font-size="13" lengthAdjust="spacing" textLength="56" x="282.5" y="770.8389">getDose()</text><polygon fill="#A80036" points="268.5,802.0469,258.5,806.0469,268.5,810.0469,264.5,806.0469" style="stroke:#A80036;stroke-width:1.0;"/><line style="stroke:#A80036;stroke-width:1.0;stroke-dasharray:2.0,2.0;" x1="262.5" x2="482.5" y1="806.0469" y2="806.0469"/><text fill="#000000" font-family="sans-serif" font-size="13" font-weight="bold" lengthAdjust="spacing" textLength="14" x="274.5" y="801.1904">23</text><text fill="#000000" font-family="sans-serif" font-size="13" lengthAdjust="spacing" textLength="162" x="292.5" y="801.1904">returns doses user can take</text><polygon fill="#A80036" points="42.5,832.3984,32.5,836.3984,42.5,840.3984,38.5,836.3984" style="stroke:#A80036;stroke-width:1.0;"/><line style="stroke:#A80036;stroke-width:1.0;" x1="36.5" x2="246.5" y1="836.3984" y2="836.3984"/><text fill="#000000" font-family="sans-serif" font-size="13" font-weight="bold" lengthAdjust="spacing" textLength="14" x="48.5" y="831.542">24</text><text fill="#000000" font-family="sans-serif" font-size="13" lengthAdjust="spacing" textLength="78" x="66.5" y="831.542">Shows doses</text><polygon fill="#A80036" points="235.5,862.75,245.5,866.75,235.5,870.75,239.5,866.75" style="stroke:#A80036;stroke-width:1.0;"/><line style="stroke:#A80036;stroke-width:1.0;" x1="31.5" x2="241.5" y1="866.75" y2="866.75"/><text fill="#000000" font-family="sans-serif" font-size="13" font-weight="bold" lengthAdjust="spacing" textLength="14" x="38.5" y="861.8936">25</text><text fill="#000000" font-family="sans-serif" font-size="13" lengthAdjust="spacing" textLength="81" x="56.5" y="861.8936">chooses dose</text><polygon fill="#A80036" points="37.5,893.1016,27.5,897.1016,37.5,901.1016,33.5,897.1016" style="stroke:#A80036;stroke-width:1.0;"/><line style="stroke:#A80036;stroke-width:1.0;stroke-dasharray:2.0,2.0;" x1="31.5" x2="251.5" y1="897.1016" y2="897.1016"/><text fill="#000000" font-family="sans-serif" font-size="13" font-weight="bold" lengthAdjust="spacing" textLength="14" x="43.5" y="892.2451">26</text><text fill="#000000" font-family="sans-serif" font-size="13" lengthAdjust="spacing" textLength="163" x="61.5" y="892.2451">inform operation (in)success</text><!--MD5=[29c6f46bfdd4f15acc571556ad21b208]
@startuml
autonumber

actor "Nurse" as ADM

participant ":NurseGUI" as UI
participant ":registerAdministrationController" as CTRL
participant ":Company" as ORG
participant ":SnsUser" as USER


activate ADM
ADM -> UI :Clicks left button
activate UI
UI -> CTRL: loadFXML(registerAdministration)
activate CTRL
CTRL->ORG :initialize()
activate ORG
ORG - -> CTRL: returns list of VaccineCenters
deactivate ORG
CTRL->UI: setItems()
UI-> ADM: Shows Vaccenter options \n on the options box
ADM-> UI: Chooses center
UI->CTRL: getWaitingRoom()
CTRL ->ORG: waitingRoom(Vaccenter)
activate ORG
ORG - -> CTRL : returns users in waitingRoom
deactivate ORG
CTRL-> UI: setItems()
UI->ADM: shows user options
ADM-> UI: chooses user
UI-> CTRL: registerAdministration()
CTRL -> USER: getAge()
activate USER
USER- -> CTRL :returns age
deactivate USER
CTRL-> ORG: getVaccines()
activate ORG
ORG- -> CTRL:return vaccines
deactivate ORG
CTRL- -> UI: returns vaccines
UI-> ADM: shows vaccines user can take
ADM-> UI: chooses vaccine
UI-> CTRL: getDose()
CTRL- ->UI: returns doses user can take
deactivate CTRL
UI-> ADM: Shows doses
ADM-> UI: chooses dose




UI - -> ADM: inform operation (in)success
deactivate UI

deactivate ADM


@enduml

PlantUML version 1.2021.11(Sat Oct 02 14:26:11 BST 2021)
(GPL source distribution)
Java Runtime: OpenJDK Runtime Environment
JVM: OpenJDK 64-Bit Server VM
Default Encoding: Cp1252
Language: pt
Country: PT
--></g></svg>