<?xml version="1.0" encoding="UTF-8" standalone="no"?><svg xmlns="http://www.w3.org/2000/svg" xmlns:xlink="http://www.w3.org/1999/xlink" contentScriptType="application/ecmascript" contentStyleType="text/css" height="1377px" preserveAspectRatio="none" style="width:431px;height:1377px;background:#FFFFFF;" version="1.1" viewBox="0 0 431 1377" width="431px" zoomAndPan="magnify"><defs><filter height="300%" id="f1qlidgzd9z5a7" width="300%" x="-1" y="-1"><feGaussianBlur result="blurOut" stdDeviation="2.0"/><feColorMatrix in="blurOut" result="blurOut2" type="matrix" values="0 0 0 0 0 0 0 0 0 0 0 0 0 0 0 0 0 0 .4 0"/><feOffset dx="4.0" dy="4.0" in="blurOut2" result="blurOut3"/><feBlend in="SourceGraphic" in2="blurOut3" mode="normal"/></filter></defs><g><!--MD5=[02e4b9b7573f1156f41e60aa5b4e25a4]
class Company--><rect codeLine="6" fill="#FEFECE" filter="url(#f1qlidgzd9z5a7)" height="117.1797" id="Company" style="stroke:#A80036;stroke-width:1.5;" width="410" x="7" y="225"/><ellipse cx="181.25" cy="241" fill="#ADD1B2" rx="11" ry="11" style="stroke:#A80036;stroke-width:1.0;"/><path d="M183.25,237.5 Q183.4531,237 183.6875,236.75 Q183.9219,236.5 184.1875,236.5 Q184.6563,236.5 184.9531,236.7813 Q185.25,237.0625 185.25,237.7188 L185.25,239.2813 Q185.25,239.9375 184.9688,240.2188 Q184.6875,240.5 184.25,240.5 Q183.8594,240.5 183.6094,240.3281 Q183.3594,240.1563 183.25,239.7031 Q183.2031,239.3906 183.0313,239.2188 Q182.7188,238.8906 182.1563,238.7031 Q181.5938,238.5 181.0313,238.5 Q180.3281,238.5 179.7344,238.7813 Q179.1563,239.0625 178.7031,239.6875 Q178.25,240.3125 178.25,241.1719 L178.25,242.0938 Q178.25,243.125 179.0938,243.8125 Q179.9375,244.5 181.4375,244.5 Q182.3281,244.5 182.9531,244.2969 Q183.3125,244.1875 183.7188,243.8281 Q183.9844,243.625 184.125,243.5625 Q184.2656,243.5 184.4375,243.5 Q184.7656,243.5 185,243.7656 Q185.25,244.0156 185.25,244.375 Q185.25,244.7188 184.9063,245.125 Q184.4063,245.7188 183.6094,246.0469 Q182.5625,246.5 181.2813,246.5 Q179.7813,246.5 178.5781,245.9063 Q177.6094,245.4375 176.9219,244.4219 Q176.25,243.4063 176.25,242.2031 L176.25,241.1094 Q176.25,239.8594 176.8438,238.7656 Q177.4531,237.6719 178.5,237.0938 Q179.5625,236.5 180.75,236.5 Q181.4688,236.5 182.0938,236.75 Q182.7188,237 183.25,237.5 Z " fill="#000000"/><text fill="#000000" font-family="sans-serif" font-size="12" lengthAdjust="spacing" textLength="53" x="201.75" y="245.9102">Company</text><line style="stroke:#A80036;stroke-width:1.5;" x1="8" x2="416" y1="257" y2="257"/><text fill="#000000" font-family="sans-serif" font-size="11" lengthAdjust="spacing" textLength="93" x="13" y="272.4189">-String designation;</text><text fill="#000000" font-family="sans-serif" font-size="11" lengthAdjust="spacing" textLength="126" x="13" y="286.2549">-AuthFacade authFacade;</text><line style="stroke:#A80036;stroke-width:1.5;" x1="8" x2="416" y1="292.6719" y2="292.6719"/><text fill="#000000" font-family="sans-serif" font-size="11" lengthAdjust="spacing" textLength="398" x="13" y="308.0908">+Organization(name, VatNumber, webSite, phone, email, postalAddress, manager)</text><text fill="#000000" font-family="sans-serif" font-size="11" lengthAdjust="spacing" textLength="91" x="13" y="321.9268">+listVaccineType()</text><text fill="#000000" font-family="sans-serif" font-size="11" lengthAdjust="spacing" textLength="85" x="13" y="335.7627">+createVaccine()</text><!--MD5=[fd16bfabe73ae696f6ed7abaeb548e1b]
class registerAdministrationController--><rect codeLine="15" fill="#FEFECE" filter="url(#f1qlidgzd9z5a7)" height="48" id="registerAdministrationController" style="stroke:#A80036;stroke-width:1.5;" width="207" x="108.5" y="116"/><ellipse cx="123.5" cy="132" fill="#ADD1B2" rx="11" ry="11" style="stroke:#A80036;stroke-width:1.0;"/><path d="M125.5,128.5 Q125.7031,128 125.9375,127.75 Q126.1719,127.5 126.4375,127.5 Q126.9063,127.5 127.2031,127.7813 Q127.5,128.0625 127.5,128.7188 L127.5,130.2813 Q127.5,130.9375 127.2188,131.2188 Q126.9375,131.5 126.5,131.5 Q126.1094,131.5 125.8594,131.3281 Q125.6094,131.1563 125.5,130.7031 Q125.4531,130.3906 125.2813,130.2188 Q124.9688,129.8906 124.4063,129.7031 Q123.8438,129.5 123.2813,129.5 Q122.5781,129.5 121.9844,129.7813 Q121.4063,130.0625 120.9531,130.6875 Q120.5,131.3125 120.5,132.1719 L120.5,133.0938 Q120.5,134.125 121.3438,134.8125 Q122.1875,135.5 123.6875,135.5 Q124.5781,135.5 125.2031,135.2969 Q125.5625,135.1875 125.9688,134.8281 Q126.2344,134.625 126.375,134.5625 Q126.5156,134.5 126.6875,134.5 Q127.0156,134.5 127.25,134.7656 Q127.5,135.0156 127.5,135.375 Q127.5,135.7188 127.1563,136.125 Q126.6563,136.7188 125.8594,137.0469 Q124.8125,137.5 123.5313,137.5 Q122.0313,137.5 120.8281,136.9063 Q119.8594,136.4375 119.1719,135.4219 Q118.5,134.4063 118.5,133.2031 L118.5,132.1094 Q118.5,130.8594 119.0938,129.7656 Q119.7031,128.6719 120.75,128.0938 Q121.8125,127.5 123,127.5 Q123.7188,127.5 124.3438,127.75 Q124.9688,128 125.5,128.5 Z " fill="#000000"/><text fill="#000000" font-family="sans-serif" font-size="12" lengthAdjust="spacing" textLength="175" x="137.5" y="136.9102">registerAdministrationController</text><line style="stroke:#A80036;stroke-width:1.5;" x1="109.5" x2="314.5" y1="148" y2="148"/><line style="stroke:#A80036;stroke-width:1.5;" x1="109.5" x2="314.5" y1="156" y2="156"/><!--MD5=[c94a1431da01fee6566caa9aa176c6f9]
class NurseGUI--><rect codeLine="19" fill="#FEFECE" filter="url(#f1qlidgzd9z5a7)" height="48" id="NurseGUI" style="stroke:#A80036;stroke-width:1.5;" width="87" x="168.5" y="7"/><ellipse cx="183.5" cy="23" fill="#ADD1B2" rx="11" ry="11" style="stroke:#A80036;stroke-width:1.0;"/><path d="M185.5,19.5 Q185.7031,19 185.9375,18.75 Q186.1719,18.5 186.4375,18.5 Q186.9063,18.5 187.2031,18.7813 Q187.5,19.0625 187.5,19.7188 L187.5,21.2813 Q187.5,21.9375 187.2188,22.2188 Q186.9375,22.5 186.5,22.5 Q186.1094,22.5 185.8594,22.3281 Q185.6094,22.1563 185.5,21.7031 Q185.4531,21.3906 185.2813,21.2188 Q184.9688,20.8906 184.4063,20.7031 Q183.8438,20.5 183.2813,20.5 Q182.5781,20.5 181.9844,20.7813 Q181.4063,21.0625 180.9531,21.6875 Q180.5,22.3125 180.5,23.1719 L180.5,24.0938 Q180.5,25.125 181.3438,25.8125 Q182.1875,26.5 183.6875,26.5 Q184.5781,26.5 185.2031,26.2969 Q185.5625,26.1875 185.9688,25.8281 Q186.2344,25.625 186.375,25.5625 Q186.5156,25.5 186.6875,25.5 Q187.0156,25.5 187.25,25.7656 Q187.5,26.0156 187.5,26.375 Q187.5,26.7188 187.1563,27.125 Q186.6563,27.7188 185.8594,28.0469 Q184.8125,28.5 183.5313,28.5 Q182.0313,28.5 180.8281,27.9063 Q179.8594,27.4375 179.1719,26.4219 Q178.5,25.4063 178.5,24.2031 L178.5,23.1094 Q178.5,21.8594 179.0938,20.7656 Q179.7031,19.6719 180.75,19.0938 Q181.8125,18.5 183,18.5 Q183.7188,18.5 184.3438,18.75 Q184.9688,19 185.5,19.5 Z " fill="#000000"/><text fill="#000000" font-family="sans-serif" font-size="12" lengthAdjust="spacing" textLength="55" x="197.5" y="27.9102">NurseGUI</text><line style="stroke:#A80036;stroke-width:1.5;" x1="169.5" x2="254.5" y1="39" y2="39"/><line style="stroke:#A80036;stroke-width:1.5;" x1="169.5" x2="254.5" y1="47" y2="47"/><!--MD5=[f1aa797bbb856f196dbabe5d61960c3a]
class VaccinationProcess--><rect codeLine="24" fill="#FEFECE" filter="url(#f1qlidgzd9z5a7)" height="61.8359" id="VaccinationProcess" style="stroke:#A80036;stroke-width:1.5;" width="141" x="209.5" y="994"/><ellipse cx="224.5" cy="1010" fill="#ADD1B2" rx="11" ry="11" style="stroke:#A80036;stroke-width:1.0;"/><path d="M226.5,1006.5 Q226.7031,1006 226.9375,1005.75 Q227.1719,1005.5 227.4375,1005.5 Q227.9063,1005.5 228.2031,1005.7813 Q228.5,1006.0625 228.5,1006.7188 L228.5,1008.2813 Q228.5,1008.9375 228.2188,1009.2188 Q227.9375,1009.5 227.5,1009.5 Q227.1094,1009.5 226.8594,1009.3281 Q226.6094,1009.1563 226.5,1008.7031 Q226.4531,1008.3906 226.2813,1008.2188 Q225.9688,1007.8906 225.4063,1007.7031 Q224.8438,1007.5 224.2813,1007.5 Q223.5781,1007.5 222.9844,1007.7813 Q222.4063,1008.0625 221.9531,1008.6875 Q221.5,1009.3125 221.5,1010.1719 L221.5,1011.0938 Q221.5,1012.125 222.3438,1012.8125 Q223.1875,1013.5 224.6875,1013.5 Q225.5781,1013.5 226.2031,1013.2969 Q226.5625,1013.1875 226.9688,1012.8281 Q227.2344,1012.625 227.375,1012.5625 Q227.5156,1012.5 227.6875,1012.5 Q228.0156,1012.5 228.25,1012.7656 Q228.5,1013.0156 228.5,1013.375 Q228.5,1013.7188 228.1563,1014.125 Q227.6563,1014.7188 226.8594,1015.0469 Q225.8125,1015.5 224.5313,1015.5 Q223.0313,1015.5 221.8281,1014.9063 Q220.8594,1014.4375 220.1719,1013.4219 Q219.5,1012.4063 219.5,1011.2031 L219.5,1010.1094 Q219.5,1008.8594 220.0938,1007.7656 Q220.7031,1006.6719 221.75,1006.0938 Q222.8125,1005.5 224,1005.5 Q224.7188,1005.5 225.3438,1005.75 Q225.9688,1006 226.5,1006.5 Z " fill="#000000"/><text fill="#000000" font-family="sans-serif" font-size="12" lengthAdjust="spacing" textLength="109" x="238.5" y="1014.9102">VaccinationProcess</text><line style="stroke:#A80036;stroke-width:1.5;" x1="210.5" x2="349.5" y1="1026" y2="1026"/><text fill="#000000" font-family="sans-serif" font-size="11" lengthAdjust="spacing" textLength="78" x="215.5" y="1041.4189">-recoveryPeriod</text><line style="stroke:#A80036;stroke-width:1.5;" x1="210.5" x2="349.5" y1="1047.8359" y2="1047.8359"/><!--MD5=[c59c99efa75f30327e326596f335a568]
class AgeGroup--><rect codeLine="28" fill="#FEFECE" filter="url(#f1qlidgzd9z5a7)" height="75.6719" id="AgeGroup" style="stroke:#A80036;stroke-width:1.5;" width="87" x="236.5" y="1134"/><ellipse cx="251.5" cy="1150" fill="#ADD1B2" rx="11" ry="11" style="stroke:#A80036;stroke-width:1.0;"/><path d="M253.5,1146.5 Q253.7031,1146 253.9375,1145.75 Q254.1719,1145.5 254.4375,1145.5 Q254.9063,1145.5 255.2031,1145.7813 Q255.5,1146.0625 255.5,1146.7188 L255.5,1148.2813 Q255.5,1148.9375 255.2188,1149.2188 Q254.9375,1149.5 254.5,1149.5 Q254.1094,1149.5 253.8594,1149.3281 Q253.6094,1149.1563 253.5,1148.7031 Q253.4531,1148.3906 253.2813,1148.2188 Q252.9688,1147.8906 252.4063,1147.7031 Q251.8438,1147.5 251.2813,1147.5 Q250.5781,1147.5 249.9844,1147.7813 Q249.4063,1148.0625 248.9531,1148.6875 Q248.5,1149.3125 248.5,1150.1719 L248.5,1151.0938 Q248.5,1152.125 249.3438,1152.8125 Q250.1875,1153.5 251.6875,1153.5 Q252.5781,1153.5 253.2031,1153.2969 Q253.5625,1153.1875 253.9688,1152.8281 Q254.2344,1152.625 254.375,1152.5625 Q254.5156,1152.5 254.6875,1152.5 Q255.0156,1152.5 255.25,1152.7656 Q255.5,1153.0156 255.5,1153.375 Q255.5,1153.7188 255.1563,1154.125 Q254.6563,1154.7188 253.8594,1155.0469 Q252.8125,1155.5 251.5313,1155.5 Q250.0313,1155.5 248.8281,1154.9063 Q247.8594,1154.4375 247.1719,1153.4219 Q246.5,1152.4063 246.5,1151.2031 L246.5,1150.1094 Q246.5,1148.8594 247.0938,1147.7656 Q247.7031,1146.6719 248.75,1146.0938 Q249.8125,1145.5 251,1145.5 Q251.7188,1145.5 252.3438,1145.75 Q252.9688,1146 253.5,1146.5 Z " fill="#000000"/><text fill="#000000" font-family="sans-serif" font-size="12" lengthAdjust="spacing" textLength="55" x="265.5" y="1154.9102">AgeGroup</text><line style="stroke:#A80036;stroke-width:1.5;" x1="237.5" x2="322.5" y1="1166" y2="1166"/><text fill="#000000" font-family="sans-serif" font-size="11" lengthAdjust="spacing" textLength="40" x="242.5" y="1181.4189">-minAge</text><text fill="#000000" font-family="sans-serif" font-size="11" lengthAdjust="spacing" textLength="44" x="242.5" y="1195.2549">-maxAge</text><line style="stroke:#A80036;stroke-width:1.5;" x1="237.5" x2="322.5" y1="1201.6719" y2="1201.6719"/><!--MD5=[03e3bb7aef77bf14822eb3fb6d15ab17]
class Dose--><rect codeLine="32" fill="#FEFECE" filter="url(#f1qlidgzd9z5a7)" height="75.6719" id="Dose" style="stroke:#A80036;stroke-width:1.5;" width="77" x="180.5" y="1288"/><ellipse cx="202.25" cy="1304" fill="#ADD1B2" rx="11" ry="11" style="stroke:#A80036;stroke-width:1.0;"/><path d="M204.25,1300.5 Q204.4531,1300 204.6875,1299.75 Q204.9219,1299.5 205.1875,1299.5 Q205.6563,1299.5 205.9531,1299.7813 Q206.25,1300.0625 206.25,1300.7188 L206.25,1302.2813 Q206.25,1302.9375 205.9688,1303.2188 Q205.6875,1303.5 205.25,1303.5 Q204.8594,1303.5 204.6094,1303.3281 Q204.3594,1303.1563 204.25,1302.7031 Q204.2031,1302.3906 204.0313,1302.2188 Q203.7188,1301.8906 203.1563,1301.7031 Q202.5938,1301.5 202.0313,1301.5 Q201.3281,1301.5 200.7344,1301.7813 Q200.1563,1302.0625 199.7031,1302.6875 Q199.25,1303.3125 199.25,1304.1719 L199.25,1305.0938 Q199.25,1306.125 200.0938,1306.8125 Q200.9375,1307.5 202.4375,1307.5 Q203.3281,1307.5 203.9531,1307.2969 Q204.3125,1307.1875 204.7188,1306.8281 Q204.9844,1306.625 205.125,1306.5625 Q205.2656,1306.5 205.4375,1306.5 Q205.7656,1306.5 206,1306.7656 Q206.25,1307.0156 206.25,1307.375 Q206.25,1307.7188 205.9063,1308.125 Q205.4063,1308.7188 204.6094,1309.0469 Q203.5625,1309.5 202.2813,1309.5 Q200.7813,1309.5 199.5781,1308.9063 Q198.6094,1308.4375 197.9219,1307.4219 Q197.25,1306.4063 197.25,1305.2031 L197.25,1304.1094 Q197.25,1302.8594 197.8438,1301.7656 Q198.4531,1300.6719 199.5,1300.0938 Q200.5625,1299.5 201.75,1299.5 Q202.4688,1299.5 203.0938,1299.75 Q203.7188,1300 204.25,1300.5 Z " fill="#000000"/><text fill="#000000" font-family="sans-serif" font-size="12" lengthAdjust="spacing" textLength="30" x="217.75" y="1308.9102">Dose</text><line style="stroke:#A80036;stroke-width:1.5;" x1="181.5" x2="256.5" y1="1320" y2="1320"/><text fill="#000000" font-family="sans-serif" font-size="11" lengthAdjust="spacing" textLength="65" x="186.5" y="1335.4189">-doseNumber</text><text fill="#000000" font-family="sans-serif" font-size="11" lengthAdjust="spacing" textLength="40" x="186.5" y="1349.2549">-dosage</text><line style="stroke:#A80036;stroke-width:1.5;" x1="181.5" x2="256.5" y1="1355.6719" y2="1355.6719"/><!--MD5=[0e501da62322464167c8ec4d233a6b7e]
class VaccineType--><rect codeLine="37" fill="#FEFECE" filter="url(#f1qlidgzd9z5a7)" height="61.8359" id="VaccineType" style="stroke:#A80036;stroke-width:1.5;" width="101" x="73.5" y="994"/><ellipse cx="88.5" cy="1010" fill="#ADD1B2" rx="11" ry="11" style="stroke:#A80036;stroke-width:1.0;"/><path d="M90.5,1006.5 Q90.7031,1006 90.9375,1005.75 Q91.1719,1005.5 91.4375,1005.5 Q91.9063,1005.5 92.2031,1005.7813 Q92.5,1006.0625 92.5,1006.7188 L92.5,1008.2813 Q92.5,1008.9375 92.2188,1009.2188 Q91.9375,1009.5 91.5,1009.5 Q91.1094,1009.5 90.8594,1009.3281 Q90.6094,1009.1563 90.5,1008.7031 Q90.4531,1008.3906 90.2813,1008.2188 Q89.9688,1007.8906 89.4063,1007.7031 Q88.8438,1007.5 88.2813,1007.5 Q87.5781,1007.5 86.9844,1007.7813 Q86.4063,1008.0625 85.9531,1008.6875 Q85.5,1009.3125 85.5,1010.1719 L85.5,1011.0938 Q85.5,1012.125 86.3438,1012.8125 Q87.1875,1013.5 88.6875,1013.5 Q89.5781,1013.5 90.2031,1013.2969 Q90.5625,1013.1875 90.9688,1012.8281 Q91.2344,1012.625 91.375,1012.5625 Q91.5156,1012.5 91.6875,1012.5 Q92.0156,1012.5 92.25,1012.7656 Q92.5,1013.0156 92.5,1013.375 Q92.5,1013.7188 92.1563,1014.125 Q91.6563,1014.7188 90.8594,1015.0469 Q89.8125,1015.5 88.5313,1015.5 Q87.0313,1015.5 85.8281,1014.9063 Q84.8594,1014.4375 84.1719,1013.4219 Q83.5,1012.4063 83.5,1011.2031 L83.5,1010.1094 Q83.5,1008.8594 84.0938,1007.7656 Q84.7031,1006.6719 85.75,1006.0938 Q86.8125,1005.5 88,1005.5 Q88.7188,1005.5 89.3438,1005.75 Q89.9688,1006 90.5,1006.5 Z " fill="#000000"/><text fill="#000000" font-family="sans-serif" font-size="12" lengthAdjust="spacing" textLength="69" x="102.5" y="1014.9102">VaccineType</text><line style="stroke:#A80036;stroke-width:1.5;" x1="74.5" x2="173.5" y1="1026" y2="1026"/><text fill="#000000" font-family="sans-serif" font-size="11" lengthAdjust="spacing" textLength="42" x="79.5" y="1041.4189">-disease</text><line style="stroke:#A80036;stroke-width:1.5;" x1="74.5" x2="173.5" y1="1047.8359" y2="1047.8359"/><!--MD5=[19e445fc4d3b48519cbe33da05496394]
class Vaccine--><rect codeLine="40" fill="#FEFECE" filter="url(#f1qlidgzd9z5a7)" height="75.6719" id="Vaccine" style="stroke:#A80036;stroke-width:1.5;" width="75" x="204.5" y="840"/><ellipse cx="219.5" cy="856" fill="#ADD1B2" rx="11" ry="11" style="stroke:#A80036;stroke-width:1.0;"/><path d="M221.5,852.5 Q221.7031,852 221.9375,851.75 Q222.1719,851.5 222.4375,851.5 Q222.9063,851.5 223.2031,851.7813 Q223.5,852.0625 223.5,852.7188 L223.5,854.2813 Q223.5,854.9375 223.2188,855.2188 Q222.9375,855.5 222.5,855.5 Q222.1094,855.5 221.8594,855.3281 Q221.6094,855.1563 221.5,854.7031 Q221.4531,854.3906 221.2813,854.2188 Q220.9688,853.8906 220.4063,853.7031 Q219.8438,853.5 219.2813,853.5 Q218.5781,853.5 217.9844,853.7813 Q217.4063,854.0625 216.9531,854.6875 Q216.5,855.3125 216.5,856.1719 L216.5,857.0938 Q216.5,858.125 217.3438,858.8125 Q218.1875,859.5 219.6875,859.5 Q220.5781,859.5 221.2031,859.2969 Q221.5625,859.1875 221.9688,858.8281 Q222.2344,858.625 222.375,858.5625 Q222.5156,858.5 222.6875,858.5 Q223.0156,858.5 223.25,858.7656 Q223.5,859.0156 223.5,859.375 Q223.5,859.7188 223.1563,860.125 Q222.6563,860.7188 221.8594,861.0469 Q220.8125,861.5 219.5313,861.5 Q218.0313,861.5 216.8281,860.9063 Q215.8594,860.4375 215.1719,859.4219 Q214.5,858.4063 214.5,857.2031 L214.5,856.1094 Q214.5,854.8594 215.0938,853.7656 Q215.7031,852.6719 216.75,852.0938 Q217.8125,851.5 219,851.5 Q219.7188,851.5 220.3438,851.75 Q220.9688,852 221.5,852.5 Z " fill="#000000"/><text fill="#000000" font-family="sans-serif" font-size="12" lengthAdjust="spacing" textLength="43" x="233.5" y="860.9102">Vaccine</text><line style="stroke:#A80036;stroke-width:1.5;" x1="205.5" x2="278.5" y1="872" y2="872"/><text fill="#000000" font-family="sans-serif" font-size="11" lengthAdjust="spacing" textLength="30" x="210.5" y="887.4189">-name</text><text fill="#000000" font-family="sans-serif" font-size="11" lengthAdjust="spacing" textLength="52" x="210.5" y="901.2549">-lotNumber</text><line style="stroke:#A80036;stroke-width:1.5;" x1="205.5" x2="278.5" y1="907.6719" y2="907.6719"/><!--MD5=[4bec8ac568776347aae0f1471b21fd4f]
class TimeInterval--><rect codeLine="45" fill="#FEFECE" filter="url(#f1qlidgzd9z5a7)" height="61.8359" id="TimeInterval" style="stroke:#A80036;stroke-width:1.5;" width="99" x="292.5" y="1295"/><ellipse cx="307.5" cy="1311" fill="#ADD1B2" rx="11" ry="11" style="stroke:#A80036;stroke-width:1.0;"/><path d="M309.5,1307.5 Q309.7031,1307 309.9375,1306.75 Q310.1719,1306.5 310.4375,1306.5 Q310.9063,1306.5 311.2031,1306.7813 Q311.5,1307.0625 311.5,1307.7188 L311.5,1309.2813 Q311.5,1309.9375 311.2188,1310.2188 Q310.9375,1310.5 310.5,1310.5 Q310.1094,1310.5 309.8594,1310.3281 Q309.6094,1310.1563 309.5,1309.7031 Q309.4531,1309.3906 309.2813,1309.2188 Q308.9688,1308.8906 308.4063,1308.7031 Q307.8438,1308.5 307.2813,1308.5 Q306.5781,1308.5 305.9844,1308.7813 Q305.4063,1309.0625 304.9531,1309.6875 Q304.5,1310.3125 304.5,1311.1719 L304.5,1312.0938 Q304.5,1313.125 305.3438,1313.8125 Q306.1875,1314.5 307.6875,1314.5 Q308.5781,1314.5 309.2031,1314.2969 Q309.5625,1314.1875 309.9688,1313.8281 Q310.2344,1313.625 310.375,1313.5625 Q310.5156,1313.5 310.6875,1313.5 Q311.0156,1313.5 311.25,1313.7656 Q311.5,1314.0156 311.5,1314.375 Q311.5,1314.7188 311.1563,1315.125 Q310.6563,1315.7188 309.8594,1316.0469 Q308.8125,1316.5 307.5313,1316.5 Q306.0313,1316.5 304.8281,1315.9063 Q303.8594,1315.4375 303.1719,1314.4219 Q302.5,1313.4063 302.5,1312.2031 L302.5,1311.1094 Q302.5,1309.8594 303.0938,1308.7656 Q303.7031,1307.6719 304.75,1307.0938 Q305.8125,1306.5 307,1306.5 Q307.7188,1306.5 308.3438,1306.75 Q308.9688,1307 309.5,1307.5 Z " fill="#000000"/><text fill="#000000" font-family="sans-serif" font-size="12" lengthAdjust="spacing" textLength="67" x="321.5" y="1315.9102">TimeInterval</text><line style="stroke:#A80036;stroke-width:1.5;" x1="293.5" x2="390.5" y1="1327" y2="1327"/><text fill="#000000" font-family="sans-serif" font-size="11" lengthAdjust="spacing" textLength="49" x="298.5" y="1342.4189">-numDays</text><line style="stroke:#A80036;stroke-width:1.5;" x1="293.5" x2="390.5" y1="1348.8359" y2="1348.8359"/><!--MD5=[cb0077b97525c9b9312a3778d41e426c]
class VaccineCenters--><rect codeLine="49" fill="#FEFECE" filter="url(#f1qlidgzd9z5a7)" height="89.5078" id="VaccineCenters" style="stroke:#A80036;stroke-width:1.5;" width="119" x="268.5" y="420"/><ellipse cx="283.5" cy="436" fill="#ADD1B2" rx="11" ry="11" style="stroke:#A80036;stroke-width:1.0;"/><path d="M285.5,432.5 Q285.7031,432 285.9375,431.75 Q286.1719,431.5 286.4375,431.5 Q286.9063,431.5 287.2031,431.7813 Q287.5,432.0625 287.5,432.7188 L287.5,434.2813 Q287.5,434.9375 287.2188,435.2188 Q286.9375,435.5 286.5,435.5 Q286.1094,435.5 285.8594,435.3281 Q285.6094,435.1563 285.5,434.7031 Q285.4531,434.3906 285.2813,434.2188 Q284.9688,433.8906 284.4063,433.7031 Q283.8438,433.5 283.2813,433.5 Q282.5781,433.5 281.9844,433.7813 Q281.4063,434.0625 280.9531,434.6875 Q280.5,435.3125 280.5,436.1719 L280.5,437.0938 Q280.5,438.125 281.3438,438.8125 Q282.1875,439.5 283.6875,439.5 Q284.5781,439.5 285.2031,439.2969 Q285.5625,439.1875 285.9688,438.8281 Q286.2344,438.625 286.375,438.5625 Q286.5156,438.5 286.6875,438.5 Q287.0156,438.5 287.25,438.7656 Q287.5,439.0156 287.5,439.375 Q287.5,439.7188 287.1563,440.125 Q286.6563,440.7188 285.8594,441.0469 Q284.8125,441.5 283.5313,441.5 Q282.0313,441.5 280.8281,440.9063 Q279.8594,440.4375 279.1719,439.4219 Q278.5,438.4063 278.5,437.2031 L278.5,436.1094 Q278.5,434.8594 279.0938,433.7656 Q279.7031,432.6719 280.75,432.0938 Q281.8125,431.5 283,431.5 Q283.7188,431.5 284.3438,431.75 Q284.9688,432 285.5,432.5 Z " fill="#000000"/><text fill="#000000" font-family="sans-serif" font-size="12" lengthAdjust="spacing" textLength="87" x="297.5" y="440.9102">VaccineCenters</text><line style="stroke:#A80036;stroke-width:1.5;" x1="269.5" x2="386.5" y1="452" y2="452"/><text fill="#000000" font-family="sans-serif" font-size="11" lengthAdjust="spacing" textLength="30" x="274.5" y="467.4189">-name</text><text fill="#000000" font-family="sans-serif" font-size="11" lengthAdjust="spacing" textLength="44" x="274.5" y="481.2549">-address</text><text fill="#000000" font-family="sans-serif" font-size="11" lengthAdjust="spacing" textLength="75" x="274.5" y="495.0908">-NumberofSlots</text><line style="stroke:#A80036;stroke-width:1.5;" x1="269.5" x2="386.5" y1="501.5078" y2="501.5078"/><!--MD5=[b01a9e6827b9ac6b96defb4c1f3eb7f3]
class waitingRoom--><rect codeLine="55" fill="#FEFECE" filter="url(#f1qlidgzd9z5a7)" height="48" id="waitingRoom" style="stroke:#A80036;stroke-width:1.5;" width="105" x="279.5" y="588"/><ellipse cx="294.5" cy="604" fill="#ADD1B2" rx="11" ry="11" style="stroke:#A80036;stroke-width:1.0;"/><path d="M296.5,600.5 Q296.7031,600 296.9375,599.75 Q297.1719,599.5 297.4375,599.5 Q297.9063,599.5 298.2031,599.7813 Q298.5,600.0625 298.5,600.7188 L298.5,602.2813 Q298.5,602.9375 298.2188,603.2188 Q297.9375,603.5 297.5,603.5 Q297.1094,603.5 296.8594,603.3281 Q296.6094,603.1563 296.5,602.7031 Q296.4531,602.3906 296.2813,602.2188 Q295.9688,601.8906 295.4063,601.7031 Q294.8438,601.5 294.2813,601.5 Q293.5781,601.5 292.9844,601.7813 Q292.4063,602.0625 291.9531,602.6875 Q291.5,603.3125 291.5,604.1719 L291.5,605.0938 Q291.5,606.125 292.3438,606.8125 Q293.1875,607.5 294.6875,607.5 Q295.5781,607.5 296.2031,607.2969 Q296.5625,607.1875 296.9688,606.8281 Q297.2344,606.625 297.375,606.5625 Q297.5156,606.5 297.6875,606.5 Q298.0156,606.5 298.25,606.7656 Q298.5,607.0156 298.5,607.375 Q298.5,607.7188 298.1563,608.125 Q297.6563,608.7188 296.8594,609.0469 Q295.8125,609.5 294.5313,609.5 Q293.0313,609.5 291.8281,608.9063 Q290.8594,608.4375 290.1719,607.4219 Q289.5,606.4063 289.5,605.2031 L289.5,604.1094 Q289.5,602.8594 290.0938,601.7656 Q290.7031,600.6719 291.75,600.0938 Q292.8125,599.5 294,599.5 Q294.7188,599.5 295.3438,599.75 Q295.9688,600 296.5,600.5 Z " fill="#000000"/><text fill="#000000" font-family="sans-serif" font-size="12" lengthAdjust="spacing" textLength="73" x="308.5" y="608.9102">waitingRoom</text><line style="stroke:#A80036;stroke-width:1.5;" x1="280.5" x2="383.5" y1="620" y2="620"/><line style="stroke:#A80036;stroke-width:1.5;" x1="280.5" x2="383.5" y1="628" y2="628"/><!--MD5=[fd0a4d8e5e69f6a264816a697947f9e2]
class SNSuser--><rect codeLine="58" fill="#FEFECE" filter="url(#f1qlidgzd9z5a7)" height="48" id="SNSuser" style="stroke:#A80036;stroke-width:1.5;" width="82" x="278" y="714"/><ellipse cx="293" cy="730" fill="#ADD1B2" rx="11" ry="11" style="stroke:#A80036;stroke-width:1.0;"/><path d="M295,726.5 Q295.2031,726 295.4375,725.75 Q295.6719,725.5 295.9375,725.5 Q296.4063,725.5 296.7031,725.7813 Q297,726.0625 297,726.7188 L297,728.2813 Q297,728.9375 296.7188,729.2188 Q296.4375,729.5 296,729.5 Q295.6094,729.5 295.3594,729.3281 Q295.1094,729.1563 295,728.7031 Q294.9531,728.3906 294.7813,728.2188 Q294.4688,727.8906 293.9063,727.7031 Q293.3438,727.5 292.7813,727.5 Q292.0781,727.5 291.4844,727.7813 Q290.9063,728.0625 290.4531,728.6875 Q290,729.3125 290,730.1719 L290,731.0938 Q290,732.125 290.8438,732.8125 Q291.6875,733.5 293.1875,733.5 Q294.0781,733.5 294.7031,733.2969 Q295.0625,733.1875 295.4688,732.8281 Q295.7344,732.625 295.875,732.5625 Q296.0156,732.5 296.1875,732.5 Q296.5156,732.5 296.75,732.7656 Q297,733.0156 297,733.375 Q297,733.7188 296.6563,734.125 Q296.1563,734.7188 295.3594,735.0469 Q294.3125,735.5 293.0313,735.5 Q291.5313,735.5 290.3281,734.9063 Q289.3594,734.4375 288.6719,733.4219 Q288,732.4063 288,731.2031 L288,730.1094 Q288,728.8594 288.5938,727.7656 Q289.2031,726.6719 290.25,726.0938 Q291.3125,725.5 292.5,725.5 Q293.2188,725.5 293.8438,725.75 Q294.4688,726 295,726.5 Z " fill="#000000"/><text fill="#000000" font-family="sans-serif" font-size="12" lengthAdjust="spacing" textLength="50" x="307" y="734.9102">SNSuser</text><line style="stroke:#A80036;stroke-width:1.5;" x1="279" x2="359" y1="746" y2="746"/><line style="stroke:#A80036;stroke-width:1.5;" x1="279" x2="359" y1="754" y2="754"/><!--MD5=[1b00e80d385396dd650a92144b9437ff]
link NurseGUI to registerAdministrationController--><path codeLine="61" d="M212,55.22 C212,71.48 212,93.32 212,110.62 " fill="none" id="NurseGUI-to-registerAdministrationController" style="stroke:#A80036;stroke-width:1.0;stroke-dasharray:7.0,7.0;"/><polygon fill="#A80036" points="212,115.83,216,106.83,212,110.83,208,106.83,212,115.83" style="stroke:#A80036;stroke-width:1.0;"/><!--MD5=[941856bc6679d1ebbf65d2ebda74b984]
link registerAdministrationController to Company--><path codeLine="62" d="M212,164.05 C212,179.28 212,200.04 212,219.92 " fill="none" id="registerAdministrationController-to-Company" style="stroke:#A80036;stroke-width:1.0;stroke-dasharray:7.0,7.0;"/><polygon fill="#A80036" points="212,224.95,216,215.95,212,219.95,208,215.95,212,224.95" style="stroke:#A80036;stroke-width:1.0;"/><!--MD5=[05986564e1c13a00611587b35563d868]
link Company to VaccineType--><path codeLine="64" d="M167.23,342.12 C145.49,375.75 124,420.1 124,464 C124,464 124,464 124,879 C124,916.33 124,959.06 124,988.41 " fill="none" id="Company-to-VaccineType" style="stroke:#A80036;stroke-width:1.0;"/><polygon fill="#A80036" points="124,993.73,128,984.73,124,988.73,120,984.73,124,993.73" style="stroke:#A80036;stroke-width:1.0;"/><text fill="#000000" font-family="sans-serif" font-size="13" lengthAdjust="spacing" textLength="30" x="125" y="680.4951">owns</text><text fill="#000000" font-family="sans-serif" font-size="13" lengthAdjust="spacing" textLength="7" x="154.3471" y="363.7449">1</text><text fill="#000000" font-family="sans-serif" font-size="13" lengthAdjust="spacing" textLength="5" x="118.4844" y="983.1789">*</text><!--MD5=[c29c8d42883934cbaf5793c72a334947]
link Company to Vaccine--><path codeLine="65" d="M212,342.3 C212,377.48 212,423.33 212,464 C212,464 212,464 212,739 C212,771.78 220.18,807.95 228,835.04 " fill="none" id="Company-to-Vaccine" style="stroke:#A80036;stroke-width:1.0;"/><polygon fill="#A80036" points="229.45,839.99,230.77,830.23,228.05,835.19,223.09,832.47,229.45,839.99" style="stroke:#A80036;stroke-width:1.0;"/><text fill="#000000" font-family="sans-serif" font-size="13" lengthAdjust="spacing" textLength="30" x="213" y="617.4951">owns</text><text fill="#000000" font-family="sans-serif" font-size="13" lengthAdjust="spacing" textLength="7" x="204.5953" y="363.5288">1</text><text fill="#000000" font-family="sans-serif" font-size="13" lengthAdjust="spacing" textLength="5" x="221.6752" y="829.0647">*</text><!--MD5=[33726e7c5440ed477ace45f761b56ce6]
link Company to VaccineCenters--><path codeLine="66" d="M249.34,342.28 C264.62,365.92 282.09,392.96 296.68,415.54 " fill="none" id="Company-to-VaccineCenters" style="stroke:#A80036;stroke-width:1.0;"/><polygon fill="#A80036" points="299.56,419.99,298.0345,410.26,296.8461,415.7906,291.3155,414.6022,299.56,419.99" style="stroke:#A80036;stroke-width:1.0;"/><text fill="#000000" font-family="sans-serif" font-size="13" lengthAdjust="spacing" textLength="30" x="278" y="386.4951">owns</text><text fill="#000000" font-family="sans-serif" font-size="13" lengthAdjust="spacing" textLength="7" x="246.2528" y="363.5065">1</text><text fill="#000000" font-family="sans-serif" font-size="13" lengthAdjust="spacing" textLength="5" x="289.6289" y="409.1039">*</text><!--MD5=[3e6c430050fc111878fdd147830a77da]
link VaccineCenters to waitingRoom--><path codeLine="68" d="M329.22,510.29 C329.87,533.94 330.66,562.33 331.23,582.93 " fill="none" id="VaccineCenters-to-waitingRoom" style="stroke:#A80036;stroke-width:1.0;"/><polygon fill="#A80036" points="331.37,587.99,335.1373,578.8902,331.2415,582.9917,327.14,579.0958,331.37,587.99" style="stroke:#A80036;stroke-width:1.0;"/><text fill="#000000" font-family="sans-serif" font-size="13" lengthAdjust="spacing" textLength="30" x="331" y="554.4951">owns</text><text fill="#000000" font-family="sans-serif" font-size="13" lengthAdjust="spacing" textLength="7" x="321.9136" y="531.0027">1</text><text fill="#000000" font-family="sans-serif" font-size="13" lengthAdjust="spacing" textLength="7" x="323.3117" y="577.3276">1</text><!--MD5=[37299147d0b82d1772bc2fa016e44b42]
link waitingRoom to SNSuser--><path codeLine="70" d="M329.59,636.03 C327.44,656.52 324.29,686.56 321.98,708.55 " fill="none" id="waitingRoom-to-SNSuser" style="stroke:#A80036;stroke-width:1.0;"/><polygon fill="#A80036" points="321.45,713.67,326.3791,705.1433,321.9786,708.698,318.424,704.2975,321.45,713.67" style="stroke:#A80036;stroke-width:1.0;"/><text fill="#000000" font-family="sans-serif" font-size="13" lengthAdjust="spacing" textLength="35" x="327" y="680.4951">keeps</text><text fill="#000000" font-family="sans-serif" font-size="13" lengthAdjust="spacing" textLength="7" x="321.1494" y="657.3753">1</text><text fill="#000000" font-family="sans-serif" font-size="13" lengthAdjust="spacing" textLength="5" x="316.4378" y="703.3275">*</text><!--MD5=[a110573a317b548fd7467135449ae877]
link SNSuser to Vaccine--><path codeLine="72" d="M306.11,762.1 C294.99,782.03 278.64,811.33 265.24,835.35 " fill="none" id="SNSuser-to-Vaccine" style="stroke:#A80036;stroke-width:1.0;"/><polygon fill="#A80036" points="262.78,839.77,270.6474,833.8452,265.2082,835.3992,263.6542,829.96,262.78,839.77" style="stroke:#A80036;stroke-width:1.0;"/><text fill="#000000" font-family="sans-serif" font-size="13" lengthAdjust="spacing" textLength="32" x="289" y="806.4951">takes</text><text fill="#000000" font-family="sans-serif" font-size="13" lengthAdjust="spacing" textLength="7" x="295.1149" y="783.4623">1</text><text fill="#000000" font-family="sans-serif" font-size="13" lengthAdjust="spacing" textLength="5" x="261.0361" y="829.0909">*</text><!--MD5=[ad53276a02bf0f65971002ced984ee45]
link Vaccine to VaccinationProcess--><path codeLine="74" d="M251.79,916.34 C257.63,938.65 265.02,966.82 270.76,988.75 " fill="none" id="Vaccine-to-VaccinationProcess" style="stroke:#A80036;stroke-width:1.0;"/><polygon fill="#A80036" points="272.04,993.62,273.6434,983.9025,270.7802,988.7813,265.9014,985.9182,272.04,993.62" style="stroke:#A80036;stroke-width:1.0;"/><text fill="#000000" font-family="sans-serif" font-size="13" lengthAdjust="spacing" textLength="21" x="265" y="960.4951">has</text><text fill="#000000" font-family="sans-serif" font-size="13" lengthAdjust="spacing" textLength="7" x="245.7925" y="937.2747">1</text><text fill="#000000" font-family="sans-serif" font-size="13" lengthAdjust="spacing" textLength="7" x="262.6764" y="983.0462">1</text><!--MD5=[3568623adf67b2630dce9e60c05bd02a]
link Vaccine to VaccineType--><path codeLine="75" d="M211.61,916.34 C193.23,938.93 169.95,967.54 152.01,989.58 " fill="none" id="Vaccine-to-VaccineType" style="stroke:#A80036;stroke-width:1.0;"/><polygon fill="#A80036" points="148.73,993.62,157.5098,989.1573,151.883,989.7394,151.3009,984.1126,148.73,993.62" style="stroke:#A80036;stroke-width:1.0;"/><text fill="#000000" font-family="sans-serif" font-size="13" lengthAdjust="spacing" textLength="21" x="188" y="960.4951">has</text><text fill="#000000" font-family="sans-serif" font-size="13" lengthAdjust="spacing" textLength="5" x="201.3682" y="937.2747">*</text><text fill="#000000" font-family="sans-serif" font-size="13" lengthAdjust="spacing" textLength="7" x="146.1087" y="983.0462">1</text><!--MD5=[4043e158886bce18152cac1904b53f75]
link VaccinationProcess to AgeGroup--><path codeLine="76" d="M280,1056.04 C280,1077.02 280,1105.32 280,1128.59 " fill="none" id="VaccinationProcess-to-AgeGroup" style="stroke:#A80036;stroke-width:1.0;"/><polygon fill="#A80036" points="280,1133.78,284,1124.78,280,1128.78,276,1124.78,280,1133.78" style="stroke:#A80036;stroke-width:1.0;"/><text fill="#000000" font-family="sans-serif" font-size="13" lengthAdjust="spacing" textLength="21" x="281" y="1100.4951">has</text><text fill="#000000" font-family="sans-serif" font-size="13" lengthAdjust="spacing" textLength="7" x="272.3109" y="1077.2719">1</text><text fill="#000000" font-family="sans-serif" font-size="13" lengthAdjust="spacing" textLength="5" x="274.5547" y="1123.1027">*</text><!--MD5=[c90493d2ab8c16e176651ebb6b817e7f]
link AgeGroup to TimeInterval--><path codeLine="77" d="M295.17,1210.18 C305.12,1234.57 318.04,1266.25 327.79,1290.16 " fill="none" id="AgeGroup-to-TimeInterval" style="stroke:#A80036;stroke-width:1.0;"/><polygon fill="#A80036" points="329.69,1294.83,329.9987,1284.986,327.8035,1290.1995,322.59,1288.0044,329.69,1294.83" style="stroke:#A80036;stroke-width:1.0;"/><text fill="#000000" font-family="sans-serif" font-size="13" lengthAdjust="spacing" textLength="21" x="313" y="1254.4951">has</text><text fill="#000000" font-family="sans-serif" font-size="13" lengthAdjust="spacing" textLength="7" x="290.0299" y="1231.0892">1</text><text fill="#000000" font-family="sans-serif" font-size="13" lengthAdjust="spacing" textLength="7" x="319.4292" y="1284.2995">1</text><!--MD5=[a9e6824fad0c7c16d6f9705016e58ddd]
link AgeGroup to Dose--><path codeLine="78" d="M265.08,1210.18 C256.22,1232.26 244.97,1260.3 235.8,1283.15 " fill="none" id="AgeGroup-to-Dose" style="stroke:#A80036;stroke-width:1.0;"/><polygon fill="#A80036" points="233.87,1287.94,240.9264,1281.0693,235.727,1283.2976,233.4986,1278.0981,233.87,1287.94" style="stroke:#A80036;stroke-width:1.0;"/><text fill="#000000" font-family="sans-serif" font-size="13" lengthAdjust="spacing" textLength="21" x="253" y="1254.4951">has</text><text fill="#000000" font-family="sans-serif" font-size="13" lengthAdjust="spacing" textLength="7" x="255.1443" y="1231.0892">1</text><text fill="#000000" font-family="sans-serif" font-size="13" lengthAdjust="spacing" textLength="5" x="231.1507" y="1277.0055">*</text><!--MD5=[3816f44851a03c786aa074510a226092]
@startuml
skinparam classAttributeIconSize 0




class Company {
    -String designation;
    -AuthFacade authFacade;
   +Organization(name, VatNumber, webSite, phone, email, postalAddress, manager)
   +listVaccineType()
   +createVaccine()
 }


 class registerAdministrationController {

 }

 class NurseGUI {

 }


class VaccinationProcess{
    -recoveryPeriod
}

class AgeGroup{
    -minAge
    -maxAge
}
class Dose{
    -doseNumber
    -dosage
}

class VaccineType{
    -disease
}
class Vaccine{
    -name
    -lotNumber
}

class TimeInterval{
    -numDays
}

class VaccineCenters{
-name
-address
-NumberofSlots
}

class waitingRoom{
}

class SNSuser {}


 NurseGUI ..> registerAdministrationController
 registerAdministrationController ..> Company

 Company "1" - -> "*" VaccineType : owns
 Company "1" - -> "*" Vaccine : owns
 Company "1" - -> "*" VaccineCenters: owns

 VaccineCenters"1" - -> "1" waitingRoom :owns

 waitingRoom"1" - -> "*" SNSuser: keeps

 SNSuser "1" - -> "*" Vaccine : takes

 Vaccine "1" - -> "1" VaccinationProcess: has
 Vaccine "*" - -> "1" VaccineType: has
 VaccinationProcess "1" - -> "*" AgeGroup: has
 AgeGroup "1" - -> "1" TimeInterval: has
 AgeGroup "1" - -> "*" Dose: has



@enduml

PlantUML version 1.2021.11(Sat Oct 02 14:26:11 BST 2021)
(GPL source distribution)
Java Runtime: OpenJDK Runtime Environment
JVM: OpenJDK 64-Bit Server VM
Default Encoding: Cp1252
Language: pt
Country: PT
--></g></svg>