<?xml version="1.0" encoding="UTF-8" standalone="no"?><svg xmlns="http://www.w3.org/2000/svg" xmlns:xlink="http://www.w3.org/1999/xlink" contentScriptType="application/ecmascript" contentStyleType="text/css" height="559px" preserveAspectRatio="none" style="width:377px;height:559px;background:#FFFFFF;" version="1.1" viewBox="0 0 377 559" width="377px" zoomAndPan="magnify"><defs><filter height="300%" id="fmeczfon3ryu2" width="300%" x="-1" y="-1"><feGaussianBlur result="blurOut" stdDeviation="2.0"/><feColorMatrix in="blurOut" result="blurOut2" type="matrix" values="0 0 0 0 0 0 0 0 0 0 0 0 0 0 0 0 0 0 .4 0"/><feOffset dx="4.0" dy="4.0" in="blurOut2" result="blurOut3"/><feBlend in="SourceGraphic" in2="blurOut3" mode="normal"/></filter></defs><g><rect fill="#FFFFFF" filter="url(#fmeczfon3ryu2)" height="356.2188" style="stroke:#A80036;stroke-width:1.0;" width="10" x="21.5" y="99.6094"/><line style="stroke:#A80036;stroke-width:1.0;stroke-dasharray:5.0,5.0;" x1="26" x2="26" y1="89.6094" y2="473.8281"/><line style="stroke:#A80036;stroke-width:1.0;stroke-dasharray:5.0,5.0;" x1="333.5" x2="333.5" y1="89.6094" y2="473.8281"/><text fill="#000000" font-family="sans-serif" font-size="14" lengthAdjust="spacing" textLength="37" x="5" y="86.5332">Nurse</text><ellipse cx="26.5" cy="15" fill="#FEFECE" filter="url(#fmeczfon3ryu2)" rx="8" ry="8" style="stroke:#A80036;stroke-width:2.0;"/><path d="M26.5,23 L26.5,50 M13.5,31 L39.5,31 M26.5,50 L13.5,65 M26.5,50 L39.5,65 " fill="none" filter="url(#fmeczfon3ryu2)" style="stroke:#A80036;stroke-width:2.0;"/><text fill="#000000" font-family="sans-serif" font-size="14" lengthAdjust="spacing" textLength="37" x="5" y="487.3613">Nurse</text><ellipse cx="26.5" cy="500.4375" fill="#FEFECE" filter="url(#fmeczfon3ryu2)" rx="8" ry="8" style="stroke:#A80036;stroke-width:2.0;"/><path d="M26.5,508.4375 L26.5,535.4375 M13.5,516.4375 L39.5,516.4375 M26.5,535.4375 L13.5,550.4375 M26.5,535.4375 L39.5,550.4375 " fill="none" filter="url(#fmeczfon3ryu2)" style="stroke:#A80036;stroke-width:2.0;"/><rect fill="#FEFECE" filter="url(#fmeczfon3ryu2)" height="31.6094" style="stroke:#A80036;stroke-width:1.5;" width="64" x="299.5" y="53"/><text fill="#000000" font-family="sans-serif" font-size="14" lengthAdjust="spacing" textLength="50" x="306.5" y="74.5332">:System</text><rect fill="#FEFECE" filter="url(#fmeczfon3ryu2)" height="31.6094" style="stroke:#A80036;stroke-width:1.5;" width="64" x="299.5" y="472.8281"/><text fill="#000000" font-family="sans-serif" font-size="14" lengthAdjust="spacing" textLength="50" x="306.5" y="494.3613">:System</text><rect fill="#FFFFFF" filter="url(#fmeczfon3ryu2)" height="356.2188" style="stroke:#A80036;stroke-width:1.0;" width="10" x="21.5" y="99.6094"/><polygon fill="#A80036" points="321.5,117.9609,331.5,121.9609,321.5,125.9609,325.5,121.9609" style="stroke:#A80036;stroke-width:1.0;"/><line style="stroke:#A80036;stroke-width:1.0;" x1="31.5" x2="327.5" y1="121.9609" y2="121.9609"/><text fill="#000000" font-family="sans-serif" font-size="13" font-weight="bold" lengthAdjust="spacing" textLength="7" x="38.5" y="117.1045">1</text><text fill="#000000" font-family="sans-serif" font-size="13" lengthAdjust="spacing" textLength="267" x="49.5" y="117.1045">Request to register administration of a vaccine</text><polygon fill="#A80036" points="42.5,148.3125,32.5,152.3125,42.5,156.3125,38.5,152.3125" style="stroke:#A80036;stroke-width:1.0;"/><line style="stroke:#A80036;stroke-width:1.0;stroke-dasharray:2.0,2.0;" x1="36.5" x2="332.5" y1="152.3125" y2="152.3125"/><text fill="#000000" font-family="sans-serif" font-size="13" font-weight="bold" lengthAdjust="spacing" textLength="7" x="48.5" y="147.4561">2</text><text fill="#000000" font-family="sans-serif" font-size="13" lengthAdjust="spacing" textLength="160" x="59.5" y="147.4561">asks for Vaccination Center</text><polygon fill="#A80036" points="321.5,178.6641,331.5,182.6641,321.5,186.6641,325.5,182.6641" style="stroke:#A80036;stroke-width:1.0;"/><line style="stroke:#A80036;stroke-width:1.0;" x1="31.5" x2="327.5" y1="182.6641" y2="182.6641"/><text fill="#000000" font-family="sans-serif" font-size="13" font-weight="bold" lengthAdjust="spacing" textLength="7" x="38.5" y="177.8076">3</text><text fill="#000000" font-family="sans-serif" font-size="13" lengthAdjust="spacing" textLength="74" x="49.5" y="177.8076">Types option</text><polygon fill="#A80036" points="42.5,209.0156,32.5,213.0156,42.5,217.0156,38.5,213.0156" style="stroke:#A80036;stroke-width:1.0;"/><line style="stroke:#A80036;stroke-width:1.0;stroke-dasharray:2.0,2.0;" x1="36.5" x2="332.5" y1="213.0156" y2="213.0156"/><text fill="#000000" font-family="sans-serif" font-size="13" font-weight="bold" lengthAdjust="spacing" textLength="7" x="48.5" y="208.1592">4</text><text fill="#000000" font-family="sans-serif" font-size="13" lengthAdjust="spacing" textLength="160" x="59.5" y="208.1592">asks for Vaccination Center</text><polygon fill="#A80036" points="321.5,239.3672,331.5,243.3672,321.5,247.3672,325.5,243.3672" style="stroke:#A80036;stroke-width:1.0;"/><line style="stroke:#A80036;stroke-width:1.0;" x1="31.5" x2="327.5" y1="243.3672" y2="243.3672"/><text fill="#000000" font-family="sans-serif" font-size="13" font-weight="bold" lengthAdjust="spacing" textLength="7" x="38.5" y="238.5107">5</text><text fill="#000000" font-family="sans-serif" font-size="13" lengthAdjust="spacing" textLength="74" x="49.5" y="238.5107">Types option</text><polygon fill="#A80036" points="42.5,269.7188,32.5,273.7188,42.5,277.7188,38.5,273.7188" style="stroke:#A80036;stroke-width:1.0;"/><line style="stroke:#A80036;stroke-width:1.0;stroke-dasharray:2.0,2.0;" x1="36.5" x2="332.5" y1="273.7188" y2="273.7188"/><text fill="#000000" font-family="sans-serif" font-size="13" font-weight="bold" lengthAdjust="spacing" textLength="7" x="48.5" y="268.8623">6</text><text fill="#000000" font-family="sans-serif" font-size="13" lengthAdjust="spacing" textLength="75" x="59.5" y="268.8623">asks for user</text><polygon fill="#A80036" points="321.5,300.0703,331.5,304.0703,321.5,308.0703,325.5,304.0703" style="stroke:#A80036;stroke-width:1.0;"/><line style="stroke:#A80036;stroke-width:1.0;" x1="31.5" x2="327.5" y1="304.0703" y2="304.0703"/><text fill="#000000" font-family="sans-serif" font-size="13" font-weight="bold" lengthAdjust="spacing" textLength="7" x="38.5" y="299.2139">7</text><text fill="#000000" font-family="sans-serif" font-size="13" lengthAdjust="spacing" textLength="74" x="49.5" y="299.2139">Types option</text><polygon fill="#A80036" points="42.5,330.4219,32.5,334.4219,42.5,338.4219,38.5,334.4219" style="stroke:#A80036;stroke-width:1.0;"/><line style="stroke:#A80036;stroke-width:1.0;stroke-dasharray:2.0,2.0;" x1="36.5" x2="332.5" y1="334.4219" y2="334.4219"/><text fill="#000000" font-family="sans-serif" font-size="13" font-weight="bold" lengthAdjust="spacing" textLength="7" x="48.5" y="329.5654">8</text><text fill="#000000" font-family="sans-serif" font-size="13" lengthAdjust="spacing" textLength="93" x="59.5" y="329.5654">asks for vaccine</text><polygon fill="#A80036" points="321.5,360.7734,331.5,364.7734,321.5,368.7734,325.5,364.7734" style="stroke:#A80036;stroke-width:1.0;"/><line style="stroke:#A80036;stroke-width:1.0;" x1="31.5" x2="327.5" y1="364.7734" y2="364.7734"/><text fill="#000000" font-family="sans-serif" font-size="13" font-weight="bold" lengthAdjust="spacing" textLength="7" x="38.5" y="359.917">9</text><text fill="#000000" font-family="sans-serif" font-size="13" lengthAdjust="spacing" textLength="74" x="49.5" y="359.917">Types option</text><polygon fill="#A80036" points="42.5,391.125,32.5,395.125,42.5,399.125,38.5,395.125" style="stroke:#A80036;stroke-width:1.0;"/><line style="stroke:#A80036;stroke-width:1.0;stroke-dasharray:2.0,2.0;" x1="36.5" x2="332.5" y1="395.125" y2="395.125"/><text fill="#000000" font-family="sans-serif" font-size="13" font-weight="bold" lengthAdjust="spacing" textLength="14" x="48.5" y="390.2686">10</text><text fill="#000000" font-family="sans-serif" font-size="13" lengthAdjust="spacing" textLength="78" x="66.5" y="390.2686">asks for dose</text><polygon fill="#A80036" points="321.5,421.4766,331.5,425.4766,321.5,429.4766,325.5,425.4766" style="stroke:#A80036;stroke-width:1.0;"/><line style="stroke:#A80036;stroke-width:1.0;" x1="31.5" x2="327.5" y1="425.4766" y2="425.4766"/><text fill="#000000" font-family="sans-serif" font-size="13" font-weight="bold" lengthAdjust="spacing" textLength="14" x="38.5" y="420.6201">11</text><text fill="#000000" font-family="sans-serif" font-size="13" lengthAdjust="spacing" textLength="74" x="56.5" y="420.6201">Types option</text><polygon fill="#A80036" points="37.5,451.8281,27.5,455.8281,37.5,459.8281,33.5,455.8281" style="stroke:#A80036;stroke-width:1.0;"/><line style="stroke:#A80036;stroke-width:1.0;stroke-dasharray:2.0,2.0;" x1="31.5" x2="332.5" y1="455.8281" y2="455.8281"/><text fill="#000000" font-family="sans-serif" font-size="13" font-weight="bold" lengthAdjust="spacing" textLength="14" x="43.5" y="450.9717">12</text><text fill="#000000" font-family="sans-serif" font-size="13" lengthAdjust="spacing" textLength="170" x="61.5" y="450.9717">informs operation (in)success</text><!--MD5=[e8bb5d3641e55e2fca780c95964cfbd9]
@startuml
autonumber
actor "Nurse" as ADM

activate ADM
ADM -> ":System" : Request to register administration of a vaccine

":System" - -> ADM : asks for Vaccination Center

ADM -> ":System": Types option


":System" - -> ADM : asks for Vaccination Center

ADM -> ":System": Types option


":System" - -> ADM : asks for user

ADM -> ":System": Types option


":System" - -> ADM : asks for vaccine

ADM -> ":System": Types option


":System" - -> ADM : asks for dose
ADM -> ":System": Types option

":System" - -> ADM : informs operation (in)success
deactivate ":System"

deactivate ADM

@enduml

PlantUML version 1.2021.11(Sat Oct 02 14:26:11 BST 2021)
(GPL source distribution)
Java Runtime: OpenJDK Runtime Environment
JVM: OpenJDK 64-Bit Server VM
Default Encoding: Cp1252
Language: pt
Country: PT
--></g></svg>