<?xml version="1.0" encoding="UTF-8" standalone="no"?><svg xmlns="http://www.w3.org/2000/svg" xmlns:xlink="http://www.w3.org/1999/xlink" contentScriptType="application/ecmascript" contentStyleType="text/css" height="115px" preserveAspectRatio="none" style="width:526px;height:115px;background:#FFFFFF;" version="1.1" viewBox="0 0 526 115" width="526px" zoomAndPan="magnify"><defs><filter height="300%" id="fqcwijxmn0uy2" width="300%" x="-1" y="-1"><feGaussianBlur result="blurOut" stdDeviation="2.0"/><feColorMatrix in="blurOut" result="blurOut2" type="matrix" values="0 0 0 0 0 0 0 0 0 0 0 0 0 0 0 0 0 0 .4 0"/><feOffset dx="4.0" dy="4.0" in="blurOut2" result="blurOut3"/><feBlend in="SourceGraphic" in2="blurOut3" mode="normal"/></filter></defs><g><!--MD5=[da547346deef918ea16944ba046651ef]
class Administrator--><rect codeLine="5" fill="#FEFECE" filter="url(#fqcwijxmn0uy2)" height="40" id="Administrator" style="stroke:#A80036;stroke-width:1.5;" width="105" x="188" y="7"/><ellipse cx="203" cy="23" fill="#ADD1B2" rx="11" ry="11" style="stroke:#A80036;stroke-width:1.0;"/><path d="M205,19.5 Q205.2031,19 205.4375,18.75 Q205.6719,18.5 205.9375,18.5 Q206.4063,18.5 206.7031,18.7813 Q207,19.0625 207,19.7188 L207,21.2813 Q207,21.9375 206.7188,22.2188 Q206.4375,22.5 206,22.5 Q205.6094,22.5 205.3594,22.3281 Q205.1094,22.1563 205,21.7031 Q204.9531,21.3906 204.7813,21.2188 Q204.4688,20.8906 203.9063,20.7031 Q203.3438,20.5 202.7813,20.5 Q202.0781,20.5 201.4844,20.7813 Q200.9063,21.0625 200.4531,21.6875 Q200,22.3125 200,23.1719 L200,24.0938 Q200,25.125 200.8438,25.8125 Q201.6875,26.5 203.1875,26.5 Q204.0781,26.5 204.7031,26.2969 Q205.0625,26.1875 205.4688,25.8281 Q205.7344,25.625 205.875,25.5625 Q206.0156,25.5 206.1875,25.5 Q206.5156,25.5 206.75,25.7656 Q207,26.0156 207,26.375 Q207,26.7188 206.6563,27.125 Q206.1563,27.7188 205.3594,28.0469 Q204.3125,28.5 203.0313,28.5 Q201.5313,28.5 200.3281,27.9063 Q199.3594,27.4375 198.6719,26.4219 Q198,25.4063 198,24.2031 L198,23.1094 Q198,21.8594 198.5938,20.7656 Q199.2031,19.6719 200.25,19.0938 Q201.3125,18.5 202.5,18.5 Q203.2188,18.5 203.8438,18.75 Q204.4688,19 205,19.5 Z " fill="#000000"/><text fill="#000000" font-family="sans-serif" font-size="12" lengthAdjust="spacing" textLength="73" x="217" y="27.9102">Administrator</text><line style="stroke:#A80036;stroke-width:1.5;" x1="189" x2="292" y1="39" y2="39"/><!--MD5=[02e4b9b7573f1156f41e60aa5b4e25a4]
class Company--><rect codeLine="8" fill="#FEFECE" filter="url(#fqcwijxmn0uy2)" height="67.6719" id="Company" style="stroke:#A80036;stroke-width:1.5;" width="85" x="7" y="34"/><ellipse cx="22" cy="50" fill="#ADD1B2" rx="11" ry="11" style="stroke:#A80036;stroke-width:1.0;"/><path d="M24,46.5 Q24.2031,46 24.4375,45.75 Q24.6719,45.5 24.9375,45.5 Q25.4063,45.5 25.7031,45.7813 Q26,46.0625 26,46.7188 L26,48.2813 Q26,48.9375 25.7188,49.2188 Q25.4375,49.5 25,49.5 Q24.6094,49.5 24.3594,49.3281 Q24.1094,49.1563 24,48.7031 Q23.9531,48.3906 23.7813,48.2188 Q23.4688,47.8906 22.9063,47.7031 Q22.3438,47.5 21.7813,47.5 Q21.0781,47.5 20.4844,47.7813 Q19.9063,48.0625 19.4531,48.6875 Q19,49.3125 19,50.1719 L19,51.0938 Q19,52.125 19.8438,52.8125 Q20.6875,53.5 22.1875,53.5 Q23.0781,53.5 23.7031,53.2969 Q24.0625,53.1875 24.4688,52.8281 Q24.7344,52.625 24.875,52.5625 Q25.0156,52.5 25.1875,52.5 Q25.5156,52.5 25.75,52.7656 Q26,53.0156 26,53.375 Q26,53.7188 25.6563,54.125 Q25.1563,54.7188 24.3594,55.0469 Q23.3125,55.5 22.0313,55.5 Q20.5313,55.5 19.3281,54.9063 Q18.3594,54.4375 17.6719,53.4219 Q17,52.4063 17,51.2031 L17,50.1094 Q17,48.8594 17.5938,47.7656 Q18.2031,46.6719 19.25,46.0938 Q20.3125,45.5 21.5,45.5 Q22.2188,45.5 22.8438,45.75 Q23.4688,46 24,46.5 Z " fill="#000000"/><text fill="#000000" font-family="sans-serif" font-size="12" lengthAdjust="spacing" textLength="53" x="36" y="54.9102">Company</text><line style="stroke:#A80036;stroke-width:1.5;" x1="8" x2="91" y1="66" y2="66"/><text fill="#000000" font-family="sans-serif" font-size="11" lengthAdjust="spacing" textLength="59" x="13" y="81.4189">-designation</text><text fill="#000000" font-family="sans-serif" font-size="11" lengthAdjust="spacing" textLength="61" x="13" y="95.2549">-authFacade</text><!--MD5=[0e501da62322464167c8ec4d233a6b7e]
class VaccineType--><rect codeLine="13" fill="#FEFECE" filter="url(#fqcwijxmn0uy2)" height="53.8359" id="VaccineType" style="stroke:#A80036;stroke-width:1.5;" width="101" x="411" y="44"/><ellipse cx="426" cy="60" fill="#ADD1B2" rx="11" ry="11" style="stroke:#A80036;stroke-width:1.0;"/><path d="M428,56.5 Q428.2031,56 428.4375,55.75 Q428.6719,55.5 428.9375,55.5 Q429.4063,55.5 429.7031,55.7813 Q430,56.0625 430,56.7188 L430,58.2813 Q430,58.9375 429.7188,59.2188 Q429.4375,59.5 429,59.5 Q428.6094,59.5 428.3594,59.3281 Q428.1094,59.1563 428,58.7031 Q427.9531,58.3906 427.7813,58.2188 Q427.4688,57.8906 426.9063,57.7031 Q426.3438,57.5 425.7813,57.5 Q425.0781,57.5 424.4844,57.7813 Q423.9063,58.0625 423.4531,58.6875 Q423,59.3125 423,60.1719 L423,61.0938 Q423,62.125 423.8438,62.8125 Q424.6875,63.5 426.1875,63.5 Q427.0781,63.5 427.7031,63.2969 Q428.0625,63.1875 428.4688,62.8281 Q428.7344,62.625 428.875,62.5625 Q429.0156,62.5 429.1875,62.5 Q429.5156,62.5 429.75,62.7656 Q430,63.0156 430,63.375 Q430,63.7188 429.6563,64.125 Q429.1563,64.7188 428.3594,65.0469 Q427.3125,65.5 426.0313,65.5 Q424.5313,65.5 423.3281,64.9063 Q422.3594,64.4375 421.6719,63.4219 Q421,62.4063 421,61.2031 L421,60.1094 Q421,58.8594 421.5938,57.7656 Q422.2031,56.6719 423.25,56.0938 Q424.3125,55.5 425.5,55.5 Q426.2188,55.5 426.8438,55.75 Q427.4688,56 428,56.5 Z " fill="#000000"/><text fill="#000000" font-family="sans-serif" font-size="12" lengthAdjust="spacing" textLength="69" x="440" y="64.9102">VaccineType</text><line style="stroke:#A80036;stroke-width:1.5;" x1="412" x2="511" y1="76" y2="76"/><text fill="#000000" font-family="sans-serif" font-size="11" lengthAdjust="spacing" textLength="42" x="417" y="91.4189">-disease</text><!--MD5=[05986564e1c13a00611587b35563d868]
link Company to VaccineType--><path codeLine="18" d="M92.24,73.36 C119.45,76.58 155.77,80.36 188,82 C265.79,85.95 356.12,80.28 410.76,75.73 " fill="none" id="Company-VaccineType" style="stroke:#A80036;stroke-width:1.0;"/><polygon fill="#000000" points="232.4999,73.213,223.4769,70.2068,223.4332,76.0845,232.4999,73.213" style="stroke:#000000;stroke-width:1.0;"/><text fill="#000000" font-family="sans-serif" font-size="13" lengthAdjust="spacing" textLength="21" x="236.5" y="78.4951">has</text><text fill="#000000" font-family="sans-serif" font-size="13" lengthAdjust="spacing" textLength="7" x="99.8985" y="89.1242">1</text><text fill="#000000" font-family="sans-serif" font-size="13" lengthAdjust="spacing" textLength="5" x="397.9404" y="91.1327">*</text><!--MD5=[d0b477519989ed3601cd00d052224350]
link Administrator to VaccineType--><path codeLine="19" d="M293.12,37.37 C328.66,44.51 375.6,53.94 410.73,61 " fill="none" id="Administrator-VaccineType" style="stroke:#A80036;stroke-width:1.0;"/><polygon fill="#000000" points="332.902,36.1607,324.6131,31.4976,323.4553,37.2603,332.902,36.1607" style="stroke:#000000;stroke-width:1.0;"/><text fill="#000000" font-family="sans-serif" font-size="13" lengthAdjust="spacing" textLength="43" x="337" y="40.4951">creates</text><text fill="#000000" font-family="sans-serif" font-size="13" lengthAdjust="spacing" textLength="7" x="301.0119" y="53.4731">1</text><text fill="#000000" font-family="sans-serif" font-size="13" lengthAdjust="spacing" textLength="5" x="397.906" y="74.2392">*</text><!--MD5=[eaea43e34e45c5b9d20b595fc78f1f20]
link Company to Administrator--><path codeLine="20" d="M92.45,58.9 C120.61,52.79 157.91,44.7 187.9,38.19 " fill="none" id="Company-Administrator" style="stroke:#A80036;stroke-width:1.0;"/><polygon fill="#000000" points="131.8863,36.1156,122.4237,35.1614,123.6701,40.9056,131.8863,36.1156" style="stroke:#000000;stroke-width:1.0;"/><text fill="#000000" font-family="sans-serif" font-size="13" lengthAdjust="spacing" textLength="21" x="136" y="42.4951">has</text><text fill="#000000" font-family="sans-serif" font-size="13" lengthAdjust="spacing" textLength="7" x="100.1433" y="72.2692">1</text><text fill="#000000" font-family="sans-serif" font-size="13" lengthAdjust="spacing" textLength="5" x="175.1516" y="54.4084">*</text><!--MD5=[f131978a73ce66ee10368160627ed68a]
@startuml
hide methods
left to right direction
skinparam classAttributeIconSize 0

class Administrator {
}

class Company {
  -designation
  -authFacade
}

class VaccineType {
  -disease
}


Company "1" - - "*" VaccineType: has >
Administrator "1" - - "*" VaccineType: creates >
Company "1" - - "*" Administrator: has >


@enduml

PlantUML version 1.2022.1(Tue Feb 01 18:19:58 GMT 2022)
(GPL source distribution)
Java Runtime: OpenJDK Runtime Environment
JVM: OpenJDK 64-Bit Server VM
Default Encoding: Cp1252
Language: en
Country: GB
--></g></svg>