<?xml version="1.0" encoding="UTF-8" standalone="no"?><svg xmlns="http://www.w3.org/2000/svg" xmlns:xlink="http://www.w3.org/1999/xlink" contentScriptType="application/ecmascript" contentStyleType="text/css" height="559px" preserveAspectRatio="none" style="width:1015px;height:559px;background:#FFFFFF;" version="1.1" viewBox="0 0 1015 559" width="1015px" zoomAndPan="magnify"><defs><filter height="300%" id="fxf21ddctoowp" width="300%" x="-1" y="-1"><feGaussianBlur result="blurOut" stdDeviation="2.0"/><feColorMatrix in="blurOut" result="blurOut2" type="matrix" values="0 0 0 0 0 0 0 0 0 0 0 0 0 0 0 0 0 0 .4 0"/><feOffset dx="4.0" dy="4.0" in="blurOut2" result="blurOut3"/><feBlend in="SourceGraphic" in2="blurOut3" mode="normal"/></filter></defs><g><rect fill="#FFFFFF" filter="url(#fxf21ddctoowp)" height="356.2188" style="stroke:#A80036;stroke-width:1.0;" width="10" x="44.5" y="99.6094"/><rect fill="#FFFFFF" filter="url(#fxf21ddctoowp)" height="30.3516" style="stroke:#A80036;stroke-width:1.0;" width="10" x="332.5" y="121.9609"/><rect fill="#FFFFFF" filter="url(#fxf21ddctoowp)" height="212.4609" style="stroke:#A80036;stroke-width:1.0;" width="10" x="332.5" y="182.6641"/><rect fill="#FFFFFF" filter="url(#fxf21ddctoowp)" height="30.3516" style="stroke:#A80036;stroke-width:1.0;" width="10" x="332.5" y="425.4766"/><rect fill="#FFFFFF" filter="url(#fxf21ddctoowp)" height="151.7578" style="stroke:#A80036;stroke-width:1.0;" width="10" x="536.5" y="213.0156"/><rect fill="#FFFFFF" filter="url(#fxf21ddctoowp)" height="91.0547" style="stroke:#A80036;stroke-width:1.0;" width="10" x="740.5" y="243.3672"/><rect fill="#FFFFFF" filter="url(#fxf21ddctoowp)" height="30.3516" style="stroke:#A80036;stroke-width:1.0;" width="10" x="944.5" y="273.7188"/><line style="stroke:#A80036;stroke-width:1.0;stroke-dasharray:5.0,5.0;" x1="49" x2="49" y1="89.6094" y2="473.8281"/><line style="stroke:#A80036;stroke-width:1.0;stroke-dasharray:5.0,5.0;" x1="337" x2="337" y1="89.6094" y2="473.8281"/><line style="stroke:#A80036;stroke-width:1.0;stroke-dasharray:5.0,5.0;" x1="541" x2="541" y1="89.6094" y2="473.8281"/><line style="stroke:#A80036;stroke-width:1.0;stroke-dasharray:5.0,5.0;" x1="745.5" x2="745.5" y1="89.6094" y2="473.8281"/><line style="stroke:#A80036;stroke-width:1.0;stroke-dasharray:5.0,5.0;" x1="949" x2="949" y1="89.6094" y2="473.8281"/><text fill="#000000" font-family="sans-serif" font-size="14" lengthAdjust="spacing" textLength="83" x="5" y="86.5332">Administrator</text><ellipse cx="49.5" cy="15" fill="#FEFECE" filter="url(#fxf21ddctoowp)" rx="8" ry="8" style="stroke:#A80036;stroke-width:2.0;"/><path d="M49.5,23 L49.5,50 M36.5,31 L62.5,31 M49.5,50 L36.5,65 M49.5,50 L62.5,65 " fill="none" filter="url(#fxf21ddctoowp)" style="stroke:#A80036;stroke-width:2.0;"/><text fill="#000000" font-family="sans-serif" font-size="14" lengthAdjust="spacing" textLength="83" x="5" y="487.3613">Administrator</text><ellipse cx="49.5" cy="500.4375" fill="#FEFECE" filter="url(#fxf21ddctoowp)" rx="8" ry="8" style="stroke:#A80036;stroke-width:2.0;"/><path d="M49.5,508.4375 L49.5,535.4375 M36.5,516.4375 L62.5,516.4375 M49.5,535.4375 L36.5,550.4375 M49.5,535.4375 L62.5,550.4375 " fill="none" filter="url(#fxf21ddctoowp)" style="stroke:#A80036;stroke-width:2.0;"/><rect fill="#FEFECE" filter="url(#fxf21ddctoowp)" height="31.6094" style="stroke:#A80036;stroke-width:1.5;" width="155" x="258" y="53"/><text fill="#000000" font-family="sans-serif" font-size="14" lengthAdjust="spacing" textLength="141" x="265" y="74.5332">:CreateVaccineTypeUI</text><rect fill="#FEFECE" filter="url(#fxf21ddctoowp)" height="31.6094" style="stroke:#A80036;stroke-width:1.5;" width="155" x="258" y="472.8281"/><text fill="#000000" font-family="sans-serif" font-size="14" lengthAdjust="spacing" textLength="141" x="265" y="494.3613">:CreateVaccineTypeUI</text><rect fill="#FEFECE" filter="url(#fxf21ddctoowp)" height="31.6094" style="stroke:#A80036;stroke-width:1.5;" width="205" x="437" y="53"/><text fill="#000000" font-family="sans-serif" font-size="14" lengthAdjust="spacing" textLength="191" x="444" y="74.5332">:CreateVaccineTypeController</text><rect fill="#FEFECE" filter="url(#fxf21ddctoowp)" height="31.6094" style="stroke:#A80036;stroke-width:1.5;" width="205" x="437" y="472.8281"/><text fill="#000000" font-family="sans-serif" font-size="14" lengthAdjust="spacing" textLength="191" x="444" y="494.3613">:CreateVaccineTypeController</text><rect fill="#FEFECE" filter="url(#fxf21ddctoowp)" height="31.6094" style="stroke:#A80036;stroke-width:1.5;" width="78" x="704.5" y="53"/><text fill="#000000" font-family="sans-serif" font-size="14" lengthAdjust="spacing" textLength="64" x="711.5" y="74.5332">:Company</text><rect fill="#FEFECE" filter="url(#fxf21ddctoowp)" height="31.6094" style="stroke:#A80036;stroke-width:1.5;" width="78" x="704.5" y="472.8281"/><text fill="#000000" font-family="sans-serif" font-size="14" lengthAdjust="spacing" textLength="64" x="711.5" y="494.3613">:Company</text><rect fill="#FEFECE" filter="url(#fxf21ddctoowp)" height="31.6094" style="stroke:#A80036;stroke-width:1.5;" width="107" x="894" y="53"/><text fill="#000000" font-family="sans-serif" font-size="14" lengthAdjust="spacing" textLength="93" x="901" y="74.5332">:VaccineTypes</text><rect fill="#FEFECE" filter="url(#fxf21ddctoowp)" height="31.6094" style="stroke:#A80036;stroke-width:1.5;" width="107" x="894" y="472.8281"/><text fill="#000000" font-family="sans-serif" font-size="14" lengthAdjust="spacing" textLength="93" x="901" y="494.3613">:VaccineTypes</text><rect fill="#FFFFFF" filter="url(#fxf21ddctoowp)" height="356.2188" style="stroke:#A80036;stroke-width:1.0;" width="10" x="44.5" y="99.6094"/><rect fill="#FFFFFF" filter="url(#fxf21ddctoowp)" height="30.3516" style="stroke:#A80036;stroke-width:1.0;" width="10" x="332.5" y="121.9609"/><rect fill="#FFFFFF" filter="url(#fxf21ddctoowp)" height="212.4609" style="stroke:#A80036;stroke-width:1.0;" width="10" x="332.5" y="182.6641"/><rect fill="#FFFFFF" filter="url(#fxf21ddctoowp)" height="30.3516" style="stroke:#A80036;stroke-width:1.0;" width="10" x="332.5" y="425.4766"/><rect fill="#FFFFFF" filter="url(#fxf21ddctoowp)" height="151.7578" style="stroke:#A80036;stroke-width:1.0;" width="10" x="536.5" y="213.0156"/><rect fill="#FFFFFF" filter="url(#fxf21ddctoowp)" height="91.0547" style="stroke:#A80036;stroke-width:1.0;" width="10" x="740.5" y="243.3672"/><rect fill="#FFFFFF" filter="url(#fxf21ddctoowp)" height="30.3516" style="stroke:#A80036;stroke-width:1.0;" width="10" x="944.5" y="273.7188"/><polygon fill="#A80036" points="320.5,117.9609,330.5,121.9609,320.5,125.9609,324.5,121.9609" style="stroke:#A80036;stroke-width:1.0;"/><line style="stroke:#A80036;stroke-width:1.0;" x1="54.5" x2="326.5" y1="121.9609" y2="121.9609"/><text fill="#000000" font-family="sans-serif" font-size="13" font-weight="bold" lengthAdjust="spacing" textLength="7" x="61.5" y="117.1045">1</text><text fill="#000000" font-family="sans-serif" font-size="13" lengthAdjust="spacing" textLength="218" x="72.5" y="117.1045">Starts to register a new Vaccine Type</text><polygon fill="#A80036" points="65.5,148.3125,55.5,152.3125,65.5,156.3125,61.5,152.3125" style="stroke:#A80036;stroke-width:1.0;"/><line style="stroke:#A80036;stroke-width:1.0;stroke-dasharray:2.0,2.0;" x1="59.5" x2="336.5" y1="152.3125" y2="152.3125"/><text fill="#000000" font-family="sans-serif" font-size="13" font-weight="bold" lengthAdjust="spacing" textLength="7" x="71.5" y="147.4561">2</text><text fill="#000000" font-family="sans-serif" font-size="13" lengthAdjust="spacing" textLength="136" x="82.5" y="147.4561">requests data (disease)</text><polygon fill="#A80036" points="320.5,178.6641,330.5,182.6641,320.5,186.6641,324.5,182.6641" style="stroke:#A80036;stroke-width:1.0;"/><line style="stroke:#A80036;stroke-width:1.0;" x1="54.5" x2="326.5" y1="182.6641" y2="182.6641"/><text fill="#000000" font-family="sans-serif" font-size="13" font-weight="bold" lengthAdjust="spacing" textLength="7" x="61.5" y="177.8076">3</text><text fill="#000000" font-family="sans-serif" font-size="13" lengthAdjust="spacing" textLength="122" x="72.5" y="177.8076">types requested data</text><polygon fill="#A80036" points="524.5,209.0156,534.5,213.0156,524.5,217.0156,528.5,213.0156" style="stroke:#A80036;stroke-width:1.0;"/><line style="stroke:#A80036;stroke-width:1.0;" x1="342.5" x2="530.5" y1="213.0156" y2="213.0156"/><text fill="#000000" font-family="sans-serif" font-size="13" font-weight="bold" lengthAdjust="spacing" textLength="7" x="349.5" y="208.1592">4</text><text fill="#000000" font-family="sans-serif" font-size="13" lengthAdjust="spacing" textLength="164" x="360.5" y="208.1592">createVaccineType(disease)</text><polygon fill="#A80036" points="728.5,239.3672,738.5,243.3672,728.5,247.3672,732.5,243.3672" style="stroke:#A80036;stroke-width:1.0;"/><line style="stroke:#A80036;stroke-width:1.0;" x1="546.5" x2="734.5" y1="243.3672" y2="243.3672"/><text fill="#000000" font-family="sans-serif" font-size="13" font-weight="bold" lengthAdjust="spacing" textLength="7" x="553.5" y="238.5107">5</text><text fill="#000000" font-family="sans-serif" font-size="13" lengthAdjust="spacing" textLength="164" x="564.5" y="238.5107">createVaccineType(disease)</text><polygon fill="#A80036" points="932.5,269.7188,942.5,273.7188,932.5,277.7188,936.5,273.7188" style="stroke:#A80036;stroke-width:1.0;"/><line style="stroke:#A80036;stroke-width:1.0;" x1="750.5" x2="938.5" y1="273.7188" y2="273.7188"/><text fill="#000000" font-family="sans-serif" font-size="13" font-weight="bold" lengthAdjust="spacing" textLength="7" x="757.5" y="268.8623">6</text><text fill="#000000" font-family="sans-serif" font-size="13" lengthAdjust="spacing" textLength="164" x="768.5" y="268.8623">createVaccineType(disease)</text><polygon fill="#A80036" points="761.5,300.0703,751.5,304.0703,761.5,308.0703,757.5,304.0703" style="stroke:#A80036;stroke-width:1.0;"/><line style="stroke:#A80036;stroke-width:1.0;stroke-dasharray:2.0,2.0;" x1="755.5" x2="948.5" y1="304.0703" y2="304.0703"/><text fill="#000000" font-family="sans-serif" font-size="13" font-weight="bold" lengthAdjust="spacing" textLength="7" x="767.5" y="299.2139">7</text><text fill="#000000" font-family="sans-serif" font-size="13" lengthAdjust="spacing" textLength="99" x="778.5" y="299.2139">new vaccine type</text><polygon fill="#A80036" points="557.5,330.4219,547.5,334.4219,557.5,338.4219,553.5,334.4219" style="stroke:#A80036;stroke-width:1.0;"/><line style="stroke:#A80036;stroke-width:1.0;stroke-dasharray:2.0,2.0;" x1="551.5" x2="744.5" y1="334.4219" y2="334.4219"/><text fill="#000000" font-family="sans-serif" font-size="13" font-weight="bold" lengthAdjust="spacing" textLength="7" x="563.5" y="329.5654">8</text><text fill="#000000" font-family="sans-serif" font-size="13" lengthAdjust="spacing" textLength="32" x="574.5" y="329.5654">result</text><polygon fill="#A80036" points="353.5,360.7734,343.5,364.7734,353.5,368.7734,349.5,364.7734" style="stroke:#A80036;stroke-width:1.0;"/><line style="stroke:#A80036;stroke-width:1.0;stroke-dasharray:2.0,2.0;" x1="347.5" x2="540.5" y1="364.7734" y2="364.7734"/><text fill="#000000" font-family="sans-serif" font-size="13" font-weight="bold" lengthAdjust="spacing" textLength="7" x="359.5" y="359.917">9</text><text fill="#000000" font-family="sans-serif" font-size="13" lengthAdjust="spacing" textLength="32" x="370.5" y="359.917">result</text><polygon fill="#A80036" points="65.5,391.125,55.5,395.125,65.5,399.125,61.5,395.125" style="stroke:#A80036;stroke-width:1.0;"/><line style="stroke:#A80036;stroke-width:1.0;stroke-dasharray:2.0,2.0;" x1="59.5" x2="336.5" y1="395.125" y2="395.125"/><text fill="#000000" font-family="sans-serif" font-size="13" font-weight="bold" lengthAdjust="spacing" textLength="14" x="71.5" y="390.2686">10</text><text fill="#000000" font-family="sans-serif" font-size="13" lengthAdjust="spacing" textLength="236" x="89.5" y="390.2686">shows all data and requests confirmation</text><polygon fill="#A80036" points="320.5,421.4766,330.5,425.4766,320.5,429.4766,324.5,425.4766" style="stroke:#A80036;stroke-width:1.0;"/><line style="stroke:#A80036;stroke-width:1.0;" x1="54.5" x2="326.5" y1="425.4766" y2="425.4766"/><text fill="#000000" font-family="sans-serif" font-size="13" font-weight="bold" lengthAdjust="spacing" textLength="14" x="61.5" y="420.6201">11</text><text fill="#000000" font-family="sans-serif" font-size="13" lengthAdjust="spacing" textLength="100" x="79.5" y="420.6201">confirms the data</text><polygon fill="#A80036" points="60.5,451.8281,50.5,455.8281,60.5,459.8281,56.5,455.8281" style="stroke:#A80036;stroke-width:1.0;"/><line style="stroke:#A80036;stroke-width:1.0;stroke-dasharray:2.0,2.0;" x1="54.5" x2="336.5" y1="455.8281" y2="455.8281"/><text fill="#000000" font-family="sans-serif" font-size="13" font-weight="bold" lengthAdjust="spacing" textLength="14" x="66.5" y="450.9717">12</text><text fill="#000000" font-family="sans-serif" font-size="13" lengthAdjust="spacing" textLength="152" x="84.5" y="450.9717">informs operation success</text><!--MD5=[4549836873091d4e5d8c85f7c24f1e2f]
@startuml
autonumber

actor "Administrator" as ADM

participant ":CreateVaccineTypeUI" as UI
participant ":CreateVaccineTypeController" as CTRL
participant ":Company" as ORG
participant ":VaccineTypes" as VACTYPE

activate ADM
ADM -> UI : Starts to register a new Vaccine Type
activate UI
UI - -> ADM : requests data (disease)
deactivate UI

ADM -> UI : types requested data
activate UI
UI -> CTRL: createVaccineType(disease)
activate CTRL
CTRL -> ORG: createVaccineType(disease)
activate ORG
ORG -> VACTYPE: createVaccineType(disease)
activate VACTYPE
VACTYPE - -> ORG: new vaccine type
deactivate VACTYPE
ORG - -> CTRL: result
deactivate ORG

CTRL - -> UI: result
deactivate CTRL
UI - -> ADM : shows all data and requests confirmation
deactivate UI

ADM -> UI : confirms the data
activate UI
UI - -> ADM : informs operation success
deactivate UI

deactivate ADM


@enduml

PlantUML version 1.2022.1(Tue Feb 01 18:19:58 GMT 2022)
(GPL source distribution)
Java Runtime: OpenJDK Runtime Environment
JVM: OpenJDK 64-Bit Server VM
Default Encoding: Cp1252
Language: en
Country: GB
--></g></svg>