<?xml version="1.0" encoding="UTF-8" standalone="no"?><svg xmlns="http://www.w3.org/2000/svg" xmlns:xlink="http://www.w3.org/1999/xlink" contentScriptType="application/ecmascript" contentStyleType="text/css" height="982px" preserveAspectRatio="none" style="width:2077px;height:982px;background:#FFFFFF;" version="1.1" viewBox="0 0 2077 982" width="2077px" zoomAndPan="magnify"><defs><filter height="300%" id="fjd5g4k2b4qqj" width="300%" x="-1" y="-1"><feGaussianBlur result="blurOut" stdDeviation="2.0"/><feColorMatrix in="blurOut" result="blurOut2" type="matrix" values="0 0 0 0 0 0 0 0 0 0 0 0 0 0 0 0 0 0 .4 0"/><feOffset dx="4.0" dy="4.0" in="blurOut2" result="blurOut3"/><feBlend in="SourceGraphic" in2="blurOut3" mode="normal"/></filter></defs><g><!--MD5=[02e4b9b7573f1156f41e60aa5b4e25a4]
class Company--><rect codeLine="7" fill="#FEFECE" filter="url(#fjd5g4k2b4qqj)" height="40" id="Company" style="stroke:#A80036;stroke-width:1.5;" width="85" x="17" y="409.3564"/><ellipse cx="32" cy="425.3564" fill="#ADD1B2" rx="11" ry="11" style="stroke:#A80036;stroke-width:1.0;"/><path d="M34,421.8564 Q34.2031,421.3564 34.4375,421.1064 Q34.6719,420.8564 34.9375,420.8564 Q35.4063,420.8564 35.7031,421.1377 Q36,421.4189 36,422.0752 L36,423.6377 Q36,424.2939 35.7188,424.5752 Q35.4375,424.8564 35,424.8564 Q34.6094,424.8564 34.3594,424.6846 Q34.1094,424.5127 34,424.0596 Q33.9531,423.7471 33.7813,423.5752 Q33.4688,423.2471 32.9063,423.0596 Q32.3438,422.8564 31.7813,422.8564 Q31.0781,422.8564 30.4844,423.1377 Q29.9063,423.4189 29.4531,424.0439 Q29,424.6689 29,425.5283 L29,426.4502 Q29,427.4814 29.8438,428.1689 Q30.6875,428.8564 32.1875,428.8564 Q33.0781,428.8564 33.7031,428.6533 Q34.0625,428.5439 34.4688,428.1846 Q34.7344,427.9814 34.875,427.9189 Q35.0156,427.8564 35.1875,427.8564 Q35.5156,427.8564 35.75,428.1221 Q36,428.3721 36,428.7314 Q36,429.0752 35.6563,429.4814 Q35.1563,430.0752 34.3594,430.4033 Q33.3125,430.8564 32.0313,430.8564 Q30.5313,430.8564 29.3281,430.2627 Q28.3594,429.7939 27.6719,428.7783 Q27,427.7627 27,426.5596 L27,425.4658 Q27,424.2158 27.5938,423.1221 Q28.2031,422.0283 29.25,421.4502 Q30.3125,420.8564 31.5,420.8564 Q32.2188,420.8564 32.8438,421.1064 Q33.4688,421.3564 34,421.8564 Z " fill="#000000"/><text fill="#000000" font-family="sans-serif" font-size="12" lengthAdjust="spacing" textLength="53" x="46" y="430.2666">Company</text><line style="stroke:#A80036;stroke-width:1.5;" x1="18" x2="101" y1="441.3564" y2="441.3564"/><!--MD5=[5d2bdee92db0d01b75732190da037553]
class Coordinator--><rect codeLine="11" fill="#FEFECE" filter="url(#fjd5g4k2b4qqj)" height="40" id="Coordinator" style="stroke:#A80036;stroke-width:1.5;" width="97" x="1147" y="241.3564"/><ellipse cx="1162" cy="257.3564" fill="#ADD1B2" rx="11" ry="11" style="stroke:#A80036;stroke-width:1.0;"/><path d="M1164,253.8564 Q1164.2031,253.3564 1164.4375,253.1064 Q1164.6719,252.8564 1164.9375,252.8564 Q1165.4063,252.8564 1165.7031,253.1377 Q1166,253.4189 1166,254.0752 L1166,255.6377 Q1166,256.2939 1165.7188,256.5752 Q1165.4375,256.8564 1165,256.8564 Q1164.6094,256.8564 1164.3594,256.6846 Q1164.1094,256.5127 1164,256.0596 Q1163.9531,255.7471 1163.7813,255.5752 Q1163.4688,255.2471 1162.9063,255.0596 Q1162.3438,254.8564 1161.7813,254.8564 Q1161.0781,254.8564 1160.4844,255.1377 Q1159.9063,255.4189 1159.4531,256.0439 Q1159,256.6689 1159,257.5283 L1159,258.4502 Q1159,259.4814 1159.8438,260.1689 Q1160.6875,260.8564 1162.1875,260.8564 Q1163.0781,260.8564 1163.7031,260.6533 Q1164.0625,260.5439 1164.4688,260.1846 Q1164.7344,259.9814 1164.875,259.9189 Q1165.0156,259.8564 1165.1875,259.8564 Q1165.5156,259.8564 1165.75,260.1221 Q1166,260.3721 1166,260.7314 Q1166,261.0752 1165.6563,261.4814 Q1165.1563,262.0752 1164.3594,262.4033 Q1163.3125,262.8564 1162.0313,262.8564 Q1160.5313,262.8564 1159.3281,262.2627 Q1158.3594,261.7939 1157.6719,260.7783 Q1157,259.7627 1157,258.5596 L1157,257.4658 Q1157,256.2158 1157.5938,255.1221 Q1158.2031,254.0283 1159.25,253.4502 Q1160.3125,252.8564 1161.5,252.8564 Q1162.2188,252.8564 1162.8438,253.1064 Q1163.4688,253.3564 1164,253.8564 Z " fill="#000000"/><text fill="#000000" font-family="sans-serif" font-size="12" lengthAdjust="spacing" textLength="65" x="1176" y="262.2666">Coordinator</text><line style="stroke:#A80036;stroke-width:1.5;" x1="1148" x2="1243" y1="273.3564" y2="273.3564"/><!--MD5=[a059576e163b46f56762f12600c49258]
class Nurse--><rect codeLine="15" fill="#FEFECE" filter="url(#fjd5g4k2b4qqj)" height="40" id="Nurse" style="stroke:#A80036;stroke-width:1.5;" width="66" x="1162.5" y="72.3564"/><ellipse cx="1177.5" cy="88.3564" fill="#ADD1B2" rx="11" ry="11" style="stroke:#A80036;stroke-width:1.0;"/><path d="M1179.5,84.8564 Q1179.7031,84.3564 1179.9375,84.1064 Q1180.1719,83.8564 1180.4375,83.8564 Q1180.9063,83.8564 1181.2031,84.1377 Q1181.5,84.4189 1181.5,85.0752 L1181.5,86.6377 Q1181.5,87.2939 1181.2188,87.5752 Q1180.9375,87.8564 1180.5,87.8564 Q1180.1094,87.8564 1179.8594,87.6846 Q1179.6094,87.5127 1179.5,87.0596 Q1179.4531,86.7471 1179.2813,86.5752 Q1178.9688,86.2471 1178.4063,86.0596 Q1177.8438,85.8564 1177.2813,85.8564 Q1176.5781,85.8564 1175.9844,86.1377 Q1175.4063,86.4189 1174.9531,87.0439 Q1174.5,87.6689 1174.5,88.5283 L1174.5,89.4502 Q1174.5,90.4814 1175.3438,91.1689 Q1176.1875,91.8564 1177.6875,91.8564 Q1178.5781,91.8564 1179.2031,91.6533 Q1179.5625,91.5439 1179.9688,91.1846 Q1180.2344,90.9814 1180.375,90.9189 Q1180.5156,90.8564 1180.6875,90.8564 Q1181.0156,90.8564 1181.25,91.1221 Q1181.5,91.3721 1181.5,91.7314 Q1181.5,92.0752 1181.1563,92.4814 Q1180.6563,93.0752 1179.8594,93.4033 Q1178.8125,93.8564 1177.5313,93.8564 Q1176.0313,93.8564 1174.8281,93.2627 Q1173.8594,92.7939 1173.1719,91.7783 Q1172.5,90.7627 1172.5,89.5596 L1172.5,88.4658 Q1172.5,87.2158 1173.0938,86.1221 Q1173.7031,85.0283 1174.75,84.4502 Q1175.8125,83.8564 1177,83.8564 Q1177.7188,83.8564 1178.3438,84.1064 Q1178.9688,84.3564 1179.5,84.8564 Z " fill="#000000"/><text fill="#000000" font-family="sans-serif" font-size="12" lengthAdjust="spacing" textLength="34" x="1191.5" y="93.2666">Nurse</text><line style="stroke:#A80036;stroke-width:1.5;" x1="1163.5" x2="1227.5" y1="104.3564" y2="104.3564"/><!--MD5=[03960189e81aa2c066c762ffabbee709]
class Receptionist--><rect codeLine="20" fill="#FEFECE" filter="url(#fjd5g4k2b4qqj)" height="40" id="Receptionist" style="stroke:#A80036;stroke-width:1.5;" width="101" x="468" y="336.3564"/><ellipse cx="483" cy="352.3564" fill="#ADD1B2" rx="11" ry="11" style="stroke:#A80036;stroke-width:1.0;"/><path d="M485,348.8564 Q485.2031,348.3564 485.4375,348.1064 Q485.6719,347.8564 485.9375,347.8564 Q486.4063,347.8564 486.7031,348.1377 Q487,348.4189 487,349.0752 L487,350.6377 Q487,351.2939 486.7188,351.5752 Q486.4375,351.8564 486,351.8564 Q485.6094,351.8564 485.3594,351.6846 Q485.1094,351.5127 485,351.0596 Q484.9531,350.7471 484.7813,350.5752 Q484.4688,350.2471 483.9063,350.0596 Q483.3438,349.8564 482.7813,349.8564 Q482.0781,349.8564 481.4844,350.1377 Q480.9063,350.4189 480.4531,351.0439 Q480,351.6689 480,352.5283 L480,353.4502 Q480,354.4814 480.8438,355.1689 Q481.6875,355.8564 483.1875,355.8564 Q484.0781,355.8564 484.7031,355.6533 Q485.0625,355.5439 485.4688,355.1846 Q485.7344,354.9814 485.875,354.9189 Q486.0156,354.8564 486.1875,354.8564 Q486.5156,354.8564 486.75,355.1221 Q487,355.3721 487,355.7314 Q487,356.0752 486.6563,356.4814 Q486.1563,357.0752 485.3594,357.4033 Q484.3125,357.8564 483.0313,357.8564 Q481.5313,357.8564 480.3281,357.2627 Q479.3594,356.7939 478.6719,355.7783 Q478,354.7627 478,353.5596 L478,352.4658 Q478,351.2158 478.5938,350.1221 Q479.2031,349.0283 480.25,348.4502 Q481.3125,347.8564 482.5,347.8564 Q483.2188,347.8564 483.8438,348.1064 Q484.4688,348.3564 485,348.8564 Z " fill="#000000"/><text fill="#000000" font-family="sans-serif" font-size="12" lengthAdjust="spacing" textLength="69" x="497" y="357.2666">Receptionist</text><line style="stroke:#A80036;stroke-width:1.5;" x1="469" x2="568" y1="368.3564" y2="368.3564"/><!--MD5=[da547346deef918ea16944ba046651ef]
class Administrator--><rect codeLine="24" fill="#FEFECE" filter="url(#fjd5g4k2b4qqj)" height="40" id="Administrator" style="stroke:#A80036;stroke-width:1.5;" width="105" x="7" y="779.3564"/><ellipse cx="22" cy="795.3564" fill="#ADD1B2" rx="11" ry="11" style="stroke:#A80036;stroke-width:1.0;"/><path d="M24,791.8564 Q24.2031,791.3564 24.4375,791.1064 Q24.6719,790.8564 24.9375,790.8564 Q25.4063,790.8564 25.7031,791.1377 Q26,791.4189 26,792.0752 L26,793.6377 Q26,794.2939 25.7188,794.5752 Q25.4375,794.8564 25,794.8564 Q24.6094,794.8564 24.3594,794.6846 Q24.1094,794.5127 24,794.0596 Q23.9531,793.7471 23.7813,793.5752 Q23.4688,793.2471 22.9063,793.0596 Q22.3438,792.8564 21.7813,792.8564 Q21.0781,792.8564 20.4844,793.1377 Q19.9063,793.4189 19.4531,794.0439 Q19,794.6689 19,795.5283 L19,796.4502 Q19,797.4814 19.8438,798.1689 Q20.6875,798.8564 22.1875,798.8564 Q23.0781,798.8564 23.7031,798.6533 Q24.0625,798.5439 24.4688,798.1846 Q24.7344,797.9814 24.875,797.9189 Q25.0156,797.8564 25.1875,797.8564 Q25.5156,797.8564 25.75,798.1221 Q26,798.3721 26,798.7314 Q26,799.0752 25.6563,799.4814 Q25.1563,800.0752 24.3594,800.4033 Q23.3125,800.8564 22.0313,800.8564 Q20.5313,800.8564 19.3281,800.2627 Q18.3594,799.7939 17.6719,798.7783 Q17,797.7627 17,796.5596 L17,795.4658 Q17,794.2158 17.5938,793.1221 Q18.2031,792.0283 19.25,791.4502 Q20.3125,790.8564 21.5,790.8564 Q22.2188,790.8564 22.8438,791.1064 Q23.4688,791.3564 24,791.8564 Z " fill="#000000"/><text fill="#000000" font-family="sans-serif" font-size="12" lengthAdjust="spacing" textLength="73" x="36" y="800.2666">Administrator</text><line style="stroke:#A80036;stroke-width:1.5;" x1="8" x2="111" y1="811.3564" y2="811.3564"/><!--MD5=[7421f545a0d8420c5bec41e74b387d9c]
class Employee--><rect codeLine="29" fill="#FEFECE" filter="url(#fjd5g4k2b4qqj)" height="81.5078" id="Employee" style="stroke:#A80036;stroke-width:1.5;" width="93" x="240" y="246.3564"/><ellipse cx="257.7" cy="262.3564" fill="#ADD1B2" rx="11" ry="11" style="stroke:#A80036;stroke-width:1.0;"/><path d="M259.7,258.8564 Q259.9031,258.3564 260.1375,258.1064 Q260.3719,257.8564 260.6375,257.8564 Q261.1063,257.8564 261.4031,258.1377 Q261.7,258.4189 261.7,259.0752 L261.7,260.6377 Q261.7,261.2939 261.4188,261.5752 Q261.1375,261.8564 260.7,261.8564 Q260.3094,261.8564 260.0594,261.6846 Q259.8094,261.5127 259.7,261.0596 Q259.6531,260.7471 259.4813,260.5752 Q259.1688,260.2471 258.6063,260.0596 Q258.0438,259.8564 257.4813,259.8564 Q256.7781,259.8564 256.1844,260.1377 Q255.6063,260.4189 255.1531,261.0439 Q254.7,261.6689 254.7,262.5283 L254.7,263.4502 Q254.7,264.4814 255.5438,265.1689 Q256.3875,265.8564 257.8875,265.8564 Q258.7781,265.8564 259.4031,265.6533 Q259.7625,265.5439 260.1688,265.1846 Q260.4344,264.9814 260.575,264.9189 Q260.7156,264.8564 260.8875,264.8564 Q261.2156,264.8564 261.45,265.1221 Q261.7,265.3721 261.7,265.7314 Q261.7,266.0752 261.3563,266.4814 Q260.8563,267.0752 260.0594,267.4033 Q259.0125,267.8564 257.7313,267.8564 Q256.2313,267.8564 255.0281,267.2627 Q254.0594,266.7939 253.3719,265.7783 Q252.7,264.7627 252.7,263.5596 L252.7,262.4658 Q252.7,261.2158 253.2938,260.1221 Q253.9031,259.0283 254.95,258.4502 Q256.0125,257.8564 257.2,257.8564 Q257.9188,257.8564 258.5438,258.1064 Q259.1688,258.3564 259.7,258.8564 Z " fill="#000000"/><text fill="#000000" font-family="sans-serif" font-size="12" lengthAdjust="spacing" textLength="55" x="272.3" y="267.2666">Employee</text><line style="stroke:#A80036;stroke-width:1.5;" x1="241" x2="332" y1="278.3564" y2="278.3564"/><text fill="#000000" font-family="sans-serif" font-size="11" lengthAdjust="spacing" textLength="26" x="260" y="293.7754">name</text><text fill="#000000" font-family="sans-serif" font-size="11" lengthAdjust="spacing" textLength="67" x="260" y="307.6113">phoneNumber</text><text fill="#000000" font-family="sans-serif" font-size="11" lengthAdjust="spacing" textLength="66" x="260" y="321.4473">emailAddress</text><!--MD5=[de60e6d4f424ae4d0522096f76a59010]
class VaccinationCenter--><rect codeLine="35" fill="#FEFECE" filter="url(#fjd5g4k2b4qqj)" height="192.1953" id="VaccinationCenter" style="stroke:#A80036;stroke-width:1.5;" width="132" x="892" y="397.3564"/><ellipse cx="907" cy="413.3564" fill="#ADD1B2" rx="11" ry="11" style="stroke:#A80036;stroke-width:1.0;"/><path d="M909,409.8564 Q909.2031,409.3564 909.4375,409.1064 Q909.6719,408.8564 909.9375,408.8564 Q910.4063,408.8564 910.7031,409.1377 Q911,409.4189 911,410.0752 L911,411.6377 Q911,412.2939 910.7188,412.5752 Q910.4375,412.8564 910,412.8564 Q909.6094,412.8564 909.3594,412.6846 Q909.1094,412.5127 909,412.0596 Q908.9531,411.7471 908.7813,411.5752 Q908.4688,411.2471 907.9063,411.0596 Q907.3438,410.8564 906.7813,410.8564 Q906.0781,410.8564 905.4844,411.1377 Q904.9063,411.4189 904.4531,412.0439 Q904,412.6689 904,413.5283 L904,414.4502 Q904,415.4814 904.8438,416.1689 Q905.6875,416.8564 907.1875,416.8564 Q908.0781,416.8564 908.7031,416.6533 Q909.0625,416.5439 909.4688,416.1846 Q909.7344,415.9814 909.875,415.9189 Q910.0156,415.8564 910.1875,415.8564 Q910.5156,415.8564 910.75,416.1221 Q911,416.3721 911,416.7314 Q911,417.0752 910.6563,417.4814 Q910.1563,418.0752 909.3594,418.4033 Q908.3125,418.8564 907.0313,418.8564 Q905.5313,418.8564 904.3281,418.2627 Q903.3594,417.7939 902.6719,416.7783 Q902,415.7627 902,414.5596 L902,413.4658 Q902,412.2158 902.5938,411.1221 Q903.2031,410.0283 904.25,409.4502 Q905.3125,408.8564 906.5,408.8564 Q907.2188,408.8564 907.8438,409.1064 Q908.4688,409.3564 909,409.8564 Z " fill="#000000"/><text fill="#000000" font-family="sans-serif" font-size="12" lengthAdjust="spacing" textLength="100" x="921" y="418.2666">VaccinationCenter</text><line style="stroke:#A80036;stroke-width:1.5;" x1="893" x2="1023" y1="429.3564" y2="429.3564"/><text fill="#000000" font-family="sans-serif" font-size="11" lengthAdjust="spacing" textLength="26" x="912" y="444.7754">name</text><text fill="#000000" font-family="sans-serif" font-size="11" lengthAdjust="spacing" textLength="40" x="912" y="458.6113">address</text><text fill="#000000" font-family="sans-serif" font-size="11" lengthAdjust="spacing" textLength="67" x="912" y="472.4473">phoneNumber</text><text fill="#000000" font-family="sans-serif" font-size="11" lengthAdjust="spacing" textLength="66" x="912" y="486.2832">emailAddress</text><text fill="#000000" font-family="sans-serif" font-size="11" lengthAdjust="spacing" textLength="53" x="912" y="500.1191">faxNumber</text><text fill="#000000" font-family="sans-serif" font-size="11" lengthAdjust="spacing" textLength="81" x="912" y="513.9551">websiteAddress</text><text fill="#000000" font-family="sans-serif" font-size="11" lengthAdjust="spacing" textLength="67" x="912" y="527.791">openingHours</text><text fill="#000000" font-family="sans-serif" font-size="11" lengthAdjust="spacing" textLength="63" x="912" y="541.627">closingHours</text><text fill="#000000" font-family="sans-serif" font-size="11" lengthAdjust="spacing" textLength="57" x="912" y="555.4629">slotDuration</text><text fill="#000000" font-family="sans-serif" font-size="11" lengthAdjust="spacing" textLength="95" x="912" y="569.2988">maxNumVaxPerSlot</text><text fill="#000000" font-family="sans-serif" font-size="11" lengthAdjust="spacing" textLength="41" x="912" y="583.1348">capacity</text><!--MD5=[c680266cf9e454ca06c2d1bb8b683e6b]
class Schedule--><rect codeLine="50" fill="#FEFECE" filter="url(#fjd5g4k2b4qqj)" height="53.8359" id="Schedule" style="stroke:#A80036;stroke-width:1.5;" width="84" x="687" y="550.3564"/><ellipse cx="702" cy="566.3564" fill="#ADD1B2" rx="11" ry="11" style="stroke:#A80036;stroke-width:1.0;"/><path d="M704,562.8564 Q704.2031,562.3564 704.4375,562.1064 Q704.6719,561.8564 704.9375,561.8564 Q705.4063,561.8564 705.7031,562.1377 Q706,562.4189 706,563.0752 L706,564.6377 Q706,565.2939 705.7188,565.5752 Q705.4375,565.8564 705,565.8564 Q704.6094,565.8564 704.3594,565.6846 Q704.1094,565.5127 704,565.0596 Q703.9531,564.7471 703.7813,564.5752 Q703.4688,564.2471 702.9063,564.0596 Q702.3438,563.8564 701.7813,563.8564 Q701.0781,563.8564 700.4844,564.1377 Q699.9063,564.4189 699.4531,565.0439 Q699,565.6689 699,566.5283 L699,567.4502 Q699,568.4814 699.8438,569.1689 Q700.6875,569.8564 702.1875,569.8564 Q703.0781,569.8564 703.7031,569.6533 Q704.0625,569.5439 704.4688,569.1846 Q704.7344,568.9814 704.875,568.9189 Q705.0156,568.8564 705.1875,568.8564 Q705.5156,568.8564 705.75,569.1221 Q706,569.3721 706,569.7314 Q706,570.0752 705.6563,570.4814 Q705.1563,571.0752 704.3594,571.4033 Q703.3125,571.8564 702.0313,571.8564 Q700.5313,571.8564 699.3281,571.2627 Q698.3594,570.7939 697.6719,569.7783 Q697,568.7627 697,567.5596 L697,566.4658 Q697,565.2158 697.5938,564.1221 Q698.2031,563.0283 699.25,562.4502 Q700.3125,561.8564 701.5,561.8564 Q702.2188,561.8564 702.8438,562.1064 Q703.4688,562.3564 704,562.8564 Z " fill="#000000"/><text fill="#000000" font-family="sans-serif" font-size="12" lengthAdjust="spacing" textLength="52" x="716" y="571.2666">Schedule</text><line style="stroke:#A80036;stroke-width:1.5;" x1="688" x2="770" y1="582.3564" y2="582.3564"/><text fill="#000000" font-family="sans-serif" font-size="11" lengthAdjust="spacing" textLength="43" x="707" y="597.7754">dateTime</text><!--MD5=[72be06cc7ae02ccc98efe28a50e62246]
class SNSUser--><rect codeLine="54" fill="#FEFECE" filter="url(#fjd5g4k2b4qqj)" height="109.1797" id="SNSUser" style="stroke:#A80036;stroke-width:1.5;" width="84" x="1402.5" y="392.8564"/><ellipse cx="1417.5" cy="408.8564" fill="#ADD1B2" rx="11" ry="11" style="stroke:#A80036;stroke-width:1.0;"/><path d="M1419.5,405.3564 Q1419.7031,404.8564 1419.9375,404.6064 Q1420.1719,404.3564 1420.4375,404.3564 Q1420.9063,404.3564 1421.2031,404.6377 Q1421.5,404.9189 1421.5,405.5752 L1421.5,407.1377 Q1421.5,407.7939 1421.2188,408.0752 Q1420.9375,408.3564 1420.5,408.3564 Q1420.1094,408.3564 1419.8594,408.1846 Q1419.6094,408.0127 1419.5,407.5596 Q1419.4531,407.2471 1419.2813,407.0752 Q1418.9688,406.7471 1418.4063,406.5596 Q1417.8438,406.3564 1417.2813,406.3564 Q1416.5781,406.3564 1415.9844,406.6377 Q1415.4063,406.9189 1414.9531,407.5439 Q1414.5,408.1689 1414.5,409.0283 L1414.5,409.9502 Q1414.5,410.9814 1415.3438,411.6689 Q1416.1875,412.3564 1417.6875,412.3564 Q1418.5781,412.3564 1419.2031,412.1533 Q1419.5625,412.0439 1419.9688,411.6846 Q1420.2344,411.4814 1420.375,411.4189 Q1420.5156,411.3564 1420.6875,411.3564 Q1421.0156,411.3564 1421.25,411.6221 Q1421.5,411.8721 1421.5,412.2314 Q1421.5,412.5752 1421.1563,412.9814 Q1420.6563,413.5752 1419.8594,413.9033 Q1418.8125,414.3564 1417.5313,414.3564 Q1416.0313,414.3564 1414.8281,413.7627 Q1413.8594,413.2939 1413.1719,412.2783 Q1412.5,411.2627 1412.5,410.0596 L1412.5,408.9658 Q1412.5,407.7158 1413.0938,406.6221 Q1413.7031,405.5283 1414.75,404.9502 Q1415.8125,404.3564 1417,404.3564 Q1417.7188,404.3564 1418.3438,404.6064 Q1418.9688,404.8564 1419.5,405.3564 Z " fill="#000000"/><text fill="#000000" font-family="sans-serif" font-size="12" lengthAdjust="spacing" textLength="52" x="1431.5" y="413.7666">SNSUser</text><line style="stroke:#A80036;stroke-width:1.5;" x1="1403.5" x2="1485.5" y1="424.8564" y2="424.8564"/><text fill="#000000" font-family="sans-serif" font-size="11" lengthAdjust="spacing" textLength="55" x="1422.5" y="440.2754">snsNumber</text><text fill="#000000" font-family="sans-serif" font-size="11" lengthAdjust="spacing" textLength="26" x="1422.5" y="454.1113">name</text><text fill="#000000" font-family="sans-serif" font-size="11" lengthAdjust="spacing" textLength="18" x="1422.5" y="467.9473">age</text><text fill="#000000" font-family="sans-serif" font-size="11" lengthAdjust="spacing" textLength="51" x="1422.5" y="481.7832">phoneNum</text><text fill="#000000" font-family="sans-serif" font-size="11" lengthAdjust="spacing" textLength="24" x="1422.5" y="495.6191">email</text><!--MD5=[896d2519f405e74f6898b5ee922ef4fe]
class UserVaccines--><rect codeLine="62" fill="#FEFECE" filter="url(#fjd5g4k2b4qqj)" height="40" id="UserVaccines" style="stroke:#A80036;stroke-width:1.5;" width="109" x="1611" y="337.3564"/><ellipse cx="1626" cy="353.3564" fill="#ADD1B2" rx="11" ry="11" style="stroke:#A80036;stroke-width:1.0;"/><path d="M1628,349.8564 Q1628.2031,349.3564 1628.4375,349.1064 Q1628.6719,348.8564 1628.9375,348.8564 Q1629.4063,348.8564 1629.7031,349.1377 Q1630,349.4189 1630,350.0752 L1630,351.6377 Q1630,352.2939 1629.7188,352.5752 Q1629.4375,352.8564 1629,352.8564 Q1628.6094,352.8564 1628.3594,352.6846 Q1628.1094,352.5127 1628,352.0596 Q1627.9531,351.7471 1627.7813,351.5752 Q1627.4688,351.2471 1626.9063,351.0596 Q1626.3438,350.8564 1625.7813,350.8564 Q1625.0781,350.8564 1624.4844,351.1377 Q1623.9063,351.4189 1623.4531,352.0439 Q1623,352.6689 1623,353.5283 L1623,354.4502 Q1623,355.4814 1623.8438,356.1689 Q1624.6875,356.8564 1626.1875,356.8564 Q1627.0781,356.8564 1627.7031,356.6533 Q1628.0625,356.5439 1628.4688,356.1846 Q1628.7344,355.9814 1628.875,355.9189 Q1629.0156,355.8564 1629.1875,355.8564 Q1629.5156,355.8564 1629.75,356.1221 Q1630,356.3721 1630,356.7314 Q1630,357.0752 1629.6563,357.4814 Q1629.1563,358.0752 1628.3594,358.4033 Q1627.3125,358.8564 1626.0313,358.8564 Q1624.5313,358.8564 1623.3281,358.2627 Q1622.3594,357.7939 1621.6719,356.7783 Q1621,355.7627 1621,354.5596 L1621,353.4658 Q1621,352.2158 1621.5938,351.1221 Q1622.2031,350.0283 1623.25,349.4502 Q1624.3125,348.8564 1625.5,348.8564 Q1626.2188,348.8564 1626.8438,349.1064 Q1627.4688,349.3564 1628,349.8564 Z " fill="#000000"/><text fill="#000000" font-family="sans-serif" font-size="12" lengthAdjust="spacing" textLength="77" x="1640" y="358.2666">UserVaccines</text><line style="stroke:#A80036;stroke-width:1.5;" x1="1612" x2="1719" y1="369.3564" y2="369.3564"/><!--MD5=[0e501da62322464167c8ec4d233a6b7e]
class VaccineType--><rect codeLine="68" fill="#FEFECE" filter="url(#fjd5g4k2b4qqj)" height="53.8359" id="VaccineType" style="stroke:#A80036;stroke-width:1.5;" width="101" x="907.5" y="769.3564"/><ellipse cx="922.5" cy="785.3564" fill="#ADD1B2" rx="11" ry="11" style="stroke:#A80036;stroke-width:1.0;"/><path d="M924.5,781.8564 Q924.7031,781.3564 924.9375,781.1064 Q925.1719,780.8564 925.4375,780.8564 Q925.9063,780.8564 926.2031,781.1377 Q926.5,781.4189 926.5,782.0752 L926.5,783.6377 Q926.5,784.2939 926.2188,784.5752 Q925.9375,784.8564 925.5,784.8564 Q925.1094,784.8564 924.8594,784.6846 Q924.6094,784.5127 924.5,784.0596 Q924.4531,783.7471 924.2813,783.5752 Q923.9688,783.2471 923.4063,783.0596 Q922.8438,782.8564 922.2813,782.8564 Q921.5781,782.8564 920.9844,783.1377 Q920.4063,783.4189 919.9531,784.0439 Q919.5,784.6689 919.5,785.5283 L919.5,786.4502 Q919.5,787.4814 920.3438,788.1689 Q921.1875,788.8564 922.6875,788.8564 Q923.5781,788.8564 924.2031,788.6533 Q924.5625,788.5439 924.9688,788.1846 Q925.2344,787.9814 925.375,787.9189 Q925.5156,787.8564 925.6875,787.8564 Q926.0156,787.8564 926.25,788.1221 Q926.5,788.3721 926.5,788.7314 Q926.5,789.0752 926.1563,789.4814 Q925.6563,790.0752 924.8594,790.4033 Q923.8125,790.8564 922.5313,790.8564 Q921.0313,790.8564 919.8281,790.2627 Q918.8594,789.7939 918.1719,788.7783 Q917.5,787.7627 917.5,786.5596 L917.5,785.4658 Q917.5,784.2158 918.0938,783.1221 Q918.7031,782.0283 919.75,781.4502 Q920.8125,780.8564 922,780.8564 Q922.7188,780.8564 923.3438,781.1064 Q923.9688,781.3564 924.5,781.8564 Z " fill="#000000"/><text fill="#000000" font-family="sans-serif" font-size="12" lengthAdjust="spacing" textLength="69" x="936.5" y="790.2666">VaccineType</text><line style="stroke:#A80036;stroke-width:1.5;" x1="908.5" x2="1007.5" y1="801.3564" y2="801.3564"/><text fill="#000000" font-family="sans-serif" font-size="11" lengthAdjust="spacing" textLength="38" x="927.5" y="816.7754">disease</text><!--MD5=[19e445fc4d3b48519cbe33da05496394]
class Vaccine--><rect codeLine="73" fill="#FEFECE" filter="url(#fjd5g4k2b4qqj)" height="67.6719" id="Vaccine" style="stroke:#A80036;stroke-width:1.5;" width="75" x="363" y="623.3564"/><ellipse cx="378" cy="639.3564" fill="#ADD1B2" rx="11" ry="11" style="stroke:#A80036;stroke-width:1.0;"/><path d="M380,635.8564 Q380.2031,635.3564 380.4375,635.1064 Q380.6719,634.8564 380.9375,634.8564 Q381.4063,634.8564 381.7031,635.1377 Q382,635.4189 382,636.0752 L382,637.6377 Q382,638.2939 381.7188,638.5752 Q381.4375,638.8564 381,638.8564 Q380.6094,638.8564 380.3594,638.6846 Q380.1094,638.5127 380,638.0596 Q379.9531,637.7471 379.7813,637.5752 Q379.4688,637.2471 378.9063,637.0596 Q378.3438,636.8564 377.7813,636.8564 Q377.0781,636.8564 376.4844,637.1377 Q375.9063,637.4189 375.4531,638.0439 Q375,638.6689 375,639.5283 L375,640.4502 Q375,641.4814 375.8438,642.1689 Q376.6875,642.8564 378.1875,642.8564 Q379.0781,642.8564 379.7031,642.6533 Q380.0625,642.5439 380.4688,642.1846 Q380.7344,641.9814 380.875,641.9189 Q381.0156,641.8564 381.1875,641.8564 Q381.5156,641.8564 381.75,642.1221 Q382,642.3721 382,642.7314 Q382,643.0752 381.6563,643.4814 Q381.1563,644.0752 380.3594,644.4033 Q379.3125,644.8564 378.0313,644.8564 Q376.5313,644.8564 375.3281,644.2627 Q374.3594,643.7939 373.6719,642.7783 Q373,641.7627 373,640.5596 L373,639.4658 Q373,638.2158 373.5938,637.1221 Q374.2031,636.0283 375.25,635.4502 Q376.3125,634.8564 377.5,634.8564 Q378.2188,634.8564 378.8438,635.1064 Q379.4688,635.3564 380,635.8564 Z " fill="#000000"/><text fill="#000000" font-family="sans-serif" font-size="12" lengthAdjust="spacing" textLength="43" x="392" y="644.2666">Vaccine</text><line style="stroke:#A80036;stroke-width:1.5;" x1="364" x2="437" y1="655.3564" y2="655.3564"/><text fill="#000000" font-family="sans-serif" font-size="11" lengthAdjust="spacing" textLength="26" x="383" y="670.7754">name</text><text fill="#000000" font-family="sans-serif" font-size="11" lengthAdjust="spacing" textLength="32" x="383" y="684.6113">lotNum</text><!--MD5=[f1aa797bbb856f196dbabe5d61960c3a]
class VaccinationProcess--><rect codeLine="79" fill="#FEFECE" filter="url(#fjd5g4k2b4qqj)" height="53.8359" id="VaccinationProcess" style="stroke:#A80036;stroke-width:1.5;" width="141" x="1374" y="234.3564"/><ellipse cx="1389" cy="250.3564" fill="#ADD1B2" rx="11" ry="11" style="stroke:#A80036;stroke-width:1.0;"/><path d="M1391,246.8564 Q1391.2031,246.3564 1391.4375,246.1064 Q1391.6719,245.8564 1391.9375,245.8564 Q1392.4063,245.8564 1392.7031,246.1377 Q1393,246.4189 1393,247.0752 L1393,248.6377 Q1393,249.2939 1392.7188,249.5752 Q1392.4375,249.8564 1392,249.8564 Q1391.6094,249.8564 1391.3594,249.6846 Q1391.1094,249.5127 1391,249.0596 Q1390.9531,248.7471 1390.7813,248.5752 Q1390.4688,248.2471 1389.9063,248.0596 Q1389.3438,247.8564 1388.7813,247.8564 Q1388.0781,247.8564 1387.4844,248.1377 Q1386.9063,248.4189 1386.4531,249.0439 Q1386,249.6689 1386,250.5283 L1386,251.4502 Q1386,252.4814 1386.8438,253.1689 Q1387.6875,253.8564 1389.1875,253.8564 Q1390.0781,253.8564 1390.7031,253.6533 Q1391.0625,253.5439 1391.4688,253.1846 Q1391.7344,252.9814 1391.875,252.9189 Q1392.0156,252.8564 1392.1875,252.8564 Q1392.5156,252.8564 1392.75,253.1221 Q1393,253.3721 1393,253.7314 Q1393,254.0752 1392.6563,254.4814 Q1392.1563,255.0752 1391.3594,255.4033 Q1390.3125,255.8564 1389.0313,255.8564 Q1387.5313,255.8564 1386.3281,255.2627 Q1385.3594,254.7939 1384.6719,253.7783 Q1384,252.7627 1384,251.5596 L1384,250.4658 Q1384,249.2158 1384.5938,248.1221 Q1385.2031,247.0283 1386.25,246.4502 Q1387.3125,245.8564 1388.5,245.8564 Q1389.2188,245.8564 1389.8438,246.1064 Q1390.4688,246.3564 1391,246.8564 Z " fill="#000000"/><text fill="#000000" font-family="sans-serif" font-size="12" lengthAdjust="spacing" textLength="109" x="1403" y="255.2666">VaccinationProcess</text><line style="stroke:#A80036;stroke-width:1.5;" x1="1375" x2="1514" y1="266.3564" y2="266.3564"/><text fill="#000000" font-family="sans-serif" font-size="11" lengthAdjust="spacing" textLength="74" x="1394" y="281.7754">recoveryPeriod</text><!--MD5=[c59c99efa75f30327e326596f335a568]
class AgeGroup--><rect codeLine="83" fill="#FEFECE" filter="url(#fjd5g4k2b4qqj)" height="67.6719" id="AgeGroup" style="stroke:#A80036;stroke-width:1.5;" width="87" x="1622" y="227.3564"/><ellipse cx="1637" cy="243.3564" fill="#ADD1B2" rx="11" ry="11" style="stroke:#A80036;stroke-width:1.0;"/><path d="M1639,239.8564 Q1639.2031,239.3564 1639.4375,239.1064 Q1639.6719,238.8564 1639.9375,238.8564 Q1640.4063,238.8564 1640.7031,239.1377 Q1641,239.4189 1641,240.0752 L1641,241.6377 Q1641,242.2939 1640.7188,242.5752 Q1640.4375,242.8564 1640,242.8564 Q1639.6094,242.8564 1639.3594,242.6846 Q1639.1094,242.5127 1639,242.0596 Q1638.9531,241.7471 1638.7813,241.5752 Q1638.4688,241.2471 1637.9063,241.0596 Q1637.3438,240.8564 1636.7813,240.8564 Q1636.0781,240.8564 1635.4844,241.1377 Q1634.9063,241.4189 1634.4531,242.0439 Q1634,242.6689 1634,243.5283 L1634,244.4502 Q1634,245.4814 1634.8438,246.1689 Q1635.6875,246.8564 1637.1875,246.8564 Q1638.0781,246.8564 1638.7031,246.6533 Q1639.0625,246.5439 1639.4688,246.1846 Q1639.7344,245.9814 1639.875,245.9189 Q1640.0156,245.8564 1640.1875,245.8564 Q1640.5156,245.8564 1640.75,246.1221 Q1641,246.3721 1641,246.7314 Q1641,247.0752 1640.6563,247.4814 Q1640.1563,248.0752 1639.3594,248.4033 Q1638.3125,248.8564 1637.0313,248.8564 Q1635.5313,248.8564 1634.3281,248.2627 Q1633.3594,247.7939 1632.6719,246.7783 Q1632,245.7627 1632,244.5596 L1632,243.4658 Q1632,242.2158 1632.5938,241.1221 Q1633.2031,240.0283 1634.25,239.4502 Q1635.3125,238.8564 1636.5,238.8564 Q1637.2188,238.8564 1637.8438,239.1064 Q1638.4688,239.3564 1639,239.8564 Z " fill="#000000"/><text fill="#000000" font-family="sans-serif" font-size="12" lengthAdjust="spacing" textLength="55" x="1651" y="248.2666">AgeGroup</text><line style="stroke:#A80036;stroke-width:1.5;" x1="1623" x2="1708" y1="259.3564" y2="259.3564"/><text fill="#000000" font-family="sans-serif" font-size="11" lengthAdjust="spacing" textLength="36" x="1642" y="274.7754">minAge</text><text fill="#000000" font-family="sans-serif" font-size="11" lengthAdjust="spacing" textLength="40" x="1642" y="288.6113">maxAge</text><!--MD5=[03e3bb7aef77bf14822eb3fb6d15ab17]
class Dose--><rect codeLine="87" fill="#FEFECE" filter="url(#fjd5g4k2b4qqj)" height="67.6719" id="Dose" style="stroke:#A80036;stroke-width:1.5;" width="87" x="1976" y="227.3564"/><ellipse cx="2002.25" cy="243.3564" fill="#ADD1B2" rx="11" ry="11" style="stroke:#A80036;stroke-width:1.0;"/><path d="M2004.25,239.8564 Q2004.4531,239.3564 2004.6875,239.1064 Q2004.9219,238.8564 2005.1875,238.8564 Q2005.6563,238.8564 2005.9531,239.1377 Q2006.25,239.4189 2006.25,240.0752 L2006.25,241.6377 Q2006.25,242.2939 2005.9688,242.5752 Q2005.6875,242.8564 2005.25,242.8564 Q2004.8594,242.8564 2004.6094,242.6846 Q2004.3594,242.5127 2004.25,242.0596 Q2004.2031,241.7471 2004.0313,241.5752 Q2003.7188,241.2471 2003.1563,241.0596 Q2002.5938,240.8564 2002.0313,240.8564 Q2001.3281,240.8564 2000.7344,241.1377 Q2000.1563,241.4189 1999.7031,242.0439 Q1999.25,242.6689 1999.25,243.5283 L1999.25,244.4502 Q1999.25,245.4814 2000.0938,246.1689 Q2000.9375,246.8564 2002.4375,246.8564 Q2003.3281,246.8564 2003.9531,246.6533 Q2004.3125,246.5439 2004.7188,246.1846 Q2004.9844,245.9814 2005.125,245.9189 Q2005.2656,245.8564 2005.4375,245.8564 Q2005.7656,245.8564 2006,246.1221 Q2006.25,246.3721 2006.25,246.7314 Q2006.25,247.0752 2005.9063,247.4814 Q2005.4063,248.0752 2004.6094,248.4033 Q2003.5625,248.8564 2002.2813,248.8564 Q2000.7813,248.8564 1999.5781,248.2627 Q1998.6094,247.7939 1997.9219,246.7783 Q1997.25,245.7627 1997.25,244.5596 L1997.25,243.4658 Q1997.25,242.2158 1997.8438,241.1221 Q1998.4531,240.0283 1999.5,239.4502 Q2000.5625,238.8564 2001.75,238.8564 Q2002.4688,238.8564 2003.0938,239.1064 Q2003.7188,239.3564 2004.25,239.8564 Z " fill="#000000"/><text fill="#000000" font-family="sans-serif" font-size="12" lengthAdjust="spacing" textLength="30" x="2018.75" y="248.2666">Dose</text><line style="stroke:#A80036;stroke-width:1.5;" x1="1977" x2="2062" y1="259.3564" y2="259.3564"/><text fill="#000000" font-family="sans-serif" font-size="11" lengthAdjust="spacing" textLength="61" x="1996" y="274.7754">doseNumber</text><text fill="#000000" font-family="sans-serif" font-size="11" lengthAdjust="spacing" textLength="36" x="1996" y="288.6113">dosage</text><!--MD5=[4bec8ac568776347aae0f1471b21fd4f]
class TimeInterval--><rect codeLine="92" fill="#FEFECE" filter="url(#fjd5g4k2b4qqj)" height="53.8359" id="TimeInterval" style="stroke:#A80036;stroke-width:1.5;" width="99" x="1816" y="298.3564"/><ellipse cx="1831" cy="314.3564" fill="#ADD1B2" rx="11" ry="11" style="stroke:#A80036;stroke-width:1.0;"/><path d="M1833,310.8564 Q1833.2031,310.3564 1833.4375,310.1064 Q1833.6719,309.8564 1833.9375,309.8564 Q1834.4063,309.8564 1834.7031,310.1377 Q1835,310.4189 1835,311.0752 L1835,312.6377 Q1835,313.2939 1834.7188,313.5752 Q1834.4375,313.8564 1834,313.8564 Q1833.6094,313.8564 1833.3594,313.6846 Q1833.1094,313.5127 1833,313.0596 Q1832.9531,312.7471 1832.7813,312.5752 Q1832.4688,312.2471 1831.9063,312.0596 Q1831.3438,311.8564 1830.7813,311.8564 Q1830.0781,311.8564 1829.4844,312.1377 Q1828.9063,312.4189 1828.4531,313.0439 Q1828,313.6689 1828,314.5283 L1828,315.4502 Q1828,316.4814 1828.8438,317.1689 Q1829.6875,317.8564 1831.1875,317.8564 Q1832.0781,317.8564 1832.7031,317.6533 Q1833.0625,317.5439 1833.4688,317.1846 Q1833.7344,316.9814 1833.875,316.9189 Q1834.0156,316.8564 1834.1875,316.8564 Q1834.5156,316.8564 1834.75,317.1221 Q1835,317.3721 1835,317.7314 Q1835,318.0752 1834.6563,318.4814 Q1834.1563,319.0752 1833.3594,319.4033 Q1832.3125,319.8564 1831.0313,319.8564 Q1829.5313,319.8564 1828.3281,319.2627 Q1827.3594,318.7939 1826.6719,317.7783 Q1826,316.7627 1826,315.5596 L1826,314.4658 Q1826,313.2158 1826.5938,312.1221 Q1827.2031,311.0283 1828.25,310.4502 Q1829.3125,309.8564 1830.5,309.8564 Q1831.2188,309.8564 1831.8438,310.1064 Q1832.4688,310.3564 1833,310.8564 Z " fill="#000000"/><text fill="#000000" font-family="sans-serif" font-size="12" lengthAdjust="spacing" textLength="67" x="1845" y="319.2666">TimeInterval</text><line style="stroke:#A80036;stroke-width:1.5;" x1="1817" x2="1914" y1="330.3564" y2="330.3564"/><text fill="#000000" font-family="sans-serif" font-size="11" lengthAdjust="spacing" textLength="45" x="1836" y="345.7754">numDays</text><!--MD5=[aaa7e27c4ec43917c82a021675d2c87a]
class WaitingRoom--><rect fill="#FEFECE" filter="url(#fjd5g4k2b4qqj)" height="40" id="WaitingRoom" style="stroke:#A80036;stroke-width:1.5;" width="107" x="1142" y="427.3564"/><ellipse cx="1157" cy="443.3564" fill="#ADD1B2" rx="11" ry="11" style="stroke:#A80036;stroke-width:1.0;"/><path d="M1159,439.8564 Q1159.2031,439.3564 1159.4375,439.1064 Q1159.6719,438.8564 1159.9375,438.8564 Q1160.4063,438.8564 1160.7031,439.1377 Q1161,439.4189 1161,440.0752 L1161,441.6377 Q1161,442.2939 1160.7188,442.5752 Q1160.4375,442.8564 1160,442.8564 Q1159.6094,442.8564 1159.3594,442.6846 Q1159.1094,442.5127 1159,442.0596 Q1158.9531,441.7471 1158.7813,441.5752 Q1158.4688,441.2471 1157.9063,441.0596 Q1157.3438,440.8564 1156.7813,440.8564 Q1156.0781,440.8564 1155.4844,441.1377 Q1154.9063,441.4189 1154.4531,442.0439 Q1154,442.6689 1154,443.5283 L1154,444.4502 Q1154,445.4814 1154.8438,446.1689 Q1155.6875,446.8564 1157.1875,446.8564 Q1158.0781,446.8564 1158.7031,446.6533 Q1159.0625,446.5439 1159.4688,446.1846 Q1159.7344,445.9814 1159.875,445.9189 Q1160.0156,445.8564 1160.1875,445.8564 Q1160.5156,445.8564 1160.75,446.1221 Q1161,446.3721 1161,446.7314 Q1161,447.0752 1160.6563,447.4814 Q1160.1563,448.0752 1159.3594,448.4033 Q1158.3125,448.8564 1157.0313,448.8564 Q1155.5313,448.8564 1154.3281,448.2627 Q1153.3594,447.7939 1152.6719,446.7783 Q1152,445.7627 1152,444.5596 L1152,443.4658 Q1152,442.2158 1152.5938,441.1221 Q1153.2031,440.0283 1154.25,439.4502 Q1155.3125,438.8564 1156.5,438.8564 Q1157.2188,438.8564 1157.8438,439.1064 Q1158.4688,439.3564 1159,439.8564 Z " fill="#000000"/><text fill="#000000" font-family="sans-serif" font-size="12" lengthAdjust="spacing" textLength="75" x="1171" y="448.2666">WaitingRoom</text><line style="stroke:#A80036;stroke-width:1.5;" x1="1143" x2="1248" y1="459.3564" y2="459.3564"/><ellipse cx="1865.5" cy="261.3564" fill="#000000" rx="2" ry="2" style="stroke:none;stroke-width:1.0;"/><!--MD5=[09366576ee87d48d594df10cacc83f45]
link Company to Employee--><path codeLine="96" d="M74.62,409.3564 C89.43,389.6764 114.35,359.9464 142,341.3564 C171.93,321.2364 210.38,307.2864 239.95,298.6164 " fill="none" id="Company-Employee" style="stroke:#A80036;stroke-width:1.0;"/><polygon fill="#000000" points="167.1542,296.7497,158.0036,299.3416,161.2747,304.2251,167.1542,296.7497" style="stroke:#000000;stroke-width:1.0;"/><text fill="#000000" font-family="sans-serif" font-size="13" lengthAdjust="spacing" textLength="21" x="172" y="304.8516">has</text><text fill="#000000" font-family="sans-serif" font-size="13" lengthAdjust="spacing" textLength="7" x="71.1786" y="398.3304">1</text><text fill="#000000" font-family="sans-serif" font-size="13" lengthAdjust="spacing" textLength="5" x="227.1327" y="315.2484">*</text><!--MD5=[1a8aa2b864b87f860d28abceaa28b7a5]
link Company to SNSUser--><path codeLine="97" d="M61.85,409.3564 C68.59,327.2364 105.79,20.3564 285.5,20.3564 C285.5,20.3564 285.5,20.3564 629,20.3564 C794.92,20.3564 1220.54,124.5164 1344,235.3564 C1369.49,258.2364 1359.75,275.2064 1374,306.3564 C1387.16,335.1464 1402.67,366.7964 1415.69,392.8064 " fill="none" id="Company-SNSUser" style="stroke:#A80036;stroke-width:1.0;"/><polygon fill="#000000" points="720.9996,15.4711,711.9193,12.643,711.9911,18.5204,720.9996,15.4711" style="stroke:#000000;stroke-width:1.0;"/><text fill="#000000" font-family="sans-serif" font-size="13" lengthAdjust="spacing" textLength="21" x="725" y="20.8516">has</text><text fill="#000000" font-family="sans-serif" font-size="13" lengthAdjust="spacing" textLength="7" x="54.4978" y="398.3304">1</text><text fill="#000000" font-family="sans-serif" font-size="13" lengthAdjust="spacing" textLength="5" x="1406.4827" y="381.908">*</text><!--MD5=[05986564e1c13a00611587b35563d868]
link Company to VaccineType--><path codeLine="98" d="M74.02,449.7164 C89.28,472.0464 115.47,508.4164 142,536.3564 C227.89,626.8164 250.23,656.0364 363,709.3564 C549.09,797.3464 801.59,801.3564 907.27,798.5864 " fill="none" id="Company-VaccineType" style="stroke:#A80036;stroke-width:1.0;"/><polygon fill="#000000" points="510.1121,742.4632,502.9038,736.2591,500.6337,741.6809,510.1121,742.4632" style="stroke:#000000;stroke-width:1.0;"/><text fill="#000000" font-family="sans-serif" font-size="13" lengthAdjust="spacing" textLength="21" x="514.5" y="745.8516">has</text><text fill="#000000" font-family="sans-serif" font-size="13" lengthAdjust="spacing" textLength="7" x="69.9816" y="470.8806">1</text><text fill="#000000" font-family="sans-serif" font-size="13" lengthAdjust="spacing" textLength="5" x="894.4518" y="813.622">*</text><!--MD5=[c29c8d42883934cbaf5793c72a334947]
link Company to Vaccine--><path codeLine="99" d="M90.29,449.3864 C152.33,491.1164 295.24,587.2364 362.82,632.6864 " fill="none" id="Company-Vaccine" style="stroke:#A80036;stroke-width:1.0;"/><polygon fill="#000000" points="167.1489,480.3227,161.2837,472.836,158.0033,477.7133,167.1489,480.3227" style="stroke:#000000;stroke-width:1.0;"/><text fill="#000000" font-family="sans-serif" font-size="13" lengthAdjust="spacing" textLength="21" x="172" y="482.8516">has</text><text fill="#000000" font-family="sans-serif" font-size="13" lengthAdjust="spacing" textLength="7" x="90.9653" y="470.8144">1</text><text fill="#000000" font-family="sans-serif" font-size="13" lengthAdjust="spacing" textLength="5" x="349.9096" y="642.9666">*</text><!--MD5=[eebe9b198877275d05dd12630ed9e401]
link Company to VaccinationCenter--><path codeLine="100" d="M102.04,428.9764 C221.06,428.4364 573.28,430.6764 862,471.3564 C871.72,472.7264 881.92,474.6064 891.87,476.6864 " fill="none" id="Company-VaccinationCenter" style="stroke:#A80036;stroke-width:1.0;"/><polygon fill="#000000" points="510.4909,427.8337,501.6395,424.3547,501.2851,430.2219,510.4909,427.8337" style="stroke:#000000;stroke-width:1.0;"/><text fill="#000000" font-family="sans-serif" font-size="13" lengthAdjust="spacing" textLength="21" x="514.5" y="432.8516">has</text><text fill="#000000" font-family="sans-serif" font-size="13" lengthAdjust="spacing" textLength="7" x="109.9531" y="443.8115">1</text><text fill="#000000" font-family="sans-serif" font-size="13" lengthAdjust="spacing" textLength="5" x="878.9347" y="471.3381">*</text><!--MD5=[b71b66caf67976638439c0d1a3790473]
link Employee to Nurse--><path codeLine="102" d="M314.43,246.2864 C352.7,193.4464 428.19,108.3564 517.5,108.3564 C517.5,108.3564 517.5,108.3564 959,108.3564 C1031.74,108.3564 1116.83,100.6664 1162.17,95.9464 " fill="none" id="Employee-Nurse" style="stroke:#A80036;stroke-width:1.0;"/><polygon fill="#000000" points="716.5768,100.4053,725.9961,101.7197,724.9697,95.9321,716.5768,100.4053" style="stroke:#000000;stroke-width:1.0;"/><text fill="#000000" font-family="sans-serif" font-size="13" lengthAdjust="spacing" textLength="10" x="730.5" y="104.8516">is</text><text fill="#000000" font-family="sans-serif" font-size="13" lengthAdjust="spacing" textLength="7" x="311.6289" y="235.4202">1</text><text fill="#000000" font-family="sans-serif" font-size="13" lengthAdjust="spacing" textLength="7" x="1147.5738" y="111.8683">1</text><!--MD5=[1da12df22706e73e1def33b218b7f412]
link Employee to Receptionist--><path codeLine="103" d="M333.22,314.3864 C342.82,319.2564 353.06,323.8764 363,327.3564 C397.01,339.2464 437.02,346.5864 467.81,350.9064 " fill="none" id="Employee-Receptionist" style="stroke:#A80036;stroke-width:1.0;"/><polygon fill="#000000" points="388.1745,317.2229,396.1343,322.4279,397.6735,316.7552,388.1745,317.2229" style="stroke:#000000;stroke-width:1.0;"/><text fill="#000000" font-family="sans-serif" font-size="13" lengthAdjust="spacing" textLength="10" x="402" y="323.8516">is</text><text fill="#000000" font-family="sans-serif" font-size="13" lengthAdjust="spacing" textLength="7" x="340.9099" y="333.3101">1</text><text fill="#000000" font-family="sans-serif" font-size="13" lengthAdjust="spacing" textLength="7" x="452.8508" y="364.8019">1</text><!--MD5=[d8cf155570c2fc8069691ea2f7bdb19f]
link Employee to Coordinator--><path codeLine="104" d="M333.41,257.3064 C378.4,230.7964 449.87,196.3564 517.5,196.3564 C517.5,196.3564 517.5,196.3564 959,196.3564 C1027.5,196.3564 1103.3,222.2264 1149.92,241.3264 " fill="none" id="Employee-Coordinator" style="stroke:#A80036;stroke-width:1.0;"/><polygon fill="#000000" points="716.501,187.6301,725.6018,190.3914,725.4868,184.5147,716.501,187.6301" style="stroke:#000000;stroke-width:1.0;"/><text fill="#000000" font-family="sans-serif" font-size="13" lengthAdjust="spacing" textLength="10" x="730.5" y="192.8516">is</text><text fill="#000000" font-family="sans-serif" font-size="13" lengthAdjust="spacing" textLength="7" x="341.129" y="267.4898">1</text><text fill="#000000" font-family="sans-serif" font-size="13" lengthAdjust="spacing" textLength="7" x="1132.1838" y="232.7285">1</text><!--MD5=[8f7dd94d56b58fc07b233ccd3dd98f8c]
link Administrator to Employee--><path codeLine="105" d="M63.76,779.2064 C72.18,730.2464 97.14,601.8164 142,503.3564 C171.77,438.0064 220.15,370.2464 252.39,328.4364 " fill="none" id="Administrator-Employee" style="stroke:#A80036;stroke-width:1.0;"/><polygon fill="#000000" points="148.9301,373.9198,142.7274,381.1293,148.1496,383.3983,148.9301,373.9198" style="stroke:#000000;stroke-width:1.0;"/><text fill="#000000" font-family="sans-serif" font-size="13" lengthAdjust="spacing" textLength="53" x="156" y="383.8516">Manages</text><text fill="#000000" font-family="sans-serif" font-size="13" lengthAdjust="spacing" textLength="7" x="56.9833" y="768.4841">1</text><text fill="#000000" font-family="sans-serif" font-size="13" lengthAdjust="spacing" textLength="5" x="241.7841" y="349.5115">*</text><!--MD5=[7454cd36f47ee2c1597ee5b79ae5e9ce]
link Employee to VaccinationCenter--><path codeLine="107" d="M333.01,283.0864 C453.02,272.6964 774.87,250.8864 862,306.3564 C894.56,327.0864 916.45,362.7064 930.91,397.3364 " fill="none" id="Employee-VaccinationCenter" style="stroke:#A80036;stroke-width:1.0;"/><polygon fill="#000000" points="610.0889,259.5938,618.4216,264.1781,619.5248,258.4047,610.0889,259.5938" style="stroke:#000000;stroke-width:1.0;"/><text fill="#000000" font-family="sans-serif" font-size="13" lengthAdjust="spacing" textLength="21" x="624" y="265.8516">has</text><text fill="#000000" font-family="sans-serif" font-size="13" lengthAdjust="spacing" textLength="5" x="341.1273" y="297.2692">*</text><text fill="#000000" font-family="sans-serif" font-size="13" lengthAdjust="spacing" textLength="5" x="923.552" y="386.5487">*</text><!--MD5=[2dda88ea48bea0f07bb8366b69b533a8]
link Nurse to VaccinationProcess--><path codeLine="109" d="M1228.61,99.1264 C1260.06,106.8564 1308.32,121.7264 1344,146.3564 C1378.33,170.0564 1408.18,208.3064 1426.01,234.1164 " fill="none" id="Nurse-VaccinationProcess" style="stroke:#A80036;stroke-width:1.0;"/><polygon fill="#000000" points="1290.1272,109.3546,1284.3199,101.8229,1281.002,106.6748,1290.1272,109.3546" style="stroke:#000000;stroke-width:1.0;"/><text fill="#000000" font-family="sans-serif" font-size="13" lengthAdjust="spacing" textLength="46" x="1295" y="111.8516">updates</text><text fill="#000000" font-family="sans-serif" font-size="13" lengthAdjust="spacing" textLength="5" x="1236.3997" y="115.891">*</text><text fill="#000000" font-family="sans-serif" font-size="13" lengthAdjust="spacing" textLength="7" x="1413.9248" y="223.5219">1</text><!--MD5=[272b9249dfcf4e6b13835005ea9fca0d]
link Nurse to UserVaccines--><path codeLine="110" d="M1228.55,86.3964 C1258.9,81.9864 1305.43,78.4264 1344,89.3564 C1463.03,123.0764 1501.97,140.1664 1581,235.3564 C1604.73,263.9364 1589.27,283.2364 1611,313.3564 C1617.4,322.2364 1626.01,330.3564 1634.45,337.1464 " fill="none" id="Nurse-UserVaccines" style="stroke:#A80036;stroke-width:1.0;"/><polygon fill="#000000" points="1423.2538,92.16,1417.1032,84.906,1414.014,89.9066,1423.2538,92.16" style="stroke:#000000;stroke-width:1.0;"/><text fill="#000000" font-family="sans-serif" font-size="13" lengthAdjust="spacing" textLength="46" x="1428" y="94.8516">updates</text><text fill="#000000" font-family="sans-serif" font-size="13" lengthAdjust="spacing" textLength="7" x="1236.5453" y="80.8763">1</text><text fill="#000000" font-family="sans-serif" font-size="13" lengthAdjust="spacing" textLength="5" x="1619.5947" y="326.4065">*</text><!--MD5=[120e6d7c8a557e6251338e72fb523695]
link Receptionist to WaitingRoom--><path codeLine="112" d="M569.22,345.3064 C674.33,324.4464 924.82,287.9764 1112,366.3564 C1141.81,378.8364 1166.75,407.6564 1181.16,427.3264 " fill="none" id="Receptionist-WaitingRoom" style="stroke:#A80036;stroke-width:1.0;"/><polygon fill="#000000" points="810.9557,310.1965,802.3812,306.082,801.6003,311.9077,810.9557,310.1965" style="stroke:#000000;stroke-width:1.0;"/><text fill="#000000" font-family="sans-serif" font-size="13" lengthAdjust="spacing" textLength="46" x="815" y="314.8516">updates</text><text fill="#000000" font-family="sans-serif" font-size="13" lengthAdjust="spacing" textLength="7" x="576.8447" y="358.3974">1</text><text fill="#000000" font-family="sans-serif" font-size="13" lengthAdjust="spacing" textLength="7" x="1168.9195" y="416.6394">1</text><!--MD5=[1dfd2b8cef5257ed6efd914f274c3279]
link WaitingRoom to SNSUser--><path codeLine="113" d="M1249.18,447.3564 C1294.95,447.3564 1360.31,447.3564 1402.32,447.3564 " fill="none" id="WaitingRoom-SNSUser" style="stroke:#A80036;stroke-width:1.0;"/><polygon fill="#000000" points="1303.5,438.5322,1294.4549,435.5933,1294.4549,441.4712,1303.5,438.5322" style="stroke:#000000;stroke-width:1.0;"/><text fill="#000000" font-family="sans-serif" font-size="13" lengthAdjust="spacing" textLength="21" x="1307.5" y="443.8516">has</text><text fill="#000000" font-family="sans-serif" font-size="13" lengthAdjust="spacing" textLength="7" x="1256.8636" y="461.9502">1</text><text fill="#000000" font-family="sans-serif" font-size="13" lengthAdjust="spacing" textLength="5" x="1389.3614" y="462.2919">*</text><!--MD5=[ad53276a02bf0f65971002ced984ee45]
link Vaccine to VaccinationProcess--><path codeLine="115" d="M438.06,658.9664 C535.33,662.2964 807.74,665.3064 1024,607.3564 C1176.09,566.6064 1237.48,571.3064 1344,455.3564 C1369.69,427.3964 1357.38,409.4964 1374,375.3564 C1389.02,344.5164 1409.9,311.2264 1424.85,288.6364 " fill="none" id="Vaccine-VaccinationProcess" style="stroke:#A80036;stroke-width:1.0;"/><polygon fill="#000000" points="823.1812,628.7754,813.6802,629.202,815.7454,634.705,823.1812,628.7754" style="stroke:#000000;stroke-width:1.0;"/><text fill="#000000" font-family="sans-serif" font-size="13" lengthAdjust="spacing" textLength="21" x="827.5" y="635.8516">has</text><text fill="#000000" font-family="sans-serif" font-size="13" lengthAdjust="spacing" textLength="7" x="445.8871" y="655.3083">1</text><text fill="#000000" font-family="sans-serif" font-size="13" lengthAdjust="spacing" textLength="7" x="1412.7859" y="309.9055">1</text><!--MD5=[3568623adf67b2630dce9e60c05bd02a]
link Vaccine to VaccineType--><path codeLine="116" d="M438.09,672.7664 C447.72,676.5164 458.17,680.3164 468,683.3564 C625.96,732.1964 818.41,770.7164 907.44,787.3864 " fill="none" id="Vaccine-VaccineType" style="stroke:#A80036;stroke-width:1.0;"/><polygon fill="#000000" points="619.8573,712.7184,611.7676,707.7176,610.3732,713.4276,619.8573,712.7184" style="stroke:#000000;stroke-width:1.0;"/><text fill="#000000" font-family="sans-serif" font-size="13" lengthAdjust="spacing" textLength="21" x="624" y="716.8516">has</text><text fill="#000000" font-family="sans-serif" font-size="13" lengthAdjust="spacing" textLength="5" x="445.9827" y="690.9373">*</text><text fill="#000000" font-family="sans-serif" font-size="13" lengthAdjust="spacing" textLength="7" x="892.4999" y="782.427">1</text><!--MD5=[4043e158886bce18152cac1904b53f75]
link VaccinationProcess to AgeGroup--><path codeLine="117" d="M1515.09,261.3564 C1550.16,261.3564 1591.56,261.3564 1621.87,261.3564 " fill="none" id="VaccinationProcess-AgeGroup" style="stroke:#A80036;stroke-width:1.0;"/><polygon fill="#000000" points="1555,252.5322,1545.9549,249.5933,1545.9549,255.4712,1555,252.5322" style="stroke:#000000;stroke-width:1.0;"/><text fill="#000000" font-family="sans-serif" font-size="13" lengthAdjust="spacing" textLength="21" x="1559" y="257.8516">has</text><text fill="#000000" font-family="sans-serif" font-size="13" lengthAdjust="spacing" textLength="7" x="1523.1936" y="275.7548">1</text><text fill="#000000" font-family="sans-serif" font-size="13" lengthAdjust="spacing" textLength="5" x="1608.9414" y="276.285">*</text><!--MD5=[725334e48710368ac8d68413fd5f1fed]
link AgeGroup to apoint259--><path d="M1709.46,261.3564 C1764.06,261.3564 1852.55,261.3564 1863.4,261.3564 " fill="none" id="AgeGroup-apoint259" style="stroke:#A80036;stroke-width:1.0;"/><polygon fill="#000000" points="1760,252.5322,1750.9549,249.5933,1750.9549,255.4712,1760,252.5322" style="stroke:#000000;stroke-width:1.0;"/><text fill="#000000" font-family="sans-serif" font-size="13" lengthAdjust="spacing" textLength="21" x="1764" y="257.8516">has</text><text fill="#000000" font-family="sans-serif" font-size="13" lengthAdjust="spacing" textLength="7" x="1717.0239" y="276.1807">1</text><!--MD5=[3639543375317b8a05c09e3366fd7bc7]
link apoint259 to Dose--><path d="M1867.81,261.3564 C1877.19,261.3564 1934.7,261.3564 1975.89,261.3564 " fill="none" id="apoint259-Dose" style="stroke:#A80036;stroke-width:1.0;"/><text fill="#000000" font-family="sans-serif" font-size="13" lengthAdjust="spacing" textLength="5" x="1962.9648" y="276.285">*</text><!--MD5=[2822b3282bb4a64b9593691cd39f3eae]
link apoint259 to TimeInterval--><path d="M1865.5,263.6364 C1865.5,275.0464 1865.5,286.4464 1865.5,297.8564 " fill="none" id="apoint259-TimeInterval" style="stroke:#A80036;stroke-width:1.0;stroke-dasharray:7.0,7.0;"/><!--MD5=[de78e1efbcb885042a1719c3cec87a53]
link VaccinationCenter to WaitingRoom--><path codeLine="122" d="M1024.29,480.6064 C1061.31,473.3764 1107.04,464.4364 1141.77,457.6564 " fill="none" id="VaccinationCenter-WaitingRoom" style="stroke:#A80036;stroke-width:1.0;"/><polygon fill="#000000" points="1074.9072,453.5736,1065.4665,452.4234,1066.5934,458.1922,1074.9072,453.5736" style="stroke:#000000;stroke-width:1.0;"/><text fill="#000000" font-family="sans-serif" font-size="13" lengthAdjust="spacing" textLength="21" x="1079" y="459.8516">has</text><text fill="#000000" font-family="sans-serif" font-size="13" lengthAdjust="spacing" textLength="7" x="1031.9233" y="493.5906">1</text><text fill="#000000" font-family="sans-serif" font-size="13" lengthAdjust="spacing" textLength="7" x="1127.0797" y="473.6342">1</text><!--MD5=[49dab45482ce825a685ef99fd95a9156]
link VaccinationCenter to Coordinator--><path codeLine="123" d="M1024.29,429.0364 C1074.65,379.4264 1141.11,313.9464 1174.11,281.4464 " fill="none" id="VaccinationCenter-Coordinator" style="stroke:#A80036;stroke-width:1.0;"/><polygon fill="#000000" points="1073.5619,330.0233,1065.0558,334.2773,1069.1808,338.4647,1073.5619,330.0233" style="stroke:#000000;stroke-width:1.0;"/><text fill="#000000" font-family="sans-serif" font-size="13" lengthAdjust="spacing" textLength="21" x="1079" y="338.8516">has</text><text fill="#000000" font-family="sans-serif" font-size="13" lengthAdjust="spacing" textLength="7" x="1031.9233" y="436.3801">1</text><text fill="#000000" font-family="sans-serif" font-size="13" lengthAdjust="spacing" textLength="7" x="1160.1097" y="302.8913">1</text><!--MD5=[7f45cd623d65d6b71bd9dc1a08827f9d]
link Coordinator to VaccinationProcess--><path codeLine="125" d="M1244.12,261.3564 C1280.85,261.3564 1332.2,261.3564 1373.59,261.3564 " fill="none" id="Coordinator-VaccinationProcess" style="stroke:#A80036;stroke-width:1.0;"/><polygon fill="#000000" points="1289,252.5322,1279.9549,249.5933,1279.9549,255.4712,1289,252.5322" style="stroke:#000000;stroke-width:1.0;"/><text fill="#000000" font-family="sans-serif" font-size="13" lengthAdjust="spacing" textLength="50" x="1293" y="257.8516">monitors</text><text fill="#000000" font-family="sans-serif" font-size="13" lengthAdjust="spacing" textLength="7" x="1252.1009" y="276.1035">1</text><text fill="#000000" font-family="sans-serif" font-size="13" lengthAdjust="spacing" textLength="5" x="1361.0196" y="275.7031">*</text><!--MD5=[5bd8abec604a5efddd0fd669773de516]
link Receptionist to Schedule--><path codeLine="127" d="M541.51,376.6164 C550.2,384.7864 560.2,394.3864 569,403.3564 C618.58,453.8864 673.76,515.5864 704.33,550.2864 " fill="none" id="Receptionist-Schedule" style="stroke:#A80036;stroke-width:1.0;"/><polygon fill="#000000" points="607.4198,430.1799,603.3774,421.5711,599.0893,425.5913,607.4198,430.1799" style="stroke:#000000;stroke-width:1.0;"/><text fill="#000000" font-family="sans-serif" font-size="13" lengthAdjust="spacing" textLength="43" x="613" y="431.8516">creates</text><text fill="#000000" font-family="sans-serif" font-size="13" lengthAdjust="spacing" textLength="7" x="539.7533" y="397.7537">1</text><text fill="#000000" font-family="sans-serif" font-size="13" lengthAdjust="spacing" textLength="5" x="692.7073" y="539.2961">*</text><!--MD5=[b663e1a5626dc490590fd67fca32619d]
link Schedule to VaccinationCenter--><path codeLine="130" d="M771.12,568.4064 C797.52,562.1064 832.29,552.7764 862,541.3564 C871.83,537.5764 881.99,533.0964 891.85,528.4264 " fill="none" id="Schedule-VaccinationCenter" style="stroke:#A80036;stroke-width:1.0;"/><polygon fill="#000000" points="813.7535,534.104,823.2639,534.0505,821.4161,528.4707,813.7535,534.104" style="stroke:#000000;stroke-width:1.0;"/><text fill="#000000" font-family="sans-serif" font-size="13" lengthAdjust="spacing" textLength="21" x="827.5" y="537.8516">has</text><text fill="#000000" font-family="sans-serif" font-size="13" lengthAdjust="spacing" textLength="5" x="779.0679" y="581.7783">*</text><text fill="#000000" font-family="sans-serif" font-size="13" lengthAdjust="spacing" textLength="7" x="876.7967" y="546.9106">1</text><!--MD5=[fd59449717ce1c5334d382e3e36ca150]
link Schedule to VaccineType--><path codeLine="131" d="M740.39,604.6064 C751.92,632.0964 772.7,674.4864 801,703.3564 C823.04,725.8364 834.95,723.2564 862,739.3564 C878.36,749.0964 896.28,759.8264 912.1,769.3264 " fill="none" id="Schedule-VaccineType" style="stroke:#A80036;stroke-width:1.0;"/><polygon fill="#000000" points="822.1082,697.9936,817.6154,689.6111,813.5464,693.8528,822.1082,697.9936" style="stroke:#000000;stroke-width:1.0;"/><text fill="#000000" font-family="sans-serif" font-size="13" lengthAdjust="spacing" textLength="21" x="827.5" y="699.8516">has</text><text fill="#000000" font-family="sans-serif" font-size="13" lengthAdjust="spacing" textLength="5" x="737.3347" y="625.8689">*</text><text fill="#000000" font-family="sans-serif" font-size="13" lengthAdjust="spacing" textLength="7" x="893.0588" y="758.3458">1</text><!--MD5=[1073ccc13c21b6bdbf5afe44f6e76236]
link SNSUser to Schedule--><path codeLine="133" d="M1435.87,501.8664 C1425.27,554.6164 1400.54,631.8064 1344,668.3564 C1248.52,730.0764 893.32,628.2364 771.4,590.5264 " fill="none" id="SNSUser-Schedule" style="stroke:#A80036;stroke-width:1.0;"/><polygon fill="#000000" points="1054.0439,656.1935,1063.3982,657.9103,1062.6209,652.0841,1054.0439,656.1935" style="stroke:#000000;stroke-width:1.0;"/><text fill="#000000" font-family="sans-serif" font-size="13" lengthAdjust="spacing" textLength="43" x="1068" y="660.8516">creates</text><text fill="#000000" font-family="sans-serif" font-size="13" lengthAdjust="spacing" textLength="7" x="1427.3158" y="523.3817">1</text><text fill="#000000" font-family="sans-serif" font-size="13" lengthAdjust="spacing" textLength="5" x="779.1172" y="607.7045">*</text><!--MD5=[9e1bafab1e50b2a0c49aafba4881c2ec]
link SNSUser to UserVaccines--><path codeLine="134" d="M1486.69,430.4264 C1523.24,415.4064 1576.7,393.4364 1615.45,377.5164 " fill="none" id="SNSUser-UserVaccines" style="stroke:#A80036;stroke-width:1.0;"/><polygon fill="#000000" points="1554.6248,382.6318,1545.1415,383.3513,1547.3755,388.7881,1554.6248,382.6318" style="stroke:#000000;stroke-width:1.0;"/><text fill="#000000" font-family="sans-serif" font-size="13" lengthAdjust="spacing" textLength="21" x="1559" y="389.8516">has</text><text fill="#000000" font-family="sans-serif" font-size="13" lengthAdjust="spacing" textLength="7" x="1494.543" y="442.4015">1</text><text fill="#000000" font-family="sans-serif" font-size="13" lengthAdjust="spacing" textLength="5" x="1598.2978" y="397.5642">*</text><!--MD5=[d497e8607f1e7b3d570c70d67196006d]
link Administrator to VaccinationCenter--><path codeLine="136" d="M112.2,796.9964 C188.64,791.4164 333.94,772.6264 438,709.3564 C528.31,654.4564 504.8,582.2664 599,534.3564 C692.4,486.8464 816.84,483.9564 891.71,487.6364 " fill="none" id="Administrator-VaccinationCenter" style="stroke:#A80036;stroke-width:1.0;"/><polygon fill="#000000" points="494.1474,542.6878,484.6561,543.2927,486.8243,548.756,494.1474,542.6878" style="stroke:#000000;stroke-width:1.0;"/><text fill="#000000" font-family="sans-serif" font-size="13" lengthAdjust="spacing" textLength="53" x="498.5" y="549.8516">manages</text><text fill="#000000" font-family="sans-serif" font-size="13" lengthAdjust="spacing" textLength="7" x="120.1031" y="811.3094">1</text><text fill="#000000" font-family="sans-serif" font-size="13" lengthAdjust="spacing" textLength="5" x="879.1861" y="501.3895">*</text><!--MD5=[2b5fc2dce8eec1aafb1a3721aa50d3a4]
link Administrator to SNSUser--><path codeLine="137" d="M72.94,819.5464 C103.15,865.7764 185.32,975.3564 285.5,975.3564 C285.5,975.3564 285.5,975.3564 1196.5,975.3564 C1403.96,975.3564 1437.55,636.7764 1442.7,501.8764 " fill="none" id="Administrator-SNSUser" style="stroke:#A80036;stroke-width:1.0;"/><polygon fill="#000000" points="706.3707,965.4026,696.8955,964.5832,698.2235,970.309,706.3707,965.4026" style="stroke:#000000;stroke-width:1.0;"/><text fill="#000000" font-family="sans-serif" font-size="13" lengthAdjust="spacing" textLength="50" x="710.5" y="971.8516">registers</text><text fill="#000000" font-family="sans-serif" font-size="13" lengthAdjust="spacing" textLength="7" x="68.7356" y="841.0194">1</text><text fill="#000000" font-family="sans-serif" font-size="13" lengthAdjust="spacing" textLength="5" x="1437.1491" y="523.3929">*</text><!--MD5=[0e439f75a3d966f965fe5f237a1bacbe]
link Administrator to Vaccine--><path codeLine="138" d="M108.35,779.3164 C176.79,750.6464 301.16,698.5464 362.82,672.7164 " fill="none" id="Administrator-Vaccine" style="stroke:#A80036;stroke-width:1.0;"/><polygon fill="#000000" points="151.6117,726.6003,142.1335,727.3845,144.4046,732.8058,151.6117,726.6003" style="stroke:#000000;stroke-width:1.0;"/><text fill="#000000" font-family="sans-serif" font-size="13" lengthAdjust="spacing" textLength="53" x="156" y="733.8516">manages</text><text fill="#000000" font-family="sans-serif" font-size="13" lengthAdjust="spacing" textLength="7" x="114.6716" y="768.6264">1</text><text fill="#000000" font-family="sans-serif" font-size="13" lengthAdjust="spacing" textLength="5" x="349.9096" y="690.8775">*</text><!--MD5=[d0b477519989ed3601cd00d052224350]
link Administrator to VaccineType--><path codeLine="139" d="M90.7,819.5464 C132.57,845.5264 211.47,887.3564 285.5,887.3564 C285.5,887.3564 285.5,887.3564 730,887.3564 C799.42,887.3564 872.76,850.2364 916.7,823.4164 " fill="none" id="Administrator-VaccineType" style="stroke:#A80036;stroke-width:1.0;"/><polygon fill="#000000" points="494.4999,878.5557,485.4687,875.5744,485.4412,881.4522,494.4999,878.5557" style="stroke:#000000;stroke-width:1.0;"/><text fill="#000000" font-family="sans-serif" font-size="13" lengthAdjust="spacing" textLength="53" x="498.5" y="883.8516">manages</text><text fill="#000000" font-family="sans-serif" font-size="13" lengthAdjust="spacing" textLength="7" x="91.4906" y="841.0194">1</text><text fill="#000000" font-family="sans-serif" font-size="13" lengthAdjust="spacing" textLength="5" x="902.1188" y="844.6373">*</text><!--MD5=[22bbcbf40e65b3d4856df034c95819b3]
@startuml
hide methods
left to right direction
skinparam classAttributeIconSize 3



class Company{

}

class Coordinator{

}

class Nurse {


}

class Receptionist{

}

class Administrator{

}


class Employee{
    -name
    -phoneNumber
    -emailAddress
}

class VaccinationCenter {
    -name
    -address
    -phoneNumber
    -emailAddress
    -faxNumber
    -websiteAddress
    -openingHours
    -closingHours
    -slotDuration
    -maxNumVaxPerSlot
    -capacity

}

class Schedule{
    -dateTime
}

class SNSUser {
    -snsNumber
    -name
    -age
    -phoneNum
    -email
}

class UserVaccines{



}

class VaccineType{
    -disease

}

class Vaccine{
    -name
    -lotNum
}


class VaccinationProcess{
    -recoveryPeriod
}

class AgeGroup{
    -minAge
    -maxAge
}
class Dose{
    -doseNumber
    -dosage
}

class TimeInterval{
    -numDays
}

Company "1" - - "*" Employee: has >
Company "1" - - "*" SNSUser: has >
Company "1" - - "*" VaccineType: has >
Company "1" - - "*" Vaccine: has >
Company "1" - - "*" VaccinationCenter: has >

Employee "1" - - "1" Nurse: is <
Employee "1" - - "1" Receptionist: is <
Employee "1" - - "1" Coordinator: is <
Administrator "1" - - "*" Employee: Manages >

Employee "*" - - "*" VaccinationCenter: has <

Nurse "*" - - "1" VaccinationProcess: updates >
Nurse "1" - - "*" UserVaccines: updates >

Receptionist "1" - - "1" WaitingRoom: updates >
WaitingRoom "1" - - "*" SNSUser: has >

Vaccine "1" - - "1" VaccinationProcess: has >
Vaccine "*" - - "1" VaccineType: has >
VaccinationProcess "1" - - "*" AgeGroup: has >
AgeGroup "1" - - "*" Dose: has >
(AgeGroup, Dose) .. TimeInterval


VaccinationCenter "1" - - "1" WaitingRoom: has >
VaccinationCenter "1" - - "1" Coordinator: has >

Coordinator "1" - - "*" VaccinationProcess: monitors >

Receptionist "1" - - "*" Schedule: creates >


Schedule "*" - - "1" VaccinationCenter: has <
Schedule "*" - - "1" VaccineType: has >

SNSUser "1" - - "*" Schedule: creates >
SNSUser "1" - - "*" UserVaccines: has >

Administrator "1" - - "*" VaccinationCenter: manages >
Administrator "1" - - "*" SNSUser: registers >
Administrator "1" - - "*" Vaccine: manages >
Administrator "1" - - "*" VaccineType: manages >


@enduml

PlantUML version 1.2022.1(Tue Feb 01 18:19:58 GMT 2022)
(GPL source distribution)
Java Runtime: OpenJDK Runtime Environment
JVM: OpenJDK 64-Bit Server VM
Default Encoding: Cp1252
Language: en
Country: GB
--></g></svg>